<?xml version="1.0" encoding="UTF-8" standalone="no"?><svg xmlns="http://www.w3.org/2000/svg" xmlns:xlink="http://www.w3.org/1999/xlink" contentScriptType="application/ecmascript" contentStyleType="text/css" height="952px" preserveAspectRatio="none" style="width:444px;height:952px;background:#FFFFFF;" version="1.1" viewBox="0 0 444 952" width="444px" zoomAndPan="magnify"><defs><filter height="300%" id="f5tnf9w2y8s4x" width="300%" x="-1" y="-1"><feGaussianBlur result="blurOut" stdDeviation="2.0"/><feColorMatrix in="blurOut" result="blurOut2" type="matrix" values="0 0 0 0 0 0 0 0 0 0 0 0 0 0 0 0 0 0 .4 0"/><feOffset dx="4.0" dy="4.0" in="blurOut2" result="blurOut3"/><feBlend in="SourceGraphic" in2="blurOut3" mode="normal"/></filter></defs><g><!--MD5=[3c3c01ac9a1d5ac0bb24efc76063383f]
class GetProductBacklogSortedByPriorityUI--><rect codeLine="4" fill="#FEFECE" filter="url(#f5tnf9w2y8s4x)" height="32" id="GetProductBacklogSortedByPriorityUI" style="stroke:#A80036;stroke-width:1.5;" width="235" x="28" y="7"/><ellipse cx="43" cy="23" fill="#ADD1B2" rx="11" ry="11" style="stroke:#A80036;stroke-width:1.0;"/><path d="M45,19.5 Q45.2031,19 45.4375,18.75 Q45.6719,18.5 45.9375,18.5 Q46.4063,18.5 46.7031,18.7813 Q47,19.0625 47,19.7188 L47,21.2813 Q47,21.9375 46.7188,22.2188 Q46.4375,22.5 46,22.5 Q45.6094,22.5 45.3594,22.3281 Q45.1094,22.1563 45,21.7031 Q44.9531,21.3906 44.7813,21.2188 Q44.4688,20.8906 43.9063,20.7031 Q43.3438,20.5 42.7813,20.5 Q42.0781,20.5 41.4844,20.7813 Q40.9063,21.0625 40.4531,21.6875 Q40,22.3125 40,23.1719 L40,24.0938 Q40,25.125 40.8438,25.8125 Q41.6875,26.5 43.1875,26.5 Q44.0781,26.5 44.7031,26.2969 Q45.0625,26.1875 45.4688,25.8281 Q45.7344,25.625 45.875,25.5625 Q46.0156,25.5 46.1875,25.5 Q46.5156,25.5 46.75,25.7656 Q47,26.0156 47,26.375 Q47,26.7188 46.6563,27.125 Q46.1563,27.7188 45.3594,28.0469 Q44.3125,28.5 43.0313,28.5 Q41.5313,28.5 40.3281,27.9063 Q39.3594,27.4375 38.6719,26.4219 Q38,25.4063 38,24.2031 L38,23.1094 Q38,21.8594 38.5938,20.7656 Q39.2031,19.6719 40.25,19.0938 Q41.3125,18.5 42.5,18.5 Q43.2188,18.5 43.8438,18.75 Q44.4688,19 45,19.5 Z " fill="#000000"/><text fill="#000000" font-family="sans-serif" font-size="12" lengthAdjust="spacing" textLength="203" x="57" y="27.9102">GetProductBacklogSortedByPriorityUI</text><!--MD5=[8487f8855bf754e2b237043cda9ccf25]
class GetProductBacklogSortedByPriorityController--><rect codeLine="6" fill="#FEFECE" filter="url(#f5tnf9w2y8s4x)" height="89.5078" id="GetProductBacklogSortedByPriorityController" style="stroke:#A80036;stroke-width:1.5;" width="277" x="7" y="99"/><ellipse cx="22" cy="115" fill="#ADD1B2" rx="11" ry="11" style="stroke:#A80036;stroke-width:1.0;"/><path d="M24,111.5 Q24.2031,111 24.4375,110.75 Q24.6719,110.5 24.9375,110.5 Q25.4063,110.5 25.7031,110.7813 Q26,111.0625 26,111.7188 L26,113.2813 Q26,113.9375 25.7188,114.2188 Q25.4375,114.5 25,114.5 Q24.6094,114.5 24.3594,114.3281 Q24.1094,114.1563 24,113.7031 Q23.9531,113.3906 23.7813,113.2188 Q23.4688,112.8906 22.9063,112.7031 Q22.3438,112.5 21.7813,112.5 Q21.0781,112.5 20.4844,112.7813 Q19.9063,113.0625 19.4531,113.6875 Q19,114.3125 19,115.1719 L19,116.0938 Q19,117.125 19.8438,117.8125 Q20.6875,118.5 22.1875,118.5 Q23.0781,118.5 23.7031,118.2969 Q24.0625,118.1875 24.4688,117.8281 Q24.7344,117.625 24.875,117.5625 Q25.0156,117.5 25.1875,117.5 Q25.5156,117.5 25.75,117.7656 Q26,118.0156 26,118.375 Q26,118.7188 25.6563,119.125 Q25.1563,119.7188 24.3594,120.0469 Q23.3125,120.5 22.0313,120.5 Q20.5313,120.5 19.3281,119.9063 Q18.3594,119.4375 17.6719,118.4219 Q17,117.4063 17,116.2031 L17,115.1094 Q17,113.8594 17.5938,112.7656 Q18.2031,111.6719 19.25,111.0938 Q20.3125,110.5 21.5,110.5 Q22.2188,110.5 22.8438,110.75 Q23.4688,111 24,111.5 Z " fill="#000000"/><text fill="#000000" font-family="sans-serif" font-size="12" lengthAdjust="spacing" textLength="245" x="36" y="119.9102">GetProductBacklogSortedByPriorityController</text><line style="stroke:#A80036;stroke-width:1.5;" x1="8" x2="283" y1="131" y2="131"/><text fill="#000000" font-family="sans-serif" font-size="11" lengthAdjust="spacing" textLength="82" x="13" y="146.4189">dataManagement</text><line style="stroke:#A80036;stroke-width:1.5;" x1="8" x2="283" y1="152.8359" y2="152.8359"/><text fill="#000000" font-family="sans-serif" font-size="11" lengthAdjust="spacing" textLength="206" x="13" y="168.2549">sortProductBacklogByPriority(projectCode)</text><text fill="#000000" font-family="sans-serif" font-size="11" lengthAdjust="spacing" textLength="156" x="13" y="182.0908">getProductBacklog(projectCode)</text><!--MD5=[41fc1644ffe584d705042db0e6e760e1]
class DataManagement--><rect codeLine="12" fill="#FEFECE" filter="url(#f5tnf9w2y8s4x)" height="53.8359" id="DataManagement" style="stroke:#A80036;stroke-width:1.5;" width="130" x="139.5" y="249"/><ellipse cx="154.5" cy="265" fill="#ADD1B2" rx="11" ry="11" style="stroke:#A80036;stroke-width:1.0;"/><path d="M156.5,261.5 Q156.7031,261 156.9375,260.75 Q157.1719,260.5 157.4375,260.5 Q157.9063,260.5 158.2031,260.7813 Q158.5,261.0625 158.5,261.7188 L158.5,263.2813 Q158.5,263.9375 158.2188,264.2188 Q157.9375,264.5 157.5,264.5 Q157.1094,264.5 156.8594,264.3281 Q156.6094,264.1563 156.5,263.7031 Q156.4531,263.3906 156.2813,263.2188 Q155.9688,262.8906 155.4063,262.7031 Q154.8438,262.5 154.2813,262.5 Q153.5781,262.5 152.9844,262.7813 Q152.4063,263.0625 151.9531,263.6875 Q151.5,264.3125 151.5,265.1719 L151.5,266.0938 Q151.5,267.125 152.3438,267.8125 Q153.1875,268.5 154.6875,268.5 Q155.5781,268.5 156.2031,268.2969 Q156.5625,268.1875 156.9688,267.8281 Q157.2344,267.625 157.375,267.5625 Q157.5156,267.5 157.6875,267.5 Q158.0156,267.5 158.25,267.7656 Q158.5,268.0156 158.5,268.375 Q158.5,268.7188 158.1563,269.125 Q157.6563,269.7188 156.8594,270.0469 Q155.8125,270.5 154.5313,270.5 Q153.0313,270.5 151.8281,269.9063 Q150.8594,269.4375 150.1719,268.4219 Q149.5,267.4063 149.5,266.2031 L149.5,265.1094 Q149.5,263.8594 150.0938,262.7656 Q150.7031,261.6719 151.75,261.0938 Q152.8125,260.5 154,260.5 Q154.7188,260.5 155.3438,260.75 Q155.9688,261 156.5,261.5 Z " fill="#000000"/><text fill="#000000" font-family="sans-serif" font-size="12" lengthAdjust="spacing" textLength="98" x="168.5" y="269.9102">DataManagement</text><line style="stroke:#A80036;stroke-width:1.5;" x1="140.5" x2="268.5" y1="281" y2="281"/><text fill="#000000" font-family="sans-serif" font-size="11" lengthAdjust="spacing" textLength="82" x="145.5" y="296.4189">getProjectStore()</text><!--MD5=[0cf43f64de24b70e8ffe65ff9ee7abee]
class ProjectStore--><rect codeLine="16" fill="#FEFECE" filter="url(#f5tnf9w2y8s4x)" height="75.6719" id="ProjectStore" style="stroke:#A80036;stroke-width:1.5;" width="164" x="63.5" y="453"/><ellipse cx="107.75" cy="469" fill="#ADD1B2" rx="11" ry="11" style="stroke:#A80036;stroke-width:1.0;"/><path d="M109.75,465.5 Q109.9531,465 110.1875,464.75 Q110.4219,464.5 110.6875,464.5 Q111.1563,464.5 111.4531,464.7813 Q111.75,465.0625 111.75,465.7188 L111.75,467.2813 Q111.75,467.9375 111.4688,468.2188 Q111.1875,468.5 110.75,468.5 Q110.3594,468.5 110.1094,468.3281 Q109.8594,468.1563 109.75,467.7031 Q109.7031,467.3906 109.5313,467.2188 Q109.2188,466.8906 108.6563,466.7031 Q108.0938,466.5 107.5313,466.5 Q106.8281,466.5 106.2344,466.7813 Q105.6563,467.0625 105.2031,467.6875 Q104.75,468.3125 104.75,469.1719 L104.75,470.0938 Q104.75,471.125 105.5938,471.8125 Q106.4375,472.5 107.9375,472.5 Q108.8281,472.5 109.4531,472.2969 Q109.8125,472.1875 110.2188,471.8281 Q110.4844,471.625 110.625,471.5625 Q110.7656,471.5 110.9375,471.5 Q111.2656,471.5 111.5,471.7656 Q111.75,472.0156 111.75,472.375 Q111.75,472.7188 111.4063,473.125 Q110.9063,473.7188 110.1094,474.0469 Q109.0625,474.5 107.7813,474.5 Q106.2813,474.5 105.0781,473.9063 Q104.1094,473.4375 103.4219,472.4219 Q102.75,471.4063 102.75,470.2031 L102.75,469.1094 Q102.75,467.8594 103.3438,466.7656 Q103.9531,465.6719 105,465.0938 Q106.0625,464.5 107.25,464.5 Q107.9688,464.5 108.5938,464.75 Q109.2188,465 109.75,465.5 Z " fill="#000000"/><text fill="#000000" font-family="sans-serif" font-size="12" lengthAdjust="spacing" textLength="67" x="128.25" y="473.9102">ProjectStore</text><line style="stroke:#A80036;stroke-width:1.5;" x1="64.5" x2="226.5" y1="485" y2="485"/><text fill="#000000" font-family="sans-serif" font-size="11" lengthAdjust="spacing" textLength="118" x="69.5" y="500.4189">List&lt;Project&gt;: projectList</text><line style="stroke:#A80036;stroke-width:1.5;" x1="64.5" x2="226.5" y1="506.8359" y2="506.8359"/><text fill="#000000" font-family="sans-serif" font-size="11" lengthAdjust="spacing" textLength="152" x="69.5" y="522.2549">getProjectByCode(projectCode)</text><!--MD5=[79d378210367c0c6ec62ef762ddfbd1b]
class ProjectDeprecated--><rect codeLine="21" fill="#FEFECE" filter="url(#f5tnf9w2y8s4x)" height="255.5391" id="Project" style="stroke:#A80036;stroke-width:1.5;" width="168" x="262.5" y="363"/><ellipse cx="323.25" cy="379" fill="#ADD1B2" rx="11" ry="11" style="stroke:#A80036;stroke-width:1.0;"/><path d="M325.25,375.5 Q325.4531,375 325.6875,374.75 Q325.9219,374.5 326.1875,374.5 Q326.6563,374.5 326.9531,374.7813 Q327.25,375.0625 327.25,375.7188 L327.25,377.2813 Q327.25,377.9375 326.9688,378.2188 Q326.6875,378.5 326.25,378.5 Q325.8594,378.5 325.6094,378.3281 Q325.3594,378.1563 325.25,377.7031 Q325.2031,377.3906 325.0313,377.2188 Q324.7188,376.8906 324.1563,376.7031 Q323.5938,376.5 323.0313,376.5 Q322.3281,376.5 321.7344,376.7813 Q321.1563,377.0625 320.7031,377.6875 Q320.25,378.3125 320.25,379.1719 L320.25,380.0938 Q320.25,381.125 321.0938,381.8125 Q321.9375,382.5 323.4375,382.5 Q324.3281,382.5 324.9531,382.2969 Q325.3125,382.1875 325.7188,381.8281 Q325.9844,381.625 326.125,381.5625 Q326.2656,381.5 326.4375,381.5 Q326.7656,381.5 327,381.7656 Q327.25,382.0156 327.25,382.375 Q327.25,382.7188 326.9063,383.125 Q326.4063,383.7188 325.6094,384.0469 Q324.5625,384.5 323.2813,384.5 Q321.7813,384.5 320.5781,383.9063 Q319.6094,383.4375 318.9219,382.4219 Q318.25,381.4063 318.25,380.2031 L318.25,379.1094 Q318.25,377.8594 318.8438,376.7656 Q319.4531,375.6719 320.5,375.0938 Q321.5625,374.5 322.75,374.5 Q323.4688,374.5 324.0938,374.75 Q324.7188,375 325.25,375.5 Z " fill="#000000"/><text fill="#000000" font-family="sans-serif" font-size="12" lengthAdjust="spacing" textLength="38" x="343.75" y="383.9102">Project</text><line style="stroke:#A80036;stroke-width:1.5;" x1="263.5" x2="429.5" y1="395" y2="395"/><text fill="#000000" font-family="sans-serif" font-size="11" lengthAdjust="spacing" textLength="58" x="268.5" y="410.4189">String: code</text><text fill="#000000" font-family="sans-serif" font-size="11" lengthAdjust="spacing" textLength="60" x="268.5" y="424.2549">String: name</text><text fill="#000000" font-family="sans-serif" font-size="11" lengthAdjust="spacing" textLength="87" x="268.5" y="438.0908">String: description</text><text fill="#000000" font-family="sans-serif" font-size="11" lengthAdjust="spacing" textLength="71" x="268.5" y="451.9268">double: budget</text><text fill="#000000" font-family="sans-serif" font-size="11" lengthAdjust="spacing" textLength="91" x="268.5" y="465.7627">Typology: typology</text><text fill="#000000" font-family="sans-serif" font-size="11" lengthAdjust="spacing" textLength="156" x="268.5" y="479.5986">ProductBacklog: productBacklog</text><text fill="#000000" font-family="sans-serif" font-size="11" lengthAdjust="spacing" textLength="97" x="268.5" y="493.4346">Customer: customer</text><text fill="#000000" font-family="sans-serif" font-size="11" lengthAdjust="spacing" textLength="137" x="268.5" y="507.2705">int: numberOfPlannedSprints</text><text fill="#000000" font-family="sans-serif" font-size="11" lengthAdjust="spacing" textLength="64" x="268.5" y="521.1064">String: status</text><text fill="#000000" font-family="sans-serif" font-size="11" lengthAdjust="spacing" textLength="124" x="268.5" y="534.9424">ProjectTeam: projectTeam</text><text fill="#000000" font-family="sans-serif" font-size="11" lengthAdjust="spacing" textLength="98" x="268.5" y="548.7783">LocalDate: startDate</text><text fill="#000000" font-family="sans-serif" font-size="11" lengthAdjust="spacing" textLength="94" x="268.5" y="562.6143">LocalDate: endDate</text><text fill="#000000" font-family="sans-serif" font-size="11" lengthAdjust="spacing" textLength="122" x="268.5" y="576.4502">List&lt;Activity&gt;: activityList</text><text fill="#000000" font-family="sans-serif" font-size="11" lengthAdjust="spacing" textLength="107" x="268.5" y="590.2861">List&lt;Sprint&gt;: sprintList</text><line style="stroke:#A80036;stroke-width:1.5;" x1="263.5" x2="429.5" y1="596.7031" y2="596.7031"/><text fill="#000000" font-family="sans-serif" font-size="11" lengthAdjust="spacing" textLength="98" x="268.5" y="612.1221">getProductBacklog()</text><!--MD5=[91b5dce48d18c73d9cea267c757e6d47]
class ProductBacklog--><rect codeLine="39" fill="#FEFECE" filter="url(#f5tnf9w2y8s4x)" height="75.6719" id="ProductBacklog" style="stroke:#A80036;stroke-width:1.5;" width="161" x="266" y="679"/><ellipse cx="300.35" cy="695" fill="#ADD1B2" rx="11" ry="11" style="stroke:#A80036;stroke-width:1.0;"/><path d="M302.35,691.5 Q302.5531,691 302.7875,690.75 Q303.0219,690.5 303.2875,690.5 Q303.7563,690.5 304.0531,690.7813 Q304.35,691.0625 304.35,691.7188 L304.35,693.2813 Q304.35,693.9375 304.0688,694.2188 Q303.7875,694.5 303.35,694.5 Q302.9594,694.5 302.7094,694.3281 Q302.4594,694.1563 302.35,693.7031 Q302.3031,693.3906 302.1313,693.2188 Q301.8188,692.8906 301.2563,692.7031 Q300.6938,692.5 300.1313,692.5 Q299.4281,692.5 298.8344,692.7813 Q298.2563,693.0625 297.8031,693.6875 Q297.35,694.3125 297.35,695.1719 L297.35,696.0938 Q297.35,697.125 298.1938,697.8125 Q299.0375,698.5 300.5375,698.5 Q301.4281,698.5 302.0531,698.2969 Q302.4125,698.1875 302.8188,697.8281 Q303.0844,697.625 303.225,697.5625 Q303.3656,697.5 303.5375,697.5 Q303.8656,697.5 304.1,697.7656 Q304.35,698.0156 304.35,698.375 Q304.35,698.7188 304.0063,699.125 Q303.5063,699.7188 302.7094,700.0469 Q301.6625,700.5 300.3813,700.5 Q298.8813,700.5 297.6781,699.9063 Q296.7094,699.4375 296.0219,698.4219 Q295.35,697.4063 295.35,696.2031 L295.35,695.1094 Q295.35,693.8594 295.9438,692.7656 Q296.5531,691.6719 297.6,691.0938 Q298.6625,690.5 299.85,690.5 Q300.5688,690.5 301.1938,690.75 Q301.8188,691 302.35,691.5 Z " fill="#000000"/><text fill="#000000" font-family="sans-serif" font-size="12" lengthAdjust="spacing" textLength="86" x="318.65" y="699.9102">ProductBacklog</text><line style="stroke:#A80036;stroke-width:1.5;" x1="267" x2="426" y1="711" y2="711"/><text fill="#000000" font-family="sans-serif" font-size="11" lengthAdjust="spacing" textLength="149" x="272" y="726.4189">List&lt;UserStory&gt;: userStoryList</text><line style="stroke:#A80036;stroke-width:1.5;" x1="267" x2="426" y1="732.8359" y2="732.8359"/><text fill="#000000" font-family="sans-serif" font-size="11" lengthAdjust="spacing" textLength="148" x="272" y="748.2549">sortProductBacklogByPriority()</text><!--MD5=[daa6dd44d8f60c5a9cd695bb66773862]
class UserStory--><rect codeLine="44" fill="#FEFECE" filter="url(#f5tnf9w2y8s4x)" height="123.0156" id="UserStory" style="stroke:#A80036;stroke-width:1.5;" width="106" x="293.5" y="815"/><ellipse cx="317.5" cy="831" fill="#ADD1B2" rx="11" ry="11" style="stroke:#A80036;stroke-width:1.0;"/><path d="M319.5,827.5 Q319.7031,827 319.9375,826.75 Q320.1719,826.5 320.4375,826.5 Q320.9063,826.5 321.2031,826.7813 Q321.5,827.0625 321.5,827.7188 L321.5,829.2813 Q321.5,829.9375 321.2188,830.2188 Q320.9375,830.5 320.5,830.5 Q320.1094,830.5 319.8594,830.3281 Q319.6094,830.1563 319.5,829.7031 Q319.4531,829.3906 319.2813,829.2188 Q318.9688,828.8906 318.4063,828.7031 Q317.8438,828.5 317.2813,828.5 Q316.5781,828.5 315.9844,828.7813 Q315.4063,829.0625 314.9531,829.6875 Q314.5,830.3125 314.5,831.1719 L314.5,832.0938 Q314.5,833.125 315.3438,833.8125 Q316.1875,834.5 317.6875,834.5 Q318.5781,834.5 319.2031,834.2969 Q319.5625,834.1875 319.9688,833.8281 Q320.2344,833.625 320.375,833.5625 Q320.5156,833.5 320.6875,833.5 Q321.0156,833.5 321.25,833.7656 Q321.5,834.0156 321.5,834.375 Q321.5,834.7188 321.1563,835.125 Q320.6563,835.7188 319.8594,836.0469 Q318.8125,836.5 317.5313,836.5 Q316.0313,836.5 314.8281,835.9063 Q313.8594,835.4375 313.1719,834.4219 Q312.5,833.4063 312.5,832.2031 L312.5,831.1094 Q312.5,829.8594 313.0938,828.7656 Q313.7031,827.6719 314.75,827.0938 Q315.8125,826.5 317,826.5 Q317.7188,826.5 318.3438,826.75 Q318.9688,827 319.5,827.5 Z " fill="#000000"/><text fill="#000000" font-family="sans-serif" font-size="12" lengthAdjust="spacing" textLength="54" x="333.5" y="835.9102">UserStory</text><line style="stroke:#A80036;stroke-width:1.5;" x1="294.5" x2="398.5" y1="847" y2="847"/><text fill="#000000" font-family="sans-serif" font-size="11" lengthAdjust="spacing" textLength="87" x="299.5" y="862.4189">String: description</text><text fill="#000000" font-family="sans-serif" font-size="11" lengthAdjust="spacing" textLength="94" x="299.5" y="876.2549">List&lt;Task&gt;: task list</text><text fill="#000000" font-family="sans-serif" font-size="11" lengthAdjust="spacing" textLength="64" x="299.5" y="890.0908">String: status</text><text fill="#000000" font-family="sans-serif" font-size="11" lengthAdjust="spacing" textLength="57" x="299.5" y="903.9268">int: parentID</text><text fill="#000000" font-family="sans-serif" font-size="11" lengthAdjust="spacing" textLength="44" x="299.5" y="917.7627">int: effort</text><text fill="#000000" font-family="sans-serif" font-size="11" lengthAdjust="spacing" textLength="50" x="299.5" y="931.5986">int: priority</text><!--MD5=[de5792a5ff2497a8b0eafbc5788ec9a6]
link GetProductBacklogSortedByPriorityUI to GetProductBacklogSortedByPriorityController--><path codeLine="53" d="M145.5,39.07 C145.5,49.39 145.5,63.85 145.5,78.71 " fill="none" id="GetProductBacklogSortedByPriorityUI-to-GetProductBacklogSortedByPriorityController" style="stroke:#A80036;stroke-width:1.0;stroke-dasharray:7.0,7.0;"/><polygon fill="none" points="152.5,78.88,145.5,98.88,138.5,78.88,152.5,78.88" style="stroke:#A80036;stroke-width:1.0;"/><!--MD5=[3787114e5be77bbb7a09444ec94ccbc5]
link GetProductBacklogSortedByPriorityController to DataManagement--><path codeLine="54" d="M165.47,189.01 C174.5,208.9 184.86,231.73 192.64,248.86 " fill="none" id="GetProductBacklogSortedByPriorityController-DataManagement" style="stroke:#A80036;stroke-width:1.0;"/><text fill="#000000" font-family="sans-serif" font-size="13" lengthAdjust="spacing" textLength="28" x="158.6599" y="238.2886">uses</text><!--MD5=[2f2b79f5029f943bcab7fce5f3a7b3b6]
link GetProductBacklogSortedByPriorityController to ProjectStore--><path codeLine="55" d="M132.98,189.15 C128.39,207.5 123.76,229.12 121.5,249 C114.33,311.92 123.91,384.21 133,433.08 " fill="none" id="GetProductBacklogSortedByPriorityController-to-ProjectStore" style="stroke:#A80036;stroke-width:1.0;stroke-dasharray:7.0,7.0;"/><polygon fill="none" points="139.89,431.83,136.89,452.81,126.15,434.54,139.89,431.83" style="stroke:#A80036;stroke-width:1.0;"/><text fill="#000000" font-family="sans-serif" font-size="13" lengthAdjust="spacing" textLength="25" x="108.1298" y="442.1381">gets</text><!--MD5=[e49256ec62a64c0e2589668b84841744]
link DataManagement to ProjectStore--><path codeLine="56" d="M197.27,303.12 C186.86,340.67 167.64,410.08 155.77,452.93 " fill="none" id="DataManagement-ProjectStore" style="stroke:#A80036;stroke-width:1.0;"/><!--MD5=[626cc0adcc6c3eabfe261ec19000087f]
link ProjectStore to ProjectDeprecated--><path codeLine="57" d="M227.55,491 C239.17,491 250.78,491 262.4,491 " fill="none" id="ProjectStore-Project" style="stroke:#A80036;stroke-width:1.0;"/><!--MD5=[2dee92360f00b603e7ba5f8f02cfe98b]
reverse link ProjectDeprecated to ProductBacklog--><path codeLine="58" d="M346.5,632.17 C346.5,649.12 346.5,665.15 346.5,678.57 " fill="none" id="Project-backto-ProductBacklog" style="stroke:#A80036;stroke-width:1.0;"/><polygon fill="#FFFFFF" points="346.5,619.05,342.5,625.05,346.5,631.05,350.5,625.05,346.5,619.05" style="stroke:#A80036;stroke-width:1.0;"/><text fill="#000000" font-family="sans-serif" font-size="13" lengthAdjust="spacing" textLength="7" x="339.3086" y="640.0076">1</text><text fill="#000000" font-family="sans-serif" font-size="13" lengthAdjust="spacing" textLength="21" x="323.6953" y="668.1434">has</text><!--MD5=[da621f2c22940e0851cb37e196c44e0e]
reverse link ProductBacklog to UserStory--><path codeLine="59" d="M346.5,768.37 C346.5,783.13 346.5,799.41 346.5,814.74 " fill="none" id="ProductBacklog-backto-UserStory" style="stroke:#A80036;stroke-width:1.0;"/><polygon fill="#FFFFFF" points="346.5,755.33,342.5,761.33,346.5,767.33,350.5,761.33,346.5,755.33" style="stroke:#A80036;stroke-width:1.0;"/><text fill="#000000" font-family="sans-serif" font-size="13" lengthAdjust="spacing" textLength="7" x="338.9422" y="776.2631">1</text><text fill="#000000" font-family="sans-serif" font-size="13" lengthAdjust="spacing" textLength="92" x="249.1813" y="804.1885">is composed by</text><!--MD5=[5e81ad96f62bd12a1117c6a12277c709]
@startuml
'https://plantuml.com/class-diagram
hide empty members

class GetProductBacklogSortedByPriorityUI

class GetProductBacklogSortedByPriorityController{
    dataManagement
    sortProductBacklogByPriority(projectCode)
    getProductBacklog(projectCode)
    }

class DataManagement{
    getProjectStore()
}

class ProjectStore{
    List<ProjectDeprecated>: projectList
    getProjectByCode(projectCode)
}

class ProjectDeprecated{
        String: code
        String: name
        String: projectDescription
        double: projectBudget
        Typology: typologyDescription
        ProductBacklog: productBacklog
        Customer: customer
        int: projectNumberOfPlannedSprints
        String: status
        ProjectTeam: projectTeam
        LocalDate: startDate
        LocalDate: endDate
        List<Activity>: activityList
        List<Sprint>: sprintList
    getProductBacklog()
}

class ProductBacklog{
    List<UserStory>: userStoryList
    sortProductBacklogByPriority()
}

class UserStory {
    String: projectDescription
    List<Task>: task list
    String: status
    int: parentID
    int: effort
    int: priority
}

GetProductBacklogSortedByPriorityUI ..|>  GetProductBacklogSortedByPriorityController
GetProductBacklogSortedByPriorityController - - "uses" DataManagement
GetProductBacklogSortedByPriorityController ..|>  "gets" ProjectStore
DataManagement - - ProjectStore
ProjectStore -r- ProjectDeprecated
ProjectDeprecated "1" o- - "has" ProductBacklog
ProductBacklog  "1" o- - "is composed by"UserStory


@enduml

@startuml
hide empty members

class GetProductBacklogSortedByPriorityUI

class GetProductBacklogSortedByPriorityController{
    dataManagement
    sortProductBacklogByPriority(projectCode)
    getProductBacklog(projectCode)
    }

class DataManagement{
    getProjectStore()
}

class ProjectStore{
    List<ProjectDeprecated>: projectList
    getProjectByCode(projectCode)
}

class ProjectDeprecated{
        String: code
        String: name
        String: projectDescription
        double: projectBudget
        Typology: typologyDescription
        ProductBacklog: productBacklog
        Customer: customer
        int: projectNumberOfPlannedSprints
        String: status
        ProjectTeam: projectTeam
        LocalDate: startDate
        LocalDate: endDate
        List<Activity>: activityList
        List<Sprint>: sprintList
    getProductBacklog()
}

class ProductBacklog{
    List<UserStory>: userStoryList
    sortProductBacklogByPriority()
}

class UserStory {
    String: projectDescription
    List<Task>: task list
    String: status
    int: parentID
    int: effort
    int: priority
}

GetProductBacklogSortedByPriorityUI ..|>  GetProductBacklogSortedByPriorityController
GetProductBacklogSortedByPriorityController - - "uses" DataManagement
GetProductBacklogSortedByPriorityController ..|>  "gets" ProjectStore
DataManagement - - ProjectStore
ProjectStore -r- ProjectDeprecated
ProjectDeprecated "1" o- - "has" ProductBacklog
ProductBacklog  "1" o- - "is composed by"UserStory


@enduml

PlantUML version 1.2022.0(Tue Jan 11 16:16:42 GMT 2022)
(GPL source distribution)
Java Runtime: OpenJDK Runtime Environment
JVM: OpenJDK 64-Bit Server VM
Default Encoding: Cp1252
Language: en
Country: GB
--></g></svg>