<?xml version="1.0" encoding="UTF-8" standalone="no"?><svg xmlns="http://www.w3.org/2000/svg" xmlns:xlink="http://www.w3.org/1999/xlink" contentScriptType="application/ecmascript" contentStyleType="text/css" height="207px" preserveAspectRatio="none" style="width:479px;height:207px;background:#FFFFFF;" version="1.1" viewBox="0 0 479 207" width="479px" zoomAndPan="magnify"><defs><filter height="300%" id="fgyfv0yecw721" width="300%" x="-1" y="-1"><feGaussianBlur result="blurOut" stdDeviation="2.0"/><feColorMatrix in="blurOut" result="blurOut2" type="matrix" values="0 0 0 0 0 0 0 0 0 0 0 0 0 0 0 0 0 0 .4 0"/><feOffset dx="4.0" dy="4.0" in="blurOut2" result="blurOut3"/><feBlend in="SourceGraphic" in2="blurOut3" mode="normal"/></filter></defs><g><!--MD5=[79d378210367c0c6ec62ef762ddfbd1b]
class ProjectDeprecated--><rect codeLine="5" fill="#FEFECE" filter="url(#fgyfv0yecw721)" height="186.3594" id="Project" style="stroke:#A80036;stroke-width:1.5;" width="139" x="326.5" y="7"/><ellipse cx="372.75" cy="23" fill="#ADD1B2" rx="11" ry="11" style="stroke:#A80036;stroke-width:1.0;"/><path d="M374.75,19.5 Q374.9531,19 375.1875,18.75 Q375.4219,18.5 375.6875,18.5 Q376.1563,18.5 376.4531,18.7813 Q376.75,19.0625 376.75,19.7188 L376.75,21.2813 Q376.75,21.9375 376.4688,22.2188 Q376.1875,22.5 375.75,22.5 Q375.3594,22.5 375.1094,22.3281 Q374.8594,22.1563 374.75,21.7031 Q374.7031,21.3906 374.5313,21.2188 Q374.2188,20.8906 373.6563,20.7031 Q373.0938,20.5 372.5313,20.5 Q371.8281,20.5 371.2344,20.7813 Q370.6563,21.0625 370.2031,21.6875 Q369.75,22.3125 369.75,23.1719 L369.75,24.0938 Q369.75,25.125 370.5938,25.8125 Q371.4375,26.5 372.9375,26.5 Q373.8281,26.5 374.4531,26.2969 Q374.8125,26.1875 375.2188,25.8281 Q375.4844,25.625 375.625,25.5625 Q375.7656,25.5 375.9375,25.5 Q376.2656,25.5 376.5,25.7656 Q376.75,26.0156 376.75,26.375 Q376.75,26.7188 376.4063,27.125 Q375.9063,27.7188 375.1094,28.0469 Q374.0625,28.5 372.7813,28.5 Q371.2813,28.5 370.0781,27.9063 Q369.1094,27.4375 368.4219,26.4219 Q367.75,25.4063 367.75,24.2031 L367.75,23.1094 Q367.75,21.8594 368.3438,20.7656 Q368.9531,19.6719 370,19.0938 Q371.0625,18.5 372.25,18.5 Q372.9688,18.5 373.5938,18.75 Q374.2188,19 374.75,19.5 Z " fill="#000000"/><text fill="#000000" font-family="sans-serif" font-size="12" lengthAdjust="spacing" textLength="38" x="393.25" y="27.9102">Project</text><line style="stroke:#A80036;stroke-width:1.5;" x1="327.5" x2="464.5" y1="39" y2="39"/><text fill="#000000" font-family="sans-serif" font-size="11" lengthAdjust="spacing" textLength="25" x="332.5" y="54.4189">Code</text><text fill="#000000" font-family="sans-serif" font-size="11" lengthAdjust="spacing" textLength="27" x="332.5" y="68.2549">Name</text><text fill="#000000" font-family="sans-serif" font-size="11" lengthAdjust="spacing" textLength="54" x="332.5" y="82.0908">Description</text><text fill="#000000" font-family="sans-serif" font-size="11" lengthAdjust="spacing" textLength="127" x="332.5" y="95.9268">Number of planned sprints</text><text fill="#000000" font-family="sans-serif" font-size="11" lengthAdjust="spacing" textLength="31" x="332.5" y="109.7627">Status</text><text fill="#000000" font-family="sans-serif" font-size="11" lengthAdjust="spacing" textLength="47" x="332.5" y="123.5986">Start date</text><text fill="#000000" font-family="sans-serif" font-size="11" lengthAdjust="spacing" textLength="42" x="332.5" y="137.4346">End date</text><text fill="#000000" font-family="sans-serif" font-size="11" lengthAdjust="spacing" textLength="34" x="332.5" y="151.2705">Budget</text><text fill="#000000" font-family="sans-serif" font-size="11" lengthAdjust="spacing" textLength="106" x="332.5" y="165.1064">Sprint default duration</text><text fill="#000000" font-family="sans-serif" font-size="11" lengthAdjust="spacing" textLength="44" x="332.5" y="178.9424">Sprint list</text><line style="stroke:#A80036;stroke-width:1.5;" x1="327.5" x2="464.5" y1="185.3594" y2="185.3594"/><!--MD5=[3fd616f346a44cd59a91eb10b19e157c]
class User--><rect codeLine="18" fill="#FEFECE" filter="url(#fgyfv0yecw721)" height="144.8516" id="User" style="stroke:#A80036;stroke-width:1.5;" width="62" x="7" y="27.5"/><ellipse cx="23.35" cy="43.5" fill="#ADD1B2" rx="11" ry="11" style="stroke:#A80036;stroke-width:1.0;"/><path d="M25.35,40 Q25.5531,39.5 25.7875,39.25 Q26.0219,39 26.2875,39 Q26.7563,39 27.0531,39.2813 Q27.35,39.5625 27.35,40.2188 L27.35,41.7813 Q27.35,42.4375 27.0688,42.7188 Q26.7875,43 26.35,43 Q25.9594,43 25.7094,42.8281 Q25.4594,42.6563 25.35,42.2031 Q25.3031,41.8906 25.1313,41.7188 Q24.8188,41.3906 24.2563,41.2031 Q23.6938,41 23.1313,41 Q22.4281,41 21.8344,41.2813 Q21.2563,41.5625 20.8031,42.1875 Q20.35,42.8125 20.35,43.6719 L20.35,44.5938 Q20.35,45.625 21.1938,46.3125 Q22.0375,47 23.5375,47 Q24.4281,47 25.0531,46.7969 Q25.4125,46.6875 25.8188,46.3281 Q26.0844,46.125 26.225,46.0625 Q26.3656,46 26.5375,46 Q26.8656,46 27.1,46.2656 Q27.35,46.5156 27.35,46.875 Q27.35,47.2188 27.0063,47.625 Q26.5063,48.2188 25.7094,48.5469 Q24.6625,49 23.3813,49 Q21.8813,49 20.6781,48.4063 Q19.7094,47.9375 19.0219,46.9219 Q18.35,45.9063 18.35,44.7031 L18.35,43.6094 Q18.35,42.3594 18.9438,41.2656 Q19.5531,40.1719 20.6,39.5938 Q21.6625,39 22.85,39 Q23.5688,39 24.1938,39.25 Q24.8188,39.5 25.35,40 Z " fill="#000000"/><text fill="#000000" font-family="sans-serif" font-size="12" lengthAdjust="spacing" textLength="27" x="37.65" y="48.4102">User</text><line style="stroke:#A80036;stroke-width:1.5;" x1="8" x2="68" y1="59.5" y2="59.5"/><text fill="#000000" font-family="sans-serif" font-size="11" lengthAdjust="spacing" textLength="35" x="13" y="74.9189">User ID</text><text fill="#000000" font-family="sans-serif" font-size="11" lengthAdjust="spacing" textLength="27" x="13" y="88.7549">Name</text><text fill="#000000" font-family="sans-serif" font-size="11" lengthAdjust="spacing" textLength="41" x="13" y="102.5908">Function</text><text fill="#000000" font-family="sans-serif" font-size="11" lengthAdjust="spacing" textLength="27" x="13" y="116.4268">Photo</text><text fill="#000000" font-family="sans-serif" font-size="11" lengthAdjust="spacing" textLength="50" x="13" y="130.2627">Password</text><text fill="#000000" font-family="sans-serif" font-size="11" lengthAdjust="spacing" textLength="24" x="13" y="144.0986">Email</text><text fill="#000000" font-family="sans-serif" font-size="11" lengthAdjust="spacing" textLength="31" x="13" y="157.9346">Status</text><line style="stroke:#A80036;stroke-width:1.5;" x1="8" x2="68" y1="164.3516" y2="164.3516"/><!--MD5=[dc0f081acc715861eb6596bb40aebf04]
link User to ProjectDeprecated--><path codeLine="28" d="M69.14,100 C126.13,100 248.47,100 326.25,100 " fill="none" id="User-Project" style="stroke:#A80036;stroke-width:1.0;"/><text fill="#000000" font-family="sans-serif" font-size="13" lengthAdjust="spacing" textLength="221" x="87.25" y="93.4951">projectDeprecated manager edit static information</text><text fill="#000000" font-family="sans-serif" font-size="13" lengthAdjust="spacing" textLength="7" x="77.1505" y="95.7029">1</text><text fill="#000000" font-family="sans-serif" font-size="13" lengthAdjust="spacing" textLength="7" x="311.6961" y="96.6697">1</text><!--MD5=[27990fbbedbe821dcdd9c8337064354c]
@startuml
'https://plantuml.com/class-diagram

class ProjectDeprecated

class ProjectDeprecated {
ProjectCode
Name
Description
Number of planned sprints
Status
Start date
End date
ProjectBudget
Sprint default duration
Sprint list
}

class User {
User ID
Name
Function
Photo
Password
Email
Status
}

User "1" -right- "1" ProjectDeprecated: projectDeprecated manager edit static information

@enduml

@startuml

class ProjectDeprecated

class ProjectDeprecated {
ProjectCode
Name
Description
Number of planned sprints
Status
Start date
End date
ProjectBudget
Sprint default duration
Sprint list
}

class User {
User ID
Name
Function
Photo
Password
Email
Status
}

User "1" -right- "1" ProjectDeprecated: projectDeprecated manager edit static information

@enduml

PlantUML version 1.2021.11(Sat Oct 02 14:26:11 BST 2021)
(GPL source distribution)
Java Runtime: OpenJDK Runtime Environment
JVM: OpenJDK 64-Bit Server VM
Default Encoding: Cp1252
Language: pt
Country: PT
--></g></svg>