<?xml version="1.0" encoding="UTF-8" standalone="no"?><svg xmlns="http://www.w3.org/2000/svg" xmlns:xlink="http://www.w3.org/1999/xlink" contentScriptType="application/ecmascript" contentStyleType="text/css" height="911px" preserveAspectRatio="none" style="width:772px;height:911px;background:#FFFFFF;" version="1.1" viewBox="0 0 772 911" width="772px" zoomAndPan="magnify"><defs><filter height="300%" id="f1e6olauarg7m" width="300%" x="-1" y="-1"><feGaussianBlur result="blurOut" stdDeviation="2.0"/><feColorMatrix in="blurOut" result="blurOut2" type="matrix" values="0 0 0 0 0 0 0 0 0 0 0 0 0 0 0 0 0 0 .4 0"/><feOffset dx="4.0" dy="4.0" in="blurOut2" result="blurOut3"/><feBlend in="SourceGraphic" in2="blurOut3" mode="normal"/></filter></defs><g><!--MD5=[9681dc6e01e10c6b4fe06895ae94f592]
cluster UI--><polygon fill="#FFFFFF" filter="url(#f1e6olauarg7m)" points="297,6,317,6,324,29.6094,449,29.6094,449,106,297,106,297,6" style="stroke:#000000;stroke-width:1.5;"/><line style="stroke:#000000;stroke-width:1.5;" x1="297" x2="324" y1="29.6094" y2="29.6094"/><text fill="#000000" font-family="sans-serif" font-size="14" font-weight="bold" lengthAdjust="spacing" textLength="14" x="301" y="22.5332">UI</text><!--MD5=[1f2cfc53d9d308f53762fd0fcbaa4873]
cluster Controller--><polygon fill="#FFFFFF" filter="url(#f1e6olauarg7m)" points="16,130,93,130,100,153.6094,730,153.6094,730,244,16,244,16,130" style="stroke:#000000;stroke-width:1.5;"/><line style="stroke:#000000;stroke-width:1.5;" x1="16" x2="100" y1="153.6094" y2="153.6094"/><text fill="#000000" font-family="sans-serif" font-size="14" font-weight="bold" lengthAdjust="spacing" textLength="71" x="20" y="146.5332">Controller</text><!--MD5=[15636c1ca4a123c16a2a1a8e90aca7a9]
cluster Model--><polygon fill="#FFFFFF" filter="url(#f1e6olauarg7m)" points="41,313,91,313,98,336.6094,755,336.6094,755,904,41,904,41,313" style="stroke:#000000;stroke-width:1.5;"/><line style="stroke:#000000;stroke-width:1.5;" x1="41" x2="98" y1="336.6094" y2="336.6094"/><text fill="#000000" font-family="sans-serif" font-size="14" font-weight="bold" lengthAdjust="spacing" textLength="44" x="45" y="329.5332">Model</text><!--MD5=[6e0f7c838d6468c96e73675bff3b2344]
class CreateProjectUI--><rect codeLine="4" fill="#FEFECE" filter="url(#f1e6olauarg7m)" height="48" id="CreateProjectUI" style="stroke:#A80036;stroke-width:1.5;" width="119" x="313.5" y="42"/><ellipse cx="328.5" cy="58" fill="#ADD1B2" rx="11" ry="11" style="stroke:#A80036;stroke-width:1.0;"/><path d="M330.5,54.5 Q330.7031,54 330.9375,53.75 Q331.1719,53.5 331.4375,53.5 Q331.9063,53.5 332.2031,53.7813 Q332.5,54.0625 332.5,54.7188 L332.5,56.2813 Q332.5,56.9375 332.2188,57.2188 Q331.9375,57.5 331.5,57.5 Q331.1094,57.5 330.8594,57.3281 Q330.6094,57.1563 330.5,56.7031 Q330.4531,56.3906 330.2813,56.2188 Q329.9688,55.8906 329.4063,55.7031 Q328.8438,55.5 328.2813,55.5 Q327.5781,55.5 326.9844,55.7813 Q326.4063,56.0625 325.9531,56.6875 Q325.5,57.3125 325.5,58.1719 L325.5,59.0938 Q325.5,60.125 326.3438,60.8125 Q327.1875,61.5 328.6875,61.5 Q329.5781,61.5 330.2031,61.2969 Q330.5625,61.1875 330.9688,60.8281 Q331.2344,60.625 331.375,60.5625 Q331.5156,60.5 331.6875,60.5 Q332.0156,60.5 332.25,60.7656 Q332.5,61.0156 332.5,61.375 Q332.5,61.7188 332.1563,62.125 Q331.6563,62.7188 330.8594,63.0469 Q329.8125,63.5 328.5313,63.5 Q327.0313,63.5 325.8281,62.9063 Q324.8594,62.4375 324.1719,61.4219 Q323.5,60.4063 323.5,59.2031 L323.5,58.1094 Q323.5,56.8594 324.0938,55.7656 Q324.7031,54.6719 325.75,54.0938 Q326.8125,53.5 328,53.5 Q328.7188,53.5 329.3438,53.75 Q329.9688,54 330.5,54.5 Z " fill="#000000"/><text fill="#000000" font-family="sans-serif" font-size="12" lengthAdjust="spacing" textLength="87" x="342.5" y="62.9102">CreateProjectUI</text><line style="stroke:#A80036;stroke-width:1.5;" x1="314.5" x2="431.5" y1="74" y2="74"/><line style="stroke:#A80036;stroke-width:1.5;" x1="314.5" x2="431.5" y1="82" y2="82"/><!--MD5=[f26d270843f3c9fa3e20577f5f935932]
class CreateProjectController--><rect codeLine="8" fill="#FEFECE" filter="url(#f1e6olauarg7m)" height="61.8359" id="CreateProjectController" style="stroke:#A80036;stroke-width:1.5;" width="681" x="32.5" y="166"/><ellipse cx="304.25" cy="182" fill="#ADD1B2" rx="11" ry="11" style="stroke:#A80036;stroke-width:1.0;"/><path d="M306.25,178.5 Q306.4531,178 306.6875,177.75 Q306.9219,177.5 307.1875,177.5 Q307.6563,177.5 307.9531,177.7813 Q308.25,178.0625 308.25,178.7188 L308.25,180.2813 Q308.25,180.9375 307.9688,181.2188 Q307.6875,181.5 307.25,181.5 Q306.8594,181.5 306.6094,181.3281 Q306.3594,181.1563 306.25,180.7031 Q306.2031,180.3906 306.0313,180.2188 Q305.7188,179.8906 305.1563,179.7031 Q304.5938,179.5 304.0313,179.5 Q303.3281,179.5 302.7344,179.7813 Q302.1563,180.0625 301.7031,180.6875 Q301.25,181.3125 301.25,182.1719 L301.25,183.0938 Q301.25,184.125 302.0938,184.8125 Q302.9375,185.5 304.4375,185.5 Q305.3281,185.5 305.9531,185.2969 Q306.3125,185.1875 306.7188,184.8281 Q306.9844,184.625 307.125,184.5625 Q307.2656,184.5 307.4375,184.5 Q307.7656,184.5 308,184.7656 Q308.25,185.0156 308.25,185.375 Q308.25,185.7188 307.9063,186.125 Q307.4063,186.7188 306.6094,187.0469 Q305.5625,187.5 304.2813,187.5 Q302.7813,187.5 301.5781,186.9063 Q300.6094,186.4375 299.9219,185.4219 Q299.25,184.4063 299.25,183.2031 L299.25,182.1094 Q299.25,180.8594 299.8438,179.7656 Q300.4531,178.6719 301.5,178.0938 Q302.5625,177.5 303.75,177.5 Q304.4688,177.5 305.0938,177.75 Q305.7188,178 306.25,178.5 Z " fill="#000000"/><text fill="#000000" font-family="sans-serif" font-size="12" lengthAdjust="spacing" textLength="129" x="324.75" y="186.9102">CreateProjectController</text><line style="stroke:#A80036;stroke-width:1.5;" x1="33.5" x2="712.5" y1="198" y2="198"/><line style="stroke:#A80036;stroke-width:1.5;" x1="33.5" x2="712.5" y1="206" y2="206"/><ellipse cx="43.5" cy="217" fill="#84BE84" rx="3" ry="3" style="stroke:#038048;stroke-width:1.0;"/><text fill="#000000" font-family="sans-serif" font-size="11" lengthAdjust="spacing" textLength="655" x="52.5" y="221.4189">createProject(code, name, description, numberOfPlannedSprints, status, startDate, endDate, budget, typology, sprintDuration, customer)</text><!--MD5=[41fc1644ffe584d705042db0e6e760e1]
class DataManagement--><rect codeLine="13" fill="#FEFECE" filter="url(#f1e6olauarg7m)" height="75.6719" id="DataManagement" style="stroke:#A80036;stroke-width:1.5;" width="147" x="221.5" y="349"/><ellipse cx="244.15" cy="365" fill="#ADD1B2" rx="11" ry="11" style="stroke:#A80036;stroke-width:1.0;"/><path d="M246.15,361.5 Q246.3531,361 246.5875,360.75 Q246.8219,360.5 247.0875,360.5 Q247.5563,360.5 247.8531,360.7813 Q248.15,361.0625 248.15,361.7188 L248.15,363.2813 Q248.15,363.9375 247.8688,364.2188 Q247.5875,364.5 247.15,364.5 Q246.7594,364.5 246.5094,364.3281 Q246.2594,364.1563 246.15,363.7031 Q246.1031,363.3906 245.9313,363.2188 Q245.6188,362.8906 245.0563,362.7031 Q244.4938,362.5 243.9313,362.5 Q243.2281,362.5 242.6344,362.7813 Q242.0563,363.0625 241.6031,363.6875 Q241.15,364.3125 241.15,365.1719 L241.15,366.0938 Q241.15,367.125 241.9938,367.8125 Q242.8375,368.5 244.3375,368.5 Q245.2281,368.5 245.8531,368.2969 Q246.2125,368.1875 246.6188,367.8281 Q246.8844,367.625 247.025,367.5625 Q247.1656,367.5 247.3375,367.5 Q247.6656,367.5 247.9,367.7656 Q248.15,368.0156 248.15,368.375 Q248.15,368.7188 247.8063,369.125 Q247.3063,369.7188 246.5094,370.0469 Q245.4625,370.5 244.1813,370.5 Q242.6813,370.5 241.4781,369.9063 Q240.5094,369.4375 239.8219,368.4219 Q239.15,367.4063 239.15,366.2031 L239.15,365.1094 Q239.15,363.8594 239.7438,362.7656 Q240.3531,361.6719 241.4,361.0938 Q242.4625,360.5 243.65,360.5 Q244.3688,360.5 244.9938,360.75 Q245.6188,361 246.15,361.5 Z " fill="#000000"/><text fill="#000000" font-family="sans-serif" font-size="12" lengthAdjust="spacing" textLength="98" x="259.85" y="369.9102">DataManagement</text><line style="stroke:#A80036;stroke-width:1.5;" x1="222.5" x2="367.5" y1="381" y2="381"/><rect fill="none" height="6" style="stroke:#C82930;stroke-width:1.0;" width="6" x="229.5" y="389"/><text fill="#000000" font-family="sans-serif" font-size="11" lengthAdjust="spacing" textLength="121" x="241.5" y="396.4189">projectStore:ProjectStore</text><line style="stroke:#A80036;stroke-width:1.5;" x1="222.5" x2="367.5" y1="402.8359" y2="402.8359"/><ellipse cx="232.5" cy="413.8359" fill="#84BE84" rx="3" ry="3" style="stroke:#038048;stroke-width:1.0;"/><text fill="#000000" font-family="sans-serif" font-size="11" lengthAdjust="spacing" textLength="82" x="241.5" y="418.2549">getProjectStore()</text><!--MD5=[0cf43f64de24b70e8ffe65ff9ee7abee]
class ProjectStore--><rect codeLine="18" fill="#FEFECE" filter="url(#f1e6olauarg7m)" height="61.8359" id="ProjectStore" style="stroke:#A80036;stroke-width:1.5;" width="681" x="57.5" y="485"/><ellipse cx="360.25" cy="501" fill="#ADD1B2" rx="11" ry="11" style="stroke:#A80036;stroke-width:1.0;"/><path d="M362.25,497.5 Q362.4531,497 362.6875,496.75 Q362.9219,496.5 363.1875,496.5 Q363.6563,496.5 363.9531,496.7813 Q364.25,497.0625 364.25,497.7188 L364.25,499.2813 Q364.25,499.9375 363.9688,500.2188 Q363.6875,500.5 363.25,500.5 Q362.8594,500.5 362.6094,500.3281 Q362.3594,500.1563 362.25,499.7031 Q362.2031,499.3906 362.0313,499.2188 Q361.7188,498.8906 361.1563,498.7031 Q360.5938,498.5 360.0313,498.5 Q359.3281,498.5 358.7344,498.7813 Q358.1563,499.0625 357.7031,499.6875 Q357.25,500.3125 357.25,501.1719 L357.25,502.0938 Q357.25,503.125 358.0938,503.8125 Q358.9375,504.5 360.4375,504.5 Q361.3281,504.5 361.9531,504.2969 Q362.3125,504.1875 362.7188,503.8281 Q362.9844,503.625 363.125,503.5625 Q363.2656,503.5 363.4375,503.5 Q363.7656,503.5 364,503.7656 Q364.25,504.0156 364.25,504.375 Q364.25,504.7188 363.9063,505.125 Q363.4063,505.7188 362.6094,506.0469 Q361.5625,506.5 360.2813,506.5 Q358.7813,506.5 357.5781,505.9063 Q356.6094,505.4375 355.9219,504.4219 Q355.25,503.4063 355.25,502.2031 L355.25,501.1094 Q355.25,499.8594 355.8438,498.7656 Q356.4531,497.6719 357.5,497.0938 Q358.5625,496.5 359.75,496.5 Q360.4688,496.5 361.0938,496.75 Q361.7188,497 362.25,497.5 Z " fill="#000000"/><text fill="#000000" font-family="sans-serif" font-size="12" lengthAdjust="spacing" textLength="67" x="380.75" y="505.9102">ProjectStore</text><line style="stroke:#A80036;stroke-width:1.5;" x1="58.5" x2="737.5" y1="517" y2="517"/><line style="stroke:#A80036;stroke-width:1.5;" x1="58.5" x2="737.5" y1="525" y2="525"/><ellipse cx="68.5" cy="536" fill="#84BE84" rx="3" ry="3" style="stroke:#038048;stroke-width:1.0;"/><text fill="#000000" font-family="sans-serif" font-size="11" lengthAdjust="spacing" textLength="655" x="77.5" y="540.4189">createProject(code, name, description, numberOfPlannedSprints, status, startDate, endDate, budget, typology, sprintDuration, customer)</text><!--MD5=[79d378210367c0c6ec62ef762ddfbd1b]
class ProjectDeprecated--><rect codeLine="22" fill="#FEFECE" filter="url(#f1e6olauarg7m)" height="172.5234" id="Project" style="stroke:#A80036;stroke-width:1.5;" width="211" x="292.5" y="607"/><ellipse cx="374.75" cy="623" fill="#ADD1B2" rx="11" ry="11" style="stroke:#A80036;stroke-width:1.0;"/><path d="M376.75,619.5 Q376.9531,619 377.1875,618.75 Q377.4219,618.5 377.6875,618.5 Q378.1563,618.5 378.4531,618.7813 Q378.75,619.0625 378.75,619.7188 L378.75,621.2813 Q378.75,621.9375 378.4688,622.2188 Q378.1875,622.5 377.75,622.5 Q377.3594,622.5 377.1094,622.3281 Q376.8594,622.1563 376.75,621.7031 Q376.7031,621.3906 376.5313,621.2188 Q376.2188,620.8906 375.6563,620.7031 Q375.0938,620.5 374.5313,620.5 Q373.8281,620.5 373.2344,620.7813 Q372.6563,621.0625 372.2031,621.6875 Q371.75,622.3125 371.75,623.1719 L371.75,624.0938 Q371.75,625.125 372.5938,625.8125 Q373.4375,626.5 374.9375,626.5 Q375.8281,626.5 376.4531,626.2969 Q376.8125,626.1875 377.2188,625.8281 Q377.4844,625.625 377.625,625.5625 Q377.7656,625.5 377.9375,625.5 Q378.2656,625.5 378.5,625.7656 Q378.75,626.0156 378.75,626.375 Q378.75,626.7188 378.4063,627.125 Q377.9063,627.7188 377.1094,628.0469 Q376.0625,628.5 374.7813,628.5 Q373.2813,628.5 372.0781,627.9063 Q371.1094,627.4375 370.4219,626.4219 Q369.75,625.4063 369.75,624.2031 L369.75,623.1094 Q369.75,621.8594 370.3438,620.7656 Q370.9531,619.6719 372,619.0938 Q373.0625,618.5 374.25,618.5 Q374.9688,618.5 375.5938,618.75 Q376.2188,619 376.75,619.5 Z " fill="#000000"/><text fill="#000000" font-family="sans-serif" font-size="12" lengthAdjust="spacing" textLength="38" x="395.25" y="627.9102">Project</text><line style="stroke:#A80036;stroke-width:1.5;" x1="293.5" x2="502.5" y1="639" y2="639"/><rect fill="none" height="6" style="stroke:#C82930;stroke-width:1.0;" width="6" x="300.5" y="647"/><text fill="#000000" font-family="sans-serif" font-size="11" lengthAdjust="spacing" textLength="25" x="312.5" y="654.4189">Code</text><rect fill="none" height="6" style="stroke:#C82930;stroke-width:1.0;" width="6" x="300.5" y="660.8359"/><text fill="#000000" font-family="sans-serif" font-size="11" lengthAdjust="spacing" textLength="27" x="312.5" y="668.2549">Name</text><rect fill="none" height="6" style="stroke:#C82930;stroke-width:1.0;" width="6" x="300.5" y="674.6719"/><text fill="#000000" font-family="sans-serif" font-size="11" lengthAdjust="spacing" textLength="185" x="312.5" y="682.0908">Description-Number of planned sprints</text><rect fill="none" height="6" style="stroke:#C82930;stroke-width:1.0;" width="6" x="300.5" y="688.5078"/><text fill="#000000" font-family="sans-serif" font-size="11" lengthAdjust="spacing" textLength="31" x="312.5" y="695.9268">Status</text><rect fill="none" height="6" style="stroke:#C82930;stroke-width:1.0;" width="6" x="300.5" y="702.3438"/><text fill="#000000" font-family="sans-serif" font-size="11" lengthAdjust="spacing" textLength="47" x="312.5" y="709.7627">Start date</text><rect fill="none" height="6" style="stroke:#C82930;stroke-width:1.0;" width="6" x="300.5" y="716.1797"/><text fill="#000000" font-family="sans-serif" font-size="11" lengthAdjust="spacing" textLength="42" x="312.5" y="723.5986">End date</text><rect fill="none" height="6" style="stroke:#C82930;stroke-width:1.0;" width="6" x="300.5" y="730.0156"/><text fill="#000000" font-family="sans-serif" font-size="11" lengthAdjust="spacing" textLength="34" x="312.5" y="737.4346">Budget</text><rect fill="none" height="6" style="stroke:#C82930;stroke-width:1.0;" width="6" x="300.5" y="743.8516"/><text fill="#000000" font-family="sans-serif" font-size="11" lengthAdjust="spacing" textLength="108" x="312.5" y="751.2705">Sprint Default Duration</text><rect fill="none" height="6" style="stroke:#C82930;stroke-width:1.0;" width="6" x="300.5" y="757.6875"/><text fill="#000000" font-family="sans-serif" font-size="11" lengthAdjust="spacing" textLength="48" x="312.5" y="765.1064">Sprint List</text><line style="stroke:#A80036;stroke-width:1.5;" x1="293.5" x2="502.5" y1="771.5234" y2="771.5234"/><!--MD5=[91b5dce48d18c73d9cea267c757e6d47]
class ProductBacklog--><rect codeLine="34" fill="#FEFECE" filter="url(#f1e6olauarg7m)" height="48" id="ProductBacklog" style="stroke:#A80036;stroke-width:1.5;" width="118" x="339" y="840"/><ellipse cx="354" cy="856" fill="#ADD1B2" rx="11" ry="11" style="stroke:#A80036;stroke-width:1.0;"/><path d="M356,852.5 Q356.2031,852 356.4375,851.75 Q356.6719,851.5 356.9375,851.5 Q357.4063,851.5 357.7031,851.7813 Q358,852.0625 358,852.7188 L358,854.2813 Q358,854.9375 357.7188,855.2188 Q357.4375,855.5 357,855.5 Q356.6094,855.5 356.3594,855.3281 Q356.1094,855.1563 356,854.7031 Q355.9531,854.3906 355.7813,854.2188 Q355.4688,853.8906 354.9063,853.7031 Q354.3438,853.5 353.7813,853.5 Q353.0781,853.5 352.4844,853.7813 Q351.9063,854.0625 351.4531,854.6875 Q351,855.3125 351,856.1719 L351,857.0938 Q351,858.125 351.8438,858.8125 Q352.6875,859.5 354.1875,859.5 Q355.0781,859.5 355.7031,859.2969 Q356.0625,859.1875 356.4688,858.8281 Q356.7344,858.625 356.875,858.5625 Q357.0156,858.5 357.1875,858.5 Q357.5156,858.5 357.75,858.7656 Q358,859.0156 358,859.375 Q358,859.7188 357.6563,860.125 Q357.1563,860.7188 356.3594,861.0469 Q355.3125,861.5 354.0313,861.5 Q352.5313,861.5 351.3281,860.9063 Q350.3594,860.4375 349.6719,859.4219 Q349,858.4063 349,857.2031 L349,856.1094 Q349,854.8594 349.5938,853.7656 Q350.2031,852.6719 351.25,852.0938 Q352.3125,851.5 353.5,851.5 Q354.2188,851.5 354.8438,851.75 Q355.4688,852 356,852.5 Z " fill="#000000"/><text fill="#000000" font-family="sans-serif" font-size="12" lengthAdjust="spacing" textLength="86" x="368" y="860.9102">ProductBacklog</text><line style="stroke:#A80036;stroke-width:1.5;" x1="340" x2="456" y1="872" y2="872"/><line style="stroke:#A80036;stroke-width:1.5;" x1="340" x2="456" y1="880" y2="880"/><!--MD5=[3708c7582c807450586c1e0c155bfccb]
link CreateProjectUI to CreateProjectController--><path codeLine="39" d="M373,90.06 C373,109.65 373,138.09 373,160.57 " fill="none" id="CreateProjectUI-to-CreateProjectController" style="stroke:#A80036;stroke-width:1.0;stroke-dasharray:7.0,7.0;"/><polygon fill="#A80036" points="373,165.85,377,156.85,373,160.85,369,156.85,373,165.85" style="stroke:#A80036;stroke-width:1.0;"/><!--MD5=[ac75e8aa57924cb5be1f6849eb9b52ac]
link CreateProjectController to DataManagement--><path codeLine="40" d="M360.47,228.21 C347.44,259.6 326.97,308.96 312.38,344.11 " fill="none" id="CreateProjectController-to-DataManagement" style="stroke:#A80036;stroke-width:1.0;stroke-dasharray:7.0,7.0;"/><polygon fill="#A80036" points="310.45,348.75,317.586,341.962,312.3609,344.1296,310.1933,338.9045,310.45,348.75" style="stroke:#A80036;stroke-width:1.0;"/><text fill="#000000" font-family="sans-serif" font-size="13" lengthAdjust="spacing" textLength="100" x="204.2958" y="338.0674">dataManagement</text><!--MD5=[e49256ec62a64c0e2589668b84841744]
link DataManagement to ProjectStore--><path codeLine="41" d="M325.07,425.08 C340.51,444.11 359.07,467 373.61,484.93 " fill="none" id="DataManagement-ProjectStore" style="stroke:#A80036;stroke-width:1.0;"/><!--MD5=[dc5757f60c281d19aedf22ac68d215f8]
link CreateProjectController to ProjectStore--><path codeLine="42" d="M377.22,228.39 C380.05,249.77 383.69,279.09 386,305 C391.46,366.22 394.93,437.71 396.66,479.5 " fill="none" id="CreateProjectController-to-ProjectStore" style="stroke:#A80036;stroke-width:1.0;stroke-dasharray:7.0,7.0;"/><polygon fill="#A80036" points="396.88,484.7,400.491,475.537,396.6659,479.7046,392.4983,475.8795,396.88,484.7" style="stroke:#A80036;stroke-width:1.0;"/><text fill="#000000" font-family="sans-serif" font-size="13" lengthAdjust="spacing" textLength="70" x="319.4303" y="474.1427">projectStore</text><!--MD5=[c2999c5e21c0a7115ef87c36c02875b6]
reverse link ProjectStore to ProjectDeprecated--><path codeLine="43" d="M398,560.51 C398,574.63 398,590.81 398,606.9 " fill="none" id="ProjectStore-backto-Project" style="stroke:#A80036;stroke-width:1.0;"/><polygon fill="#A80036" points="398,547.17,394,553.17,398,559.17,402,553.17,398,547.17" style="stroke:#A80036;stroke-width:1.0;"/><text fill="#000000" font-family="sans-serif" font-size="13" lengthAdjust="spacing" textLength="39" x="357.2633" y="596.0067">projectDeprecated</text><!--MD5=[2dee92360f00b603e7ba5f8f02cfe98b]
reverse link ProjectDeprecated to ProductBacklog--><path codeLine="44" d="M398,793.29 C398,810.63 398,827.13 398,839.72 " fill="none" id="Project-backto-ProductBacklog" style="stroke:#A80036;stroke-width:1.0;"/><polygon fill="#A80036" points="398,780.23,394,786.23,398,792.23,402,786.23,398,780.23" style="stroke:#A80036;stroke-width:1.0;"/><text fill="#000000" font-family="sans-serif" font-size="13" lengthAdjust="spacing" textLength="90" x="296.4688" y="828.9884">productBacklog</text><!--MD5=[9a19b859a8f0a0c51d1e317a4bac2eeb]
@startuml
'https://plantuml.com/class-diagram

package UI{
class CreateProjectUI{
}
}
package Controller {
class CreateProjectController{
+createProject(code, name, projectDescription, numberOfPlannedSprints, status, startDate, endDate, budget, typologyDescription, sprintDuration, customer)
}
}
package Model {
class DataManagement{
-projectStore:ProjectStore
+getProjectStore()

}
class ProjectStore{
+createProject(code, name, projectDescription, numberOfPlannedSprints, status, startDate, endDate, budget, typologyDescription, sprintDuration, customer)

}
class ProjectDeprecated {
-ProjectCode
-Name
-Description-Number of planned sprints
-Status
-Start date
-End date
-ProjectBudget
-Sprint Default Duration
-Sprint List

}
class ProductBacklog{
}
}


CreateProjectUI ..> CreateProjectController
CreateProjectController ..> "dataManagement"DataManagement
DataManagement - - ProjectStore
CreateProjectController ....>  "projectStore"ProjectStore
ProjectStore *- - "projectDeprecated" ProjectDeprecated
ProjectDeprecated *- - "productBacklog" ProductBacklog



@enduml

@startuml

package UI{
class CreateProjectUI{
}
}
package Controller {
class CreateProjectController{
+createProject(code, name, projectDescription, numberOfPlannedSprints, status, startDate, endDate, budget, typologyDescription, sprintDuration, customer)
}
}
package Model {
class DataManagement{
-projectStore:ProjectStore
+getProjectStore()

}
class ProjectStore{
+createProject(code, name, projectDescription, numberOfPlannedSprints, status, startDate, endDate, budget, typologyDescription, sprintDuration, customer)

}
class ProjectDeprecated {
-ProjectCode
-Name
-Description-Number of planned sprints
-Status
-Start date
-End date
-ProjectBudget
-Sprint Default Duration
-Sprint List

}
class ProductBacklog{
}
}


CreateProjectUI ..> CreateProjectController
CreateProjectController ..> "dataManagement"DataManagement
DataManagement - - ProjectStore
CreateProjectController ....>  "projectStore"ProjectStore
ProjectStore *- - "projectDeprecated" ProjectDeprecated
ProjectDeprecated *- - "productBacklog" ProductBacklog



@enduml

PlantUML version 1.2022.0(Tue Jan 11 16:16:42 GMT 2022)
(GPL source distribution)
Java Runtime: OpenJDK Runtime Environment
JVM: OpenJDK 64-Bit Server VM
Default Encoding: Cp1252
Language: pt
Country: PT
--></g></svg>