<?xml version="1.0" encoding="UTF-8" standalone="no"?><svg xmlns="http://www.w3.org/2000/svg" xmlns:xlink="http://www.w3.org/1999/xlink" contentScriptType="application/ecmascript" contentStyleType="text/css" height="559px" preserveAspectRatio="none" style="width:1205px;height:559px;background:#FFFFFF;" version="1.1" viewBox="0 0 1205 559" width="1205px" zoomAndPan="magnify"><defs><filter height="300%" id="fkwti5zdevmqi" width="300%" x="-1" y="-1"><feGaussianBlur result="blurOut" stdDeviation="2.0"/><feColorMatrix in="blurOut" result="blurOut2" type="matrix" values="0 0 0 0 0 0 0 0 0 0 0 0 0 0 0 0 0 0 .4 0"/><feOffset dx="4.0" dy="4.0" in="blurOut2" result="blurOut3"/><feBlend in="SourceGraphic" in2="blurOut3" mode="normal"/></filter></defs><g><line style="stroke:#A80036;stroke-width:1.0;stroke-dasharray:5.0,5.0;" x1="51" x2="51" y1="89.6094" y2="473.8281"/><line style="stroke:#A80036;stroke-width:1.0;stroke-dasharray:5.0,5.0;" x1="330.5" x2="330.5" y1="89.6094" y2="473.8281"/><line style="stroke:#A80036;stroke-width:1.0;stroke-dasharray:5.0,5.0;" x1="493" x2="493" y1="89.6094" y2="473.8281"/><line style="stroke:#A80036;stroke-width:1.0;stroke-dasharray:5.0,5.0;" x1="652" x2="652" y1="89.6094" y2="473.8281"/><line style="stroke:#A80036;stroke-width:1.0;stroke-dasharray:5.0,5.0;" x1="775" x2="775" y1="89.6094" y2="473.8281"/><line style="stroke:#A80036;stroke-width:1.0;stroke-dasharray:5.0,5.0;" x1="863" x2="863" y1="89.6094" y2="473.8281"/><line style="stroke:#A80036;stroke-width:1.0;stroke-dasharray:5.0,5.0;" x1="931" x2="931" y1="89.6094" y2="473.8281"/><line style="stroke:#A80036;stroke-width:1.0;stroke-dasharray:5.0,5.0;" x1="1021" x2="1021" y1="89.6094" y2="473.8281"/><line style="stroke:#A80036;stroke-width:1.0;stroke-dasharray:5.0,5.0;" x1="1155.5" x2="1155.5" y1="89.6094" y2="473.8281"/><text fill="#000000" font-family="sans-serif" font-size="14" lengthAdjust="spacing" textLength="87" x="5" y="86.5332">TeamMember</text><ellipse cx="51.5" cy="15" fill="#FEFECE" filter="url(#fkwti5zdevmqi)" rx="8" ry="8" style="stroke:#A80036;stroke-width:2.0;"/><path d="M51.5,23 L51.5,50 M38.5,31 L64.5,31 M51.5,50 L38.5,65 M51.5,50 L64.5,65 " fill="none" filter="url(#fkwti5zdevmqi)" style="stroke:#A80036;stroke-width:2.0;"/><text fill="#000000" font-family="sans-serif" font-size="14" lengthAdjust="spacing" textLength="87" x="5" y="487.3613">TeamMember</text><ellipse cx="51.5" cy="500.4375" fill="#FEFECE" filter="url(#fkwti5zdevmqi)" rx="8" ry="8" style="stroke:#A80036;stroke-width:2.0;"/><path d="M51.5,508.4375 L51.5,535.4375 M38.5,516.4375 L64.5,516.4375 M51.5,535.4375 L38.5,550.4375 M51.5,535.4375 L64.5,550.4375 " fill="none" filter="url(#fkwti5zdevmqi)" style="stroke:#A80036;stroke-width:2.0;"/><rect fill="#FEFECE" filter="url(#fkwti5zdevmqi)" height="31.6094" style="stroke:#A80036;stroke-width:1.5;" width="26" x="315.5" y="53"/><text fill="#000000" font-family="sans-serif" font-size="14" lengthAdjust="spacing" textLength="12" x="322.5" y="74.5332">UI</text><rect fill="#FEFECE" filter="url(#fkwti5zdevmqi)" height="31.6094" style="stroke:#A80036;stroke-width:1.5;" width="26" x="315.5" y="472.8281"/><text fill="#000000" font-family="sans-serif" font-size="14" lengthAdjust="spacing" textLength="12" x="322.5" y="494.3613">UI</text><rect fill="#FEFECE" filter="url(#fkwti5zdevmqi)" height="31.6094" style="stroke:#A80036;stroke-width:1.5;" width="163" x="410" y="53"/><text fill="#000000" font-family="sans-serif" font-size="14" lengthAdjust="spacing" textLength="149" x="417" y="74.5332">TeamMemberController</text><rect fill="#FEFECE" filter="url(#fkwti5zdevmqi)" height="31.6094" style="stroke:#A80036;stroke-width:1.5;" width="163" x="410" y="472.8281"/><text fill="#000000" font-family="sans-serif" font-size="14" lengthAdjust="spacing" textLength="149" x="417" y="494.3613">TeamMemberController</text><rect fill="#FEFECE" filter="url(#fkwti5zdevmqi)" height="31.6094" style="stroke:#A80036;stroke-width:1.5;" width="126" x="587" y="53"/><text fill="#000000" font-family="sans-serif" font-size="14" lengthAdjust="spacing" textLength="112" x="594" y="74.5332">DataManagement</text><rect fill="#FEFECE" filter="url(#fkwti5zdevmqi)" height="31.6094" style="stroke:#A80036;stroke-width:1.5;" width="126" x="587" y="472.8281"/><text fill="#000000" font-family="sans-serif" font-size="14" lengthAdjust="spacing" textLength="112" x="594" y="494.3613">DataManagement</text><rect fill="#FEFECE" filter="url(#fkwti5zdevmqi)" height="31.6094" style="stroke:#A80036;stroke-width:1.5;" width="92" x="727" y="53"/><text fill="#000000" font-family="sans-serif" font-size="14" lengthAdjust="spacing" textLength="78" x="734" y="74.5332">ProjectStore</text><rect fill="#FEFECE" filter="url(#fkwti5zdevmqi)" height="31.6094" style="stroke:#A80036;stroke-width:1.5;" width="92" x="727" y="472.8281"/><text fill="#000000" font-family="sans-serif" font-size="14" lengthAdjust="spacing" textLength="78" x="734" y="494.3613">ProjectStore</text><rect fill="#FEFECE" filter="url(#fkwti5zdevmqi)" height="31.6094" style="stroke:#A80036;stroke-width:1.5;" width="57" x="833" y="53"/><text fill="#000000" font-family="sans-serif" font-size="14" lengthAdjust="spacing" textLength="43" x="840" y="74.5332">projectDeprecated</text><rect fill="#FEFECE" filter="url(#fkwti5zdevmqi)" height="31.6094" style="stroke:#A80036;stroke-width:1.5;" width="57" x="833" y="472.8281"/><text fill="#000000" font-family="sans-serif" font-size="14" lengthAdjust="spacing" textLength="43" x="840" y="494.3613">projectDeprecated</text><rect fill="#FEFECE" filter="url(#fkwti5zdevmqi)" height="31.6094" style="stroke:#A80036;stroke-width:1.5;" width="51" x="904" y="53"/><text fill="#000000" font-family="sans-serif" font-size="14" lengthAdjust="spacing" textLength="37" x="911" y="74.5332">Sprint</text><rect fill="#FEFECE" filter="url(#fkwti5zdevmqi)" height="31.6094" style="stroke:#A80036;stroke-width:1.5;" width="51" x="904" y="472.8281"/><text fill="#000000" font-family="sans-serif" font-size="14" lengthAdjust="spacing" textLength="37" x="911" y="494.3613">Sprint</text><rect fill="#FEFECE" filter="url(#fkwti5zdevmqi)" height="31.6094" style="stroke:#A80036;stroke-width:1.5;" width="101" x="969" y="53"/><text fill="#000000" font-family="sans-serif" font-size="14" lengthAdjust="spacing" textLength="87" x="976" y="74.5332">SprintBacklog</text><rect fill="#FEFECE" filter="url(#fkwti5zdevmqi)" height="31.6094" style="stroke:#A80036;stroke-width:1.5;" width="101" x="969" y="472.8281"/><text fill="#000000" font-family="sans-serif" font-size="14" lengthAdjust="spacing" textLength="87" x="976" y="494.3613">SprintBacklog</text><rect fill="#FEFECE" filter="url(#fkwti5zdevmqi)" height="31.6094" style="stroke:#A80036;stroke-width:1.5;" width="76" x="1115.5" y="53"/><text fill="#000000" font-family="sans-serif" font-size="14" lengthAdjust="spacing" textLength="62" x="1122.5" y="74.5332">UserStory</text><rect fill="#FEFECE" filter="url(#fkwti5zdevmqi)" height="31.6094" style="stroke:#A80036;stroke-width:1.5;" width="76" x="1115.5" y="472.8281"/><text fill="#000000" font-family="sans-serif" font-size="14" lengthAdjust="spacing" textLength="62" x="1122.5" y="494.3613">UserStory</text><polygon fill="#A80036" points="318.5,117.9609,328.5,121.9609,318.5,125.9609,322.5,121.9609" style="stroke:#A80036;stroke-width:1.0;"/><line style="stroke:#A80036;stroke-width:1.0;" x1="51.5" x2="324.5" y1="121.9609" y2="121.9609"/><text fill="#000000" font-family="sans-serif" font-size="13" font-weight="bold" lengthAdjust="spacing" textLength="7" x="58.5" y="117.1045">1</text><text fill="#000000" font-family="sans-serif" font-size="13" lengthAdjust="spacing" textLength="244" x="69.5" y="117.1045">I want to estimate the effort of a user story</text><polygon fill="#A80036" points="481.5,148.3125,491.5,152.3125,481.5,156.3125,485.5,152.3125" style="stroke:#A80036;stroke-width:1.0;"/><line style="stroke:#A80036;stroke-width:1.0;" x1="330.5" x2="487.5" y1="152.3125" y2="152.3125"/><text fill="#000000" font-family="sans-serif" font-size="13" font-weight="bold" lengthAdjust="spacing" textLength="7" x="337.5" y="147.4561">2</text><text fill="#000000" font-family="sans-serif" font-size="13" lengthAdjust="spacing" textLength="128" x="348.5" y="147.4561">setEffortToUserStory()</text><polygon fill="#A80036" points="640,178.6641,650,182.6641,640,186.6641,644,182.6641" style="stroke:#A80036;stroke-width:1.0;"/><line style="stroke:#A80036;stroke-width:1.0;" x1="493.5" x2="646" y1="182.6641" y2="182.6641"/><text fill="#000000" font-family="sans-serif" font-size="13" font-weight="bold" lengthAdjust="spacing" textLength="7" x="500.5" y="177.8076">3</text><text fill="#000000" font-family="sans-serif" font-size="13" lengthAdjust="spacing" textLength="98" x="511.5" y="177.8076">getProjectStore()</text><polygon fill="#A80036" points="504.5,209.0156,494.5,213.0156,504.5,217.0156,500.5,213.0156" style="stroke:#A80036;stroke-width:1.0;"/><line style="stroke:#A80036;stroke-width:1.0;stroke-dasharray:2.0,2.0;" x1="498.5" x2="651" y1="213.0156" y2="213.0156"/><text fill="#000000" font-family="sans-serif" font-size="13" font-weight="bold" lengthAdjust="spacing" textLength="7" x="510.5" y="208.1592">4</text><text fill="#000000" font-family="sans-serif" font-size="13" lengthAdjust="spacing" textLength="70" x="521.5" y="208.1592">projectStore</text><polygon fill="#A80036" points="763,239.3672,773,243.3672,763,247.3672,767,243.3672" style="stroke:#A80036;stroke-width:1.0;"/><line style="stroke:#A80036;stroke-width:1.0;" x1="493.5" x2="769" y1="243.3672" y2="243.3672"/><text fill="#000000" font-family="sans-serif" font-size="13" font-weight="bold" lengthAdjust="spacing" textLength="7" x="500.5" y="238.5107">5</text><text fill="#000000" font-family="sans-serif" font-size="13" lengthAdjust="spacing" textLength="190" x="511.5" y="238.5107">: getProjectByCode(codeProject)</text><polygon fill="#A80036" points="504.5,269.7188,494.5,273.7188,504.5,277.7188,500.5,273.7188" style="stroke:#A80036;stroke-width:1.0;"/><line style="stroke:#A80036;stroke-width:1.0;stroke-dasharray:2.0,2.0;" x1="498.5" x2="774" y1="273.7188" y2="273.7188"/><text fill="#000000" font-family="sans-serif" font-size="13" font-weight="bold" lengthAdjust="spacing" textLength="7" x="510.5" y="268.8623">6</text><text fill="#000000" font-family="sans-serif" font-size="13" lengthAdjust="spacing" textLength="39" x="521.5" y="268.8623">projectDeprecated</text><polygon fill="#A80036" points="851.5,300.0703,861.5,304.0703,851.5,308.0703,855.5,304.0703" style="stroke:#A80036;stroke-width:1.0;"/><line style="stroke:#A80036;stroke-width:1.0;" x1="493.5" x2="857.5" y1="304.0703" y2="304.0703"/><text fill="#000000" font-family="sans-serif" font-size="13" font-weight="bold" lengthAdjust="spacing" textLength="7" x="500.5" y="299.2139">7</text><text fill="#000000" font-family="sans-serif" font-size="13" lengthAdjust="spacing" textLength="136" x="511.5" y="299.2139">: getSprintById(sprintId)</text><polygon fill="#A80036" points="504.5,330.4219,494.5,334.4219,504.5,338.4219,500.5,334.4219" style="stroke:#A80036;stroke-width:1.0;"/><line style="stroke:#A80036;stroke-width:1.0;stroke-dasharray:2.0,2.0;" x1="498.5" x2="862.5" y1="334.4219" y2="334.4219"/><text fill="#000000" font-family="sans-serif" font-size="13" font-weight="bold" lengthAdjust="spacing" textLength="7" x="510.5" y="329.5654">8</text><text fill="#000000" font-family="sans-serif" font-size="13" lengthAdjust="spacing" textLength="32" x="521.5" y="329.5654">sprint</text><polygon fill="#A80036" points="919.5,360.7734,929.5,364.7734,919.5,368.7734,923.5,364.7734" style="stroke:#A80036;stroke-width:1.0;"/><line style="stroke:#A80036;stroke-width:1.0;" x1="493.5" x2="925.5" y1="364.7734" y2="364.7734"/><text fill="#000000" font-family="sans-serif" font-size="13" font-weight="bold" lengthAdjust="spacing" textLength="7" x="500.5" y="359.917">9</text><text fill="#000000" font-family="sans-serif" font-size="13" lengthAdjust="spacing" textLength="115" x="511.5" y="359.917">: getSprintBacklog()</text><polygon fill="#A80036" points="504.5,391.125,494.5,395.125,504.5,399.125,500.5,395.125" style="stroke:#A80036;stroke-width:1.0;"/><line style="stroke:#A80036;stroke-width:1.0;stroke-dasharray:2.0,2.0;" x1="498.5" x2="930.5" y1="395.125" y2="395.125"/><text fill="#000000" font-family="sans-serif" font-size="13" font-weight="bold" lengthAdjust="spacing" textLength="14" x="510.5" y="390.2686">10</text><text fill="#000000" font-family="sans-serif" font-size="13" lengthAdjust="spacing" textLength="79" x="528.5" y="390.2686">sprintBacklog</text><polygon fill="#A80036" points="1009.5,421.4766,1019.5,425.4766,1009.5,429.4766,1013.5,425.4766" style="stroke:#A80036;stroke-width:1.0;"/><line style="stroke:#A80036;stroke-width:1.0;" x1="493.5" x2="1015.5" y1="425.4766" y2="425.4766"/><text fill="#000000" font-family="sans-serif" font-size="13" font-weight="bold" lengthAdjust="spacing" textLength="14" x="500.5" y="420.6201">11</text><text fill="#000000" font-family="sans-serif" font-size="13" lengthAdjust="spacing" textLength="228" x="518.5" y="420.6201">: setEffortToUserStory(userStory, effort)</text><polygon fill="#A80036" points="1143.5,451.8281,1153.5,455.8281,1143.5,459.8281,1147.5,455.8281" style="stroke:#A80036;stroke-width:1.0;"/><line style="stroke:#A80036;stroke-width:1.0;" x1="1021.5" x2="1149.5" y1="455.8281" y2="455.8281"/><text fill="#000000" font-family="sans-serif" font-size="13" font-weight="bold" lengthAdjust="spacing" textLength="14" x="1028.5" y="450.9717">12</text><text fill="#000000" font-family="sans-serif" font-size="13" lengthAdjust="spacing" textLength="92" x="1046.5" y="450.9717">: setEffort(effort)</text><!--MD5=[9c619b6c1289256cec69dd104891aff3]
@startuml
autonumber
actor TeamMember
participant UI
participant TeamMemberController
participant DataManagement
participant ProjectStore
participant projectDeprecated
participant Sprint
participant SprintBacklog

TeamMember -> UI : I want to estimate the effort of a user story
UI -> TeamMemberController : setEffortToUserStory()
TeamMemberController -> DataManagement : getProjectStore()
TeamMemberController <- - DataManagement : projectStore
TeamMemberController -> ProjectStore : : getProjectByCode(codeProject)
TeamMemberController <- - ProjectStore : projectDeprecated
TeamMemberController ->  projectDeprecated : : getSprintById(sprintId)
TeamMemberController <- - projectDeprecated : sprint
TeamMemberController -> Sprint : : getSprintBacklog()
TeamMemberController <- - Sprint : sprintBacklog
TeamMemberController -> SprintBacklog : : setEffortToUserStory(userStory, effort)
SprintBacklog -> UserStory : : setEffort(effort)

@enduml

PlantUML version 1.2021.16(Wed Dec 08 17:25:22 GMT 2021)
(GPL source distribution)
Java Runtime: OpenJDK Runtime Environment
JVM: OpenJDK 64-Bit Server VM
Default Encoding: Cp1252
Language: pt
Country: PT
--></g></svg>