<?xml version="1.0" encoding="UTF-8" standalone="no"?><svg xmlns="http://www.w3.org/2000/svg" xmlns:xlink="http://www.w3.org/1999/xlink" contentScriptType="application/ecmascript" contentStyleType="text/css" height="610.8px" preserveAspectRatio="none" style="width:695px;height:610px;background:#FFFFFF;" version="1.1" viewBox="0 0 695 610" width="695.6px" zoomAndPan="magnify"><defs><filter height="300%" id="fs5ct381wpkj2" width="300%" x="-1" y="-1"><feGaussianBlur result="blurOut" stdDeviation="0.8000000000000002"/><feColorMatrix in="blurOut" result="blurOut2" type="matrix" values="0 0 0 0 0 0 0 0 0 0 0 0 0 0 0 0 0 0 .4 0"/><feOffset dx="1.6000000000000003" dy="1.6000000000000003" in="blurOut2" result="blurOut3"/><feBlend in="SourceGraphic" in2="blurOut3" mode="normal"/></filter></defs><g><text fill="#888888" font-family="sans-serif" font-size="4" lengthAdjust="spacing" textLength="13.2" x="338.6" y="4.9129">ONION</text><text fill="#000000" font-family="sans-serif" font-size="7.2" lengthAdjust="spacing" textLength="163.2" x="263.6" y="14.9395">US013 - As a director I want to create Profiles</text><!--MD5=[e8d3b063433c5ea99fe0069116481017]
cluster AssemblersJPA--><rect fill="#FFFFFF" height="163.2" style="stroke:#808080;stroke-width:0.20000000000000004;" width="144" x="549.2" y="20.6375"/><text fill="#000000" font-family="sans-serif" font-size="6" font-style="italic" lengthAdjust="spacing" textLength="44" x="599.2" y="28.2068">AssemblersJPA</text><!--MD5=[9ddaf8ee8bcae11a9a9232f969198262]
cluster Infrastructure--><rect fill="#FFFFFF" height="45.2" style="stroke:#808080;stroke-width:0.20000000000000004;" width="111.2" x="410.4" y="28.2375"/><text fill="#000000" font-family="sans-serif" font-size="6" font-style="italic" lengthAdjust="spacing" textLength="41.2" x="445.4" y="35.8068">Infrastructure</text><!--MD5=[5a2c09c7a25dd2d50c87c8f70ce7edbd]
cluster Interface Adapters--><rect fill="#C0FFC0" fill-opacity="0.31373" height="120" style="stroke:#808080;stroke-width:0.20000000000000004;" width="396" x="143.6" y="83.0375"/><text fill="#000000" font-family="sans-serif" font-size="6" font-style="italic" lengthAdjust="spacing" textLength="55.6" x="313.8" y="90.6068">Interface Adapters</text><!--MD5=[ed1d20ea533a2a0e7df5ba3c35e56ced]
cluster Controllers--><rect fill="#C0FFC0" fill-opacity="0.50196" height="90.4" style="stroke:#808080;stroke-width:0.20000000000000004;" width="223.2" x="153.2" y="103.0375"/><text fill="#000000" font-family="sans-serif" font-size="6" font-style="italic" lengthAdjust="spacing" textLength="32.4" x="248.6" y="110.6068">Controllers</text><!--MD5=[6b0d027c310fb087a3145faa2e64ab3b]
cluster ImplementedControllers--><polygon fill="#7ACFF5" points="162.8,123.0375,245.2,123.0375,248,135.2875,366.8,135.2875,366.8,183.8375,162.8,183.8375,162.8,123.0375" style="stroke:#808080;stroke-width:0.20000000000000004;"/><line style="stroke:#808080;stroke-width:0.20000000000000004;" x1="162.8" x2="248" y1="135.2875" y2="135.2875"/><text fill="#000000" font-family="sans-serif" font-size="6.4" lengthAdjust="spacing" textLength="77.6" x="165.6" y="130.9781">ImplementedControllers</text><!--MD5=[600c2d25b6889bd4e9f6b335204b22ae]
cluster Repositories--><polygon fill="#7ACFF5" points="386,115.4375,430,115.4375,432.8,127.6875,530,127.6875,530,191.4375,386,191.4375,386,115.4375" style="stroke:#808080;stroke-width:0.20000000000000004;"/><line style="stroke:#808080;stroke-width:0.20000000000000004;" x1="386" x2="432.8" y1="127.6875" y2="127.6875"/><text fill="#000000" font-family="sans-serif" font-size="6.4" lengthAdjust="spacing" textLength="39.2" x="388.8" y="123.3781">Repositories</text><!--MD5=[21a49c66ac30e242e431f26f52efdb99]
cluster Application Services / Use Case Services--><rect fill="#FFAFAF" fill-opacity="0.31373" height="135.2" style="stroke:#808080;stroke-width:0.20000000000000004;" width="337.6" x="154.8" y="285.0375"/><text fill="#000000" font-family="sans-serif" font-size="6" font-style="italic" lengthAdjust="spacing" textLength="121.6" x="262.8" y="292.6068">Application Services / Use Case Services</text><!--MD5=[244535090d6108ff57cf34fc63487b8d]
cluster App Services--><rect fill="#FFAFAF" fill-opacity="0.50196" height="105.6" style="stroke:#808080;stroke-width:0.20000000000000004;" width="318.4" x="164.4" y="305.0375"/><text fill="#000000" font-family="sans-serif" font-size="6" font-style="italic" lengthAdjust="spacing" textLength="39.2" x="304" y="312.6068">App Services</text><!--MD5=[2dd1dce2a0ab5bf2d68c353348c5fe80]
cluster ImplementedAppServices--><polygon fill="#7ACFF5" points="174,325.0375,260.8,325.0375,263.6,337.2875,355.6,337.2875,355.6,401.0375,174,401.0375,174,325.0375" style="stroke:#808080;stroke-width:0.20000000000000004;"/><line style="stroke:#808080;stroke-width:0.20000000000000004;" x1="174" x2="263.6" y1="337.2875" y2="337.2875"/><text fill="#000000" font-family="sans-serif" font-size="6.4" lengthAdjust="spacing" textLength="82" x="176.8" y="332.9781">ImplementedAppServices</text><!--MD5=[cfd36637bb936e9020c8cdf2f8264c78]
cluster IRepositories--><polygon fill="#7ACFF5" points="374.8,340.2375,420.8,340.2375,423.6,352.4875,473.2,352.4875,473.2,385.8375,374.8,385.8375,374.8,340.2375" style="stroke:#808080;stroke-width:0.20000000000000004;"/><line style="stroke:#808080;stroke-width:0.20000000000000004;" x1="374.8" x2="423.6" y1="352.4875" y2="352.4875"/><text fill="#000000" font-family="sans-serif" font-size="6.4" lengthAdjust="spacing" textLength="41.2" x="377.6" y="348.1781">IRepositories</text><!--MD5=[aaf18827607e44b33670a1eec49bbe78]
cluster Assemblers and DTO's--><rect fill="#FFFFFF" height="168.6" style="stroke:#808080;stroke-width:0.20000000000000004;" width="131.2" x="2.8" y="106.8375"/><text fill="#000000" font-family="sans-serif" font-size="6" font-style="italic" lengthAdjust="spacing" textLength="68.4" x="34.2" y="114.4068">Assemblers and DTO's</text><!--MD5=[ff2d32700cab3f115c8e30d705f57da9]
cluster Assemblers--><polygon fill="#FFFFFF" points="12.4,126.8375,54,126.8375,56.8,139.0875,124.4,139.0875,124.4,180.0375,12.4,180.0375,12.4,126.8375" style="stroke:#808080;stroke-width:0.20000000000000004;"/><line style="stroke:#808080;stroke-width:0.20000000000000004;" x1="12.4" x2="56.8" y1="139.0875" y2="139.0875"/><text fill="#000000" font-family="sans-serif" font-size="6.4" lengthAdjust="spacing" textLength="36.8" x="15.2" y="134.7781">Assemblers</text><!--MD5=[7b8bc9ee8bb84b99fb3a3f9477c19238]
cluster DTO--><polygon fill="#FFFFFF" points="22,212.6375,40.8,212.6375,43.6,224.8875,114.8,224.8875,114.8,265.8375,22,265.8375,22,212.6375" style="stroke:#808080;stroke-width:0.20000000000000004;"/><line style="stroke:#808080;stroke-width:0.20000000000000004;" x1="22" x2="43.6" y1="224.8875" y2="224.8875"/><text fill="#000000" font-family="sans-serif" font-size="6.4" lengthAdjust="spacing" textLength="14" x="24.8" y="220.5781">DTO</text><!--MD5=[ae6cd019d6e7105e27378654a55d5670]
cluster Entities / Core / Domain--><rect fill="#FFE0C0" fill-opacity="0.31373" height="170.8" style="stroke:#808080;stroke-width:0.20000000000000004;" width="269.6" x="32" y="429.8375"/><text fill="#000000" font-family="sans-serif" font-size="6" font-style="italic" lengthAdjust="spacing" textLength="71.6" x="131" y="437.4068">Entities / Core / Domain</text><!--MD5=[bbb32bc7acafd57c620f668f86b05660]
cluster Aggregates--><rect fill="#7ACFF5" fill-opacity="0.50196" height="141.2" style="stroke:#808080;stroke-width:0.20000000000000004;" width="250.4" x="41.6" y="449.8375"/><text fill="#000000" font-family="sans-serif" font-size="6" font-style="italic" lengthAdjust="spacing" textLength="34.8" x="149.4" y="457.4068">Aggregates</text><!--MD5=[fe08d72b7e54a4e0603d5a17d2080bee]
cluster Profile--><polygon fill="#7ACFF5" points="189.6,469.8375,214.8,469.8375,217.6,482.0875,282.4,482.0875,282.4,546.6375,189.6,546.6375,189.6,469.8375" style="stroke:#808080;stroke-width:0.20000000000000004;"/><line style="stroke:#808080;stroke-width:0.20000000000000004;" x1="189.6" x2="217.6" y1="482.0875" y2="482.0875"/><text fill="#000000" font-family="sans-serif" font-size="6.4" lengthAdjust="spacing" textLength="20.4" x="192.4" y="477.7781">Profile</text><text fill="#000000" font-family="sans-serif" font-size="5.6" font-style="italic" lengthAdjust="spacing" textLength="37.2" x="219" y="489.2855">«Aggregate»</text><!--MD5=[13deee7bba1140ca9d8aad9bd20b3c41]
cluster Factories--><polygon fill="#7ACFF5" points="51.2,486.0375,85.2,486.0375,88,498.2875,170.4,498.2875,170.4,581.4375,51.2,581.4375,51.2,486.0375" style="stroke:#808080;stroke-width:0.20000000000000004;"/><line style="stroke:#808080;stroke-width:0.20000000000000004;" x1="51.2" x2="88" y1="498.2875" y2="498.2875"/><text fill="#000000" font-family="sans-serif" font-size="6.4" lengthAdjust="spacing" textLength="29.2" x="54" y="493.9781">Factories</text><!--MD5=[b7ae933f240d06273ad4b1f08d2fa376]
class ProfileDomainDataAssembler--><rect codeLine="80" fill="#EEEEEE" filter="url(#fs5ct381wpkj2)" height="37.1563" id="ProfileDomainDataAssembler" style="stroke:#000000;stroke-width:0.20000000000000004;" width="131.6" x="555.4" y="37.4375"/><ellipse cx="561.4" cy="45.2938" fill="#ADD1B2" rx="4.4" ry="4.4" style="stroke:#000000;stroke-width:0.4000000000000001;"/><path d="M562.3875,47.6438 Q562.1563,47.7688 561.9,47.8313 Q561.6438,47.8938 561.3625,47.8938 Q560.3625,47.8938 559.8313,47.225 Q559.3063,46.5563 559.3063,45.2938 Q559.3063,44.0313 559.8313,43.3625 Q560.3625,42.6938 561.3625,42.6938 Q561.6438,42.6938 561.9,42.7563 Q562.1625,42.8188 562.3875,42.9438 L562.3875,44.0625 Q562.1375,43.8375 561.9,43.7313 Q561.6625,43.6188 561.4125,43.6188 Q560.875,43.6188 560.6,44.0438 Q560.325,44.4688 560.325,45.2938 Q560.325,46.125 560.6,46.55 Q560.875,46.9688 561.4125,46.9688 Q561.6625,46.9688 561.9,46.8625 Q562.1375,46.7563 562.3875,46.525 L562.3875,47.6438 Z " fill="#000000"/><text fill="#000000" font-family="Helvetica" font-size="8" lengthAdjust="spacing" textLength="116.4" x="568.2" y="48.0633">ProfileDomainDataAssembler</text><line style="stroke:#000000;stroke-width:0.20000000000000004;" x1="555.8" x2="686.6" y1="53.15" y2="53.15"/><line style="stroke:#000000;stroke-width:0.20000000000000004;" x1="555.8" x2="686.6" y1="56.35" y2="56.35"/><ellipse cx="559.8" cy="60.75" fill="#84BE84" rx="1.2" ry="1.2" style="stroke:#038048;stroke-width:0.4000000000000001;"/><text fill="#000000" font-family="sans-serif" font-size="4.4" lengthAdjust="spacing" textLength="78" x="564.6" y="63.2342">toData( Profile profile ) : ProfileJPA</text><ellipse cx="559.8" cy="68.2719" fill="#84BE84" rx="1.2" ry="1.2" style="stroke:#038048;stroke-width:0.4000000000000001;"/><text fill="#000000" font-family="sans-serif" font-size="4.4" lengthAdjust="spacing" textLength="92" x="564.6" y="70.7561">toDomain( ProfileJPA profileJPA ) : Profile</text><!--MD5=[015ebfe9e78f42d1c2d61e09eb8bc118]
class ProfileJPA--><rect codeLine="85" fill="#EEEEEE" filter="url(#fs5ct381wpkj2)" height="37.1563" id="ProfileJPA" style="stroke:#000000;stroke-width:0.20000000000000004;" width="80" x="581.2" y="140.2375"/><ellipse cx="599.3" cy="148.0938" fill="#ADD1B2" rx="4.4" ry="4.4" style="stroke:#000000;stroke-width:0.4000000000000001;"/><path d="M600.2875,150.4438 Q600.0563,150.5688 599.8,150.6313 Q599.5438,150.6938 599.2625,150.6938 Q598.2625,150.6938 597.7313,150.025 Q597.2063,149.3563 597.2063,148.0938 Q597.2063,146.8313 597.7313,146.1625 Q598.2625,145.4938 599.2625,145.4938 Q599.5438,145.4938 599.8,145.5563 Q600.0625,145.6188 600.2875,145.7438 L600.2875,146.8625 Q600.0375,146.6375 599.8,146.5313 Q599.5625,146.4188 599.3125,146.4188 Q598.775,146.4188 598.5,146.8438 Q598.225,147.2688 598.225,148.0938 Q598.225,148.925 598.5,149.35 Q598.775,149.7688 599.3125,149.7688 Q599.5625,149.7688 599.8,149.6625 Q600.0375,149.5563 600.2875,149.325 L600.2875,150.4438 Z " fill="#000000"/><text fill="#000000" font-family="Helvetica" font-size="8" lengthAdjust="spacing" textLength="38" x="608.7" y="150.8633">ProfileJPA</text><line style="stroke:#000000;stroke-width:0.20000000000000004;" x1="581.6" x2="660.8" y1="155.95" y2="155.95"/><rect fill="none" height="2.4" style="stroke:#C82930;stroke-width:0.4000000000000001;" width="2.4" x="584.4" y="159.15"/><text fill="#000000" font-family="sans-serif" font-size="4.4" lengthAdjust="spacing" textLength="38.8" x="590.4" y="162.8342">ProfileId profileID</text><rect fill="none" height="2.4" style="stroke:#C82930;stroke-width:0.4000000000000001;" width="2.4" x="584.4" y="166.6719"/><text fill="#000000" font-family="sans-serif" font-size="4.4" lengthAdjust="spacing" textLength="27.6" x="590.4" y="170.3561">Name name</text><line style="stroke:#000000;stroke-width:0.20000000000000004;" x1="581.6" x2="660.8" y1="174.1938" y2="174.1938"/><!--MD5=[09b8057d3af95039e2dfe93c3f91e1db]
class IProfileRepositoryJPA--><rect codeLine="94" fill="#EEEEEE" filter="url(#fs5ct381wpkj2)" height="22.1125" id="IProfileRepositoryJPA" style="stroke:#000000;stroke-width:0.20000000000000004;" width="98.4" x="416.8" y="45.0375"/><ellipse cx="422.8" cy="52.8938" fill="#B4A7E5" rx="4.4" ry="4.4" style="stroke:#000000;stroke-width:0.4000000000000001;"/><path d="M421.3688,51.2063 L421.3688,50.2938 L424.325,50.2938 L424.325,51.2063 L423.3375,51.2063 L423.3375,54.5875 L424.325,54.5875 L424.325,55.4938 L421.3688,55.4938 L421.3688,54.5875 L422.3563,54.5875 L422.3563,51.2063 L421.3688,51.2063 Z " fill="#000000"/><text fill="#000000" font-family="Helvetica" font-size="8" font-style="italic" lengthAdjust="spacing" textLength="83.2" x="429.6" y="55.6633">IProfileRepositoryJPA</text><line style="stroke:#000000;stroke-width:0.20000000000000004;" x1="417.2" x2="514.8" y1="60.75" y2="60.75"/><line style="stroke:#000000;stroke-width:0.20000000000000004;" x1="417.2" x2="514.8" y1="63.95" y2="63.95"/><!--MD5=[449790ae0e72594f2a9618046298f12d]
class CreateProfileController--><rect codeLine="105" fill="#EEEEEE" filter="url(#fs5ct381wpkj2)" height="37.1563" id="CreateProfileController" style="stroke:#000000;stroke-width:0.20000000000000004;" width="191.2" x="169.2" y="140.2375"/><ellipse cx="216.3" cy="148.0938" fill="#ADD1B2" rx="4.4" ry="4.4" style="stroke:#000000;stroke-width:0.4000000000000001;"/><path d="M217.2875,150.4438 Q217.0563,150.5688 216.8,150.6313 Q216.5438,150.6938 216.2625,150.6938 Q215.2625,150.6938 214.7313,150.025 Q214.2063,149.3563 214.2063,148.0938 Q214.2063,146.8313 214.7313,146.1625 Q215.2625,145.4938 216.2625,145.4938 Q216.5438,145.4938 216.8,145.5563 Q217.0625,145.6188 217.2875,145.7438 L217.2875,146.8625 Q217.0375,146.6375 216.8,146.5313 Q216.5625,146.4188 216.3125,146.4188 Q215.775,146.4188 215.5,146.8438 Q215.225,147.2688 215.225,148.0938 Q215.225,148.925 215.5,149.35 Q215.775,149.7688 216.3125,149.7688 Q216.5625,149.7688 216.8,149.6625 Q217.0375,149.5563 217.2875,149.325 L217.2875,150.4438 Z " fill="#000000"/><text fill="#000000" font-family="Helvetica" font-size="8" lengthAdjust="spacing" textLength="91.2" x="225.7" y="150.8633">CreateProfileController</text><line style="stroke:#000000;stroke-width:0.20000000000000004;" x1="169.6" x2="360" y1="155.95" y2="155.95"/><rect fill="none" height="2.4" style="stroke:#C82930;stroke-width:0.4000000000000001;" width="2.4" x="172.4" y="159.15"/><text fill="#000000" font-family="sans-serif" font-size="4.4" lengthAdjust="spacing" textLength="95.2" x="178.4" y="162.8342">CreateProfileService createProfileService;</text><line style="stroke:#000000;stroke-width:0.20000000000000004;" x1="169.6" x2="360" y1="166.6719" y2="166.6719"/><ellipse cx="173.6" cy="171.0719" fill="#84BE84" rx="1.2" ry="1.2" style="stroke:#038048;stroke-width:0.4000000000000001;"/><text fill="#000000" font-family="sans-serif" font-size="4.4" lengthAdjust="spacing" textLength="178.4" x="178.4" y="173.5561">createProfile(ProfileDTO profileDTO) : ResponseEntity&lt;Optional&lt;ProfileDTO&gt;&gt;</text><!--MD5=[d3a16c4b4471157752fffe3e3cbceadd]
class ProfileRepository--><rect codeLine="113" fill="#EEEEEE" filter="url(#fs5ct381wpkj2)" height="52.2" id="ProfileRepository" style="stroke:#000000;stroke-width:0.20000000000000004;" width="131.2" x="392.4" y="132.6375"/><ellipse cx="421.1" cy="140.4938" fill="#ADD1B2" rx="4.4" ry="4.4" style="stroke:#000000;stroke-width:0.4000000000000001;"/><path d="M422.0875,142.8438 Q421.8563,142.9688 421.6,143.0313 Q421.3438,143.0938 421.0625,143.0938 Q420.0625,143.0938 419.5313,142.425 Q419.0063,141.7563 419.0063,140.4938 Q419.0063,139.2313 419.5313,138.5625 Q420.0625,137.8938 421.0625,137.8938 Q421.3438,137.8938 421.6,137.9563 Q421.8625,138.0188 422.0875,138.1438 L422.0875,139.2625 Q421.8375,139.0375 421.6,138.9313 Q421.3625,138.8188 421.1125,138.8188 Q420.575,138.8188 420.3,139.2438 Q420.025,139.6688 420.025,140.4938 Q420.025,141.325 420.3,141.75 Q420.575,142.1688 421.1125,142.1688 Q421.3625,142.1688 421.6,142.0625 Q421.8375,141.9563 422.0875,141.725 L422.0875,142.8438 Z " fill="#000000"/><text fill="#000000" font-family="Helvetica" font-size="8" lengthAdjust="spacing" textLength="68" x="430.5" y="143.2633">ProfileRepository</text><line style="stroke:#000000;stroke-width:0.20000000000000004;" x1="392.8" x2="523.2" y1="148.35" y2="148.35"/><line style="stroke:#000000;stroke-width:0.20000000000000004;" x1="392.8" x2="523.2" y1="151.55" y2="151.55"/><ellipse cx="396.8" cy="155.95" fill="#84BE84" rx="1.2" ry="1.2" style="stroke:#038048;stroke-width:0.4000000000000001;"/><text fill="#000000" font-family="sans-serif" font-size="4.4" lengthAdjust="spacing" textLength="118.4" x="401.6" y="158.4342">findByName(Name profileName) : Optional&lt;Profile&gt;</text><ellipse cx="396.8" cy="163.4719" fill="#84BE84" rx="1.2" ry="1.2" style="stroke:#038048;stroke-width:0.4000000000000001;"/><text fill="#000000" font-family="sans-serif" font-size="4.4" lengthAdjust="spacing" textLength="65.2" x="401.6" y="165.9561">save (Profile profile) : Profile</text><ellipse cx="396.8" cy="170.9938" fill="#84BE84" rx="1.2" ry="1.2" style="stroke:#038048;stroke-width:0.4000000000000001;"/><text fill="#000000" font-family="sans-serif" font-size="4.4" lengthAdjust="spacing" textLength="100.8" x="401.6" y="173.4779">existsByName(Name profileName) : boolean</text><ellipse cx="396.8" cy="178.5156" fill="#84BE84" rx="1.2" ry="1.2" style="stroke:#038048;stroke-width:0.4000000000000001;"/><text fill="#000000" font-family="sans-serif" font-size="4.4" lengthAdjust="spacing" textLength="67.6" x="401.6" y="180.9998">getAllProfiles(): List&lt;Profiles&gt;</text><!--MD5=[93e8c18ad91cb9f47daa1954dc5fd9b5]
class CreateProfileService--><rect codeLine="132" fill="#EEEEEE" filter="url(#fs5ct381wpkj2)" height="52.2" id="CreateProfileService" style="stroke:#000000;stroke-width:0.20000000000000004;" width="168.4" x="180.6" y="342.2375"/><ellipse cx="221.3" cy="350.0938" fill="#ADD1B2" rx="4.4" ry="4.4" style="stroke:#000000;stroke-width:0.4000000000000001;"/><path d="M222.2875,352.4438 Q222.0563,352.5688 221.8,352.6313 Q221.5438,352.6938 221.2625,352.6938 Q220.2625,352.6938 219.7313,352.025 Q219.2063,351.3563 219.2063,350.0938 Q219.2063,348.8313 219.7313,348.1625 Q220.2625,347.4938 221.2625,347.4938 Q221.5438,347.4938 221.8,347.5563 Q222.0625,347.6188 222.2875,347.7438 L222.2875,348.8625 Q222.0375,348.6375 221.8,348.5313 Q221.5625,348.4188 221.3125,348.4188 Q220.775,348.4188 220.5,348.8438 Q220.225,349.2688 220.225,350.0938 Q220.225,350.925 220.5,351.35 Q220.775,351.7688 221.3125,351.7688 Q221.5625,351.7688 221.8,351.6625 Q222.0375,351.5563 222.2875,351.325 L222.2875,352.4438 Z " fill="#000000"/><text fill="#000000" font-family="Helvetica" font-size="8" lengthAdjust="spacing" textLength="81.2" x="230.7" y="352.8633">CreateProfileService</text><line style="stroke:#000000;stroke-width:0.20000000000000004;" x1="181" x2="348.6" y1="357.95" y2="357.95"/><rect fill="none" height="2.4" style="stroke:#C82930;stroke-width:0.4000000000000001;" width="2.4" x="183.8" y="361.15"/><text fill="#000000" font-family="sans-serif" font-size="4.4" lengthAdjust="spacing" textLength="80.8" x="189.8" y="364.8342">ProfileRepository profileRepository;</text><rect fill="none" height="2.4" style="stroke:#C82930;stroke-width:0.4000000000000001;" width="2.4" x="183.8" y="368.6719"/><text fill="#000000" font-family="sans-serif" font-size="4.4" lengthAdjust="spacing" textLength="99.2" x="189.8" y="372.3561">ProfileDTOAssembler profileDTOAssembler;</text><rect fill="none" height="2.4" style="stroke:#C82930;stroke-width:0.4000000000000001;" width="2.4" x="183.8" y="376.1938"/><text fill="#000000" font-family="sans-serif" font-size="4.4" lengthAdjust="spacing" textLength="105.6" x="189.8" y="379.8779">ProfileFactoryInterface profileFactoryInterface;</text><line style="stroke:#000000;stroke-width:0.20000000000000004;" x1="181" x2="348.6" y1="383.7156" y2="383.7156"/><ellipse cx="185" cy="388.1156" fill="#84BE84" rx="1.2" ry="1.2" style="stroke:#038048;stroke-width:0.4000000000000001;"/><text fill="#000000" font-family="sans-serif" font-size="4.4" lengthAdjust="spacing" textLength="155.6" x="189.8" y="390.5998">createAndSaveProfile(ProfileDTO profileDTo) : Optional&lt;ProfileDTO&gt;</text><!--MD5=[93f700a1aff200bc1dbc9c6851d83b5d]
class IProfileRepository--><rect codeLine="142" fill="#EEEEEE" filter="url(#fs5ct381wpkj2)" height="22.1125" id="IProfileRepository" style="stroke:#000000;stroke-width:0.20000000000000004;" width="85.6" x="381.2" y="357.4375"/><ellipse cx="387.2" cy="365.2938" fill="#B4A7E5" rx="4.4" ry="4.4" style="stroke:#000000;stroke-width:0.4000000000000001;"/><path d="M385.7688,363.6063 L385.7688,362.6938 L388.725,362.6938 L388.725,363.6063 L387.7375,363.6063 L387.7375,366.9875 L388.725,366.9875 L388.725,367.8938 L385.7688,367.8938 L385.7688,366.9875 L386.7563,366.9875 L386.7563,363.6063 L385.7688,363.6063 Z " fill="#000000"/><text fill="#000000" font-family="Helvetica" font-size="8" font-style="italic" lengthAdjust="spacing" textLength="70.4" x="394" y="368.0633">IProfileRepository</text><line style="stroke:#000000;stroke-width:0.20000000000000004;" x1="381.6" x2="466.4" y1="373.15" y2="373.15"/><line style="stroke:#000000;stroke-width:0.20000000000000004;" x1="381.6" x2="466.4" y1="376.35" y2="376.35"/><!--MD5=[4c3d0b0eded12bdd44e8f263e9f6c5db]
class ProfileDTOAssembler--><rect codeLine="153" fill="#EEEEEE" filter="url(#fs5ct381wpkj2)" height="29.6344" id="ProfileDTOAssembler" style="stroke:#000000;stroke-width:0.20000000000000004;" width="99.2" x="18.8" y="144.0375"/><ellipse cx="24.8" cy="151.8938" fill="#ADD1B2" rx="4.4" ry="4.4" style="stroke:#000000;stroke-width:0.4000000000000001;"/><path d="M25.7875,154.2438 Q25.5563,154.3688 25.3,154.4313 Q25.0438,154.4938 24.7625,154.4938 Q23.7625,154.4938 23.2313,153.825 Q22.7063,153.1563 22.7063,151.8938 Q22.7063,150.6313 23.2313,149.9625 Q23.7625,149.2938 24.7625,149.2938 Q25.0438,149.2938 25.3,149.3563 Q25.5625,149.4188 25.7875,149.5438 L25.7875,150.6625 Q25.5375,150.4375 25.3,150.3313 Q25.0625,150.2188 24.8125,150.2188 Q24.275,150.2188 24,150.6438 Q23.725,151.0688 23.725,151.8938 Q23.725,152.725 24,153.15 Q24.275,153.5688 24.8125,153.5688 Q25.0625,153.5688 25.3,153.4625 Q25.5375,153.3563 25.7875,153.125 L25.7875,154.2438 Z " fill="#000000"/><text fill="#000000" font-family="Helvetica" font-size="8" lengthAdjust="spacing" textLength="84" x="31.6" y="154.6633">ProfileDTOAssembler</text><line style="stroke:#000000;stroke-width:0.20000000000000004;" x1="19.2" x2="117.6" y1="159.75" y2="159.75"/><line style="stroke:#000000;stroke-width:0.20000000000000004;" x1="19.2" x2="117.6" y1="162.95" y2="162.95"/><ellipse cx="23.2" cy="167.35" fill="#84BE84" rx="1.2" ry="1.2" style="stroke:#038048;stroke-width:0.4000000000000001;"/><text fill="#000000" font-family="sans-serif" font-size="4.4" lengthAdjust="spacing" textLength="76.4" x="28" y="169.8342">toDTO(Profile profile) : ProfileDTO</text><!--MD5=[aadb28a185cb20454608b612a1d7939e]
class ProfileDTO--><rect codeLine="160" fill="#EEEEEE" filter="url(#fs5ct381wpkj2)" height="29.6344" id="ProfileDTO" style="stroke:#000000;stroke-width:0.20000000000000004;" width="80" x="28.4" y="229.8375"/><ellipse cx="44.48" cy="237.6938" fill="#ADD1B2" rx="4.4" ry="4.4" style="stroke:#000000;stroke-width:0.4000000000000001;"/><path d="M45.4675,240.0438 Q45.2363,240.1688 44.98,240.2313 Q44.7238,240.2938 44.4425,240.2938 Q43.4425,240.2938 42.9113,239.625 Q42.3863,238.9563 42.3863,237.6938 Q42.3863,236.4313 42.9113,235.7625 Q43.4425,235.0938 44.4425,235.0938 Q44.7238,235.0938 44.98,235.1563 Q45.2425,235.2188 45.4675,235.3438 L45.4675,236.4625 Q45.2175,236.2375 44.98,236.1313 Q44.7425,236.0188 44.4925,236.0188 Q43.955,236.0188 43.68,236.4438 Q43.405,236.8688 43.405,237.6938 Q43.405,238.525 43.68,238.95 Q43.955,239.3688 44.4925,239.3688 Q44.7425,239.3688 44.98,239.2625 Q45.2175,239.1563 45.4675,238.925 L45.4675,240.0438 Z " fill="#000000"/><text fill="#000000" font-family="Helvetica" font-size="8" lengthAdjust="spacing" textLength="42.4" x="53.52" y="240.4633">ProfileDTO</text><line style="stroke:#000000;stroke-width:0.20000000000000004;" x1="28.8" x2="108" y1="245.55" y2="245.55"/><ellipse cx="32.8" cy="249.95" fill="none" rx="1.2" ry="1.2" style="stroke:#038048;stroke-width:0.4000000000000001;"/><text fill="#000000" font-family="sans-serif" font-size="4.4" lengthAdjust="spacing" textLength="29.2" x="37.6" y="252.4342">String name;</text><line style="stroke:#000000;stroke-width:0.20000000000000004;" x1="28.8" x2="108" y1="256.2719" y2="256.2719"/><!--MD5=[7b57f7066b803747d2119f99dd1555d4]
class Profile--><rect codeLine="173" fill="#EEEEEE" filter="url(#fs5ct381wpkj2)" height="44.2125" id="Profile" style="stroke:#000000;stroke-width:0.20000000000000004;" width="80" x="196" y="495.8375"/><ellipse cx="220.5" cy="507.2219" fill="#ADD1B2" rx="4.4" ry="4.4" style="stroke:#000000;stroke-width:0.4000000000000001;"/><path d="M221.4875,509.5719 Q221.2563,509.6969 221,509.7594 Q220.7438,509.8219 220.4625,509.8219 Q219.4625,509.8219 218.9313,509.1531 Q218.4063,508.4844 218.4063,507.2219 Q218.4063,505.9594 218.9313,505.2906 Q219.4625,504.6219 220.4625,504.6219 Q220.7438,504.6219 221,504.6844 Q221.2625,504.7469 221.4875,504.8719 L221.4875,505.9906 Q221.2375,505.7656 221,505.6594 Q220.7625,505.5469 220.5125,505.5469 Q219.975,505.5469 219.7,505.9719 Q219.425,506.3969 219.425,507.2219 Q219.425,508.0531 219.7,508.4781 Q219.975,508.8969 220.5125,508.8969 Q220.7625,508.8969 221,508.7906 Q221.2375,508.6844 221.4875,508.4531 L221.4875,509.5719 Z " fill="#000000"/><text fill="#000000" font-family="sans-serif" font-size="4" font-style="italic" lengthAdjust="spacing" textLength="14" x="235.5" y="502.7504">«Root»</text><text fill="#000000" font-family="Helvetica" font-size="8" lengthAdjust="spacing" textLength="25.2" x="229.9" y="513.5195">Profile</text><line style="stroke:#000000;stroke-width:0.20000000000000004;" x1="196.4" x2="275.6" y1="518.6063" y2="518.6063"/><rect fill="none" height="2.4" style="stroke:#C82930;stroke-width:0.4000000000000001;" width="2.4" x="199.2" y="521.8063"/><text fill="#000000" font-family="sans-serif" font-size="4.4" lengthAdjust="spacing" textLength="40.8" x="205.2" y="525.4904">ProfileID profileID;</text><rect fill="none" height="2.4" style="stroke:#C82930;stroke-width:0.4000000000000001;" width="2.4" x="199.2" y="529.3281"/><text fill="#000000" font-family="sans-serif" font-size="4.4" lengthAdjust="spacing" textLength="44" x="205.2" y="533.0123">Name profileName;</text><line style="stroke:#000000;stroke-width:0.20000000000000004;" x1="196.4" x2="275.6" y1="536.85" y2="536.85"/><!--MD5=[2ff1875d3be9a5401371870790bb65ce]
class ProfileFactoryInterface--><rect codeLine="183" fill="#EEEEEE" filter="url(#fs5ct381wpkj2)" height="22.1125" id="ProfileFactoryInterface" style="stroke:#000000;stroke-width:0.20000000000000004;" width="106" x="57.8" y="553.0375"/><ellipse cx="63.8" cy="560.8938" fill="#B4A7E5" rx="4.4" ry="4.4" style="stroke:#000000;stroke-width:0.4000000000000001;"/><path d="M62.3688,559.2063 L62.3688,558.2938 L65.325,558.2938 L65.325,559.2063 L64.3375,559.2063 L64.3375,562.5875 L65.325,562.5875 L65.325,563.4938 L62.3688,563.4938 L62.3688,562.5875 L63.3563,562.5875 L63.3563,559.2063 L62.3688,559.2063 Z " fill="#000000"/><text fill="#000000" font-family="Helvetica" font-size="8" font-style="italic" lengthAdjust="spacing" textLength="90.8" x="70.6" y="563.6633">ProfileFactoryInterface</text><line style="stroke:#000000;stroke-width:0.20000000000000004;" x1="58.2" x2="163.4" y1="568.75" y2="568.75"/><line style="stroke:#000000;stroke-width:0.20000000000000004;" x1="58.2" x2="163.4" y1="571.95" y2="571.95"/><!--MD5=[a6eb3821dcb4db079ac788df5d85dafa]
class ProfileFactory--><rect codeLine="187" fill="#EEEEEE" filter="url(#fs5ct381wpkj2)" height="29.6344" id="ProfileFactory" style="stroke:#000000;stroke-width:0.20000000000000004;" width="106.4" x="57.6" y="503.2375"/><ellipse cx="80.3" cy="511.0938" fill="#ADD1B2" rx="4.4" ry="4.4" style="stroke:#000000;stroke-width:0.4000000000000001;"/><path d="M81.2875,513.4438 Q81.0563,513.5688 80.8,513.6313 Q80.5438,513.6938 80.2625,513.6938 Q79.2625,513.6938 78.7313,513.025 Q78.2063,512.3563 78.2063,511.0938 Q78.2063,509.8313 78.7313,509.1625 Q79.2625,508.4938 80.2625,508.4938 Q80.5438,508.4938 80.8,508.5563 Q81.0625,508.6188 81.2875,508.7438 L81.2875,509.8625 Q81.0375,509.6375 80.8,509.5313 Q80.5625,509.4188 80.3125,509.4188 Q79.775,509.4188 79.5,509.8438 Q79.225,510.2688 79.225,511.0938 Q79.225,511.925 79.5,512.35 Q79.775,512.7688 80.3125,512.7688 Q80.5625,512.7688 80.8,512.6625 Q81.0375,512.5563 81.2875,512.325 L81.2875,513.4438 Z " fill="#000000"/><text fill="#000000" font-family="Helvetica" font-size="8" lengthAdjust="spacing" textLength="55.2" x="89.7" y="513.8633">ProfileFactory</text><line style="stroke:#000000;stroke-width:0.20000000000000004;" x1="58" x2="163.6" y1="518.95" y2="518.95"/><line style="stroke:#000000;stroke-width:0.20000000000000004;" x1="58" x2="163.6" y1="522.15" y2="522.15"/><ellipse cx="62" cy="526.55" fill="#84BE84" rx="1.2" ry="1.2" style="stroke:#038048;stroke-width:0.4000000000000001;"/><text fill="#000000" font-family="sans-serif" font-size="4.4" lengthAdjust="spacing" textLength="93.6" x="66.8" y="529.0342">createProfile(Name profileName) : Profile</text><!--MD5=[343dfb9384c52457036abae04ca3a80e]
link CreateProfileController to CreateProfileService--><path codeLine="199" d="M264.8,177.4375 C264.8,177.4375 264.8,340.1135 264.8,340.1135 " fill="none" id="CreateProfileController-to-CreateProfileService" style="stroke:#000000;stroke-width:0.4000000000000001;"/><polygon fill="#000000" points="264.8,342.1135,266.4,338.5135,264.8,340.1135,263.2,338.5135,264.8,342.1135" style="stroke:#000000;stroke-width:0.4000000000000001;"/><!--MD5=[c16e350314fff946b6accd5ca1156de6]
reverse link ProfileDTOAssembler to CreateProfileController--><path codeLine="201" d="M120.088,159.0375 C120.088,159.0375 169.032,159.0375 169.032,159.0375 " fill="none" id="ProfileDTOAssembler-backto-CreateProfileController" style="stroke:#000000;stroke-width:0.4000000000000001;"/><polygon fill="#000000" points="118.088,159.0375,121.688,160.6375,120.088,159.0375,121.688,157.4375,118.088,159.0375" style="stroke:#000000;stroke-width:0.4000000000000001;"/><!--MD5=[9309b40b94fd16b8b0dbdffd583f5420]
reverse link ProfileDTOAssembler to CreateProfileService--><path codeLine="203" d="M113.2,175.7575 C113.2,175.7575 113.2,368.6375 113.2,368.6375 C113.2,368.6375 145.684,368.6375 180.576,368.6375 " fill="none" id="ProfileDTOAssembler-backto-CreateProfileService" style="stroke:#000000;stroke-width:0.4000000000000001;"/><polygon fill="#000000" points="113.2,173.7575,111.6,177.3575,113.2,175.7575,114.8,177.3575,113.2,173.7575" style="stroke:#000000;stroke-width:0.4000000000000001;"/><!--MD5=[b02297eab85c39225208fa3e8a5d632b]
link ProfileDTOAssembler to ProfileDTO--><path codeLine="205" d="M68.4,173.7815 C68.4,173.7815 68.4,221.7215 68.4,221.7215 " fill="none" id="ProfileDTOAssembler-to-ProfileDTO" style="stroke:#000000;stroke-width:0.4000000000000001;"/><polygon fill="none" points="71.2,221.7215,68.4,229.7215,65.6,221.7215,71.2,221.7215" style="stroke:#000000;stroke-width:0.4000000000000001;"/><text fill="#000000" font-family="sans-serif" font-size="5.2" lengthAdjust="spacing" textLength="28.4" x="38.4" y="194.9763">Assembles</text><!--MD5=[0f5802027e1763337a93cced2142528a]
link CreateProfileService to IProfileRepository--><path codeLine="207" d="M349.06,368.6375 C349.06,368.6375 379.164,368.6375 379.164,368.6375 " fill="none" id="CreateProfileService-to-IProfileRepository" style="stroke:#000000;stroke-width:0.4000000000000001;stroke-dasharray:7.0,7.0;"/><polygon fill="#000000" points="381.164,368.6375,377.564,367.0375,379.164,368.6375,377.564,370.2375,381.164,368.6375" style="stroke:#000000;stroke-width:0.4000000000000001;"/><!--MD5=[8b083cecc62b062339a09e03969e0a19]
link ProfileRepository to IProfileRepository--><path codeLine="209" d="M429.6,185.0655 C429.6,185.0655 429.6,349.3855 429.6,349.3855 " fill="none" id="ProfileRepository-to-IProfileRepository" style="stroke:#000000;stroke-width:0.4000000000000001;stroke-dasharray:7.0,7.0;"/><polygon fill="none" points="432.4,349.3855,429.6,357.3855,426.8,349.3855,432.4,349.3855" style="stroke:#000000;stroke-width:0.4000000000000001;"/><!--MD5=[dfaf05b71cee3f046c6d268c87b84bc7]
reverse link IProfileRepositoryJPA to ProfileRepository--><path codeLine="211" d="M466,69.0375 C466,69.0375 466,132.5415 466,132.5415 " fill="none" id="IProfileRepositoryJPA-backto-ProfileRepository" style="stroke:#000000;stroke-width:0.4000000000000001;stroke-dasharray:7.0,7.0;"/><polygon fill="#000000" points="466,67.0375,464.4,70.6375,466,69.0375,467.6,70.6375,466,67.0375" style="stroke:#000000;stroke-width:0.4000000000000001;"/><!--MD5=[af76a19c3fcb2d24a50fc47dbe680786]
link ProfileDomainDataAssembler to IProfileRepositoryJPA--><path codeLine="213" d="M555.38,56.2375 C555.38,56.2375 523.2,56.2375 523.2,56.2375 " fill="none" id="ProfileDomainDataAssembler-to-IProfileRepositoryJPA" style="stroke:#000000;stroke-width:0.4000000000000001;stroke-dasharray:7.0,7.0;"/><polygon fill="none" points="523.2,59.0375,515.2,56.2375,523.2,53.4375,523.2,59.0375" style="stroke:#000000;stroke-width:0.4000000000000001;"/><!--MD5=[7da8469dad7065df3c33a059bbabdc85]
link ProfileDomainDataAssembler to ProfileJPA--><path codeLine="215" d="M621.2,74.6535 C621.2,74.6535 621.2,132.1855 621.2,132.1855 " fill="none" id="ProfileDomainDataAssembler-to-ProfileJPA" style="stroke:#000000;stroke-width:0.4000000000000001;"/><polygon fill="none" points="624,132.1855,621.2,140.1855,618.4,132.1855,624,132.1855" style="stroke:#000000;stroke-width:0.4000000000000001;"/><text fill="#000000" font-family="sans-serif" font-size="5.2" lengthAdjust="spacing" textLength="28.4" x="591.2" y="100.6483">Assembles</text><!--MD5=[ed57b1cc37901ff94a7a14e75a1e57e8]
link ProfileFactory to ProfileFactoryInterface--><path codeLine="217" d="M110.8,532.8455 C110.8,532.8455 110.8,544.9055 110.8,544.9055 " fill="none" id="ProfileFactory-to-ProfileFactoryInterface" style="stroke:#000000;stroke-width:0.4000000000000001;stroke-dasharray:7.0,7.0;"/><polygon fill="none" points="113.6,544.9055,110.8,552.9055,108,544.9055,113.6,544.9055" style="stroke:#000000;stroke-width:0.4000000000000001;"/><!--MD5=[36fccaf226e8724eb70b643b3fbc86c1]
link CreateProfileService to ProfileFactoryInterface--><path codeLine="219" d="M188.3,394.6415 C188.3,447.9935 188.3,564.2375 188.3,564.2375 C188.3,564.2375 165.884,564.2375 165.884,564.2375 " fill="none" id="CreateProfileService-to-ProfileFactoryInterface" style="stroke:#000000;stroke-width:0.4000000000000001;stroke-dasharray:7.0,7.0;"/><polygon fill="#000000" points="163.884,564.2375,167.484,565.8375,165.884,564.2375,167.484,562.6375,163.884,564.2375" style="stroke:#000000;stroke-width:0.4000000000000001;"/><!--MD5=[b8af5501f425d8e9068211e8ae8915e8]
link CreateProfileService to Profile--><path codeLine="221" d="M236,394.6655 C236,394.6655 236,493.7455 236,493.7455 " fill="none" id="CreateProfileService-to-Profile" style="stroke:#000000;stroke-width:0.4000000000000001;"/><polygon fill="#000000" points="236,495.7455,237.6,492.1455,236,493.7455,234.4,492.1455,236,495.7455" style="stroke:#000000;stroke-width:0.4000000000000001;"/><text fill="#888888" font-family="sans-serif" font-size="4" lengthAdjust="spacing" textLength="58.4" x="316" y="607.5504">DDD - Domain Driven Design</text><!--MD5=[43462a01ebdc8495efba312b67455eb9]
@startuml
'https://plantuml.com/class-diagram

'######################
'######################  start config
skinparam linetype ortho
'hide circle

skinparam minClassWidth 200
skinparam nodesep 80
skinparam ranksep 20
skinparam padding 3

skinparam package  {
    BackgroundColor white
    BorderColor grey
    shadowing false
    FontStyle normal
    FontSize 16
    borderThickness 0.5
    fontColor #000
}

skinparam legend {
    backgroundColor white
    borderColor white
    shadowing false
    FontStyle normal
    FontSize 12
    borderThickness 0.5
    fontColor black
    padding 0
    DesignedBorderColor white
}

skinparam class {
    stereotypeFontSize 10
    fontSize 20
    fontName Helvetica

    arrowColor black
    arrowThickness 1
    attributeIconSize 10

    borderColor black
    borderThickness 0.5
    backgroundColor #eee


}

skinparam entity {
    backgroundColor red
    borderColor black
    borderThickness 0.5

}

skinparam rectangle {
    shadowing false
    fontSize 15
    textAlignment left
    fontStyle italic
    stereotypeFontSize 10
    borderThickness 0.5

}

'TITLE ON TOP
title US013 - As a director I want to create Profiles

'HEADER FOOTER DESCRIPTIONS
center header ONION
center footer DDD - Domain Driven Design

'###################### end config
'######################

rectangle "AssemblersJPA" {

    class "ProfileDomainDataAssembler" {
        + toData( Profile profile ) : ProfileJPA
        + toDomain( ProfileJPA profileJPA ) : Profile
    }

    class ProfileJPA {

        - ProfileId profileID
        - Name name
    }
}

rectangle "Infrastructure" {

        interface IProfileRepositoryJPA {
        }
}


rectangle "Interface Adapters" #C0FFC050  {

      rectangle "Controllers" #C0FFC080  {

          package "ImplementedControllers" #7acff5  {

            class CreateProfileController {
                - CreateProfileService createProfileService;
                + createProfile(ProfileDTO profileDTO) : ResponseEntity<Optional<ProfileDTO>>
            }
          }
}
          package "Repositories" #7acff5  {

            class ProfileRepository {
                + findByName(Name profileName) : Optional<Profile>
                + save (Profile profile) : Profile
                + existsByName(Name profileName) : boolean
                + getAllProfiles(): List<Profiles>
            }

          }

      }



rectangle "Application Services / Use Case Services" #FFAFAF50  {

rectangle "App Services" #FFAFAF80  {

          package "ImplementedAppServices" #7acff5  {

            class CreateProfileService {
                - ProfileRepository profileRepository;
                - ProfileDTOAssembler profileDTOAssembler;
                - ProfileFactoryInterface profileFactoryInterface;
                + createAndSaveProfile(ProfileDTO profileDTo) : Optional<ProfileDTO>
            }
          }

          package "IRepositories" #7acff5 {

            interface IProfileRepository
          }

      }

}

rectangle "Assemblers and DTO's" {

        package "Assemblers" {

            class ProfileDTOAssembler {
                + toDTO(Profile profile) : ProfileDTO
            }
        }

        package "DTO" {

            class ProfileDTO {
                + String name;

            }
        }
}

rectangle "Entities / Core / Domain" #FFE0C050  {

    rectangle "Aggregates" #7acff580  {

        package "Profile" <<Aggregate>> #7acff5 {

            class Profile <<Root>> {
                - ProfileID profileID;
                - Name profileName;
        }


        }

        package "Factories" #7acff5 {

            interface ProfileFactoryInterface {

            }

            class ProfileFactory {
                + createProfile(Name profileName) : Profile
            }

        }
    }




}

CreateProfileController -down-> CreateProfileService

CreateProfileController -left-> ProfileDTOAssembler

CreateProfileService - -left-> ProfileDTOAssembler

ProfileDTOAssembler - -down|> ProfileDTO : Assembles

CreateProfileService ..right.> IProfileRepository

ProfileRepository ..down.|> IProfileRepository

ProfileRepository .up.> IProfileRepositoryJPA

"ProfileDomainDataAssembler" ..right.|> IProfileRepositoryJPA

"ProfileDomainDataAssembler" - -down|>  ProfileJPA : Assembles

ProfileFactory ..|> ProfileFactoryInterface

CreateProfileService ..> ProfileFactoryInterface

CreateProfileService - -> Profile


@enduml

@startuml

skinparam linetype ortho

skinparam minClassWidth 200
skinparam nodesep 80
skinparam ranksep 20
skinparam padding 3

skinparam package  {
    BackgroundColor white
    BorderColor grey
    shadowing false
    FontStyle normal
    FontSize 16
    borderThickness 0.5
    fontColor #000
}

skinparam legend {
    backgroundColor white
    borderColor white
    shadowing false
    FontStyle normal
    FontSize 12
    borderThickness 0.5
    fontColor black
    padding 0
    DesignedBorderColor white
}

skinparam class {
    stereotypeFontSize 10
    fontSize 20
    fontName Helvetica

    arrowColor black
    arrowThickness 1
    attributeIconSize 10

    borderColor black
    borderThickness 0.5
    backgroundColor #eee


}

skinparam entity {
    backgroundColor red
    borderColor black
    borderThickness 0.5

}

skinparam rectangle {
    shadowing false
    fontSize 15
    textAlignment left
    fontStyle italic
    stereotypeFontSize 10
    borderThickness 0.5

}

title US013 - As a director I want to create Profiles

center header ONION
center footer DDD - Domain Driven Design


rectangle "AssemblersJPA" {

    class "ProfileDomainDataAssembler" {
        + toData( Profile profile ) : ProfileJPA
        + toDomain( ProfileJPA profileJPA ) : Profile
    }

    class ProfileJPA {

        - ProfileId profileID
        - Name name
    }
}

rectangle "Infrastructure" {

        interface IProfileRepositoryJPA {
        }
}


rectangle "Interface Adapters" #C0FFC050  {

      rectangle "Controllers" #C0FFC080  {

          package "ImplementedControllers" #7acff5  {

            class CreateProfileController {
                - CreateProfileService createProfileService;
                + createProfile(ProfileDTO profileDTO) : ResponseEntity<Optional<ProfileDTO>>
            }
          }
}
          package "Repositories" #7acff5  {

            class ProfileRepository {
                + findByName(Name profileName) : Optional<Profile>
                + save (Profile profile) : Profile
                + existsByName(Name profileName) : boolean
                + getAllProfiles(): List<Profiles>
            }

          }

      }



rectangle "Application Services / Use Case Services" #FFAFAF50  {

rectangle "App Services" #FFAFAF80  {

          package "ImplementedAppServices" #7acff5  {

            class CreateProfileService {
                - ProfileRepository profileRepository;
                - ProfileDTOAssembler profileDTOAssembler;
                - ProfileFactoryInterface profileFactoryInterface;
                + createAndSaveProfile(ProfileDTO profileDTo) : Optional<ProfileDTO>
            }
          }

          package "IRepositories" #7acff5 {

            interface IProfileRepository
          }

      }

}

rectangle "Assemblers and DTO's" {

        package "Assemblers" {

            class ProfileDTOAssembler {
                + toDTO(Profile profile) : ProfileDTO
            }
        }

        package "DTO" {

            class ProfileDTO {
                + String name;

            }
        }
}

rectangle "Entities / Core / Domain" #FFE0C050  {

    rectangle "Aggregates" #7acff580  {

        package "Profile" <<Aggregate>> #7acff5 {

            class Profile <<Root>> {
                - ProfileID profileID;
                - Name profileName;
        }


        }

        package "Factories" #7acff5 {

            interface ProfileFactoryInterface {

            }

            class ProfileFactory {
                + createProfile(Name profileName) : Profile
            }

        }
    }




}

CreateProfileController -down-> CreateProfileService

CreateProfileController -left-> ProfileDTOAssembler

CreateProfileService - -left-> ProfileDTOAssembler

ProfileDTOAssembler - -down|> ProfileDTO : Assembles

CreateProfileService ..right.> IProfileRepository

ProfileRepository ..down.|> IProfileRepository

ProfileRepository .up.> IProfileRepositoryJPA

"ProfileDomainDataAssembler" ..right.|> IProfileRepositoryJPA

"ProfileDomainDataAssembler" - -down|>  ProfileJPA : Assembles

ProfileFactory ..|> ProfileFactoryInterface

CreateProfileService ..> ProfileFactoryInterface

CreateProfileService - -> Profile


@enduml

PlantUML version 1.2022.1(Tue Feb 01 18:19:58 WET 2022)
(GPL source distribution)
Java Runtime: OpenJDK Runtime Environment
JVM: OpenJDK 64-Bit Server VM
Default Encoding: UTF-8
Language: en
Country: US
--></g></svg>