<?xml version="1.0" encoding="UTF-8" standalone="no"?><svg xmlns="http://www.w3.org/2000/svg" xmlns:xlink="http://www.w3.org/1999/xlink" contentScriptType="application/ecmascript" contentStyleType="text/css" height="413px" preserveAspectRatio="none" style="width:377px;height:413px;background:#FFFFFF;" version="1.1" viewBox="0 0 377 413" width="377px" zoomAndPan="magnify"><defs><filter height="300%" id="f8x92liptyvtb" width="300%" x="-1" y="-1"><feGaussianBlur result="blurOut" stdDeviation="2.0"/><feColorMatrix in="blurOut" result="blurOut2" type="matrix" values="0 0 0 0 0 0 0 0 0 0 0 0 0 0 0 0 0 0 .4 0"/><feOffset dx="4.0" dy="4.0" in="blurOut2" result="blurOut3"/><feBlend in="SourceGraphic" in2="blurOut3" mode="normal"/></filter></defs><g><text fill="#000000" font-family="sans-serif" font-size="18" lengthAdjust="spacing" textLength="327" x="22.5" y="58.8418">System Sequence Diagram of the US007</text><rect fill="#FFFFFF" filter="url(#f8x92liptyvtb)" height="77.0547" style="stroke:#FFFFFF;stroke-width:1.0;" width="10" x="28" y="192.4063"/><line style="stroke:#383838;stroke-width:1.0;" x1="28" x2="28" y1="192.4063" y2="269.4609"/><line style="stroke:#383838;stroke-width:1.0;" x1="38" x2="38" y1="192.4063" y2="269.4609"/><line style="stroke:#383838;stroke-width:1.0;" x1="28" x2="38" y1="192.4063" y2="192.4063"/><rect fill="#FFFFFF" filter="url(#f8x92liptyvtb)" height="1" style="stroke:#FFFFFF;stroke-width:1.0;" width="10" x="28" y="297.4609"/><line style="stroke:#383838;stroke-width:1.0;" x1="28" x2="28" y1="297.4609" y2="298.4609"/><line style="stroke:#383838;stroke-width:1.0;" x1="38" x2="38" y1="297.4609" y2="298.4609"/><rect fill="#FFFFFF" filter="url(#f8x92liptyvtb)" height="30.3516" style="stroke:#383838;stroke-width:1.0;" width="10" x="328" y="231.1094"/><line style="stroke:#383838;stroke-width:1.0;" x1="33" x2="33" y1="154.4063" y2="164.4063"/><line style="stroke:#383838;stroke-width:1.0;stroke-dasharray:1.0,4.0;" x1="33" x2="33" y1="164.4063" y2="192.4063"/><line style="stroke:#383838;stroke-width:1.0;" x1="33" x2="33" y1="192.4063" y2="269.4609"/><line style="stroke:#383838;stroke-width:1.0;stroke-dasharray:1.0,4.0;" x1="33" x2="33" y1="269.4609" y2="297.4609"/><line style="stroke:#383838;stroke-width:1.0;" x1="33" x2="33" y1="297.4609" y2="307.4609"/><line style="stroke:#383838;stroke-width:1.0;" x1="333" x2="333" y1="154.4063" y2="164.4063"/><line style="stroke:#383838;stroke-width:1.0;stroke-dasharray:1.0,4.0;" x1="333" x2="333" y1="164.4063" y2="192.4063"/><line style="stroke:#383838;stroke-width:1.0;" x1="333" x2="333" y1="192.4063" y2="269.4609"/><line style="stroke:#383838;stroke-width:1.0;stroke-dasharray:1.0,4.0;" x1="333" x2="333" y1="269.4609" y2="297.4609"/><line style="stroke:#383838;stroke-width:1.0;" x1="333" x2="333" y1="297.4609" y2="307.4609"/><text fill="#000000" font-family="sans-serif" font-size="14" lengthAdjust="spacing" textLength="50" x="5" y="151.3301">Director</text><ellipse cx="33" cy="79.7969" fill="#F8F8F8" filter="url(#f8x92liptyvtb)" rx="8" ry="8" style="stroke:#383838;stroke-width:2.0;"/><path d="M33,87.7969 L33,114.7969 M20,95.7969 L46,95.7969 M33,114.7969 L20,129.7969 M33,114.7969 L46,129.7969 " fill="none" filter="url(#f8x92liptyvtb)" style="stroke:#383838;stroke-width:2.0;"/><text fill="#000000" font-family="sans-serif" font-size="14" lengthAdjust="spacing" textLength="50" x="5" y="320.9941">Director</text><ellipse cx="33" cy="334.0703" fill="#F8F8F8" filter="url(#f8x92liptyvtb)" rx="8" ry="8" style="stroke:#383838;stroke-width:2.0;"/><path d="M33,342.0703 L33,369.0703 M20,350.0703 L46,350.0703 M33,369.0703 L20,384.0703 M33,369.0703 L46,384.0703 " fill="none" filter="url(#f8x92liptyvtb)" style="stroke:#383838;stroke-width:2.0;"/><rect fill="#F8F8F8" filter="url(#f8x92liptyvtb)" height="31.6094" style="stroke:#383838;stroke-width:1.5;" width="64" x="299" y="117.7969"/><text fill="#000000" font-family="sans-serif" font-size="14" lengthAdjust="spacing" textLength="50" x="306" y="139.3301">:System</text><rect fill="#F8F8F8" filter="url(#f8x92liptyvtb)" height="31.6094" style="stroke:#383838;stroke-width:1.5;" width="64" x="299" y="306.4609"/><text fill="#000000" font-family="sans-serif" font-size="14" lengthAdjust="spacing" textLength="50" x="306" y="327.9941">:System</text><rect fill="#FFFFFF" filter="url(#f8x92liptyvtb)" height="77.0547" style="stroke:#FFFFFF;stroke-width:1.0;" width="10" x="28" y="192.4063"/><line style="stroke:#383838;stroke-width:1.0;" x1="28" x2="28" y1="192.4063" y2="269.4609"/><line style="stroke:#383838;stroke-width:1.0;" x1="38" x2="38" y1="192.4063" y2="269.4609"/><line style="stroke:#383838;stroke-width:1.0;" x1="28" x2="38" y1="192.4063" y2="192.4063"/><rect fill="#FFFFFF" filter="url(#f8x92liptyvtb)" height="1" style="stroke:#FFFFFF;stroke-width:1.0;" width="10" x="28" y="297.4609"/><line style="stroke:#383838;stroke-width:1.0;" x1="28" x2="28" y1="297.4609" y2="298.4609"/><line style="stroke:#383838;stroke-width:1.0;" x1="38" x2="38" y1="297.4609" y2="298.4609"/><rect fill="#FFFFFF" filter="url(#f8x92liptyvtb)" height="30.3516" style="stroke:#383838;stroke-width:1.0;" width="10" x="328" y="231.1094"/><polygon fill="#383838" points="316,227.1094,326,231.1094,316,235.1094,320,231.1094" style="stroke:#383838;stroke-width:1.0;"/><line style="stroke:#383838;stroke-width:1.0;" x1="38" x2="322" y1="231.1094" y2="231.1094"/><text fill="#000000" font-family="sans-serif" font-size="13" font-weight="bold" lengthAdjust="spacing" textLength="7" x="45" y="218.0771">1</text><text fill="#000000" font-family="sans-serif" font-size="13" lengthAdjust="spacing" textLength="168" x="56" y="209.9014">Add a resource to the projectDeprecated</text><text fill="#000000" font-family="sans-serif" font-size="13" lengthAdjust="spacing" textLength="161" x="56" y="226.2529">(projectCode, resourceDTO)</text><polygon fill="#383838" points="49,257.4609,39,261.4609,49,265.4609,45,261.4609" style="stroke:#383838;stroke-width:1.0;"/><line style="stroke:#383838;stroke-width:1.0;stroke-dasharray:2.0,2.0;" x1="43" x2="332" y1="261.4609" y2="261.4609"/><text fill="#000000" font-family="sans-serif" font-size="13" font-weight="bold" lengthAdjust="spacing" textLength="7" x="55" y="256.6045">2</text><text fill="#000000" font-family="sans-serif" font-size="13" lengthAdjust="spacing" textLength="255" x="66" y="256.6045">Resource has been successfully associated</text><text fill="#888888" font-family="sans-serif" font-size="10" lengthAdjust="spacing" textLength="129" x="121.5" y="15.3809">System Sequence Diagram</text><text fill="#888888" font-family="sans-serif" font-size="10" lengthAdjust="spacing" textLength="320" x="26" y="27.959">As Director, I want to associate a human resource (user) to a projectDeprecated.</text><text fill="#888888" font-family="sans-serif" font-size="10" lengthAdjust="spacing" textLength="36" x="168" y="405.4512">SWitCH</text><!--MD5=[05b91feb41a0e3776e10192f8acb7108]
@startuml
'https://plantuml.com/sequence-diagram

skinparam monochrome true

title System Sequence Diagram of the US007
center header
System Sequence Diagram
As Director, I want to associate a human resource (user) to a projectDeprecated.
endheader
center footer SWitCH

autoactivate on
autonumber

actor "Director" as User
participant ":System" as System

activate User

...
User -> System: Add a resource to the projectDeprecated \n(projectCode, resourceDTO)
System - -> User: Resource has been successfully associated
...

@enduml

@startuml

skinparam monochrome true

title System Sequence Diagram of the US007
center header
System Sequence Diagram
As Director, I want to associate a human resource (user) to a projectDeprecated.
endheader
center footer SWitCH

autoactivate on
autonumber

actor "Director" as User
participant ":System" as System

activate User

...
User -> System: Add a resource to the projectDeprecated \n(projectCode, resourceDTO)
System - -> User: Resource has been successfully associated
...

@enduml

PlantUML version 1.2022.1(Tue Feb 01 18:19:58 GMT 2022)
(GPL source distribution)
Java Runtime: OpenJDK Runtime Environment
JVM: OpenJDK 64-Bit Server VM
Default Encoding: Cp1252
Language: en
Country: US
--></g></svg>