<?xml version="1.0" encoding="UTF-8" standalone="no"?><svg xmlns="http://www.w3.org/2000/svg" xmlns:xlink="http://www.w3.org/1999/xlink" contentScriptType="application/ecmascript" contentStyleType="text/css" height="247px" preserveAspectRatio="none" style="width:1463px;height:247px;background:#FFFFFF;" version="1.1" viewBox="0 0 1463 247" width="1463px" zoomAndPan="magnify"><defs><filter height="300%" id="f10vimasony5x7" width="300%" x="-1" y="-1"><feGaussianBlur result="blurOut" stdDeviation="2.0"/><feColorMatrix in="blurOut" result="blurOut2" type="matrix" values="0 0 0 0 0 0 0 0 0 0 0 0 0 0 0 0 0 0 .4 0"/><feOffset dx="4.0" dy="4.0" in="blurOut2" result="blurOut3"/><feBlend in="SourceGraphic" in2="blurOut3" mode="normal"/></filter></defs><g><!--MD5=[9681dc6e01e10c6b4fe06895ae94f592]
cluster UI--><polygon fill="#FFFFFF" filter="url(#f10vimasony5x7)" points="16,83,36,83,43,106.6094,288,106.6094,288,183,16,183,16,83" style="stroke:#000000;stroke-width:1.5;"/><line style="stroke:#000000;stroke-width:1.5;" x1="16" x2="43" y1="106.6094" y2="106.6094"/><text fill="#000000" font-family="sans-serif" font-size="14" font-weight="bold" lengthAdjust="spacing" textLength="14" x="20" y="99.5332">UI</text><!--MD5=[e58173985382cb7dfe41f01334b375ae]
cluster switchisep.projectDeprecated--><polygon fill="#FFFFFF" filter="url(#f10vimasony5x7)" points="312,6,447,6,454,29.6094,1446,29.6094,1446,240,312,240,312,6" style="stroke:#000000;stroke-width:1.5;"/><line style="stroke:#000000;stroke-width:1.5;" x1="312" x2="454" y1="29.6094" y2="29.6094"/><text fill="#000000" font-family="sans-serif" font-size="14" font-weight="bold" lengthAdjust="spacing" textLength="129" x="316" y="22.5332">switchisep.projectDeprecated</text><!--MD5=[1f2cfc53d9d308f53762fd0fcbaa4873]
cluster Controller--><polygon fill="#FFFFFF" filter="url(#f10vimasony5x7)" points="336,69,413,69,420,92.6094,673,92.6094,673,197,336,197,336,69" style="stroke:#000000;stroke-width:1.5;"/><line style="stroke:#000000;stroke-width:1.5;" x1="336" x2="420" y1="92.6094" y2="92.6094"/><text fill="#000000" font-family="sans-serif" font-size="14" font-weight="bold" lengthAdjust="spacing" textLength="71" x="340" y="85.5332">Controller</text><!--MD5=[15636c1ca4a123c16a2a1a8e90aca7a9]
cluster Model--><polygon fill="#FFFFFF" filter="url(#f10vimasony5x7)" points="964,88,1014,88,1021,111.6094,1422,111.6094,1422,216,964,216,964,88" style="stroke:#000000;stroke-width:1.5;"/><line style="stroke:#000000;stroke-width:1.5;" x1="964" x2="1021" y1="111.6094" y2="111.6094"/><text fill="#000000" font-family="sans-serif" font-size="14" font-weight="bold" lengthAdjust="spacing" textLength="44" x="968" y="104.5332">Model</text><!--MD5=[d747bc2d281bb9a3fb1366c94c9bf861]
class AuthenticatedUserProjectsAllocatedUi--><rect codeLine="9" fill="#FEFECE" filter="url(#f10vimasony5x7)" height="48" id="AuthenticatedUserProjectsAllocatedUi" style="stroke:#A80036;stroke-width:1.5;" width="240" x="32" y="119"/><ellipse cx="47" cy="135" fill="#ADD1B2" rx="11" ry="11" style="stroke:#A80036;stroke-width:1.0;"/><path d="M49,131.5 Q49.2031,131 49.4375,130.75 Q49.6719,130.5 49.9375,130.5 Q50.4063,130.5 50.7031,130.7813 Q51,131.0625 51,131.7188 L51,133.2813 Q51,133.9375 50.7188,134.2188 Q50.4375,134.5 50,134.5 Q49.6094,134.5 49.3594,134.3281 Q49.1094,134.1563 49,133.7031 Q48.9531,133.3906 48.7813,133.2188 Q48.4688,132.8906 47.9063,132.7031 Q47.3438,132.5 46.7813,132.5 Q46.0781,132.5 45.4844,132.7813 Q44.9063,133.0625 44.4531,133.6875 Q44,134.3125 44,135.1719 L44,136.0938 Q44,137.125 44.8438,137.8125 Q45.6875,138.5 47.1875,138.5 Q48.0781,138.5 48.7031,138.2969 Q49.0625,138.1875 49.4688,137.8281 Q49.7344,137.625 49.875,137.5625 Q50.0156,137.5 50.1875,137.5 Q50.5156,137.5 50.75,137.7656 Q51,138.0156 51,138.375 Q51,138.7188 50.6563,139.125 Q50.1563,139.7188 49.3594,140.0469 Q48.3125,140.5 47.0313,140.5 Q45.5313,140.5 44.3281,139.9063 Q43.3594,139.4375 42.6719,138.4219 Q42,137.4063 42,136.2031 L42,135.1094 Q42,133.8594 42.5938,132.7656 Q43.2031,131.6719 44.25,131.0938 Q45.3125,130.5 46.5,130.5 Q47.2188,130.5 47.8438,130.75 Q48.4688,131 49,131.5 Z " fill="#000000"/><text fill="#000000" font-family="sans-serif" font-size="12" lengthAdjust="spacing" textLength="208" x="61" y="139.9102">AuthenticatedUserProjectsAllocatedUi</text><line style="stroke:#A80036;stroke-width:1.5;" x1="33" x2="271" y1="151" y2="151"/><line style="stroke:#A80036;stroke-width:1.5;" x1="33" x2="271" y1="159" y2="159"/><!--MD5=[1ee7168c2143da59b86f89baa710f984]
class AuthenticatedUserProjectsAllocatedController--><rect codeLine="15" fill="#FEFECE" filter="url(#f10vimasony5x7)" height="75.6719" id="AuthenticatedUserProjectsAllocatedController" style="stroke:#A80036;stroke-width:1.5;" width="305" x="352" y="105"/><ellipse cx="377.35" cy="121" fill="#ADD1B2" rx="11" ry="11" style="stroke:#A80036;stroke-width:1.0;"/><path d="M379.35,117.5 Q379.5531,117 379.7875,116.75 Q380.0219,116.5 380.2875,116.5 Q380.7563,116.5 381.0531,116.7813 Q381.35,117.0625 381.35,117.7188 L381.35,119.2813 Q381.35,119.9375 381.0688,120.2188 Q380.7875,120.5 380.35,120.5 Q379.9594,120.5 379.7094,120.3281 Q379.4594,120.1563 379.35,119.7031 Q379.3031,119.3906 379.1313,119.2188 Q378.8188,118.8906 378.2563,118.7031 Q377.6938,118.5 377.1313,118.5 Q376.4281,118.5 375.8344,118.7813 Q375.2563,119.0625 374.8031,119.6875 Q374.35,120.3125 374.35,121.1719 L374.35,122.0938 Q374.35,123.125 375.1938,123.8125 Q376.0375,124.5 377.5375,124.5 Q378.4281,124.5 379.0531,124.2969 Q379.4125,124.1875 379.8188,123.8281 Q380.0844,123.625 380.225,123.5625 Q380.3656,123.5 380.5375,123.5 Q380.8656,123.5 381.1,123.7656 Q381.35,124.0156 381.35,124.375 Q381.35,124.7188 381.0063,125.125 Q380.5063,125.7188 379.7094,126.0469 Q378.6625,126.5 377.3813,126.5 Q375.8813,126.5 374.6781,125.9063 Q373.7094,125.4375 373.0219,124.4219 Q372.35,123.4063 372.35,122.2031 L372.35,121.1094 Q372.35,119.8594 372.9438,118.7656 Q373.5531,117.6719 374.6,117.0938 Q375.6625,116.5 376.85,116.5 Q377.5688,116.5 378.1938,116.75 Q378.8188,117 379.35,117.5 Z " fill="#000000"/><text fill="#000000" font-family="sans-serif" font-size="12" lengthAdjust="spacing" textLength="250" x="393.65" y="125.9102">AuthenticatedUserProjectsAllocatedController</text><line style="stroke:#A80036;stroke-width:1.5;" x1="353" x2="656" y1="137" y2="137"/><rect fill="none" height="6" style="stroke:#C82930;stroke-width:1.0;" width="6" x="360" y="145"/><text fill="#000000" font-family="sans-serif" font-size="11" lengthAdjust="spacing" textLength="168" x="372" y="152.4189">dataManagement:DataManagement</text><line style="stroke:#A80036;stroke-width:1.5;" x1="353" x2="656" y1="158.8359" y2="158.8359"/><ellipse cx="363" cy="169.8359" fill="#84BE84" rx="3" ry="3" style="stroke:#038048;stroke-width:1.0;"/><text fill="#000000" font-family="sans-serif" font-size="11" lengthAdjust="spacing" textLength="279" x="372" y="174.2549">getListOfProjectCodeByUserIdAllocated(userId, nowDate)</text><!--MD5=[41fc1644ffe584d705042db0e6e760e1]
class DataManagement--><rect codeLine="24" fill="#FEFECE" filter="url(#f10vimasony5x7)" height="75.6719" id="DataManagement" style="stroke:#A80036;stroke-width:1.5;" width="172" x="980" y="124"/><ellipse cx="1013.9" cy="140" fill="#ADD1B2" rx="11" ry="11" style="stroke:#A80036;stroke-width:1.0;"/><path d="M1015.9,136.5 Q1016.1031,136 1016.3375,135.75 Q1016.5719,135.5 1016.8375,135.5 Q1017.3063,135.5 1017.6031,135.7813 Q1017.9,136.0625 1017.9,136.7188 L1017.9,138.2813 Q1017.9,138.9375 1017.6188,139.2188 Q1017.3375,139.5 1016.9,139.5 Q1016.5094,139.5 1016.2594,139.3281 Q1016.0094,139.1563 1015.9,138.7031 Q1015.8531,138.3906 1015.6813,138.2188 Q1015.3688,137.8906 1014.8063,137.7031 Q1014.2438,137.5 1013.6813,137.5 Q1012.9781,137.5 1012.3844,137.7813 Q1011.8063,138.0625 1011.3531,138.6875 Q1010.9,139.3125 1010.9,140.1719 L1010.9,141.0938 Q1010.9,142.125 1011.7438,142.8125 Q1012.5875,143.5 1014.0875,143.5 Q1014.9781,143.5 1015.6031,143.2969 Q1015.9625,143.1875 1016.3688,142.8281 Q1016.6344,142.625 1016.775,142.5625 Q1016.9156,142.5 1017.0875,142.5 Q1017.4156,142.5 1017.65,142.7656 Q1017.9,143.0156 1017.9,143.375 Q1017.9,143.7188 1017.5563,144.125 Q1017.0563,144.7188 1016.2594,145.0469 Q1015.2125,145.5 1013.9313,145.5 Q1012.4313,145.5 1011.2281,144.9063 Q1010.2594,144.4375 1009.5719,143.4219 Q1008.9,142.4063 1008.9,141.2031 L1008.9,140.1094 Q1008.9,138.8594 1009.4938,137.7656 Q1010.1031,136.6719 1011.15,136.0938 Q1012.2125,135.5 1013.4,135.5 Q1014.1188,135.5 1014.7438,135.75 Q1015.3688,136 1015.9,136.5 Z " fill="#000000"/><text fill="#000000" font-family="sans-serif" font-size="12" lengthAdjust="spacing" textLength="98" x="1032.1" y="144.9102">DataManagement</text><line style="stroke:#A80036;stroke-width:1.5;" x1="981" x2="1151" y1="156" y2="156"/><rect fill="none" height="6" style="stroke:#C82930;stroke-width:1.0;" width="6" x="988" y="164"/><text fill="#000000" font-family="sans-serif" font-size="11" lengthAdjust="spacing" textLength="146" x="1000" y="171.4189">resourceStore:ResourceStore</text><line style="stroke:#A80036;stroke-width:1.5;" x1="981" x2="1151" y1="177.8359" y2="177.8359"/><ellipse cx="991" cy="188.8359" fill="#84BE84" rx="3" ry="3" style="stroke:#038048;stroke-width:1.0;"/><text fill="#000000" font-family="sans-serif" font-size="11" lengthAdjust="spacing" textLength="96" x="1000" y="193.2549">getResourceStore()</text><!--MD5=[ff3148b2caba12d75f868580a0b84dbc]
class ResourceStore--><rect codeLine="29" fill="#FEFECE" filter="url(#f10vimasony5x7)" height="75.6719" id="ResourceStore" style="stroke:#A80036;stroke-width:1.5;" width="174" x="1232" y="124"/><ellipse cx="1273.55" cy="140" fill="#ADD1B2" rx="11" ry="11" style="stroke:#A80036;stroke-width:1.0;"/><path d="M1275.55,136.5 Q1275.7531,136 1275.9875,135.75 Q1276.2219,135.5 1276.4875,135.5 Q1276.9563,135.5 1277.2531,135.7813 Q1277.55,136.0625 1277.55,136.7188 L1277.55,138.2813 Q1277.55,138.9375 1277.2688,139.2188 Q1276.9875,139.5 1276.55,139.5 Q1276.1594,139.5 1275.9094,139.3281 Q1275.6594,139.1563 1275.55,138.7031 Q1275.5031,138.3906 1275.3313,138.2188 Q1275.0188,137.8906 1274.4563,137.7031 Q1273.8938,137.5 1273.3313,137.5 Q1272.6281,137.5 1272.0344,137.7813 Q1271.4563,138.0625 1271.0031,138.6875 Q1270.55,139.3125 1270.55,140.1719 L1270.55,141.0938 Q1270.55,142.125 1271.3938,142.8125 Q1272.2375,143.5 1273.7375,143.5 Q1274.6281,143.5 1275.2531,143.2969 Q1275.6125,143.1875 1276.0188,142.8281 Q1276.2844,142.625 1276.425,142.5625 Q1276.5656,142.5 1276.7375,142.5 Q1277.0656,142.5 1277.3,142.7656 Q1277.55,143.0156 1277.55,143.375 Q1277.55,143.7188 1277.2063,144.125 Q1276.7063,144.7188 1275.9094,145.0469 Q1274.8625,145.5 1273.5813,145.5 Q1272.0813,145.5 1270.8781,144.9063 Q1269.9094,144.4375 1269.2219,143.4219 Q1268.55,142.4063 1268.55,141.2031 L1268.55,140.1094 Q1268.55,138.8594 1269.1438,137.7656 Q1269.7531,136.6719 1270.8,136.0938 Q1271.8625,135.5 1273.05,135.5 Q1273.7688,135.5 1274.3938,135.75 Q1275.0188,136 1275.55,136.5 Z " fill="#000000"/><text fill="#000000" font-family="sans-serif" font-size="12" lengthAdjust="spacing" textLength="83" x="1293.45" y="144.9102">ResourceStore</text><line style="stroke:#A80036;stroke-width:1.5;" x1="1233" x2="1405" y1="156" y2="156"/><line style="stroke:#A80036;stroke-width:1.5;" x1="1233" x2="1405" y1="164" y2="164"/><ellipse cx="1243" cy="175" fill="#84BE84" rx="3" ry="3" style="stroke:#038048;stroke-width:1.0;"/><text fill="#000000" font-family="sans-serif" font-size="11" lengthAdjust="spacing" textLength="148" x="1252" y="179.4189">listOfProjectsUserIsAllocated()</text><ellipse cx="1243" cy="188.8359" fill="#84BE84" rx="3" ry="3" style="stroke:#038048;stroke-width:1.0;"/><text fill="#000000" font-family="sans-serif" font-size="11" lengthAdjust="spacing" textLength="84" x="1252" y="193.2549">add(projectCode)</text><!--MD5=[80af61cff4185db4a16a4b437f377aea]
link AuthenticatedUserProjectsAllocatedUi to AuthenticatedUserProjectsAllocatedController--><path codeLine="40" d="M272.15,143 C296.15,143 321.72,143 346.78,143 " fill="none" id="AuthenticatedUserProjectsAllocatedUi-to-AuthenticatedUserProjectsAllocatedController" style="stroke:#A80036;stroke-width:1.0;stroke-dasharray:7.0,7.0;"/><polygon fill="#A80036" points="351.79,143,342.79,139,346.79,143,342.79,147,351.79,143" style="stroke:#A80036;stroke-width:1.0;"/><!--MD5=[1b88ce768726f439d51b5870789c0c87]
link AuthenticatedUserProjectsAllocatedController to DataManagement--><path codeLine="44" d="M657.28,148.15 C758.81,151.6 889.01,156.02 974.62,158.93 " fill="none" id="AuthenticatedUserProjectsAllocatedController-to-DataManagement" style="stroke:#A80036;stroke-width:1.0;stroke-dasharray:7.0,7.0;"/><polygon fill="#A80036" points="979.68,159.1,970.8101,154.8193,974.6825,158.9429,970.5588,162.8153,979.68,159.1" style="stroke:#A80036;stroke-width:1.0;"/><text fill="#000000" font-family="sans-serif" font-size="13" lengthAdjust="spacing" textLength="100" x="872.1156" y="173.3397">dataManagement</text><text fill="#000000" font-family="sans-serif" font-size="13" lengthAdjust="spacing" textLength="0" x="922.1156" y="189.6913"/><!--MD5=[c4b557eb25acb386ef80e9bbd67367cf]
link DataManagement to ResourceStore--><path codeLine="46" d="M1152.33,162 C1177.91,162 1205.98,162 1231.63,162 " fill="none" id="DataManagement-ResourceStore" style="stroke:#A80036;stroke-width:1.0;"/><text fill="#000000" font-family="sans-serif" font-size="13" lengthAdjust="spacing" textLength="7" x="1160.0498" y="176.2118">1</text><text fill="#000000" font-family="sans-serif" font-size="13" lengthAdjust="spacing" textLength="7" x="1217.1048" y="176.1858">1</text><!--MD5=[31b3eaac8e6b9855b76433fd91690642]
link AuthenticatedUserProjectsAllocatedController to ResourceStore--><path codeLine="48" d="M579.79,104.91 C641.8,76.65 733.41,43 818,43 C818,43 818,43 900,43 C1013.47,43 1043.6,50.44 1152,84 C1182.91,93.57 1215.44,107.83 1243.43,121.56 " fill="none" id="AuthenticatedUserProjectsAllocatedController-to-ResourceStore" style="stroke:#A80036;stroke-width:1.0;stroke-dasharray:7.0,7.0;"/><polygon fill="#A80036" points="1248.24,123.93,1241.9403,116.3595,1243.7565,121.7168,1238.3991,123.5331,1248.24,123.93" style="stroke:#A80036;stroke-width:1.0;"/><text fill="#000000" font-family="sans-serif" font-size="13" lengthAdjust="spacing" textLength="81" x="1243.4173" y="96.8899">resourceStore</text><text fill="#000000" font-family="sans-serif" font-size="13" lengthAdjust="spacing" textLength="0" x="1285.9173" y="113.2415"/><!--MD5=[28083f8d2727510b3d619838abf29cf5]
@startuml
'https://plantuml.com/class-diagram



 skinparam nodesep 80
 skinparam ranksep 80
left to right direction
 package UI{
 class AuthenticatedUserProjectsAllocatedUi{
 }
 }

 package switchisep.projectDeprecated{
 package Controller {
 class AuthenticatedUserProjectsAllocatedController{
 -dataManagement:DataManagement

 +getListOfProjectCodeByUserIdAllocated(userId, nowDate)

 }
 }

 package Model{
 class DataManagement{
 -resourceStore:ResourceStore
 +getResourceStore()
 }

 class ResourceStore{

 + listOfProjectsUserIsAllocated()
 +add(projectCode)

 }


 }


 AuthenticatedUserProjectsAllocatedUi ..> AuthenticatedUserProjectsAllocatedController



 AuthenticatedUserProjectsAllocatedController .....> " dataManagement\n" DataManagement

 DataManagement "1" - - "1" ResourceStore

 AuthenticatedUserProjectsAllocatedController ..> "resourceStore\n" ResourceStore



@enduml

@startuml



 skinparam nodesep 80
 skinparam ranksep 80
left to right direction
 package UI{
 class AuthenticatedUserProjectsAllocatedUi{
 }
 }

 package switchisep.projectDeprecated{
 package Controller {
 class AuthenticatedUserProjectsAllocatedController{
 -dataManagement:DataManagement

 +getListOfProjectCodeByUserIdAllocated(userId, nowDate)

 }
 }

 package Model{
 class DataManagement{
 -resourceStore:ResourceStore
 +getResourceStore()
 }

 class ResourceStore{

 + listOfProjectsUserIsAllocated()
 +add(projectCode)

 }


 }


 AuthenticatedUserProjectsAllocatedUi ..> AuthenticatedUserProjectsAllocatedController



 AuthenticatedUserProjectsAllocatedController .....> " dataManagement\n" DataManagement

 DataManagement "1" - - "1" ResourceStore

 AuthenticatedUserProjectsAllocatedController ..> "resourceStore\n" ResourceStore



@enduml

PlantUML version 1.2022.0(Tue Jan 11 16:16:42 GMT 2022)
(GPL source distribution)
Java Runtime: OpenJDK Runtime Environment
JVM: OpenJDK 64-Bit Server VM
Default Encoding: Cp1252
Language: pt
Country: PT
--></g></svg>