<?xml version="1.0" encoding="UTF-8" standalone="no"?><svg xmlns="http://www.w3.org/2000/svg" xmlns:xlink="http://www.w3.org/1999/xlink" contentScriptType="application/ecmascript" contentStyleType="text/css" height="585px" preserveAspectRatio="none" style="width:499px;height:585px;background:#FFFFFF;" version="1.1" viewBox="0 0 499 585" width="499px" zoomAndPan="magnify"><defs><filter height="300%" id="f3oqp06qnxu8a" width="300%" x="-1" y="-1"><feGaussianBlur result="blurOut" stdDeviation="2.0"/><feColorMatrix in="blurOut" result="blurOut2" type="matrix" values="0 0 0 0 0 0 0 0 0 0 0 0 0 0 0 0 0 0 .4 0"/><feOffset dx="4.0" dy="4.0" in="blurOut2" result="blurOut3"/><feBlend in="SourceGraphic" in2="blurOut3" mode="normal"/></filter></defs><g><!--MD5=[5817b70966332cbadef3c2a4202bbd40]
class SearchForProjectResourceUI--><rect codeLine="4" fill="#FEFECE" filter="url(#f3oqp06qnxu8a)" height="48" id="SearchForProjectResourceUI" style="stroke:#A80036;stroke-width:1.5;" width="193" x="7" y="14"/><ellipse cx="22" cy="30" fill="#ADD1B2" rx="11" ry="11" style="stroke:#A80036;stroke-width:1.0;"/><path d="M24,26.5 Q24.2031,26 24.4375,25.75 Q24.6719,25.5 24.9375,25.5 Q25.4063,25.5 25.7031,25.7813 Q26,26.0625 26,26.7188 L26,28.2813 Q26,28.9375 25.7188,29.2188 Q25.4375,29.5 25,29.5 Q24.6094,29.5 24.3594,29.3281 Q24.1094,29.1563 24,28.7031 Q23.9531,28.3906 23.7813,28.2188 Q23.4688,27.8906 22.9063,27.7031 Q22.3438,27.5 21.7813,27.5 Q21.0781,27.5 20.4844,27.7813 Q19.9063,28.0625 19.4531,28.6875 Q19,29.3125 19,30.1719 L19,31.0938 Q19,32.125 19.8438,32.8125 Q20.6875,33.5 22.1875,33.5 Q23.0781,33.5 23.7031,33.2969 Q24.0625,33.1875 24.4688,32.8281 Q24.7344,32.625 24.875,32.5625 Q25.0156,32.5 25.1875,32.5 Q25.5156,32.5 25.75,32.7656 Q26,33.0156 26,33.375 Q26,33.7188 25.6563,34.125 Q25.1563,34.7188 24.3594,35.0469 Q23.3125,35.5 22.0313,35.5 Q20.5313,35.5 19.3281,34.9063 Q18.3594,34.4375 17.6719,33.4219 Q17,32.4063 17,31.2031 L17,30.1094 Q17,28.8594 17.5938,27.7656 Q18.2031,26.6719 19.25,26.0938 Q20.3125,25.5 21.5,25.5 Q22.2188,25.5 22.8438,25.75 Q23.4688,26 24,26.5 Z " fill="#000000"/><text fill="#000000" font-family="sans-serif" font-size="12" lengthAdjust="spacing" textLength="161" x="36" y="34.9102">SearchForProjectResourceUI</text><line style="stroke:#A80036;stroke-width:1.5;" x1="8" x2="199" y1="46" y2="46"/><line style="stroke:#A80036;stroke-width:1.5;" x1="8" x2="199" y1="54" y2="54"/><!--MD5=[f8858b524d6fba81395d3347b5b7b5ec]
class SearchForProjectResourceController--><rect codeLine="30" fill="#FEFECE" filter="url(#f3oqp06qnxu8a)" height="61.8359" id="SearchForProjectResourceController" style="stroke:#A80036;stroke-width:1.5;" width="235" x="235" y="7"/><ellipse cx="250" cy="23" fill="#ADD1B2" rx="11" ry="11" style="stroke:#A80036;stroke-width:1.0;"/><path d="M252,19.5 Q252.2031,19 252.4375,18.75 Q252.6719,18.5 252.9375,18.5 Q253.4063,18.5 253.7031,18.7813 Q254,19.0625 254,19.7188 L254,21.2813 Q254,21.9375 253.7188,22.2188 Q253.4375,22.5 253,22.5 Q252.6094,22.5 252.3594,22.3281 Q252.1094,22.1563 252,21.7031 Q251.9531,21.3906 251.7813,21.2188 Q251.4688,20.8906 250.9063,20.7031 Q250.3438,20.5 249.7813,20.5 Q249.0781,20.5 248.4844,20.7813 Q247.9063,21.0625 247.4531,21.6875 Q247,22.3125 247,23.1719 L247,24.0938 Q247,25.125 247.8438,25.8125 Q248.6875,26.5 250.1875,26.5 Q251.0781,26.5 251.7031,26.2969 Q252.0625,26.1875 252.4688,25.8281 Q252.7344,25.625 252.875,25.5625 Q253.0156,25.5 253.1875,25.5 Q253.5156,25.5 253.75,25.7656 Q254,26.0156 254,26.375 Q254,26.7188 253.6563,27.125 Q253.1563,27.7188 252.3594,28.0469 Q251.3125,28.5 250.0313,28.5 Q248.5313,28.5 247.3281,27.9063 Q246.3594,27.4375 245.6719,26.4219 Q245,25.4063 245,24.2031 L245,23.1094 Q245,21.8594 245.5938,20.7656 Q246.2031,19.6719 247.25,19.0938 Q248.3125,18.5 249.5,18.5 Q250.2188,18.5 250.8438,18.75 Q251.4688,19 252,19.5 Z " fill="#000000"/><text fill="#000000" font-family="sans-serif" font-size="12" lengthAdjust="spacing" textLength="203" x="264" y="27.9102">SearchForProjectResourceController</text><line style="stroke:#A80036;stroke-width:1.5;" x1="236" x2="469" y1="39" y2="39"/><line style="stroke:#A80036;stroke-width:1.5;" x1="236" x2="469" y1="47" y2="47"/><text fill="#000000" font-family="sans-serif" font-size="11" lengthAdjust="spacing" textLength="175" x="241" y="62.4189">+searchHumanResourcesInProject()</text><!--MD5=[41fc1644ffe584d705042db0e6e760e1]
class DataManagement--><rect codeLine="37" fill="#FEFECE" filter="url(#f3oqp06qnxu8a)" height="61.8359" id="DataManagement" style="stroke:#A80036;stroke-width:1.5;" width="130" x="228.5" y="129"/><ellipse cx="243.5" cy="145" fill="#ADD1B2" rx="11" ry="11" style="stroke:#A80036;stroke-width:1.0;"/><path d="M245.5,141.5 Q245.7031,141 245.9375,140.75 Q246.1719,140.5 246.4375,140.5 Q246.9063,140.5 247.2031,140.7813 Q247.5,141.0625 247.5,141.7188 L247.5,143.2813 Q247.5,143.9375 247.2188,144.2188 Q246.9375,144.5 246.5,144.5 Q246.1094,144.5 245.8594,144.3281 Q245.6094,144.1563 245.5,143.7031 Q245.4531,143.3906 245.2813,143.2188 Q244.9688,142.8906 244.4063,142.7031 Q243.8438,142.5 243.2813,142.5 Q242.5781,142.5 241.9844,142.7813 Q241.4063,143.0625 240.9531,143.6875 Q240.5,144.3125 240.5,145.1719 L240.5,146.0938 Q240.5,147.125 241.3438,147.8125 Q242.1875,148.5 243.6875,148.5 Q244.5781,148.5 245.2031,148.2969 Q245.5625,148.1875 245.9688,147.8281 Q246.2344,147.625 246.375,147.5625 Q246.5156,147.5 246.6875,147.5 Q247.0156,147.5 247.25,147.7656 Q247.5,148.0156 247.5,148.375 Q247.5,148.7188 247.1563,149.125 Q246.6563,149.7188 245.8594,150.0469 Q244.8125,150.5 243.5313,150.5 Q242.0313,150.5 240.8281,149.9063 Q239.8594,149.4375 239.1719,148.4219 Q238.5,147.4063 238.5,146.2031 L238.5,145.1094 Q238.5,143.8594 239.0938,142.7656 Q239.7031,141.6719 240.75,141.0938 Q241.8125,140.5 243,140.5 Q243.7188,140.5 244.3438,140.75 Q244.9688,141 245.5,141.5 Z " fill="#000000"/><text fill="#000000" font-family="sans-serif" font-size="12" lengthAdjust="spacing" textLength="98" x="257.5" y="149.9102">DataManagement</text><line style="stroke:#A80036;stroke-width:1.5;" x1="229.5" x2="357.5" y1="161" y2="161"/><line style="stroke:#A80036;stroke-width:1.5;" x1="229.5" x2="357.5" y1="169" y2="169"/><text fill="#000000" font-family="sans-serif" font-size="11" lengthAdjust="spacing" textLength="102" x="234.5" y="184.4189">+getResourceStore()</text><!--MD5=[ff3148b2caba12d75f868580a0b84dbc]
class ResourceStore--><rect codeLine="42" fill="#FEFECE" filter="url(#f3oqp06qnxu8a)" height="75.6719" id="ResourceStore" style="stroke:#A80036;stroke-width:1.5;" width="209" x="248" y="251"/><ellipse cx="306.75" cy="267" fill="#ADD1B2" rx="11" ry="11" style="stroke:#A80036;stroke-width:1.0;"/><path d="M308.75,263.5 Q308.9531,263 309.1875,262.75 Q309.4219,262.5 309.6875,262.5 Q310.1563,262.5 310.4531,262.7813 Q310.75,263.0625 310.75,263.7188 L310.75,265.2813 Q310.75,265.9375 310.4688,266.2188 Q310.1875,266.5 309.75,266.5 Q309.3594,266.5 309.1094,266.3281 Q308.8594,266.1563 308.75,265.7031 Q308.7031,265.3906 308.5313,265.2188 Q308.2188,264.8906 307.6563,264.7031 Q307.0938,264.5 306.5313,264.5 Q305.8281,264.5 305.2344,264.7813 Q304.6563,265.0625 304.2031,265.6875 Q303.75,266.3125 303.75,267.1719 L303.75,268.0938 Q303.75,269.125 304.5938,269.8125 Q305.4375,270.5 306.9375,270.5 Q307.8281,270.5 308.4531,270.2969 Q308.8125,270.1875 309.2188,269.8281 Q309.4844,269.625 309.625,269.5625 Q309.7656,269.5 309.9375,269.5 Q310.2656,269.5 310.5,269.7656 Q310.75,270.0156 310.75,270.375 Q310.75,270.7188 310.4063,271.125 Q309.9063,271.7188 309.1094,272.0469 Q308.0625,272.5 306.7813,272.5 Q305.2813,272.5 304.0781,271.9063 Q303.1094,271.4375 302.4219,270.4219 Q301.75,269.4063 301.75,268.2031 L301.75,267.1094 Q301.75,265.8594 302.3438,264.7656 Q302.9531,263.6719 304,263.0938 Q305.0625,262.5 306.25,262.5 Q306.9688,262.5 307.5938,262.75 Q308.2188,263 308.75,263.5 Z " fill="#000000"/><text fill="#000000" font-family="sans-serif" font-size="12" lengthAdjust="spacing" textLength="83" x="327.25" y="271.9102">ResourceStore</text><line style="stroke:#A80036;stroke-width:1.5;" x1="249" x2="456" y1="283" y2="283"/><line style="stroke:#A80036;stroke-width:1.5;" x1="249" x2="456" y1="291" y2="291"/><text fill="#000000" font-family="sans-serif" font-size="11" lengthAdjust="spacing" textLength="164" x="254" y="306.4189">+getResourceListByProjectCode()</text><text fill="#000000" font-family="sans-serif" font-size="11" lengthAdjust="spacing" textLength="197" x="254" y="320.2549">+getResourceListByProjectCodeToDTO()</text><!--MD5=[e3dc1c3c8e22fea8df8fad83e7b48fc6]
class ResourceMapper--><rect codeLine="53" fill="#FEFECE" filter="url(#f3oqp06qnxu8a)" height="61.8359" id="ResourceMapper" style="stroke:#A80036;stroke-width:1.5;" width="127" x="212" y="394"/><ellipse cx="227" cy="410" fill="#ADD1B2" rx="11" ry="11" style="stroke:#A80036;stroke-width:1.0;"/><path d="M229,406.5 Q229.2031,406 229.4375,405.75 Q229.6719,405.5 229.9375,405.5 Q230.4063,405.5 230.7031,405.7813 Q231,406.0625 231,406.7188 L231,408.2813 Q231,408.9375 230.7188,409.2188 Q230.4375,409.5 230,409.5 Q229.6094,409.5 229.3594,409.3281 Q229.1094,409.1563 229,408.7031 Q228.9531,408.3906 228.7813,408.2188 Q228.4688,407.8906 227.9063,407.7031 Q227.3438,407.5 226.7813,407.5 Q226.0781,407.5 225.4844,407.7813 Q224.9063,408.0625 224.4531,408.6875 Q224,409.3125 224,410.1719 L224,411.0938 Q224,412.125 224.8438,412.8125 Q225.6875,413.5 227.1875,413.5 Q228.0781,413.5 228.7031,413.2969 Q229.0625,413.1875 229.4688,412.8281 Q229.7344,412.625 229.875,412.5625 Q230.0156,412.5 230.1875,412.5 Q230.5156,412.5 230.75,412.7656 Q231,413.0156 231,413.375 Q231,413.7188 230.6563,414.125 Q230.1563,414.7188 229.3594,415.0469 Q228.3125,415.5 227.0313,415.5 Q225.5313,415.5 224.3281,414.9063 Q223.3594,414.4375 222.6719,413.4219 Q222,412.4063 222,411.2031 L222,410.1094 Q222,408.8594 222.5938,407.7656 Q223.2031,406.6719 224.25,406.0938 Q225.3125,405.5 226.5,405.5 Q227.2188,405.5 227.8438,405.75 Q228.4688,406 229,406.5 Z " fill="#000000"/><text fill="#000000" font-family="sans-serif" font-size="12" lengthAdjust="spacing" textLength="95" x="241" y="414.9102">ResourceMapper</text><line style="stroke:#A80036;stroke-width:1.5;" x1="213" x2="338" y1="426" y2="426"/><line style="stroke:#A80036;stroke-width:1.5;" x1="213" x2="338" y1="434" y2="434"/><text fill="#000000" font-family="sans-serif" font-size="11" lengthAdjust="spacing" textLength="91" x="218" y="449.4189">+toResourceDTO()</text><!--MD5=[a5870481d9b29aa2115b4f0879665d45]
class ResourceDTO--><rect codeLine="9" fill="#FEFECE" filter="url(#f3oqp06qnxu8a)" height="48" id="ResourceDTO" style="stroke:#A80036;stroke-width:1.5;" width="111" x="220" y="523"/><ellipse cx="235" cy="539" fill="#ADD1B2" rx="11" ry="11" style="stroke:#A80036;stroke-width:1.0;"/><path d="M237,535.5 Q237.2031,535 237.4375,534.75 Q237.6719,534.5 237.9375,534.5 Q238.4063,534.5 238.7031,534.7813 Q239,535.0625 239,535.7188 L239,537.2813 Q239,537.9375 238.7188,538.2188 Q238.4375,538.5 238,538.5 Q237.6094,538.5 237.3594,538.3281 Q237.1094,538.1563 237,537.7031 Q236.9531,537.3906 236.7813,537.2188 Q236.4688,536.8906 235.9063,536.7031 Q235.3438,536.5 234.7813,536.5 Q234.0781,536.5 233.4844,536.7813 Q232.9063,537.0625 232.4531,537.6875 Q232,538.3125 232,539.1719 L232,540.0938 Q232,541.125 232.8438,541.8125 Q233.6875,542.5 235.1875,542.5 Q236.0781,542.5 236.7031,542.2969 Q237.0625,542.1875 237.4688,541.8281 Q237.7344,541.625 237.875,541.5625 Q238.0156,541.5 238.1875,541.5 Q238.5156,541.5 238.75,541.7656 Q239,542.0156 239,542.375 Q239,542.7188 238.6563,543.125 Q238.1563,543.7188 237.3594,544.0469 Q236.3125,544.5 235.0313,544.5 Q233.5313,544.5 232.3281,543.9063 Q231.3594,543.4375 230.6719,542.4219 Q230,541.4063 230,540.2031 L230,539.1094 Q230,537.8594 230.5938,536.7656 Q231.2031,535.6719 232.25,535.0938 Q233.3125,534.5 234.5,534.5 Q235.2188,534.5 235.8438,534.75 Q236.4688,535 237,535.5 Z " fill="#000000"/><text fill="#000000" font-family="sans-serif" font-size="12" lengthAdjust="spacing" textLength="79" x="249" y="543.9102">ResourceDTO</text><line style="stroke:#A80036;stroke-width:1.5;" x1="221" x2="330" y1="555" y2="555"/><line style="stroke:#A80036;stroke-width:1.5;" x1="221" x2="330" y1="563" y2="563"/><!--MD5=[6b13f1b330d33795af281e5c1dfe1e98]
class Resource--><rect codeLine="48" fill="#FEFECE" filter="url(#f3oqp06qnxu8a)" height="75.6719" id="Resource" style="stroke:#A80036;stroke-width:1.5;" width="111" x="374" y="387"/><ellipse cx="400.25" cy="403" fill="#ADD1B2" rx="11" ry="11" style="stroke:#A80036;stroke-width:1.0;"/><path d="M402.25,399.5 Q402.4531,399 402.6875,398.75 Q402.9219,398.5 403.1875,398.5 Q403.6563,398.5 403.9531,398.7813 Q404.25,399.0625 404.25,399.7188 L404.25,401.2813 Q404.25,401.9375 403.9688,402.2188 Q403.6875,402.5 403.25,402.5 Q402.8594,402.5 402.6094,402.3281 Q402.3594,402.1563 402.25,401.7031 Q402.2031,401.3906 402.0313,401.2188 Q401.7188,400.8906 401.1563,400.7031 Q400.5938,400.5 400.0313,400.5 Q399.3281,400.5 398.7344,400.7813 Q398.1563,401.0625 397.7031,401.6875 Q397.25,402.3125 397.25,403.1719 L397.25,404.0938 Q397.25,405.125 398.0938,405.8125 Q398.9375,406.5 400.4375,406.5 Q401.3281,406.5 401.9531,406.2969 Q402.3125,406.1875 402.7188,405.8281 Q402.9844,405.625 403.125,405.5625 Q403.2656,405.5 403.4375,405.5 Q403.7656,405.5 404,405.7656 Q404.25,406.0156 404.25,406.375 Q404.25,406.7188 403.9063,407.125 Q403.4063,407.7188 402.6094,408.0469 Q401.5625,408.5 400.2813,408.5 Q398.7813,408.5 397.5781,407.9063 Q396.6094,407.4375 395.9219,406.4219 Q395.25,405.4063 395.25,404.2031 L395.25,403.1094 Q395.25,401.8594 395.8438,400.7656 Q396.4531,399.6719 397.5,399.0938 Q398.5625,398.5 399.75,398.5 Q400.4688,398.5 401.0938,398.75 Q401.7188,399 402.25,399.5 Z " fill="#000000"/><text fill="#000000" font-family="sans-serif" font-size="12" lengthAdjust="spacing" textLength="54" x="416.75" y="407.9102">Resource</text><line style="stroke:#A80036;stroke-width:1.5;" x1="375" x2="484" y1="419" y2="419"/><line style="stroke:#A80036;stroke-width:1.5;" x1="375" x2="484" y1="427" y2="427"/><text fill="#000000" font-family="sans-serif" font-size="11" lengthAdjust="spacing" textLength="99" x="380" y="442.4189">+getResourceUser()</text><text fill="#000000" font-family="sans-serif" font-size="11" lengthAdjust="spacing" textLength="97" x="380" y="456.2549">+getResourceRole()</text><!--MD5=[2bad077d3832598d15c8e8cf0b93fd4f]
link SearchForProjectResourceUI to SearchForProjectResourceController--><path codeLine="14" d="M200.28,38 C210.07,38 219.86,38 229.65,38 " fill="none" id="SearchForProjectResourceUI-to-SearchForProjectResourceController" style="stroke:#A80036;stroke-width:1.0;stroke-dasharray:7.0,7.0;"/><polygon fill="#A80036" points="234.77,38,225.77,34,229.77,38,225.77,42,234.77,38" style="stroke:#A80036;stroke-width:1.0;"/><!--MD5=[64a4335c7e0bc1e125d1dbc7a48660b9]
link SearchForProjectResourceController to DataManagement--><path codeLine="16" d="M337.61,69.28 C329.44,85.91 319.26,106.61 310.74,123.94 " fill="none" id="SearchForProjectResourceController-to-DataManagement" style="stroke:#A80036;stroke-width:1.0;stroke-dasharray:7.0,7.0;"/><polygon fill="#A80036" points="308.38,128.73,315.9344,122.4109,310.5817,124.2408,308.7517,118.8882,308.38,128.73" style="stroke:#A80036;stroke-width:1.0;"/><!--MD5=[c4b557eb25acb386ef80e9bbd67367cf]
link DataManagement to ResourceStore--><path codeLine="18" d="M307.48,191.1 C315.08,207.46 324.6,227.95 332.93,245.87 " fill="none" id="DataManagement-to-ResourceStore" style="stroke:#A80036;stroke-width:1.0;"/><polygon fill="#A80036" points="335.24,250.86,335.0571,241.0128,333.1248,246.3294,327.8082,244.3972,335.24,250.86" style="stroke:#A80036;stroke-width:1.0;"/><text fill="#000000" font-family="sans-serif" font-size="13" lengthAdjust="spacing" textLength="7" x="302.5433" y="212.3437">1</text><text fill="#000000" font-family="sans-serif" font-size="13" lengthAdjust="spacing" textLength="92" x="231.9718" y="240.197">resourceStore 1</text><!--MD5=[7d7df0c1743363358ec5381d90fddbc8]
link ResourceStore to ResourceMapper--><path codeLine="20" d="M331.05,327.33 C319.98,346.6 306.54,369.98 295.66,388.92 " fill="none" id="ResourceStore-to-ResourceMapper" style="stroke:#A80036;stroke-width:1.0;"/><polygon fill="#A80036" points="292.95,393.64,300.8923,387.816,295.4338,389.3005,293.9492,383.842,292.95,393.64" style="stroke:#A80036;stroke-width:1.0;"/><text fill="#000000" font-family="sans-serif" font-size="13" lengthAdjust="spacing" textLength="104" x="181.8241" y="383.0703">resourceMapper 1</text><!--MD5=[e99c1f8c9c821c65a578cf783618e6ca]
reverse link ResourceStore to Resource--><path codeLine="22" d="M380.69,339.06 C389.77,354.85 399.67,372.09 408.17,386.87 " fill="none" id="ResourceStore-backto-Resource" style="stroke:#A80036;stroke-width:1.0;"/><polygon fill="#FFFFFF" points="373.95,327.33,373.4754,334.5255,379.9349,337.731,380.4094,330.5356,373.95,327.33" style="stroke:#A80036;stroke-width:1.0;"/><text fill="#000000" font-family="sans-serif" font-size="13" lengthAdjust="spacing" textLength="7" x="369.8108" y="348.2631">1</text><text fill="#000000" font-family="sans-serif" font-size="13" lengthAdjust="spacing" textLength="70" x="332.8719" y="376.2422">resource 0.*</text><!--MD5=[eedc849493dab64efa9e8d8f95488d15]
link SearchForProjectResourceController to ResourceStore--><path codeLine="24" d="M362.61,69.02 C367.9,86.33 373.83,108.64 376.5,129 C380.08,156.32 379.83,163.65 376.5,191 C374.29,209.1 369.85,228.7 365.38,245.5 " fill="none" id="SearchForProjectResourceController-to-ResourceStore" style="stroke:#A80036;stroke-width:1.0;stroke-dasharray:7.0,7.0;"/><polygon fill="#A80036" points="364,250.62,370.2022,242.9694,365.2999,245.7919,362.4773,240.8896,364,250.62" style="stroke:#A80036;stroke-width:1.0;"/><!--MD5=[ec4831e3cdac1f7c7f727acd9a944897]
reverse link ResourceMapper to ResourceDTO--><path codeLine="26" d="M275.5,469.28 C275.5,487.41 275.5,507.75 275.5,522.92 " fill="none" id="ResourceMapper-backto-ResourceDTO" style="stroke:#A80036;stroke-width:1.0;"/><polygon fill="#FFFFFF" points="275.5,456.28,271.5,462.28,275.5,468.28,279.5,462.28,275.5,456.28" style="stroke:#A80036;stroke-width:1.0;"/><text fill="#000000" font-family="sans-serif" font-size="13" lengthAdjust="spacing" textLength="7" x="267.8328" y="477.312">1</text><text fill="#000000" font-family="sans-serif" font-size="13" lengthAdjust="spacing" textLength="96" x="167.2" y="512.2397">resourceDTO 0.*</text><!--MD5=[f91b4af69efe536b554da96a33640b70]
@startuml
skinparam classAttributeIconSize 0
'https://plantuml.com/class-diagram

class SearchForProjectResourceUI
class SearchForProjectResourceController
class DataManagement
class ResourceStore
class ResourceMapper
class ResourceDTO


class Resource

SearchForProjectResourceUI .right.> SearchForProjectResourceController

SearchForProjectResourceController ..> DataManagement

DataManagement "1" - -> "resourceStore 1" ResourceStore

ResourceStore  - -> "resourceMapper 1" ResourceMapper

ResourceStore "1" o- -"resource 0.*" Resource

SearchForProjectResourceController..>ResourceStore

ResourceMapper "1" o- -"resourceDTO 0.*" ResourceDTO



class SearchForProjectResourceController {

+searchHumanResourcesInProject()


}

class DataManagement {
+getResourceStore()


}
class ResourceStore {
+getResourceListByProjectCode()
+getResourceListByProjectCodeToDTO()


}
class Resource{
+getResourceUser()
+getResourceRole()
}

class ResourceMapper{
+toResourceDTO()
}




@enduml

@startuml
skinparam classAttributeIconSize 0

class SearchForProjectResourceUI
class SearchForProjectResourceController
class DataManagement
class ResourceStore
class ResourceMapper
class ResourceDTO


class Resource

SearchForProjectResourceUI .right.> SearchForProjectResourceController

SearchForProjectResourceController ..> DataManagement

DataManagement "1" - -> "resourceStore 1" ResourceStore

ResourceStore  - -> "resourceMapper 1" ResourceMapper

ResourceStore "1" o- -"resource 0.*" Resource

SearchForProjectResourceController..>ResourceStore

ResourceMapper "1" o- -"resourceDTO 0.*" ResourceDTO



class SearchForProjectResourceController {

+searchHumanResourcesInProject()


}

class DataManagement {
+getResourceStore()


}
class ResourceStore {
+getResourceListByProjectCode()
+getResourceListByProjectCodeToDTO()


}
class Resource{
+getResourceUser()
+getResourceRole()
}

class ResourceMapper{
+toResourceDTO()
}




@enduml

PlantUML version 1.2022.0(Tue Jan 11 16:16:42 GMT 2022)
(GPL source distribution)
Java Runtime: OpenJDK Runtime Environment
JVM: OpenJDK 64-Bit Server VM
Default Encoding: Cp1252
Language: en
Country: US
--></g></svg>