<?xml version="1.0" encoding="UTF-8" standalone="no"?><svg xmlns="http://www.w3.org/2000/svg" xmlns:xlink="http://www.w3.org/1999/xlink" contentScriptType="application/ecmascript" contentStyleType="text/css" height="625px" preserveAspectRatio="none" style="width:387px;height:625px;background:#FFFFFF;" version="1.1" viewBox="0 0 387 625" width="387px" zoomAndPan="magnify"><defs><filter height="300%" id="f1ifwo6vdozfxq" width="300%" x="-1" y="-1"><feGaussianBlur result="blurOut" stdDeviation="2.0"/><feColorMatrix in="blurOut" result="blurOut2" type="matrix" values="0 0 0 0 0 0 0 0 0 0 0 0 0 0 0 0 0 0 .4 0"/><feOffset dx="4.0" dy="4.0" in="blurOut2" result="blurOut3"/><feBlend in="SourceGraphic" in2="blurOut3" mode="normal"/></filter></defs><g><!--MD5=[dea6d2f57ecd52b70449631ea61e500e]
class DefineProductOwnerUI--><rect codeLine="3" fill="#FEFECE" filter="url(#f1ifwo6vdozfxq)" height="48" id="DefineProductOwnerUI" style="stroke:#A80036;stroke-width:1.5;" width="158" x="109.5" y="7"/><ellipse cx="124.5" cy="23" fill="#ADD1B2" rx="11" ry="11" style="stroke:#A80036;stroke-width:1.0;"/><path d="M126.5,19.5 Q126.7031,19 126.9375,18.75 Q127.1719,18.5 127.4375,18.5 Q127.9063,18.5 128.2031,18.7813 Q128.5,19.0625 128.5,19.7188 L128.5,21.2813 Q128.5,21.9375 128.2188,22.2188 Q127.9375,22.5 127.5,22.5 Q127.1094,22.5 126.8594,22.3281 Q126.6094,22.1563 126.5,21.7031 Q126.4531,21.3906 126.2813,21.2188 Q125.9688,20.8906 125.4063,20.7031 Q124.8438,20.5 124.2813,20.5 Q123.5781,20.5 122.9844,20.7813 Q122.4063,21.0625 121.9531,21.6875 Q121.5,22.3125 121.5,23.1719 L121.5,24.0938 Q121.5,25.125 122.3438,25.8125 Q123.1875,26.5 124.6875,26.5 Q125.5781,26.5 126.2031,26.2969 Q126.5625,26.1875 126.9688,25.8281 Q127.2344,25.625 127.375,25.5625 Q127.5156,25.5 127.6875,25.5 Q128.0156,25.5 128.25,25.7656 Q128.5,26.0156 128.5,26.375 Q128.5,26.7188 128.1563,27.125 Q127.6563,27.7188 126.8594,28.0469 Q125.8125,28.5 124.5313,28.5 Q123.0313,28.5 121.8281,27.9063 Q120.8594,27.4375 120.1719,26.4219 Q119.5,25.4063 119.5,24.2031 L119.5,23.1094 Q119.5,21.8594 120.0938,20.7656 Q120.7031,19.6719 121.75,19.0938 Q122.8125,18.5 124,18.5 Q124.7188,18.5 125.3438,18.75 Q125.9688,19 126.5,19.5 Z " fill="#000000"/><text fill="#000000" font-family="sans-serif" font-size="12" lengthAdjust="spacing" textLength="126" x="138.5" y="27.9102">DefineProductOwnerUI</text><line style="stroke:#A80036;stroke-width:1.5;" x1="110.5" x2="266.5" y1="39" y2="39"/><line style="stroke:#A80036;stroke-width:1.5;" x1="110.5" x2="266.5" y1="47" y2="47"/><!--MD5=[a7481f0bfdde296618453023baf3cb5b]
class DefineProductOwnerController--><rect codeLine="14" fill="#FEFECE" filter="url(#f1ifwo6vdozfxq)" height="61.8359" id="DefineProductOwnerController" style="stroke:#A80036;stroke-width:1.5;" width="245" x="66" y="116"/><ellipse cx="101.25" cy="132" fill="#ADD1B2" rx="11" ry="11" style="stroke:#A80036;stroke-width:1.0;"/><path d="M103.25,128.5 Q103.4531,128 103.6875,127.75 Q103.9219,127.5 104.1875,127.5 Q104.6563,127.5 104.9531,127.7813 Q105.25,128.0625 105.25,128.7188 L105.25,130.2813 Q105.25,130.9375 104.9688,131.2188 Q104.6875,131.5 104.25,131.5 Q103.8594,131.5 103.6094,131.3281 Q103.3594,131.1563 103.25,130.7031 Q103.2031,130.3906 103.0313,130.2188 Q102.7188,129.8906 102.1563,129.7031 Q101.5938,129.5 101.0313,129.5 Q100.3281,129.5 99.7344,129.7813 Q99.1563,130.0625 98.7031,130.6875 Q98.25,131.3125 98.25,132.1719 L98.25,133.0938 Q98.25,134.125 99.0938,134.8125 Q99.9375,135.5 101.4375,135.5 Q102.3281,135.5 102.9531,135.2969 Q103.3125,135.1875 103.7188,134.8281 Q103.9844,134.625 104.125,134.5625 Q104.2656,134.5 104.4375,134.5 Q104.7656,134.5 105,134.7656 Q105.25,135.0156 105.25,135.375 Q105.25,135.7188 104.9063,136.125 Q104.4063,136.7188 103.6094,137.0469 Q102.5625,137.5 101.2813,137.5 Q99.7813,137.5 98.5781,136.9063 Q97.6094,136.4375 96.9219,135.4219 Q96.25,134.4063 96.25,133.2031 L96.25,132.1094 Q96.25,130.8594 96.8438,129.7656 Q97.4531,128.6719 98.5,128.0938 Q99.5625,127.5 100.75,127.5 Q101.4688,127.5 102.0938,127.75 Q102.7188,128 103.25,128.5 Z " fill="#000000"/><text fill="#000000" font-family="sans-serif" font-size="12" lengthAdjust="spacing" textLength="168" x="119.75" y="136.9102">DefineProductOwnerController</text><line style="stroke:#A80036;stroke-width:1.5;" x1="67" x2="310" y1="148" y2="148"/><line style="stroke:#A80036;stroke-width:1.5;" x1="67" x2="310" y1="156" y2="156"/><text fill="#000000" font-family="sans-serif" font-size="11" lengthAdjust="spacing" textLength="233" x="72" y="171.4189">setProductOwner(String projectCode, int userId)</text><!--MD5=[41fc1644ffe584d705042db0e6e760e1]
class DataManagement--><rect codeLine="18" fill="#FEFECE" filter="url(#f1ifwo6vdozfxq)" height="75.6719" id="DataManagement" style="stroke:#A80036;stroke-width:1.5;" width="130" x="123.5" y="256"/><ellipse cx="138.5" cy="272" fill="#ADD1B2" rx="11" ry="11" style="stroke:#A80036;stroke-width:1.0;"/><path d="M140.5,268.5 Q140.7031,268 140.9375,267.75 Q141.1719,267.5 141.4375,267.5 Q141.9063,267.5 142.2031,267.7813 Q142.5,268.0625 142.5,268.7188 L142.5,270.2813 Q142.5,270.9375 142.2188,271.2188 Q141.9375,271.5 141.5,271.5 Q141.1094,271.5 140.8594,271.3281 Q140.6094,271.1563 140.5,270.7031 Q140.4531,270.3906 140.2813,270.2188 Q139.9688,269.8906 139.4063,269.7031 Q138.8438,269.5 138.2813,269.5 Q137.5781,269.5 136.9844,269.7813 Q136.4063,270.0625 135.9531,270.6875 Q135.5,271.3125 135.5,272.1719 L135.5,273.0938 Q135.5,274.125 136.3438,274.8125 Q137.1875,275.5 138.6875,275.5 Q139.5781,275.5 140.2031,275.2969 Q140.5625,275.1875 140.9688,274.8281 Q141.2344,274.625 141.375,274.5625 Q141.5156,274.5 141.6875,274.5 Q142.0156,274.5 142.25,274.7656 Q142.5,275.0156 142.5,275.375 Q142.5,275.7188 142.1563,276.125 Q141.6563,276.7188 140.8594,277.0469 Q139.8125,277.5 138.5313,277.5 Q137.0313,277.5 135.8281,276.9063 Q134.8594,276.4375 134.1719,275.4219 Q133.5,274.4063 133.5,273.2031 L133.5,272.1094 Q133.5,270.8594 134.0938,269.7656 Q134.7031,268.6719 135.75,268.0938 Q136.8125,267.5 138,267.5 Q138.7188,267.5 139.3438,267.75 Q139.9688,268 140.5,268.5 Z " fill="#000000"/><text fill="#000000" font-family="sans-serif" font-size="12" lengthAdjust="spacing" textLength="98" x="152.5" y="276.9102">DataManagement</text><line style="stroke:#A80036;stroke-width:1.5;" x1="124.5" x2="252.5" y1="288" y2="288"/><line style="stroke:#A80036;stroke-width:1.5;" x1="124.5" x2="252.5" y1="296" y2="296"/><text fill="#000000" font-family="sans-serif" font-size="11" lengthAdjust="spacing" textLength="82" x="129.5" y="311.4189">getProjectStore()</text><text fill="#000000" font-family="sans-serif" font-size="11" lengthAdjust="spacing" textLength="96" x="129.5" y="325.2549">getResourceStore()</text><!--MD5=[0cf43f64de24b70e8ffe65ff9ee7abee]
class ProjectStore--><rect codeLine="23" fill="#FEFECE" filter="url(#f1ifwo6vdozfxq)" height="61.8359" id="ProjectStore" style="stroke:#A80036;stroke-width:1.5;" width="161" x="7" y="410"/><ellipse cx="49.9" cy="426" fill="#ADD1B2" rx="11" ry="11" style="stroke:#A80036;stroke-width:1.0;"/><path d="M51.9,422.5 Q52.1031,422 52.3375,421.75 Q52.5719,421.5 52.8375,421.5 Q53.3063,421.5 53.6031,421.7813 Q53.9,422.0625 53.9,422.7188 L53.9,424.2813 Q53.9,424.9375 53.6188,425.2188 Q53.3375,425.5 52.9,425.5 Q52.5094,425.5 52.2594,425.3281 Q52.0094,425.1563 51.9,424.7031 Q51.8531,424.3906 51.6813,424.2188 Q51.3688,423.8906 50.8063,423.7031 Q50.2438,423.5 49.6813,423.5 Q48.9781,423.5 48.3844,423.7813 Q47.8063,424.0625 47.3531,424.6875 Q46.9,425.3125 46.9,426.1719 L46.9,427.0938 Q46.9,428.125 47.7438,428.8125 Q48.5875,429.5 50.0875,429.5 Q50.9781,429.5 51.6031,429.2969 Q51.9625,429.1875 52.3688,428.8281 Q52.6344,428.625 52.775,428.5625 Q52.9156,428.5 53.0875,428.5 Q53.4156,428.5 53.65,428.7656 Q53.9,429.0156 53.9,429.375 Q53.9,429.7188 53.5563,430.125 Q53.0563,430.7188 52.2594,431.0469 Q51.2125,431.5 49.9313,431.5 Q48.4313,431.5 47.2281,430.9063 Q46.2594,430.4375 45.5719,429.4219 Q44.9,428.4063 44.9,427.2031 L44.9,426.1094 Q44.9,424.8594 45.4938,423.7656 Q46.1031,422.6719 47.15,422.0938 Q48.2125,421.5 49.4,421.5 Q50.1188,421.5 50.7438,421.75 Q51.3688,422 51.9,422.5 Z " fill="#000000"/><text fill="#000000" font-family="sans-serif" font-size="12" lengthAdjust="spacing" textLength="67" x="70.1" y="430.9102">ProjectStore</text><line style="stroke:#A80036;stroke-width:1.5;" x1="8" x2="167" y1="442" y2="442"/><line style="stroke:#A80036;stroke-width:1.5;" x1="8" x2="167" y1="450" y2="450"/><text fill="#000000" font-family="sans-serif" font-size="11" lengthAdjust="spacing" textLength="149" x="13" y="465.4189">getProjectByCode(String code)</text><!--MD5=[ff3148b2caba12d75f868580a0b84dbc]
class ResourceStore--><rect codeLine="31" fill="#FEFECE" filter="url(#f1ifwo6vdozfxq)" height="61.8359" id="ResourceStore" style="stroke:#A80036;stroke-width:1.5;" width="170" x="203.5" y="410"/><ellipse cx="243.25" cy="426" fill="#ADD1B2" rx="11" ry="11" style="stroke:#A80036;stroke-width:1.0;"/><path d="M245.25,422.5 Q245.4531,422 245.6875,421.75 Q245.9219,421.5 246.1875,421.5 Q246.6563,421.5 246.9531,421.7813 Q247.25,422.0625 247.25,422.7188 L247.25,424.2813 Q247.25,424.9375 246.9688,425.2188 Q246.6875,425.5 246.25,425.5 Q245.8594,425.5 245.6094,425.3281 Q245.3594,425.1563 245.25,424.7031 Q245.2031,424.3906 245.0313,424.2188 Q244.7188,423.8906 244.1563,423.7031 Q243.5938,423.5 243.0313,423.5 Q242.3281,423.5 241.7344,423.7813 Q241.1563,424.0625 240.7031,424.6875 Q240.25,425.3125 240.25,426.1719 L240.25,427.0938 Q240.25,428.125 241.0938,428.8125 Q241.9375,429.5 243.4375,429.5 Q244.3281,429.5 244.9531,429.2969 Q245.3125,429.1875 245.7188,428.8281 Q245.9844,428.625 246.125,428.5625 Q246.2656,428.5 246.4375,428.5 Q246.7656,428.5 247,428.7656 Q247.25,429.0156 247.25,429.375 Q247.25,429.7188 246.9063,430.125 Q246.4063,430.7188 245.6094,431.0469 Q244.5625,431.5 243.2813,431.5 Q241.7813,431.5 240.5781,430.9063 Q239.6094,430.4375 238.9219,429.4219 Q238.25,428.4063 238.25,427.2031 L238.25,426.1094 Q238.25,424.8594 238.8438,423.7656 Q239.4531,422.6719 240.5,422.0938 Q241.5625,421.5 242.75,421.5 Q243.4688,421.5 244.0938,421.75 Q244.7188,422 245.25,422.5 Z " fill="#000000"/><text fill="#000000" font-family="sans-serif" font-size="12" lengthAdjust="spacing" textLength="83" x="262.75" y="430.9102">ResourceStore</text><line style="stroke:#A80036;stroke-width:1.5;" x1="204.5" x2="372.5" y1="442" y2="442"/><line style="stroke:#A80036;stroke-width:1.5;" x1="204.5" x2="372.5" y1="450" y2="450"/><text fill="#000000" font-family="sans-serif" font-size="11" lengthAdjust="spacing" textLength="158" x="209.5" y="465.4189">getUserResourceById(int userId)</text><!--MD5=[79d378210367c0c6ec62ef762ddfbd1b]
class ProjectDeprecated--><rect codeLine="27" fill="#FEFECE" filter="url(#f1ifwo6vdozfxq)" height="61.8359" id="Project" style="stroke:#A80036;stroke-width:1.5;" width="106" x="34.5" y="550"/><ellipse cx="65.7" cy="566" fill="#ADD1B2" rx="11" ry="11" style="stroke:#A80036;stroke-width:1.0;"/><path d="M67.7,562.5 Q67.9031,562 68.1375,561.75 Q68.3719,561.5 68.6375,561.5 Q69.1063,561.5 69.4031,561.7813 Q69.7,562.0625 69.7,562.7188 L69.7,564.2813 Q69.7,564.9375 69.4188,565.2188 Q69.1375,565.5 68.7,565.5 Q68.3094,565.5 68.0594,565.3281 Q67.8094,565.1563 67.7,564.7031 Q67.6531,564.3906 67.4813,564.2188 Q67.1688,563.8906 66.6063,563.7031 Q66.0438,563.5 65.4813,563.5 Q64.7781,563.5 64.1844,563.7813 Q63.6063,564.0625 63.1531,564.6875 Q62.7,565.3125 62.7,566.1719 L62.7,567.0938 Q62.7,568.125 63.5438,568.8125 Q64.3875,569.5 65.8875,569.5 Q66.7781,569.5 67.4031,569.2969 Q67.7625,569.1875 68.1688,568.8281 Q68.4344,568.625 68.575,568.5625 Q68.7156,568.5 68.8875,568.5 Q69.2156,568.5 69.45,568.7656 Q69.7,569.0156 69.7,569.375 Q69.7,569.7188 69.3563,570.125 Q68.8563,570.7188 68.0594,571.0469 Q67.0125,571.5 65.7313,571.5 Q64.2313,571.5 63.0281,570.9063 Q62.0594,570.4375 61.3719,569.4219 Q60.7,568.4063 60.7,567.2031 L60.7,566.1094 Q60.7,564.8594 61.2938,563.7656 Q61.9031,562.6719 62.95,562.0938 Q64.0125,561.5 65.2,561.5 Q65.9188,561.5 66.5438,561.75 Q67.1688,562 67.7,562.5 Z " fill="#000000"/><text fill="#000000" font-family="sans-serif" font-size="12" lengthAdjust="spacing" textLength="38" x="83.3" y="570.9102">Project</text><line style="stroke:#A80036;stroke-width:1.5;" x1="35.5" x2="139.5" y1="582" y2="582"/><line style="stroke:#A80036;stroke-width:1.5;" x1="35.5" x2="139.5" y1="590" y2="590"/><text fill="#000000" font-family="sans-serif" font-size="11" lengthAdjust="spacing" textLength="94" x="40.5" y="605.4189">setProductOwner()</text><!--MD5=[bc193b12dd44b0f97b44e7e9c13114a0]
link DefineProductOwnerUI to DefineProductOwnerController--><path codeLine="8" d="M188.5,55.07 C188.5,71.01 188.5,92.51 188.5,110.6 " fill="none" id="DefineProductOwnerUI-to-DefineProductOwnerController" style="stroke:#A80036;stroke-width:1.0;stroke-dasharray:7.0,7.0;"/><polygon fill="#A80036" points="188.5,115.61,192.5,106.61,188.5,110.61,184.5,106.61,188.5,115.61" style="stroke:#A80036;stroke-width:1.0;"/><!--MD5=[e49256ec62a64c0e2589668b84841744]
link DataManagement to ProjectStore--><path codeLine="9" d="M162.49,332.34 C145.77,356.34 124.33,387.12 108.66,409.62 " fill="none" id="DataManagement-ProjectStore" style="stroke:#A80036;stroke-width:1.0;"/><text fill="#000000" font-family="sans-serif" font-size="13" lengthAdjust="spacing" textLength="70" x="142.5" y="376.4951">projectStore</text><text fill="#000000" font-family="sans-serif" font-size="13" lengthAdjust="spacing" textLength="7" x="150.7868" y="353.2747">1</text><text fill="#000000" font-family="sans-serif" font-size="13" lengthAdjust="spacing" textLength="7" x="105.3024" y="399.0462">1</text><!--MD5=[c4b557eb25acb386ef80e9bbd67367cf]
link DataManagement to ResourceStore--><path codeLine="10" d="M214.25,332.34 C230.8,356.34 252.03,387.12 267.55,409.62 " fill="none" id="DataManagement-ResourceStore" style="stroke:#A80036;stroke-width:1.0;"/><text fill="#000000" font-family="sans-serif" font-size="13" lengthAdjust="spacing" textLength="81" x="244.5" y="376.4951">resourceStore</text><text fill="#000000" font-family="sans-serif" font-size="13" lengthAdjust="spacing" textLength="7" x="210.7961" y="353.2747">1</text><text fill="#000000" font-family="sans-serif" font-size="13" lengthAdjust="spacing" textLength="7" x="255.5072" y="399.0462">1</text><!--MD5=[c2999c5e21c0a7115ef87c36c02875b6]
reverse link ProjectStore to ProjectDeprecated--><path codeLine="11" d="M87.5,485.41 C87.5,506.34 87.5,530.93 87.5,549.79 " fill="none" id="ProjectStore-backto-Project" style="stroke:#A80036;stroke-width:1.0;"/><polygon fill="#A80036" points="87.5,472.28,83.5,478.28,87.5,484.28,91.5,478.28,87.5,472.28" style="stroke:#A80036;stroke-width:1.0;"/><text fill="#000000" font-family="sans-serif" font-size="13" lengthAdjust="spacing" textLength="60" x="88.5" y="516.4951">projectList</text><text fill="#000000" font-family="sans-serif" font-size="13" lengthAdjust="spacing" textLength="7" x="79.8328" y="493.312">1</text><text fill="#000000" font-family="sans-serif" font-size="13" lengthAdjust="spacing" textLength="20" x="65.4375" y="539.2512">0..*</text><!--MD5=[839233964c31a9256ea8cc2399de9701]
link DefineProductOwnerController to DataManagement--><path codeLine="12" d="M188.5,178.04 C188.5,200.61 188.5,231.64 188.5,255.78 " fill="none" id="DefineProductOwnerController-DataManagement" style="stroke:#A80036;stroke-width:1.0;"/><text fill="#000000" font-family="sans-serif" font-size="13" lengthAdjust="spacing" textLength="100" x="189.5" y="222.4951">dataManagement</text><text fill="#000000" font-family="sans-serif" font-size="13" lengthAdjust="spacing" textLength="7" x="180.8109" y="199.2719">1</text><text fill="#000000" font-family="sans-serif" font-size="13" lengthAdjust="spacing" textLength="7" x="180.8766" y="245.1027">1</text><!--MD5=[ea0c1c19908f431ebb40fbb09c46fee6]
@startuml
'https://plantuml.com/class-diagram

class DefineProductOwnerUI
class DefineProductOwnerController
class DataManagement
class ProjectStore

DefineProductOwnerUI ..> DefineProductOwnerController
DataManagement "1" -down- "1" ProjectStore: projectStore
DataManagement "1" -down- "1" ResourceStore: resourceStore
ProjectStore "1" *-down- "0..*" ProjectDeprecated : "projectList"
DefineProductOwnerController "1" -down- "1" DataManagement : "dataManagement"

class DefineProductOwnerController {
setProductOwner(String projectCode, int userId)
}

class DataManagement {
getProjectStore()
getResourceStore()
}

class ProjectStore {
getProjectByCode(String code)
}

class ProjectDeprecated {
setProductOwner()
}

class ResourceStore {
getUserResourceById(int userId)
}

@enduml

@startuml

class DefineProductOwnerUI
class DefineProductOwnerController
class DataManagement
class ProjectStore

DefineProductOwnerUI ..> DefineProductOwnerController
DataManagement "1" -down- "1" ProjectStore: projectStore
DataManagement "1" -down- "1" ResourceStore: resourceStore
ProjectStore "1" *-down- "0..*" ProjectDeprecated : "projectList"
DefineProductOwnerController "1" -down- "1" DataManagement : "dataManagement"

class DefineProductOwnerController {
setProductOwner(String projectCode, int userId)
}

class DataManagement {
getProjectStore()
getResourceStore()
}

class ProjectStore {
getProjectByCode(String code)
}

class ProjectDeprecated {
setProductOwner()
}

class ResourceStore {
getUserResourceById(int userId)
}

@enduml

PlantUML version 1.2021.11(Sat Oct 02 14:26:11 BST 2021)
(GPL source distribution)
Java Runtime: OpenJDK Runtime Environment
JVM: OpenJDK 64-Bit Server VM
Default Encoding: Cp1252
Language: pt
Country: PT
--></g></svg>