<?xml version="1.0" encoding="UTF-8" standalone="no"?><svg xmlns="http://www.w3.org/2000/svg" xmlns:xlink="http://www.w3.org/1999/xlink" contentScriptType="application/ecmascript" contentStyleType="text/css" height="131px" preserveAspectRatio="none" style="width:549px;height:131px;background:#FFFFFF;" version="1.1" viewBox="0 0 549 131" width="549px" zoomAndPan="magnify"><defs><filter height="300%" id="f18rpgqrf0jmgb" width="300%" x="-1" y="-1"><feGaussianBlur result="blurOut" stdDeviation="2.0"/><feColorMatrix in="blurOut" result="blurOut2" type="matrix" values="0 0 0 0 0 0 0 0 0 0 0 0 0 0 0 0 0 0 .4 0"/><feOffset dx="4.0" dy="4.0" in="blurOut2" result="blurOut3"/><feBlend in="SourceGraphic" in2="blurOut3" mode="normal"/></filter></defs><g><!--MD5=[99b31deea5d7419a569cd5090bf83263]
cluster System--><rect fill="#FFFFFF" filter="url(#f18rpgqrf0jmgb)" height="112" style="stroke:#000000;stroke-width:1.5;" width="304" x="100" y="7"/><text fill="#000000" font-family="sans-serif" font-size="14" font-weight="bold" lengthAdjust="spacing" textLength="50" x="227" y="23.5332">System</text><ellipse cx="251.9974" cy="73.0995" fill="#FEFECE" filter="url(#f18rpgqrf0jmgb)" rx="135.9974" ry="29.5995" style="stroke:#A80036;stroke-width:1.5;"/><text fill="#000000" font-family="sans-serif" font-size="14" lengthAdjust="spacing" textLength="239" x="132.4974" y="76.828">Define the Product Owner of a Project</text><!--MD5=[fee662a292a0353a69bd162820bae93b]
entity User--><ellipse cx="31" cy="41" fill="#FEFECE" filter="url(#f18rpgqrf0jmgb)" rx="8" ry="8" style="stroke:#A80036;stroke-width:1.5;"/><path d="M31,49 L31,76 M18,57 L44,57 M31,76 L18,91 M31,76 L44,91 " fill="none" filter="url(#f18rpgqrf0jmgb)" style="stroke:#A80036;stroke-width:1.5;"/><text fill="#000000" font-family="sans-serif" font-size="14" lengthAdjust="spacing" textLength="50" x="6" y="111.0332">Director</text><!--MD5=[987649c1f337d327782b29909f372032]
entity Product Owner--><ellipse cx="495" cy="41" fill="#FEFECE" filter="url(#f18rpgqrf0jmgb)" rx="8" ry="8" style="stroke:#A80036;stroke-width:1.5;"/><path d="M495,49 L495,76 M482,57 L508,57 M495,76 L482,91 M495,76 L508,91 " fill="none" filter="url(#f18rpgqrf0jmgb)" style="stroke:#A80036;stroke-width:1.5;"/><text fill="#000000" font-family="sans-serif" font-size="14" lengthAdjust="spacing" textLength="94" x="448" y="111.0332">Product Owner</text><!--MD5=[40d0f94bfbad6ee11e3350241482b726]
link User to US2--><path d="M56.27,73 C70.5,73 89.75,73 110.64,73 " fill="none" id="User-to-US2" style="stroke:#A80036;stroke-width:1.0;"/><polygon fill="#A80036" points="115.69,73,106.69,69,110.69,73,106.69,77,115.69,73" style="stroke:#A80036;stroke-width:1.0;"/><!--MD5=[e6b93824935d3852eb6c63e017f971f6]
link US2 to Product Owner--><path d="M388.29,73 C407.57,73 426.34,73 442.58,73 " fill="none" id="US2-to-Product Owner" style="stroke:#A80036;stroke-width:1.0;"/><polygon fill="#A80036" points="447.99,73,438.99,69,442.99,73,438.99,77,447.99,73" style="stroke:#A80036;stroke-width:1.0;"/><!--MD5=[6c92471d194aedf43206edd26be038ce]
@startuml
'https://plantuml.com/use-case-diagram

left to right direction
:Director: as User
rectangle System{
    usecase "Define the Product Owner of a ProjectDeprecated" as US2
}

User - -> US2
US2 - -> :Product Owner:

@enduml

@startuml

left to right direction
:Director: as User
rectangle System{
    usecase "Define the Product Owner of a ProjectDeprecated" as US2
}

User - -> US2
US2 - -> :Product Owner:

@enduml

PlantUML version 1.2021.11(Sat Oct 02 14:26:11 BST 2021)
(GPL source distribution)
Java Runtime: OpenJDK Runtime Environment
JVM: OpenJDK 64-Bit Server VM
Default Encoding: Cp1252
Language: pt
Country: PT
--></g></svg>