<?xml version="1.0" encoding="UTF-8" standalone="no"?><svg xmlns="http://www.w3.org/2000/svg" xmlns:xlink="http://www.w3.org/1999/xlink" contentScriptType="application/ecmascript" contentStyleType="text/css" height="369px" preserveAspectRatio="none" style="width:689px;height:369px;background:#FFFFFF;" version="1.1" viewBox="0 0 689 369" width="689px" zoomAndPan="magnify"><defs><filter height="300%" id="f1aj9ue1jb6rmp" width="300%" x="-1" y="-1"><feGaussianBlur result="blurOut" stdDeviation="2.0"/><feColorMatrix in="blurOut" result="blurOut2" type="matrix" values="0 0 0 0 0 0 0 0 0 0 0 0 0 0 0 0 0 0 .4 0"/><feOffset dx="4.0" dy="4.0" in="blurOut2" result="blurOut3"/><feBlend in="SourceGraphic" in2="blurOut3" mode="normal"/></filter></defs><g><text fill="#888888" font-family="sans-serif" font-size="10" lengthAdjust="spacing" textLength="133" x="549" y="10.3809">Use Case Diagram of US034</text><!--MD5=[99b31deea5d7419a569cd5090bf83263]
cluster System--><polygon fill="#FFFFFF" filter="url(#f1aj9ue1jb6rmp)" points="161,18.5781,217,18.5781,224,42.1875,661,42.1875,661,344.5781,161,344.5781,161,18.5781" style="stroke:#000000;stroke-width:1.5;"/><line style="stroke:#000000;stroke-width:1.5;" x1="161" x2="224" y1="42.1875" y2="42.1875"/><text fill="#000000" font-family="sans-serif" font-size="14" font-weight="bold" lengthAdjust="spacing" textLength="50" x="165" y="35.1113">System</text><ellipse cx="287.8903" cy="79.6562" fill="#FEFECE" filter="url(#f1aj9ue1jb6rmp)" rx="110.8903" ry="24.5781" style="stroke:#A80036;stroke-width:1.5;"/><text fill="#000000" font-family="sans-serif" font-size="14" lengthAdjust="spacing" textLength="185" x="195.3903" y="83.3847">Request the ScrumBoard List</text><ellipse cx="573.5677" cy="79.7917" fill="#FEFECE" filter="url(#f1aj9ue1jb6rmp)" rx="71.5677" ry="16.7135" style="stroke:#A80036;stroke-width:1.5;"/><text fill="#000000" font-family="sans-serif" font-size="14" lengthAdjust="spacing" textLength="92" x="524.5677" y="84.3083">List of projects</text><ellipse cx="288.097" cy="157.6975" fill="#FEFECE" filter="url(#f1aj9ue1jb6rmp)" rx="81.097" ry="18.6194" style="stroke:#A80036;stroke-width:1.5;"/><text fill="#000000" font-family="sans-serif" font-size="14" lengthAdjust="spacing" textLength="117" x="229.0843" y="161.5763">Insert projectDeprecated code</text><ellipse cx="287.9661" cy="231.3714" fill="#FEFECE" filter="url(#f1aj9ue1jb6rmp)" rx="86.9661" ry="19.7932" style="stroke:#A80036;stroke-width:1.5;"/><text fill="#000000" font-family="sans-serif" font-size="14" lengthAdjust="spacing" textLength="131" x="222.4661" y="235.0999">Get ScrumBoard List</text><ellipse cx="287.8753" cy="307.7532" fill="#FEFECE" filter="url(#f1aj9ue1jb6rmp)" rx="93.8753" ry="21.1751" style="stroke:#A80036;stroke-width:1.5;"/><text fill="#000000" font-family="sans-serif" font-size="14" lengthAdjust="spacing" textLength="147" x="214.3753" y="311.4817">Set ScrumBoard Status</text><!--MD5=[fee662a292a0353a69bd162820bae93b]
entity User--><ellipse cx="68.5" cy="171.5781" fill="#FEFECE" filter="url(#f1aj9ue1jb6rmp)" rx="8" ry="8" style="stroke:#A80036;stroke-width:1.5;"/><path d="M68.5,179.5781 L68.5,206.5781 M55.5,187.5781 L81.5,187.5781 M68.5,206.5781 L55.5,221.5781 M68.5,206.5781 L81.5,221.5781 " fill="none" filter="url(#f1aj9ue1jb6rmp)" style="stroke:#A80036;stroke-width:1.5;"/><text fill="#000000" font-family="sans-serif" font-size="14" lengthAdjust="spacing" textLength="91" x="23" y="241.6113">Team member</text><!--MD5=[7522d5c5799d0652da24a5d0145a519b]
link User to US1--><path d="M104.5,161.8281 C118.36,147.4181 135.23,132.2381 153,121.5781 C168.77,112.1281 186.87,104.5981 204.57,98.6781 " fill="none" id="User-to-US1" style="stroke:#A80036;stroke-width:1.0;"/><polygon fill="#A80036" points="209.55,97.0581,199.755,96.0298,204.7939,98.6006,202.223,103.6396,209.55,97.0581" style="stroke:#A80036;stroke-width:1.0;"/><!--MD5=[3d88f5a2196a3e60cc7f10c5896df2c5]
link US1 to US6--><path d="M399.01,79.5781 C431.68,79.5781 466.71,79.5781 496.68,79.5781 " fill="none" id="US1-to-US6" style="stroke:#A80036;stroke-width:1.0;stroke-dasharray:7.0,7.0;"/><polygon fill="#A80036" points="501.83,79.5781,492.83,75.5781,496.83,79.5781,492.83,83.5781,501.83,79.5781" style="stroke:#A80036;stroke-width:1.0;"/><text fill="#000000" font-family="sans-serif" font-size="13" lengthAdjust="spacing" textLength="41" x="430" y="76.0732">include</text><!--MD5=[40d0f94bfbad6ee11e3350241482b726]
link User to US2--><path d="M114.04,194.1581 C145.43,187.5181 187.94,178.5281 222.96,171.1181 " fill="none" id="User-to-US2" style="stroke:#A80036;stroke-width:1.0;"/><polygon fill="#A80036" points="228.07,170.0381,218.439,167.978,223.1773,171.0682,220.0871,175.8064,228.07,170.0381" style="stroke:#A80036;stroke-width:1.0;"/><!--MD5=[03cc136bda8a1e00ade5b19e82dd6082]
link User to US5--><path d="M114.04,209.3081 C140.7,212.7481 175.38,217.2081 206.69,221.2381 " fill="none" id="User-to-US5" style="stroke:#A80036;stroke-width:1.0;"/><polygon fill="#A80036" points="211.68,221.8781,203.2547,216.7778,206.7197,221.2492,202.2483,224.7142,211.68,221.8781" style="stroke:#A80036;stroke-width:1.0;"/><!--MD5=[a771586f10297b31a4af9a552316608a]
link User to US7--><path d="M114.2,243.3481 C126.2,252.5881 139.59,261.7281 153,268.5781 C172.08,278.3281 193.96,285.9881 214.43,291.8481 " fill="none" id="User-to-US7" style="stroke:#A80036;stroke-width:1.0;"/><polygon fill="#A80036" points="219.33,293.2281,211.7529,286.9363,214.5176,291.8715,209.5823,294.6362,219.33,293.2281" style="stroke:#A80036;stroke-width:1.0;"/><text fill="#888888" font-family="sans-serif" font-size="10" lengthAdjust="spacing" textLength="682" x="0" y="360.959">US 034 - As Project Member, I want to update the status (i.e.: the Scrum Board category) of a user story in the scope of the current sprint backlog.</text><!--MD5=[137a9c65e0460aee269933d48c340ab4]
@startuml
'https://plantuml.com/use-case-diagram
header
Use Case Diagram of US034
endheader

center footer US 034 - As ProjectDeprecated Member, I want to update the status (i.e.: the Scrum Board category) of a user story in the scope of the current sprint backlog.


left to right direction
:Team member: as User
package System{
    usecase "Request the ScrumBoard List" as US1
    usecase "List of projects" as US6
    usecase "Insert projectDeprecated code" as US2
    usecase "Get ScrumBoard List" as US5
    usecase "Set ScrumBoard Status" as US7

User - -> US1
US1 ..> US6 : include
User - -> US2
User - -> US5
User - -> US7 

@enduml

@startuml
header
Use Case Diagram of US034
endheader

center footer US 034 - As ProjectDeprecated Member, I want to update the status (i.e.: the Scrum Board category) of a user story in the scope of the current sprint backlog.


left to right direction
:Team member: as User
package System{
    usecase "Request the ScrumBoard List" as US1
    usecase "List of projects" as US6
    usecase "Insert projectDeprecated code" as US2
    usecase "Get ScrumBoard List" as US5
    usecase "Set ScrumBoard Status" as US7

User - -> US1
US1 ..> US6 : include
User - -> US2
User - -> US5
User - -> US7 

@enduml

PlantUML version 1.2022.0(Tue Jan 11 16:16:42 GMT 2022)
(GPL source distribution)
Java Runtime: OpenJDK Runtime Environment
JVM: OpenJDK 64-Bit Server VM
Default Encoding: Cp1252
Language: pt
Country: PT
--></g></svg>