<?xml version="1.0" encoding="UTF-8" standalone="no"?><svg xmlns="http://www.w3.org/2000/svg" xmlns:xlink="http://www.w3.org/1999/xlink" contentScriptType="application/ecmascript" contentStyleType="text/css" height="457px" preserveAspectRatio="none" style="width:642px;height:457px;background:#FFFFFF;" version="1.1" viewBox="0 0 642 457" width="642px" zoomAndPan="magnify"><defs><filter height="300%" id="f5rv9jt9ze5up" width="300%" x="-1" y="-1"><feGaussianBlur result="blurOut" stdDeviation="1.0"/><feColorMatrix in="blurOut" result="blurOut2" type="matrix" values="0 0 0 0 0 0 0 0 0 0 0 0 0 0 0 0 0 0 .4 0"/><feOffset dx="2.0" dy="2.0" in="blurOut2" result="blurOut3"/><feBlend in="SourceGraphic" in2="blurOut3" mode="normal"/></filter></defs><g><text fill="#888888" font-family="sans-serif" font-size="5" lengthAdjust="spacing" textLength="57" x="578.5" y="5.1904">Class Diagram of US034</text><!--MD5=[9681dc6e01e10c6b4fe06895ae94f592]
cluster UI--><polygon fill="#FFFFFF" filter="url(#f5rv9jt9ze5up)" points="56.5,9.2891,66.5,9.2891,70,21.0938,166.5,21.0938,166.5,59.2891,56.5,59.2891,56.5,9.2891" style="stroke:#000000;stroke-width:0.75;"/><line style="stroke:#000000;stroke-width:0.75;" x1="56.5" x2="70" y1="21.0938" y2="21.0938"/><text fill="#000000" font-family="sans-serif" font-size="7" font-weight="bold" lengthAdjust="spacing" textLength="7" x="58.5" y="17.5557">UI</text><!--MD5=[01435ace8273dc3cae88e7f376e4d373]
cluster core--><polygon fill="#FFFFFF" filter="url(#f5rv9jt9ze5up)" points="8,71.2891,27,71.2891,30.5,83.0938,633.5,83.0938,633.5,444.7891,8,444.7891,8,71.2891" style="stroke:#000000;stroke-width:0.75;"/><line style="stroke:#000000;stroke-width:0.75;" x1="8" x2="30.5" y1="83.0938" y2="83.0938"/><text fill="#000000" font-family="sans-serif" font-size="7" font-weight="bold" lengthAdjust="spacing" textLength="16" x="10" y="79.5557">core</text><!--MD5=[121a8bf1197281ab89ed693fab589f94]
cluster Domain--><polygon fill="#FFFFFF" filter="url(#f5rv9jt9ze5up)" points="20,184.7891,49,184.7891,52.5,196.5938,621.5,196.5938,621.5,432.7891,20,432.7891,20,184.7891" style="stroke:#000000;stroke-width:0.75;"/><line style="stroke:#000000;stroke-width:0.75;" x1="20" x2="52.5" y1="196.5938" y2="196.5938"/><text fill="#000000" font-family="sans-serif" font-size="7" font-weight="bold" lengthAdjust="spacing" textLength="26" x="22" y="193.0557">Domain</text><!--MD5=[ed1d20ea533a2a0e7df5ba3c35e56ced]
cluster Controllers--><polygon fill="#FFFFFF" filter="url(#f5rv9jt9ze5up)" points="34,93.2891,76.5,93.2891,80,105.0938,189,105.0938,189,150.2891,34,150.2891,34,93.2891" style="stroke:#000000;stroke-width:0.75;"/><line style="stroke:#000000;stroke-width:0.75;" x1="34" x2="80" y1="105.0938" y2="105.0938"/><text fill="#000000" font-family="sans-serif" font-size="7" font-weight="bold" lengthAdjust="spacing" textLength="39.5" x="36" y="101.5557">Controllers</text><!--MD5=[8afaba003262a120a5601de5ddd9f6d0]
class UpdateScrumBoardStatusUI--><rect codeLine="11" fill="#FEFECE" filter="url(#f5rv9jt9ze5up)" height="24" id="UpdateScrumBoardStatusUI" style="stroke:#A80036;stroke-width:0.75;" width="94" x="64.5" y="27.2891"/><ellipse cx="72" cy="35.2891" fill="#ADD1B2" rx="5.5" ry="5.5" style="stroke:#A80036;stroke-width:0.5;"/><path d="M73,33.5391 Q73.1016,33.2891 73.2188,33.1641 Q73.3359,33.0391 73.4688,33.0391 Q73.7031,33.0391 73.8516,33.1797 Q74,33.3203 74,33.6484 L74,34.4297 Q74,34.7578 73.8594,34.8984 Q73.7188,35.0391 73.5,35.0391 Q73.3047,35.0391 73.1797,34.9531 Q73.0547,34.8672 73,34.6406 Q72.9766,34.4844 72.8906,34.3984 Q72.7344,34.2344 72.4531,34.1406 Q72.1719,34.0391 71.8906,34.0391 Q71.5391,34.0391 71.2422,34.1797 Q70.9531,34.3203 70.7266,34.6328 Q70.5,34.9453 70.5,35.375 L70.5,35.8359 Q70.5,36.3516 70.9219,36.6953 Q71.3438,37.0391 72.0938,37.0391 Q72.5391,37.0391 72.8516,36.9375 Q73.0313,36.8828 73.2344,36.7031 Q73.3672,36.6016 73.4375,36.5703 Q73.5078,36.5391 73.5938,36.5391 Q73.7578,36.5391 73.875,36.6719 Q74,36.7969 74,36.9766 Q74,37.1484 73.8281,37.3516 Q73.5781,37.6484 73.1797,37.8125 Q72.6563,38.0391 72.0156,38.0391 Q71.2656,38.0391 70.6641,37.7422 Q70.1797,37.5078 69.8359,37 Q69.5,36.4922 69.5,35.8906 L69.5,35.3438 Q69.5,34.7188 69.7969,34.1719 Q70.1016,33.625 70.625,33.3359 Q71.1563,33.0391 71.75,33.0391 Q72.1094,33.0391 72.4219,33.1641 Q72.7344,33.2891 73,33.5391 Z " fill="#000000"/><text fill="#000000" font-family="sans-serif" font-size="6" lengthAdjust="spacing" textLength="78" x="79" y="37.7441">UpdateScrumBoardStatusUI</text><line style="stroke:#A80036;stroke-width:0.75;" x1="65" x2="158" y1="43.2891" y2="43.2891"/><line style="stroke:#A80036;stroke-width:0.75;" x1="65" x2="158" y1="47.2891" y2="47.2891"/><!--MD5=[41fc1644ffe584d705042db0e6e760e1]
class DataManagement--><rect codeLine="16" fill="#FEFECE" filter="url(#f5rv9jt9ze5up)" height="30.918" id="DataManagement" style="stroke:#A80036;stroke-width:0.75;" width="65" x="93" y="202.7891"/><ellipse cx="100.5" cy="210.7891" fill="#ADD1B2" rx="5.5" ry="5.5" style="stroke:#A80036;stroke-width:0.5;"/><path d="M101.5,209.0391 Q101.6016,208.7891 101.7188,208.6641 Q101.8359,208.5391 101.9688,208.5391 Q102.2031,208.5391 102.3516,208.6797 Q102.5,208.8203 102.5,209.1484 L102.5,209.9297 Q102.5,210.2578 102.3594,210.3984 Q102.2188,210.5391 102,210.5391 Q101.8047,210.5391 101.6797,210.4531 Q101.5547,210.3672 101.5,210.1406 Q101.4766,209.9844 101.3906,209.8984 Q101.2344,209.7344 100.9531,209.6406 Q100.6719,209.5391 100.3906,209.5391 Q100.0391,209.5391 99.7422,209.6797 Q99.4531,209.8203 99.2266,210.1328 Q99,210.4453 99,210.875 L99,211.3359 Q99,211.8516 99.4219,212.1953 Q99.8438,212.5391 100.5938,212.5391 Q101.0391,212.5391 101.3516,212.4375 Q101.5313,212.3828 101.7344,212.2031 Q101.8672,212.1016 101.9375,212.0703 Q102.0078,212.0391 102.0938,212.0391 Q102.2578,212.0391 102.375,212.1719 Q102.5,212.2969 102.5,212.4766 Q102.5,212.6484 102.3281,212.8516 Q102.0781,213.1484 101.6797,213.3125 Q101.1563,213.5391 100.5156,213.5391 Q99.7656,213.5391 99.1641,213.2422 Q98.6797,213.0078 98.3359,212.5 Q98,211.9922 98,211.3906 L98,210.8438 Q98,210.2188 98.2969,209.6719 Q98.6016,209.125 99.125,208.8359 Q99.6563,208.5391 100.25,208.5391 Q100.6094,208.5391 100.9219,208.6641 Q101.2344,208.7891 101.5,209.0391 Z " fill="#000000"/><text fill="#000000" font-family="sans-serif" font-size="6" lengthAdjust="spacing" textLength="49" x="107.5" y="213.2441">DataManagement</text><line style="stroke:#A80036;stroke-width:0.75;" x1="93.5" x2="157.5" y1="218.7891" y2="218.7891"/><line style="stroke:#A80036;stroke-width:0.75;" x1="93.5" x2="157.5" y1="222.7891" y2="222.7891"/><ellipse cx="98.5" cy="228.2891" fill="#84BE84" rx="1.5" ry="1.5" style="stroke:#038048;stroke-width:0.5;"/><text fill="#000000" font-family="sans-serif" font-size="5.5" lengthAdjust="spacing" textLength="41" x="103" y="230.4985">getProjectStore()</text><!--MD5=[0cf43f64de24b70e8ffe65ff9ee7abee]
class ProjectStore--><rect codeLine="21" fill="#FEFECE" filter="url(#f5rv9jt9ze5up)" height="30.918" id="ProjectStore" style="stroke:#A80036;stroke-width:0.75;" width="70" x="92" y="263.7891"/><ellipse cx="108.725" cy="271.7891" fill="#ADD1B2" rx="5.5" ry="5.5" style="stroke:#A80036;stroke-width:0.5;"/><path d="M109.725,270.0391 Q109.8266,269.7891 109.9438,269.6641 Q110.0609,269.5391 110.1938,269.5391 Q110.4281,269.5391 110.5766,269.6797 Q110.725,269.8203 110.725,270.1484 L110.725,270.9297 Q110.725,271.2578 110.5844,271.3984 Q110.4438,271.5391 110.225,271.5391 Q110.0297,271.5391 109.9047,271.4531 Q109.7797,271.3672 109.725,271.1406 Q109.7016,270.9844 109.6156,270.8984 Q109.4594,270.7344 109.1781,270.6406 Q108.8969,270.5391 108.6156,270.5391 Q108.2641,270.5391 107.9672,270.6797 Q107.6781,270.8203 107.4516,271.1328 Q107.225,271.4453 107.225,271.875 L107.225,272.3359 Q107.225,272.8516 107.6469,273.1953 Q108.0688,273.5391 108.8188,273.5391 Q109.2641,273.5391 109.5766,273.4375 Q109.7563,273.3828 109.9594,273.2031 Q110.0922,273.1016 110.1625,273.0703 Q110.2328,273.0391 110.3188,273.0391 Q110.4828,273.0391 110.6,273.1719 Q110.725,273.2969 110.725,273.4766 Q110.725,273.6484 110.5531,273.8516 Q110.3031,274.1484 109.9047,274.3125 Q109.3813,274.5391 108.7406,274.5391 Q107.9906,274.5391 107.3891,274.2422 Q106.9047,274.0078 106.5609,273.5 Q106.225,272.9922 106.225,272.3906 L106.225,271.8438 Q106.225,271.2188 106.5219,270.6719 Q106.8266,270.125 107.35,269.8359 Q107.8813,269.5391 108.475,269.5391 Q108.8344,269.5391 109.1469,269.6641 Q109.4594,269.7891 109.725,270.0391 Z " fill="#000000"/><text fill="#000000" font-family="sans-serif" font-size="6" lengthAdjust="spacing" textLength="33.5" x="117.775" y="274.2441">ProjectStore</text><line style="stroke:#A80036;stroke-width:0.75;" x1="92.5" x2="161.5" y1="279.7891" y2="279.7891"/><line style="stroke:#A80036;stroke-width:0.75;" x1="92.5" x2="161.5" y1="283.7891" y2="283.7891"/><ellipse cx="97.5" cy="289.2891" fill="#84BE84" rx="1.5" ry="1.5" style="stroke:#038048;stroke-width:0.5;"/><text fill="#000000" font-family="sans-serif" font-size="5.5" lengthAdjust="spacing" textLength="57" x="102" y="291.4985">getProject(projectCode)</text><!--MD5=[79d378210367c0c6ec62ef762ddfbd1b]
class ProjectDeprecated--><rect codeLine="26" fill="#FEFECE" filter="url(#f5rv9jt9ze5up)" height="100.0977" id="Project" style="stroke:#A80036;stroke-width:0.75;" width="108.5" x="28.25" y="324.7891"/><ellipse cx="70.875" cy="332.7891" fill="#ADD1B2" rx="5.5" ry="5.5" style="stroke:#A80036;stroke-width:0.5;"/><path d="M71.875,331.0391 Q71.9766,330.7891 72.0938,330.6641 Q72.2109,330.5391 72.3438,330.5391 Q72.5781,330.5391 72.7266,330.6797 Q72.875,330.8203 72.875,331.1484 L72.875,331.9297 Q72.875,332.2578 72.7344,332.3984 Q72.5938,332.5391 72.375,332.5391 Q72.1797,332.5391 72.0547,332.4531 Q71.9297,332.3672 71.875,332.1406 Q71.8516,331.9844 71.7656,331.8984 Q71.6094,331.7344 71.3281,331.6406 Q71.0469,331.5391 70.7656,331.5391 Q70.4141,331.5391 70.1172,331.6797 Q69.8281,331.8203 69.6016,332.1328 Q69.375,332.4453 69.375,332.875 L69.375,333.3359 Q69.375,333.8516 69.7969,334.1953 Q70.2188,334.5391 70.9688,334.5391 Q71.4141,334.5391 71.7266,334.4375 Q71.9063,334.3828 72.1094,334.2031 Q72.2422,334.1016 72.3125,334.0703 Q72.3828,334.0391 72.4688,334.0391 Q72.6328,334.0391 72.75,334.1719 Q72.875,334.2969 72.875,334.4766 Q72.875,334.6484 72.7031,334.8516 Q72.4531,335.1484 72.0547,335.3125 Q71.5313,335.5391 70.8906,335.5391 Q70.1406,335.5391 69.5391,335.2422 Q69.0547,335.0078 68.7109,334.5 Q68.375,333.9922 68.375,333.3906 L68.375,332.8438 Q68.375,332.2188 68.6719,331.6719 Q68.9766,331.125 69.5,330.8359 Q70.0313,330.5391 70.625,330.5391 Q70.9844,330.5391 71.2969,330.6641 Q71.6094,330.7891 71.875,331.0391 Z " fill="#000000"/><text fill="#000000" font-family="sans-serif" font-size="6" lengthAdjust="spacing" textLength="19" x="81.125" y="335.2441">Project</text><line style="stroke:#A80036;stroke-width:0.75;" x1="28.75" x2="136.25" y1="340.7891" y2="340.7891"/><rect fill="none" height="3" style="stroke:#C82930;stroke-width:0.5;" width="3" x="32.25" y="344.7891"/><text fill="#000000" font-family="sans-serif" font-size="5.5" lengthAdjust="spacing" textLength="12" x="38.25" y="348.4985">code</text><rect fill="none" height="3" style="stroke:#C82930;stroke-width:0.5;" width="3" x="32.25" y="351.707"/><text fill="#000000" font-family="sans-serif" font-size="5.5" lengthAdjust="spacing" textLength="13" x="38.25" y="355.4165">name</text><rect fill="none" height="3" style="stroke:#C82930;stroke-width:0.5;" width="3" x="32.25" y="358.625"/><text fill="#000000" font-family="sans-serif" font-size="5.5" lengthAdjust="spacing" textLength="26.5" x="38.25" y="362.3345">description</text><rect fill="none" height="3" style="stroke:#C82930;stroke-width:0.5;" width="3" x="32.25" y="365.543"/><text fill="#000000" font-family="sans-serif" font-size="5.5" lengthAdjust="spacing" textLength="34" x="38.25" y="369.2524">double budget</text><rect fill="none" height="3" style="stroke:#C82930;stroke-width:0.5;" width="3" x="32.25" y="372.4609"/><text fill="#000000" font-family="sans-serif" font-size="5.5" lengthAdjust="spacing" textLength="60" x="38.25" y="376.1704">numberOfPlannedSprints</text><rect fill="none" height="3" style="stroke:#C82930;stroke-width:0.5;" width="3" x="32.25" y="379.3789"/><text fill="#000000" font-family="sans-serif" font-size="5.5" lengthAdjust="spacing" textLength="15" x="38.25" y="383.0884">status</text><rect fill="none" height="3" style="stroke:#C82930;stroke-width:0.5;" width="3" x="32.25" y="386.2969"/><text fill="#000000" font-family="sans-serif" font-size="5.5" lengthAdjust="spacing" textLength="19" x="38.25" y="390.0063">tartDate</text><rect fill="none" height="3" style="stroke:#C82930;stroke-width:0.5;" width="3" x="32.25" y="393.2148"/><text fill="#000000" font-family="sans-serif" font-size="5.5" lengthAdjust="spacing" textLength="20" x="38.25" y="396.9243">endDate</text><rect fill="none" height="3" style="stroke:#C82930;stroke-width:0.5;" width="3" x="32.25" y="400.1328"/><text fill="#000000" font-family="sans-serif" font-size="5.5" lengthAdjust="spacing" textLength="50.5" x="38.25" y="403.8423">defaultSprintDuration</text><line style="stroke:#A80036;stroke-width:0.75;" x1="28.75" x2="136.25" y1="407.0508" y2="407.0508"/><ellipse cx="33.75" cy="412.5508" fill="#84BE84" rx="1.5" ry="1.5" style="stroke:#038048;stroke-width:0.5;"/><text fill="#000000" font-family="sans-serif" font-size="5.5" lengthAdjust="spacing" textLength="43.5" x="38.25" y="414.7603">getCurrentSprint()</text><ellipse cx="33.75" cy="419.4688" fill="#84BE84" rx="1.5" ry="1.5" style="stroke:#038048;stroke-width:0.5;"/><text fill="#000000" font-family="sans-serif" font-size="5.5" lengthAdjust="spacing" textLength="95.5" x="38.25" y="421.6782">setScrumBoardStatus(usID,newStatus)</text><!--MD5=[452a66c2e8d45f5bd209be454bbcd04f]
class Sprint--><rect codeLine="42" fill="#FEFECE" filter="url(#f5rv9jt9ze5up)" height="72.4258" id="Sprint" style="stroke:#A80036;stroke-width:0.75;" width="59.5" x="206.75" y="338.5391"/><ellipse cx="226.625" cy="346.5391" fill="#ADD1B2" rx="5.5" ry="5.5" style="stroke:#A80036;stroke-width:0.5;"/><path d="M227.625,344.7891 Q227.7266,344.5391 227.8438,344.4141 Q227.9609,344.2891 228.0938,344.2891 Q228.3281,344.2891 228.4766,344.4297 Q228.625,344.5703 228.625,344.8984 L228.625,345.6797 Q228.625,346.0078 228.4844,346.1484 Q228.3438,346.2891 228.125,346.2891 Q227.9297,346.2891 227.8047,346.2031 Q227.6797,346.1172 227.625,345.8906 Q227.6016,345.7344 227.5156,345.6484 Q227.3594,345.4844 227.0781,345.3906 Q226.7969,345.2891 226.5156,345.2891 Q226.1641,345.2891 225.8672,345.4297 Q225.5781,345.5703 225.3516,345.8828 Q225.125,346.1953 225.125,346.625 L225.125,347.0859 Q225.125,347.6016 225.5469,347.9453 Q225.9688,348.2891 226.7188,348.2891 Q227.1641,348.2891 227.4766,348.1875 Q227.6563,348.1328 227.8594,347.9531 Q227.9922,347.8516 228.0625,347.8203 Q228.1328,347.7891 228.2188,347.7891 Q228.3828,347.7891 228.5,347.9219 Q228.625,348.0469 228.625,348.2266 Q228.625,348.3984 228.4531,348.6016 Q228.2031,348.8984 227.8047,349.0625 Q227.2813,349.2891 226.6406,349.2891 Q225.8906,349.2891 225.2891,348.9922 Q224.8047,348.7578 224.4609,348.25 Q224.125,347.7422 224.125,347.1406 L224.125,346.5938 Q224.125,345.9688 224.4219,345.4219 Q224.7266,344.875 225.25,344.5859 Q225.7813,344.2891 226.375,344.2891 Q226.7344,344.2891 227.0469,344.4141 Q227.3594,344.5391 227.625,344.7891 Z " fill="#000000"/><text fill="#000000" font-family="sans-serif" font-size="6" lengthAdjust="spacing" textLength="16" x="236.375" y="348.9941">Sprint</text><line style="stroke:#A80036;stroke-width:0.75;" x1="207.25" x2="265.75" y1="354.5391" y2="354.5391"/><rect fill="none" height="3" style="stroke:#C82930;stroke-width:0.5;" width="3" x="210.75" y="358.5391"/><text fill="#000000" font-family="sans-serif" font-size="5.5" lengthAdjust="spacing" textLength="18" x="216.75" y="362.2485">sprintID</text><rect fill="none" height="3" style="stroke:#C82930;stroke-width:0.5;" width="3" x="210.75" y="365.457"/><text fill="#000000" font-family="sans-serif" font-size="5.5" lengthAdjust="spacing" textLength="27.5" x="216.75" y="369.1665">sprintOrder</text><rect fill="none" height="3" style="stroke:#C82930;stroke-width:0.5;" width="3" x="210.75" y="372.375"/><text fill="#000000" font-family="sans-serif" font-size="5.5" lengthAdjust="spacing" textLength="23.5" x="216.75" y="376.0845">startDate;</text><rect fill="none" height="3" style="stroke:#C82930;stroke-width:0.5;" width="3" x="210.75" y="379.293"/><text fill="#000000" font-family="sans-serif" font-size="5.5" lengthAdjust="spacing" textLength="21.5" x="216.75" y="383.0024">endDate;</text><rect fill="none" height="3" style="stroke:#C82930;stroke-width:0.5;" width="3" x="210.75" y="386.2109"/><text fill="#000000" font-family="sans-serif" font-size="5.5" lengthAdjust="spacing" textLength="40.5" x="216.75" y="389.9204">numberOfWeeks</text><rect fill="none" height="3" style="stroke:#C82930;stroke-width:0.5;" width="3" x="210.75" y="393.1289"/><text fill="#000000" font-family="sans-serif" font-size="5.5" lengthAdjust="spacing" textLength="30.5" x="216.75" y="396.8384">sprintStatus;</text><line style="stroke:#A80036;stroke-width:0.75;" x1="207.25" x2="265.75" y1="400.0469" y2="400.0469"/><ellipse cx="212.25" cy="405.5469" fill="#84BE84" rx="1.5" ry="1.5" style="stroke:#038048;stroke-width:0.5;"/><text fill="#000000" font-family="sans-serif" font-size="5.5" lengthAdjust="spacing" textLength="46.5" x="216.75" y="407.7563">getSprintBackLog()</text><!--MD5=[5bd8b24a5f7e24aabdbd214c15c4ac2f]
class SprintBackLog--><rect codeLine="52" fill="#FEFECE" filter="url(#f5rv9jt9ze5up)" height="30.918" id="SprintBackLog" style="stroke:#A80036;stroke-width:0.75;" width="110" x="336.5" y="359.2891"/><ellipse cx="369.375" cy="367.2891" fill="#ADD1B2" rx="5.5" ry="5.5" style="stroke:#A80036;stroke-width:0.5;"/><path d="M370.375,365.5391 Q370.4766,365.2891 370.5938,365.1641 Q370.7109,365.0391 370.8438,365.0391 Q371.0781,365.0391 371.2266,365.1797 Q371.375,365.3203 371.375,365.6484 L371.375,366.4297 Q371.375,366.7578 371.2344,366.8984 Q371.0938,367.0391 370.875,367.0391 Q370.6797,367.0391 370.5547,366.9531 Q370.4297,366.8672 370.375,366.6406 Q370.3516,366.4844 370.2656,366.3984 Q370.1094,366.2344 369.8281,366.1406 Q369.5469,366.0391 369.2656,366.0391 Q368.9141,366.0391 368.6172,366.1797 Q368.3281,366.3203 368.1016,366.6328 Q367.875,366.9453 367.875,367.375 L367.875,367.8359 Q367.875,368.3516 368.2969,368.6953 Q368.7188,369.0391 369.4688,369.0391 Q369.9141,369.0391 370.2266,368.9375 Q370.4063,368.8828 370.6094,368.7031 Q370.7422,368.6016 370.8125,368.5703 Q370.8828,368.5391 370.9688,368.5391 Q371.1328,368.5391 371.25,368.6719 Q371.375,368.7969 371.375,368.9766 Q371.375,369.1484 371.2031,369.3516 Q370.9531,369.6484 370.5547,369.8125 Q370.0313,370.0391 369.3906,370.0391 Q368.6406,370.0391 368.0391,369.7422 Q367.5547,369.5078 367.2109,369 Q366.875,368.4922 366.875,367.8906 L366.875,367.3438 Q366.875,366.7188 367.1719,366.1719 Q367.4766,365.625 368,365.3359 Q368.5313,365.0391 369.125,365.0391 Q369.4844,365.0391 369.7969,365.1641 Q370.1094,365.2891 370.375,365.5391 Z " fill="#000000"/><text fill="#000000" font-family="sans-serif" font-size="6" lengthAdjust="spacing" textLength="40" x="379.625" y="369.7441">SprintBackLog</text><line style="stroke:#A80036;stroke-width:0.75;" x1="337" x2="446" y1="375.2891" y2="375.2891"/><line style="stroke:#A80036;stroke-width:0.75;" x1="337" x2="446" y1="379.2891" y2="379.2891"/><ellipse cx="342" cy="384.7891" fill="#84BE84" rx="1.5" ry="1.5" style="stroke:#038048;stroke-width:0.5;"/><text fill="#000000" font-family="sans-serif" font-size="5.5" lengthAdjust="spacing" textLength="97" x="346.5" y="386.9985">setScrumBoardStatus(usID, newStatus)</text><!--MD5=[daa6dd44d8f60c5a9cd695bb66773862]
class UserStory--><rect codeLine="56" fill="#FEFECE" filter="url(#f5rv9jt9ze5up)" height="79.3438" id="UserStory" style="stroke:#A80036;stroke-width:0.75;" width="96.5" x="516.75" y="335.0391"/><ellipse cx="549.375" cy="343.0391" fill="#ADD1B2" rx="5.5" ry="5.5" style="stroke:#A80036;stroke-width:0.5;"/><path d="M550.375,341.2891 Q550.4766,341.0391 550.5938,340.9141 Q550.7109,340.7891 550.8438,340.7891 Q551.0781,340.7891 551.2266,340.9297 Q551.375,341.0703 551.375,341.3984 L551.375,342.1797 Q551.375,342.5078 551.2344,342.6484 Q551.0938,342.7891 550.875,342.7891 Q550.6797,342.7891 550.5547,342.7031 Q550.4297,342.6172 550.375,342.3906 Q550.3516,342.2344 550.2656,342.1484 Q550.1094,341.9844 549.8281,341.8906 Q549.5469,341.7891 549.2656,341.7891 Q548.9141,341.7891 548.6172,341.9297 Q548.3281,342.0703 548.1016,342.3828 Q547.875,342.6953 547.875,343.125 L547.875,343.5859 Q547.875,344.1016 548.2969,344.4453 Q548.7188,344.7891 549.4688,344.7891 Q549.9141,344.7891 550.2266,344.6875 Q550.4063,344.6328 550.6094,344.4531 Q550.7422,344.3516 550.8125,344.3203 Q550.8828,344.2891 550.9688,344.2891 Q551.1328,344.2891 551.25,344.4219 Q551.375,344.5469 551.375,344.7266 Q551.375,344.8984 551.2031,345.1016 Q550.9531,345.3984 550.5547,345.5625 Q550.0313,345.7891 549.3906,345.7891 Q548.6406,345.7891 548.0391,345.4922 Q547.5547,345.2578 547.2109,344.75 Q546.875,344.2422 546.875,343.6406 L546.875,343.0938 Q546.875,342.4688 547.1719,341.9219 Q547.4766,341.375 548,341.0859 Q548.5313,340.7891 549.125,340.7891 Q549.4844,340.7891 549.7969,340.9141 Q550.1094,341.0391 550.375,341.2891 Z " fill="#000000"/><text fill="#000000" font-family="sans-serif" font-size="6" lengthAdjust="spacing" textLength="27" x="559.625" y="345.4941">UserStory</text><line style="stroke:#A80036;stroke-width:0.75;" x1="517.25" x2="612.75" y1="351.0391" y2="351.0391"/><rect fill="none" height="3" style="stroke:#C82930;stroke-width:0.5;" width="3" x="520.75" y="355.0391"/><text fill="#000000" font-family="sans-serif" font-size="5.5" lengthAdjust="spacing" textLength="26.5" x="526.75" y="358.7485">description</text><rect fill="none" height="3" style="stroke:#C82930;stroke-width:0.5;" width="3" x="520.75" y="361.957"/><text fill="#000000" font-family="sans-serif" font-size="5.5" lengthAdjust="spacing" textLength="28.5" x="526.75" y="365.6665">userStoryID</text><rect fill="none" height="3" style="stroke:#C82930;stroke-width:0.5;" width="3" x="520.75" y="368.875"/><text fill="#000000" font-family="sans-serif" font-size="5.5" lengthAdjust="spacing" textLength="20" x="526.75" y="372.5845">parentID</text><rect fill="none" height="3" style="stroke:#C82930;stroke-width:0.5;" width="3" x="520.75" y="375.793"/><text fill="#000000" font-family="sans-serif" font-size="5.5" lengthAdjust="spacing" textLength="15" x="526.75" y="379.5024">status</text><rect fill="none" height="3" style="stroke:#C82930;stroke-width:0.5;" width="3" x="520.75" y="382.7109"/><text fill="#000000" font-family="sans-serif" font-size="5.5" lengthAdjust="spacing" textLength="13.5" x="526.75" y="386.4204">effort</text><rect fill="none" height="3" style="stroke:#C82930;stroke-width:0.5;" width="3" x="520.75" y="389.6289"/><text fill="#000000" font-family="sans-serif" font-size="5.5" lengthAdjust="spacing" textLength="16.5" x="526.75" y="393.3384">priority</text><rect fill="none" height="3" style="stroke:#C82930;stroke-width:0.5;" width="3" x="520.75" y="396.5469"/><text fill="#000000" font-family="sans-serif" font-size="5.5" lengthAdjust="spacing" textLength="45" x="526.75" y="400.2563">scrumBoardStatus</text><line style="stroke:#A80036;stroke-width:0.75;" x1="517.25" x2="612.75" y1="403.4648" y2="403.4648"/><ellipse cx="522.25" cy="408.9648" fill="#84BE84" rx="1.5" ry="1.5" style="stroke:#038048;stroke-width:0.5;"/><text fill="#000000" font-family="sans-serif" font-size="5.5" lengthAdjust="spacing" textLength="83.5" x="526.75" y="411.1743">setScrumBoardStatus(newStatus)</text><!--MD5=[de10dc1121d28a2bf54a007bbc55f3e4]
class UpdateScrumBoardStatusController--><rect codeLine="68" fill="#FEFECE" filter="url(#f5rv9jt9ze5up)" height="30.918" id="UpdateScrumBoardStatusController" style="stroke:#A80036;stroke-width:0.75;" width="139" x="42" y="111.2891"/><ellipse cx="60.3" cy="119.2891" fill="#ADD1B2" rx="5.5" ry="5.5" style="stroke:#A80036;stroke-width:0.5;"/><path d="M61.3,117.5391 Q61.4016,117.2891 61.5188,117.1641 Q61.6359,117.0391 61.7688,117.0391 Q62.0031,117.0391 62.1516,117.1797 Q62.3,117.3203 62.3,117.6484 L62.3,118.4297 Q62.3,118.7578 62.1594,118.8984 Q62.0188,119.0391 61.8,119.0391 Q61.6047,119.0391 61.4797,118.9531 Q61.3547,118.8672 61.3,118.6406 Q61.2766,118.4844 61.1906,118.3984 Q61.0344,118.2344 60.7531,118.1406 Q60.4719,118.0391 60.1906,118.0391 Q59.8391,118.0391 59.5422,118.1797 Q59.2531,118.3203 59.0266,118.6328 Q58.8,118.9453 58.8,119.375 L58.8,119.8359 Q58.8,120.3516 59.2219,120.6953 Q59.6438,121.0391 60.3938,121.0391 Q60.8391,121.0391 61.1516,120.9375 Q61.3313,120.8828 61.5344,120.7031 Q61.6672,120.6016 61.7375,120.5703 Q61.8078,120.5391 61.8938,120.5391 Q62.0578,120.5391 62.175,120.6719 Q62.3,120.7969 62.3,120.9766 Q62.3,121.1484 62.1281,121.3516 Q61.8781,121.6484 61.4797,121.8125 Q60.9563,122.0391 60.3156,122.0391 Q59.5656,122.0391 58.9641,121.7422 Q58.4797,121.5078 58.1359,121 Q57.8,120.4922 57.8,119.8906 L57.8,119.3438 Q57.8,118.7188 58.0969,118.1719 Q58.4016,117.625 58.925,117.3359 Q59.4563,117.0391 60.05,117.0391 Q60.4094,117.0391 60.7219,117.1641 Q61.0344,117.2891 61.3,117.5391 Z " fill="#000000"/><text fill="#000000" font-family="sans-serif" font-size="6" lengthAdjust="spacing" textLength="99" x="69.7" y="121.7441">UpdateScrumBoardStatusController</text><line style="stroke:#A80036;stroke-width:0.75;" x1="42.5" x2="180.5" y1="127.2891" y2="127.2891"/><line style="stroke:#A80036;stroke-width:0.75;" x1="42.5" x2="180.5" y1="131.2891" y2="131.2891"/><ellipse cx="47.5" cy="136.7891" fill="#84BE84" rx="1.5" ry="1.5" style="stroke:#038048;stroke-width:0.5;"/><text fill="#000000" font-family="sans-serif" font-size="5.5" lengthAdjust="spacing" textLength="126" x="52" y="138.9985">setScrumBoardStatus(projectCode,usID,newStatus)</text><!--MD5=[7f3d7b73a1456560c4295abab05bf31c]
link UpdateScrumBoardStatusUI to UpdateScrumBoardStatusController--><path codeLine="73" d="M111.5,51.4541 C111.5,66.1191 111.5,91.4341 111.5,108.5141 " fill="none" id="UpdateScrumBoardStatusUI-to-UpdateScrumBoardStatusController" style="stroke:#A80036;stroke-width:0.5;stroke-dasharray:7.0,7.0;"/><polygon fill="#A80036" points="111.5,111.1791,113.5,106.6791,111.5,108.6791,109.5,106.6791,111.5,111.1791" style="stroke:#A80036;stroke-width:0.5;"/><!--MD5=[f3a6105e9b7745ea5bfdb0df96f3092f]
link UpdateScrumBoardStatusController to DataManagement--><path codeLine="74" d="M113.845,142.4391 C116.305,158.3441 120.17,183.3291 122.765,200.1191 " fill="none" id="UpdateScrumBoardStatusController-to-DataManagement" style="stroke:#A80036;stroke-width:0.5;stroke-dasharray:7.0,7.0;"/><polygon fill="#A80036" points="123.17,202.7441,124.4656,197.9931,122.7915,200.2729,120.5117,198.5988,123.17,202.7441" style="stroke:#A80036;stroke-width:0.5;"/><text fill="#000000" font-family="sans-serif" font-size="6.5" lengthAdjust="spacing" textLength="50" x="67.1916" y="197.2444">dataManagement</text><!--MD5=[e49256ec62a64c0e2589668b84841744]
link DataManagement to ProjectStore--><path codeLine="75" d="M125.88,233.9291 C126.085,242.1741 126.34,252.4191 126.555,261.0341 " fill="none" id="DataManagement-to-ProjectStore" style="stroke:#A80036;stroke-width:0.5;"/><polygon fill="#A80036" points="126.62,263.6541,128.5166,259.1095,126.5629,261.1547,124.5177,259.2009,126.62,263.6541" style="stroke:#A80036;stroke-width:0.5;"/><text fill="#000000" font-family="sans-serif" font-size="6.5" lengthAdjust="spacing" textLength="3.5" x="122.1188" y="244.4451">1</text><text fill="#000000" font-family="sans-serif" font-size="6.5" lengthAdjust="spacing" textLength="45" x="76.901" y="258.3785">projectStore 1.*</text><!--MD5=[c2999c5e21c0a7115ef87c36c02875b6]
reverse link ProjectStore to ProjectDeprecated--><path codeLine="76" d="M117.065,300.8891 C113.72,307.9891 109.835,316.2341 105.905,324.5841 " fill="none" id="ProjectStore-backto-Project" style="stroke:#A80036;stroke-width:0.5;"/><polygon fill="#A80036" points="119.85,294.9741,116.7617,296.8348,117.2914,300.4012,120.3797,298.5405,119.85,294.9741" style="stroke:#A80036;stroke-width:0.5;"/><text fill="#000000" font-family="sans-serif" font-size="6.5" lengthAdjust="spacing" textLength="3.5" x="114.6534" y="305.4986">1</text><text fill="#000000" font-family="sans-serif" font-size="6.5" lengthAdjust="spacing" textLength="40" x="66.0816" y="319.3538">projectList 1.*</text><!--MD5=[0ca867c3e8d752b6d53fca199de5e549]
link UpdateScrumBoardStatusController to ProjectDeprecated--><path codeLine="78" d="M89.785,142.3091 C78.005,151.8141 64.555,165.2341 58,180.7891 C38.96,225.9791 49.305,281.9691 61.88,322.0691 " fill="none" id="UpdateScrumBoardStatusController-to-Project" style="stroke:#A80036;stroke-width:0.5;stroke-dasharray:7.0,7.0;"/><polygon fill="#A80036" points="62.71,324.6891,63.2508,319.7944,61.9517,322.3068,59.4393,321.0077,62.71,324.6891" style="stroke:#A80036;stroke-width:0.5;"/><!--MD5=[c1411256f47ae1ed9a3bb6846f611a01]
reverse link ProjectDeprecated to Sprint--><path codeLine="80" d="M143.345,374.7891 C164.465,374.7891 185.585,374.7891 206.705,374.7891 " fill="none" id="Project-backto-Sprint" style="stroke:#A80036;stroke-width:0.5;"/><polygon fill="#A80036" points="136.79,374.7891,139.79,376.7891,142.79,374.7891,139.79,372.7891,136.79,374.7891" style="stroke:#A80036;stroke-width:0.5;"/><text fill="#000000" font-family="sans-serif" font-size="6.5" lengthAdjust="spacing" textLength="3.5" x="140.7303" y="373.2581">1</text><text fill="#000000" font-family="sans-serif" font-size="6.5" lengthAdjust="spacing" textLength="40.5" x="162.217" y="373.2278">sprintList  1..*</text><!--MD5=[58c5746bbe3ef781908b0b587e4bc39e]
link Sprint to SprintBackLog--><path codeLine="82" d="M266.32,374.7891 C288.84,374.7891 311.365,374.7891 333.885,374.7891 " fill="none" id="Sprint-to-SprintBackLog" style="stroke:#A80036;stroke-width:0.5;"/><polygon fill="#A80036" points="336.49,374.7891,331.99,372.7891,333.99,374.7891,331.99,376.7891,336.49,374.7891" style="stroke:#A80036;stroke-width:0.5;"/><text fill="#000000" font-family="sans-serif" font-size="6.5" lengthAdjust="spacing" textLength="3.5" x="270.1676" y="373.0644">1</text><text fill="#000000" font-family="sans-serif" font-size="6.5" lengthAdjust="spacing" textLength="38.5" x="293.9289" y="373.3249">userStories 1</text><!--MD5=[4a8c2093a93233fb5afd453465c9e330]
link SprintBackLog to UserStory--><path codeLine="84" d="M446.565,374.7891 C469.06,374.7891 491.56,374.7891 514.055,374.7891 " fill="none" id="SprintBackLog-to-UserStory" style="stroke:#A80036;stroke-width:0.5;"/><polygon fill="#A80036" points="516.655,374.7891,512.155,372.7891,514.155,374.7891,512.155,376.7891,516.655,374.7891" style="stroke:#A80036;stroke-width:0.5;"/><text fill="#000000" font-family="sans-serif" font-size="6.5" lengthAdjust="spacing" textLength="3.5" x="450.5598" y="373.2644">1</text><text fill="#000000" font-family="sans-serif" font-size="6.5" lengthAdjust="spacing" textLength="40" x="472.7038" y="373.315">userStory 1..*</text><text fill="#888888" font-family="sans-serif" font-size="5" lengthAdjust="spacing" textLength="341" x="147.25" y="452.9795">US 034 - As Project Member, I want to update the status (i.e.: the Scrum Board category) of a user story in the scope of the current sprint backlog.</text><!--MD5=[410ec913631d2015cc65f3cbf639b947]
@startuml
'https://plantuml.com/class-diagram

header
Class Diagram of US034
endheader

center footer US 034 - As ProjectDeprecated Member, I want to update the status (i.e.: the Scrum Board category) of a user story in the scope of the current sprint backlog.


package UI{
    class UpdateScrumBoardStatusUI
}
package core{
package Domain{

class DataManagement{

+getProjectStore()
}

class ProjectStore{

+getProject(projectCode)
}

class ProjectDeprecated{

   -code
   -name
   -projectDescription
   -double budget
   -numberOfPlannedSprints
   -status
   -tartDate
   -endDate
   -projectSprintDuration

    +getCurrentSprint()
    +setScrumBoardStatus(usID,newStatus)
}

class Sprint{
    -sprintID
    -sprintOrder
    -startDate;
    -endDate;
    -numberOfWeeks
    -sprintStatus;
+getSprintBackLog()
}

class SprintBackLog{
+setScrumBoardStatus(usID, newStatus)
}

class UserStory{
    -projectDescription
    -userStoryID
    -parentID
    -status
    -effort
    -priority
    -scrumBoardStatus
    +setScrumBoardStatus(newStatus)
}
}
package Controllers{
    class UpdateScrumBoardStatusController{
    +setScrumBoardStatus(projectCode,usID,newStatus)
    }
}
}
UpdateScrumBoardStatusUI ..> UpdateScrumBoardStatusController
UpdateScrumBoardStatusController ...>"dataManagement" DataManagement
DataManagement "1"- ->"projectStore 1.*" ProjectStore
ProjectStore "1"*- -" projectList 1.*" ProjectDeprecated

UpdateScrumBoardStatusController ..> ProjectDeprecated

ProjectDeprecated "1"*-right-"sprintList  1..*" Sprint

Sprint "1"-right->"userStories 1" SprintBackLog

SprintBackLog "1"-right->"userStory 1..*" UserStory


skinparam nodesep 140

skinparam ranksep 60

@enduml

@startuml

header
Class Diagram of US034
endheader

center footer US 034 - As ProjectDeprecated Member, I want to update the status (i.e.: the Scrum Board category) of a user story in the scope of the current sprint backlog.


package UI{
    class UpdateScrumBoardStatusUI
}
package core{
package Domain{

class DataManagement{

+getProjectStore()
}

class ProjectStore{

+getProject(projectCode)
}

class ProjectDeprecated{

   -code
   -name
   -projectDescription
   -double budget
   -numberOfPlannedSprints
   -status
   -tartDate
   -endDate
   -projectSprintDuration

    +getCurrentSprint()
    +setScrumBoardStatus(usID,newStatus)
}

class Sprint{
    -sprintID
    -sprintOrder
    -startDate;
    -endDate;
    -numberOfWeeks
    -sprintStatus;
+getSprintBackLog()
}

class SprintBackLog{
+setScrumBoardStatus(usID, newStatus)
}

class UserStory{
    -projectDescription
    -userStoryID
    -parentID
    -status
    -effort
    -priority
    -scrumBoardStatus
    +setScrumBoardStatus(newStatus)
}
}
package Controllers{
    class UpdateScrumBoardStatusController{
    +setScrumBoardStatus(projectCode,usID,newStatus)
    }
}
}
UpdateScrumBoardStatusUI ..> UpdateScrumBoardStatusController
UpdateScrumBoardStatusController ...>"dataManagement" DataManagement
DataManagement "1"- ->"projectStore 1.*" ProjectStore
ProjectStore "1"*- -" projectList 1.*" ProjectDeprecated

UpdateScrumBoardStatusController ..> ProjectDeprecated

ProjectDeprecated "1"*-right-"sprintList  1..*" Sprint

Sprint "1"-right->"userStories 1" SprintBackLog

SprintBackLog "1"-right->"userStory 1..*" UserStory


skinparam nodesep 140

skinparam ranksep 60

@enduml

PlantUML version 1.2022.0(Tue Jan 11 16:16:42 GMT 2022)
(GPL source distribution)
Java Runtime: OpenJDK Runtime Environment
JVM: OpenJDK 64-Bit Server VM
Default Encoding: Cp1252
Language: pt
Country: PT
--></g></svg>