<?xml version="1.0" encoding="UTF-8" standalone="no"?><svg xmlns="http://www.w3.org/2000/svg" xmlns:xlink="http://www.w3.org/1999/xlink" contentScriptType="application/ecmascript" contentStyleType="text/css" height="849px" preserveAspectRatio="none" style="width:1260px;height:849px;background:#FFFFFF;" version="1.1" viewBox="0 0 1260 849" width="1260px" zoomAndPan="magnify"><defs><filter height="300%" id="fofk0hqxvc3mg" width="300%" x="-1" y="-1"><feGaussianBlur result="blurOut" stdDeviation="2.0"/><feColorMatrix in="blurOut" result="blurOut2" type="matrix" values="0 0 0 0 0 0 0 0 0 0 0 0 0 0 0 0 0 0 .4 0"/><feOffset dx="4.0" dy="4.0" in="blurOut2" result="blurOut3"/><feBlend in="SourceGraphic" in2="blurOut3" mode="normal"/></filter></defs><g><rect fill="#FFFFFF" filter="url(#fofk0hqxvc3mg)" height="185.1094" style="stroke:#000000;stroke-width:2.0;" width="756" x="490" y="288.7188"/><rect fill="#FFFFFF" filter="url(#fofk0hqxvc3mg)" height="48.7031" style="stroke:#000000;stroke-width:2.0;" width="736" x="500" y="418.125"/><line style="stroke:#A80036;stroke-width:1.0;stroke-dasharray:5.0,5.0;" x1="49" x2="49" y1="89.6094" y2="763.9922"/><line style="stroke:#A80036;stroke-width:1.0;stroke-dasharray:5.0,5.0;" x1="332.5" x2="332.5" y1="89.6094" y2="763.9922"/><line style="stroke:#A80036;stroke-width:1.0;stroke-dasharray:5.0,5.0;" x1="641" x2="641" y1="89.6094" y2="763.9922"/><line style="stroke:#A80036;stroke-width:1.0;stroke-dasharray:5.0,5.0;" x1="852" x2="852" y1="89.6094" y2="763.9922"/><line style="stroke:#A80036;stroke-width:1.0;stroke-dasharray:5.0,5.0;" x1="1006" x2="1006" y1="89.6094" y2="763.9922"/><line style="stroke:#A80036;stroke-width:1.0;stroke-dasharray:5.0,5.0;" x1="1159" x2="1159" y1="89.6094" y2="763.9922"/><text fill="#000000" font-family="sans-serif" font-size="14" lengthAdjust="spacing" textLength="83" x="5" y="86.5332">Administrator</text><ellipse cx="49.5" cy="15" fill="#FEFECE" filter="url(#fofk0hqxvc3mg)" rx="8" ry="8" style="stroke:#A80036;stroke-width:2.0;"/><path d="M49.5,23 L49.5,50 M36.5,31 L62.5,31 M49.5,50 L36.5,65 M49.5,50 L62.5,65 " fill="none" filter="url(#fofk0hqxvc3mg)" style="stroke:#A80036;stroke-width:2.0;"/><text fill="#000000" font-family="sans-serif" font-size="14" lengthAdjust="spacing" textLength="83" x="5" y="777.5254">Administrator</text><ellipse cx="49.5" cy="790.6016" fill="#FEFECE" filter="url(#fofk0hqxvc3mg)" rx="8" ry="8" style="stroke:#A80036;stroke-width:2.0;"/><path d="M49.5,798.6016 L49.5,825.6016 M36.5,806.6016 L62.5,806.6016 M49.5,825.6016 L36.5,840.6016 M49.5,825.6016 L62.5,840.6016 " fill="none" filter="url(#fofk0hqxvc3mg)" style="stroke:#A80036;stroke-width:2.0;"/><text fill="#000000" font-family="sans-serif" font-size="14" lengthAdjust="spacing" textLength="182" x="238.5" y="86.5332">ChangeUserAccountStatusUI</text><path d="M312,44 L312,68 M312,56 L329,56 " fill="none" filter="url(#fofk0hqxvc3mg)" style="stroke:#A80036;stroke-width:2.0;"/><ellipse cx="341" cy="56" fill="#FEFECE" filter="url(#fofk0hqxvc3mg)" rx="12" ry="12" style="stroke:#A80036;stroke-width:2.0;"/><text fill="#000000" font-family="sans-serif" font-size="14" lengthAdjust="spacing" textLength="182" x="238.5" y="777.5254">ChangeUserAccountStatusUI</text><path d="M312,784.6016 L312,808.6016 M312,796.6016 L329,796.6016 " fill="none" filter="url(#fofk0hqxvc3mg)" style="stroke:#A80036;stroke-width:2.0;"/><ellipse cx="341" cy="796.6016" fill="#FEFECE" filter="url(#fofk0hqxvc3mg)" rx="12" ry="12" style="stroke:#A80036;stroke-width:2.0;"/><rect fill="#FEFECE" filter="url(#fofk0hqxvc3mg)" height="31.6094" style="stroke:#A80036;stroke-width:1.5;" width="259" x="510" y="53"/><text fill="#000000" font-family="sans-serif" font-size="14" lengthAdjust="spacing" textLength="245" x="517" y="74.5332">: ChangerUserAccountStatusController</text><rect fill="#FEFECE" filter="url(#fofk0hqxvc3mg)" height="31.6094" style="stroke:#A80036;stroke-width:1.5;" width="259" x="510" y="762.9922"/><text fill="#000000" font-family="sans-serif" font-size="14" lengthAdjust="spacing" textLength="245" x="517" y="784.5254">: ChangerUserAccountStatusController</text><rect fill="#FEFECE" filter="url(#fofk0hqxvc3mg)" height="31.6094" style="stroke:#A80036;stroke-width:1.5;" width="134" x="783" y="53"/><text fill="#000000" font-family="sans-serif" font-size="14" lengthAdjust="spacing" textLength="120" x="790" y="74.5332">: DataManagement</text><rect fill="#FEFECE" filter="url(#fofk0hqxvc3mg)" height="31.6094" style="stroke:#A80036;stroke-width:1.5;" width="134" x="783" y="762.9922"/><text fill="#000000" font-family="sans-serif" font-size="14" lengthAdjust="spacing" textLength="120" x="790" y="784.5254">: DataManagement</text><rect fill="#FEFECE" filter="url(#fofk0hqxvc3mg)" height="31.6094" style="stroke:#A80036;stroke-width:1.5;" width="147" x="931" y="53"/><text fill="#000000" font-family="sans-serif" font-size="14" lengthAdjust="spacing" textLength="133" x="938" y="74.5332">userStore: UserStore</text><rect fill="#FEFECE" filter="url(#fofk0hqxvc3mg)" height="31.6094" style="stroke:#A80036;stroke-width:1.5;" width="147" x="931" y="762.9922"/><text fill="#000000" font-family="sans-serif" font-size="14" lengthAdjust="spacing" textLength="133" x="938" y="784.5254">userStore: UserStore</text><rect fill="#FEFECE" filter="url(#fofk0hqxvc3mg)" height="31.6094" style="stroke:#A80036;stroke-width:1.5;" width="130" x="1092" y="53"/><text fill="#000000" font-family="sans-serif" font-size="14" lengthAdjust="spacing" textLength="116" x="1099" y="74.5332">userAccount: User</text><rect fill="#FEFECE" filter="url(#fofk0hqxvc3mg)" height="31.6094" style="stroke:#A80036;stroke-width:1.5;" width="130" x="1092" y="762.9922"/><text fill="#000000" font-family="sans-serif" font-size="14" lengthAdjust="spacing" textLength="116" x="1099" y="784.5254">userAccount: User</text><polygon fill="#A80036" points="320.5,117.9609,330.5,121.9609,320.5,125.9609,324.5,121.9609" style="stroke:#A80036;stroke-width:1.0;"/><line style="stroke:#A80036;stroke-width:1.0;" x1="49.5" x2="326.5" y1="121.9609" y2="121.9609"/><text fill="#000000" font-family="sans-serif" font-size="13" font-weight="bold" lengthAdjust="spacing" textLength="7" x="56.5" y="117.1045">1</text><text fill="#000000" font-family="sans-serif" font-size="13" lengthAdjust="spacing" textLength="146" x="67.5" y="117.1045">Get User Account Status</text><polygon fill="#A80036" points="60.5,148.3125,50.5,152.3125,60.5,156.3125,56.5,152.3125" style="stroke:#A80036;stroke-width:1.0;"/><line style="stroke:#A80036;stroke-width:1.0;stroke-dasharray:2.0,2.0;" x1="54.5" x2="331.5" y1="152.3125" y2="152.3125"/><text fill="#000000" font-family="sans-serif" font-size="13" font-weight="bold" lengthAdjust="spacing" textLength="7" x="66.5" y="147.4561">2</text><text fill="#000000" font-family="sans-serif" font-size="13" lengthAdjust="spacing" textLength="147" x="77.5" y="147.4561">Request User Account ID</text><polygon fill="#A80036" points="320.5,178.6641,330.5,182.6641,320.5,186.6641,324.5,182.6641" style="stroke:#A80036;stroke-width:1.0;"/><line style="stroke:#A80036;stroke-width:1.0;" x1="49.5" x2="326.5" y1="182.6641" y2="182.6641"/><text fill="#000000" font-family="sans-serif" font-size="13" font-weight="bold" lengthAdjust="spacing" textLength="7" x="56.5" y="177.8076">3</text><text fill="#000000" font-family="sans-serif" font-size="13" lengthAdjust="spacing" textLength="131" x="67.5" y="177.8076">Insert User Account ID</text><polygon fill="#A80036" points="629.5,209.0156,639.5,213.0156,629.5,217.0156,633.5,213.0156" style="stroke:#A80036;stroke-width:1.0;"/><line style="stroke:#A80036;stroke-width:1.0;" x1="332.5" x2="635.5" y1="213.0156" y2="213.0156"/><text fill="#000000" font-family="sans-serif" font-size="13" font-weight="bold" lengthAdjust="spacing" textLength="7" x="339.5" y="208.1592">4</text><text fill="#000000" font-family="sans-serif" font-size="13" lengthAdjust="spacing" textLength="174" x="350.5" y="208.1592">getUserAccountStatus(userId)</text><polygon fill="#A80036" points="840,239.3672,850,243.3672,840,247.3672,844,243.3672" style="stroke:#A80036;stroke-width:1.0;"/><line style="stroke:#A80036;stroke-width:1.0;" x1="641.5" x2="846" y1="243.3672" y2="243.3672"/><text fill="#000000" font-family="sans-serif" font-size="13" font-weight="bold" lengthAdjust="spacing" textLength="7" x="648.5" y="238.5107">5</text><text fill="#000000" font-family="sans-serif" font-size="13" lengthAdjust="spacing" textLength="156" x="659.5" y="238.5107">userStore = getUserStore()</text><polygon fill="#A80036" points="652.5,269.7188,642.5,273.7188,652.5,277.7188,648.5,273.7188" style="stroke:#A80036;stroke-width:1.0;"/><line style="stroke:#A80036;stroke-width:1.0;stroke-dasharray:2.0,2.0;" x1="646.5" x2="851" y1="273.7188" y2="273.7188"/><text fill="#000000" font-family="sans-serif" font-size="13" font-weight="bold" lengthAdjust="spacing" textLength="7" x="658.5" y="268.8623">6</text><text fill="#000000" font-family="sans-serif" font-size="13" lengthAdjust="spacing" textLength="56" x="669.5" y="268.8623">userStore</text><path d="M490,288.7188 L563,288.7188 L563,296.7188 L553,306.7188 L490,306.7188 L490,288.7188 " fill="#EEEEEE" style="stroke:#000000;stroke-width:1.0;"/><rect fill="none" height="185.1094" style="stroke:#000000;stroke-width:2.0;" width="756" x="490" y="288.7188"/><text fill="#000000" font-family="sans-serif" font-size="13" font-weight="bold" lengthAdjust="spacing" textLength="28" x="505" y="303.2139">loop</text><text fill="#000000" font-family="sans-serif" font-size="11" font-weight="bold" lengthAdjust="spacing" textLength="190" x="578" y="302.1377">[For each know user in userStore]</text><polygon fill="#A80036" points="994.5,325.4219,1004.5,329.4219,994.5,333.4219,998.5,329.4219" style="stroke:#A80036;stroke-width:1.0;"/><line style="stroke:#A80036;stroke-width:1.0;" x1="641.5" x2="1000.5" y1="329.4219" y2="329.4219"/><text fill="#000000" font-family="sans-serif" font-size="13" font-weight="bold" lengthAdjust="spacing" textLength="7" x="648.5" y="324.5654">7</text><text fill="#000000" font-family="sans-serif" font-size="13" lengthAdjust="spacing" textLength="203" x="659.5" y="324.5654">userAccount = getUserById(userId)</text><line style="stroke:#A80036;stroke-width:1.0;" x1="1006.5" x2="1048.5" y1="359.7734" y2="359.7734"/><line style="stroke:#A80036;stroke-width:1.0;" x1="1048.5" x2="1048.5" y1="359.7734" y2="372.7734"/><line style="stroke:#A80036;stroke-width:1.0;" x1="1007.5" x2="1048.5" y1="372.7734" y2="372.7734"/><polygon fill="#A80036" points="1017.5,368.7734,1007.5,372.7734,1017.5,376.7734,1013.5,372.7734" style="stroke:#A80036;stroke-width:1.0;"/><text fill="#000000" font-family="sans-serif" font-size="13" font-weight="bold" lengthAdjust="spacing" textLength="7" x="1013.5" y="354.917">8</text><text fill="#000000" font-family="sans-serif" font-size="13" lengthAdjust="spacing" textLength="123" x="1024.5" y="354.917">validateUserId(userId)</text><polygon fill="#A80036" points="652.5,399.125,642.5,403.125,652.5,407.125,648.5,403.125" style="stroke:#A80036;stroke-width:1.0;"/><line style="stroke:#A80036;stroke-width:1.0;stroke-dasharray:2.0,2.0;" x1="646.5" x2="1005.5" y1="403.125" y2="403.125"/><text fill="#000000" font-family="sans-serif" font-size="13" font-weight="bold" lengthAdjust="spacing" textLength="7" x="658.5" y="398.2686">9</text><text fill="#000000" font-family="sans-serif" font-size="13" lengthAdjust="spacing" textLength="117" x="669.5" y="398.2686">showUserAccountID</text><path d="M500,418.125 L561,418.125 L561,426.125 L551,436.125 L500,436.125 L500,418.125 " fill="#EEEEEE" style="stroke:#000000;stroke-width:1.0;"/><rect fill="none" height="48.7031" style="stroke:#000000;stroke-width:2.0;" width="736" x="500" y="418.125"/><text fill="#000000" font-family="sans-serif" font-size="13" font-weight="bold" lengthAdjust="spacing" textLength="16" x="515" y="432.6201">alt</text><text fill="#000000" font-family="sans-serif" font-size="11" font-weight="bold" lengthAdjust="spacing" textLength="153" x="576" y="431.5439">[if userId == userAccountID]</text><polygon fill="#A80036" points="1147,454.8281,1157,458.8281,1147,462.8281,1151,458.8281" style="stroke:#A80036;stroke-width:1.0;"/><line style="stroke:#A80036;stroke-width:1.0;" x1="641.5" x2="1153" y1="458.8281" y2="458.8281"/><text fill="#000000" font-family="sans-serif" font-size="13" font-weight="bold" lengthAdjust="spacing" textLength="14" x="648.5" y="453.9717">10</text><text fill="#000000" font-family="sans-serif" font-size="13" lengthAdjust="spacing" textLength="91" x="666.5" y="453.9717">getUserStatus()</text><polygon fill="#A80036" points="652.5,499.1797,642.5,503.1797,652.5,507.1797,648.5,503.1797" style="stroke:#A80036;stroke-width:1.0;"/><line style="stroke:#A80036;stroke-width:1.0;stroke-dasharray:2.0,2.0;" x1="646.5" x2="1158" y1="503.1797" y2="503.1797"/><text fill="#000000" font-family="sans-serif" font-size="13" font-weight="bold" lengthAdjust="spacing" textLength="14" x="658.5" y="498.3232">11</text><text fill="#000000" font-family="sans-serif" font-size="13" lengthAdjust="spacing" textLength="111" x="676.5" y="498.3232">userAccountStatus</text><polygon fill="#A80036" points="343.5,529.5313,333.5,533.5313,343.5,537.5313,339.5,533.5313" style="stroke:#A80036;stroke-width:1.0;"/><line style="stroke:#A80036;stroke-width:1.0;stroke-dasharray:2.0,2.0;" x1="337.5" x2="640.5" y1="533.5313" y2="533.5313"/><text fill="#000000" font-family="sans-serif" font-size="13" font-weight="bold" lengthAdjust="spacing" textLength="14" x="349.5" y="528.6748">12</text><text fill="#000000" font-family="sans-serif" font-size="13" lengthAdjust="spacing" textLength="111" x="367.5" y="528.6748">userAccountStatus</text><polygon fill="#A80036" points="60.5,559.8828,50.5,563.8828,60.5,567.8828,56.5,563.8828" style="stroke:#A80036;stroke-width:1.0;"/><line style="stroke:#A80036;stroke-width:1.0;stroke-dasharray:2.0,2.0;" x1="54.5" x2="331.5" y1="563.8828" y2="563.8828"/><text fill="#000000" font-family="sans-serif" font-size="13" font-weight="bold" lengthAdjust="spacing" textLength="14" x="66.5" y="559.0264">13</text><text fill="#000000" font-family="sans-serif" font-size="13" lengthAdjust="spacing" textLength="157" x="84.5" y="559.0264">Show User Account Status</text><polygon fill="#A80036" points="320.5,590.2344,330.5,594.2344,320.5,598.2344,324.5,594.2344" style="stroke:#A80036;stroke-width:1.0;"/><line style="stroke:#A80036;stroke-width:1.0;" x1="49.5" x2="326.5" y1="594.2344" y2="594.2344"/><text fill="#000000" font-family="sans-serif" font-size="13" font-weight="bold" lengthAdjust="spacing" textLength="14" x="56.5" y="589.3779">14</text><text fill="#000000" font-family="sans-serif" font-size="13" lengthAdjust="spacing" textLength="241" x="74.5" y="589.3779">Change User Account Status to "Inactive"</text><polygon fill="#A80036" points="629.5,620.5859,639.5,624.5859,629.5,628.5859,633.5,624.5859" style="stroke:#A80036;stroke-width:1.0;"/><line style="stroke:#A80036;stroke-width:1.0;" x1="332.5" x2="635.5" y1="624.5859" y2="624.5859"/><text fill="#000000" font-family="sans-serif" font-size="13" font-weight="bold" lengthAdjust="spacing" textLength="14" x="339.5" y="619.7295">15</text><text fill="#000000" font-family="sans-serif" font-size="13" lengthAdjust="spacing" textLength="267" x="357.5" y="619.7295">changeUserAccountStatus(userId, newStatus)</text><polygon fill="#A80036" points="1147,650.9375,1157,654.9375,1147,658.9375,1151,654.9375" style="stroke:#A80036;stroke-width:1.0;"/><line style="stroke:#A80036;stroke-width:1.0;" x1="641.5" x2="1153" y1="654.9375" y2="654.9375"/><text fill="#000000" font-family="sans-serif" font-size="13" font-weight="bold" lengthAdjust="spacing" textLength="14" x="648.5" y="650.0811">16</text><text fill="#000000" font-family="sans-serif" font-size="13" lengthAdjust="spacing" textLength="224" x="666.5" y="650.0811">changeUserAccountStatus(newStatus)</text><polygon fill="#A80036" points="652.5,681.2891,642.5,685.2891,652.5,689.2891,648.5,685.2891" style="stroke:#A80036;stroke-width:1.0;"/><line style="stroke:#A80036;stroke-width:1.0;stroke-dasharray:2.0,2.0;" x1="646.5" x2="1158" y1="685.2891" y2="685.2891"/><text fill="#000000" font-family="sans-serif" font-size="13" font-weight="bold" lengthAdjust="spacing" textLength="14" x="658.5" y="680.4326">17</text><text fill="#000000" font-family="sans-serif" font-size="13" lengthAdjust="spacing" textLength="51" x="676.5" y="680.4326">Success</text><polygon fill="#A80036" points="343.5,711.6406,333.5,715.6406,343.5,719.6406,339.5,715.6406" style="stroke:#A80036;stroke-width:1.0;"/><line style="stroke:#A80036;stroke-width:1.0;stroke-dasharray:2.0,2.0;" x1="337.5" x2="640.5" y1="715.6406" y2="715.6406"/><text fill="#000000" font-family="sans-serif" font-size="13" font-weight="bold" lengthAdjust="spacing" textLength="14" x="349.5" y="710.7842">18</text><text fill="#000000" font-family="sans-serif" font-size="13" lengthAdjust="spacing" textLength="51" x="367.5" y="710.7842">Success</text><polygon fill="#A80036" points="60.5,741.9922,50.5,745.9922,60.5,749.9922,56.5,745.9922" style="stroke:#A80036;stroke-width:1.0;"/><line style="stroke:#A80036;stroke-width:1.0;stroke-dasharray:2.0,2.0;" x1="54.5" x2="331.5" y1="745.9922" y2="745.9922"/><text fill="#000000" font-family="sans-serif" font-size="13" font-weight="bold" lengthAdjust="spacing" textLength="14" x="66.5" y="741.1357">19</text><text fill="#000000" font-family="sans-serif" font-size="13" lengthAdjust="spacing" textLength="202" x="84.5" y="741.1357">Success Inactivating User Account</text><!--MD5=[d0d5f4cdb548d4f6598ce16cef535edc]
@startuml
autonumber
actor Administrator
boundary ChangeUserAccountStatusUI
participant ": ChangerUserAccountStatusController" as controller
participant ": DataManagement"
participant "userStore: UserStore"
participant "userAccount: User"

Administrator -> ChangeUserAccountStatusUI : Get User Account Status
ChangeUserAccountStatusUI - -> Administrator : Request User Account ID
Administrator -> ChangeUserAccountStatusUI : Insert User Account ID
ChangeUserAccountStatusUI -> controller : getUserAccountStatus(userId)
controller -> ": DataManagement" : userStore = getUserStore()
": DataManagement" - -> controller : userStore

loop For each know user in userStore
	controller -> "userStore: UserStore" : userAccount = getUserById(userId)
	"userStore: UserStore" -> "userStore: UserStore" : validateUserId(userId)
	"userStore: UserStore" - -> controller : showUserAccountID
	alt if userId == userAccountID
		controller -> "userAccount: User" : getUserStatus()
	end
end

"userAccount: User" - -> controller : userAccountStatus
controller - -> ChangeUserAccountStatusUI : userAccountStatus
ChangeUserAccountStatusUI - -> Administrator : Show User Account Status
Administrator -> ChangeUserAccountStatusUI : Change User Account Status to "Inactive"

ChangeUserAccountStatusUI -> controller : changeUserAccountStatus(userId, newStatus)
controller -> "userAccount: User" : changeUserAccountStatus(newStatus)

"userAccount: User" - -> controller : Success
controller - -> ChangeUserAccountStatusUI : Success
ChangeUserAccountStatusUI - -> Administrator : Success Inactivating User Account


@enduml

PlantUML version 1.2022.0(Tue Jan 11 16:16:42 GMT 2022)
(GPL source distribution)
Java Runtime: OpenJDK Runtime Environment
JVM: OpenJDK 64-Bit Server VM
Default Encoding: Cp1252
Language: en
Country: GB
--></g></svg>