<?xml version="1.0" encoding="UTF-8" standalone="no"?><svg xmlns="http://www.w3.org/2000/svg" xmlns:xlink="http://www.w3.org/1999/xlink" contentScriptType="application/ecmascript" contentStyleType="text/css" height="341px" preserveAspectRatio="none" style="width:731px;height:341px;background:#FFFFFF;" version="1.1" viewBox="0 0 731 341" width="731px" zoomAndPan="magnify"><defs><filter height="300%" id="fpfq8vtvpq73t" width="300%" x="-1" y="-1"><feGaussianBlur result="blurOut" stdDeviation="2.0"/><feColorMatrix in="blurOut" result="blurOut2" type="matrix" values="0 0 0 0 0 0 0 0 0 0 0 0 0 0 0 0 0 0 .4 0"/><feOffset dx="4.0" dy="4.0" in="blurOut2" result="blurOut3"/><feBlend in="SourceGraphic" in2="blurOut3" mode="normal"/></filter></defs><g><!--MD5=[99b31deea5d7419a569cd5090bf83263]
cluster System--><polygon fill="#FFFFFF" filter="url(#fpfq8vtvpq73t)" points="136,6,192,6,199,29.6094,714,29.6094,714,334,136,334,136,6" style="stroke:#000000;stroke-width:1.5;"/><line style="stroke:#000000;stroke-width:1.5;" x1="136" x2="199" y1="29.6094" y2="29.6094"/><text fill="#000000" font-family="sans-serif" font-size="14" font-weight="bold" lengthAdjust="spacing" textLength="50" x="140" y="22.5332">System</text><ellipse cx="249.6119" cy="144.2224" fill="#FEFECE" filter="url(#fpfq8vtvpq73t)" rx="69.1119" ry="16.2224" style="stroke:#A80036;stroke-width:1.5;"/><text fill="#000000" font-family="sans-serif" font-size="14" lengthAdjust="spacing" textLength="85" x="204.1119" y="148.739">Insert User ID</text><ellipse cx="249.457" cy="58.7914" fill="#FEFECE" filter="url(#fpfq8vtvpq73t)" rx="69.457" ry="16.2914" style="stroke:#A80036;stroke-width:1.5;"/><text fill="#000000" font-family="sans-serif" font-size="14" lengthAdjust="spacing" textLength="86" x="203.457" y="63.308">Verify User ID</text><ellipse cx="573.8789" cy="126.8758" fill="#FEFECE" filter="url(#fpfq8vtvpq73t)" rx="79.8789" ry="18.3758" style="stroke:#A80036;stroke-width:1.5;"/><text fill="#000000" font-family="sans-serif" font-size="14" lengthAdjust="spacing" textLength="114" x="515.8373" y="130.9024">Display User error</text><ellipse cx="249.3945" cy="216.8789" fill="#FEFECE" filter="url(#fpfq8vtvpq73t)" rx="97.3945" ry="21.8789" style="stroke:#A80036;stroke-width:1.5;"/><text fill="#000000" font-family="sans-serif" font-size="14" lengthAdjust="spacing" textLength="155" x="171.8945" y="220.6074">Get User Account Status</text><ellipse cx="249.3945" cy="295.8789" fill="#FEFECE" filter="url(#fpfq8vtvpq73t)" rx="97.3945" ry="21.8789" style="stroke:#A80036;stroke-width:1.5;"/><text fill="#000000" font-family="sans-serif" font-size="14" lengthAdjust="spacing" textLength="155" x="171.8945" y="299.6074">Deactivate User Account</text><ellipse cx="573.9905" cy="293.8981" fill="#FEFECE" filter="url(#fpfq8vtvpq73t)" rx="104.9905" ry="23.3981" style="stroke:#A80036;stroke-width:1.5;"/><text fill="#000000" font-family="sans-serif" font-size="14" lengthAdjust="spacing" textLength="168" x="487.9905" y="297.6266">Verify User Account Status</text><ellipse cx="573.8069" cy="208.1614" fill="#FEFECE" filter="url(#fpfq8vtvpq73t)" rx="123.8069" ry="27.1614" style="stroke:#A80036;stroke-width:1.5;"/><text fill="#000000" font-family="sans-serif" font-size="14" lengthAdjust="spacing" textLength="213" x="467.3069" y="211.8899">Display User Account Status error</text><!--MD5=[fee662a292a0353a69bd162820bae93b]
entity User--><ellipse cx="47.5" cy="185" fill="#FEFECE" filter="url(#fpfq8vtvpq73t)" rx="8" ry="8" style="stroke:#A80036;stroke-width:1.5;"/><path d="M47.5,193 L47.5,220 M34.5,201 L60.5,201 M47.5,220 L34.5,235 M47.5,220 L60.5,235 " fill="none" filter="url(#fpfq8vtvpq73t)" style="stroke:#A80036;stroke-width:1.5;"/><text fill="#000000" font-family="sans-serif" font-size="14" lengthAdjust="spacing" textLength="83" x="6" y="255.0332">Administrator</text><!--MD5=[7522d5c5799d0652da24a5d0145a519b]
link User to US1--><path d="M89.06,194.64 C101.34,188.41 115.02,181.99 128,177 C149.28,168.83 173.39,161.8 194.42,156.36 " fill="none" id="User-to-US1" style="stroke:#A80036;stroke-width:1.0;"/><polygon fill="#A80036" points="199.42,155.09,189.7082,153.4528,194.5769,156.3329,191.6968,161.2017,199.42,155.09" style="stroke:#A80036;stroke-width:1.0;"/><!--MD5=[77a3ecafd659c70014eb396bba1a35d1]
link US1 to US2--><path d="M249.5,127.61 C249.5,114.29 249.5,95.39 249.5,80.79 " fill="none" id="US1-to-US2" style="stroke:#A80036;stroke-width:1.0;stroke-dasharray:7.0,7.0;"/><polygon fill="#A80036" points="249.5,75.63,245.5,84.63,249.5,80.63,253.5,84.63,249.5,75.63" style="stroke:#A80036;stroke-width:1.0;"/><text fill="#000000" font-family="sans-serif" font-size="13" lengthAdjust="spacing" textLength="41" x="217" y="107.2451">include</text><!--MD5=[00c5be5c687b1b6eaf5c8d446051cb63]
reverse link US1 to US3--><path d="M322.18,140.22 C373.72,137.5 443.14,133.85 495.88,131.07 " fill="none" id="US1-backto-US3" style="stroke:#A80036;stroke-width:1.0;stroke-dasharray:7.0,7.0;"/><polygon fill="#A80036" points="316.93,140.5,326.1341,144.0048,321.9226,140.2282,325.6992,136.0167,316.93,140.5" style="stroke:#A80036;stroke-width:1.0;"/><text fill="#000000" font-family="sans-serif" font-size="13" lengthAdjust="spacing" textLength="39" x="379" y="132.4951">extend</text><!--MD5=[447a4efe17a22d68cd6b8a681c348111]
link User to US4--><path d="M89.46,217 C106.21,217 126.4,217 146.7,217 " fill="none" id="User-to-US4" style="stroke:#A80036;stroke-width:1.0;"/><polygon fill="#A80036" points="151.86,217,142.86,213,146.86,217,142.86,221,151.86,217" style="stroke:#A80036;stroke-width:1.0;"/><!--MD5=[03cc136bda8a1e00ade5b19e82dd6082]
link User to US5--><path d="M89.28,238.32 C101.57,244.39 115.19,250.76 128,256 C146.28,263.48 166.52,270.62 185.11,276.74 " fill="none" id="User-to-US5" style="stroke:#A80036;stroke-width:1.0;"/><polygon fill="#A80036" points="190.3,278.44,182.9968,271.8322,185.5495,276.8803,180.5013,279.433,190.3,278.44" style="stroke:#A80036;stroke-width:1.0;"/><!--MD5=[2ba836ef85f92a24bb3029dc3af2af92]
link US5 to US6--><path d="M347.26,295.4 C384.02,295.17 426.12,294.91 463.94,294.68 " fill="none" id="US5-to-US6" style="stroke:#A80036;stroke-width:1.0;stroke-dasharray:7.0,7.0;"/><polygon fill="#A80036" points="469.01,294.64,459.9873,290.6915,464.0101,294.6686,460.033,298.6914,469.01,294.64" style="stroke:#A80036;stroke-width:1.0;"/><text fill="#000000" font-family="sans-serif" font-size="13" lengthAdjust="spacing" textLength="41" x="378" y="291.4951">include</text><!--MD5=[d959efa128f2cda1eabb9091230e4c85]
reverse link US5 to US7--><path d="M317.27,277.78 C369.29,263.59 441.58,243.86 496.03,229 " fill="none" id="US5-backto-US7" style="stroke:#A80036;stroke-width:1.0;stroke-dasharray:7.0,7.0;"/><polygon fill="#A80036" points="312.3,279.14,322.0346,280.6359,317.1245,277.8268,319.9335,272.9167,312.3,279.14" style="stroke:#A80036;stroke-width:1.0;"/><text fill="#000000" font-family="sans-serif" font-size="13" lengthAdjust="spacing" textLength="39" x="379" y="248.4951">extend</text><!--MD5=[16f7bf69c143abd664c7ff5b8b9a2d1a]
@startuml
'https://plantuml.com/use-case-diagram

left to right direction
:Administrator: as User
package System{
    usecase "Insert User ID" as US1
    usecase "Verify User ID" as US2
    usecase "Display User error" as US3
    usecase "Get User Account Status" as US4
    usecase "Deactivate User Account" as US5
    usecase "Verify User Account Status " as US6
    usecase "Display User Account Status error" as US7
}
User - -> US1
US1 .right.> US2 : include
US3 .up.> US1 : extend
User - -> US4
User - -> US5
US5 ..> US6 : include
US5 <.d. US7 : extend

@enduml

@startuml

left to right direction
:Administrator: as User
package System{
    usecase "Insert User ID" as US1
    usecase "Verify User ID" as US2
    usecase "Display User error" as US3
    usecase "Get User Account Status" as US4
    usecase "Deactivate User Account" as US5
    usecase "Verify User Account Status " as US6
    usecase "Display User Account Status error" as US7
}
User - -> US1
US1 .right.> US2 : include
US3 .up.> US1 : extend
User - -> US4
User - -> US5
US5 ..> US6 : include
US5 <.d. US7 : extend

@enduml

PlantUML version 1.2022.0(Tue Jan 11 16:16:42 GMT 2022)
(GPL source distribution)
Java Runtime: OpenJDK Runtime Environment
JVM: OpenJDK 64-Bit Server VM
Default Encoding: Cp1252
Language: en
Country: GB
--></g></svg>