<?xml version="1.0" encoding="UTF-8" standalone="no"?><svg xmlns="http://www.w3.org/2000/svg" xmlns:xlink="http://www.w3.org/1999/xlink" contentScriptType="application/ecmascript" contentStyleType="text/css" height="899px" preserveAspectRatio="none" style="width:580px;height:899px;background:#FFFFFF;" version="1.1" viewBox="0 0 580 899" width="580px" zoomAndPan="magnify"><defs><filter height="300%" id="ftzvoqjfwtm6o" width="300%" x="-1" y="-1"><feGaussianBlur result="blurOut" stdDeviation="2.0"/><feColorMatrix in="blurOut" result="blurOut2" type="matrix" values="0 0 0 0 0 0 0 0 0 0 0 0 0 0 0 0 0 0 .4 0"/><feOffset dx="4.0" dy="4.0" in="blurOut2" result="blurOut3"/><feBlend in="SourceGraphic" in2="blurOut3" mode="normal"/></filter></defs><g><!--MD5=[9ddaf8ee8bcae11a9a9232f969198262]
cluster Infrastructure--><polygon fill="#FFFFFF" filter="url(#ftzvoqjfwtm6o)" points="16,6,119,6,126,29.6094,309,29.6094,309,106,16,106,16,6" style="stroke:#000000;stroke-width:1.5;"/><line style="stroke:#000000;stroke-width:1.5;" x1="16" x2="126" y1="29.6094" y2="29.6094"/><text fill="#000000" font-family="sans-serif" font-size="14" font-weight="bold" lengthAdjust="spacing" textLength="97" x="20" y="22.5332">Infrastructure</text><!--MD5=[1a79add8e979d124e6f695a10b210dad]
cluster InterfaceAdapters--><polygon fill="#FFFFFF" filter="url(#ftzvoqjfwtm6o)" points="21,222,153,222,160,245.6094,316,245.6094,316,430,21,430,21,222" style="stroke:#000000;stroke-width:1.5;"/><line style="stroke:#000000;stroke-width:1.5;" x1="21" x2="160" y1="245.6094" y2="245.6094"/><text fill="#000000" font-family="sans-serif" font-size="14" font-weight="bold" lengthAdjust="spacing" textLength="126" x="25" y="238.5332">InterfaceAdapters</text><!--MD5=[5dee16b94abb3112d0bd6fc93e25f250]
cluster ApplicationServices/UseCaseServices--><polygon fill="#FFFFFF" filter="url(#ftzvoqjfwtm6o)" points="29,454,303,454,310,477.6094,332,477.6094,332,662,29,662,29,454" style="stroke:#000000;stroke-width:1.5;"/><line style="stroke:#000000;stroke-width:1.5;" x1="29" x2="310" y1="477.6094" y2="477.6094"/><text fill="#000000" font-family="sans-serif" font-size="14" font-weight="bold" lengthAdjust="spacing" textLength="268" x="33" y="470.5332">ApplicationServices/UseCaseServices</text><!--MD5=[eccf9336c2fcf13201cf91926ab8c439]
cluster Entities/Core/Domain--><polygon fill="#FFFFFF" filter="url(#ftzvoqjfwtm6o)" points="38,792,191,792,198,815.6094,201,815.6094,201,892,38,892,38,792" style="stroke:#000000;stroke-width:1.5;"/><line style="stroke:#000000;stroke-width:1.5;" x1="38" x2="198" y1="815.6094" y2="815.6094"/><text fill="#000000" font-family="sans-serif" font-size="14" font-weight="bold" lengthAdjust="spacing" textLength="147" x="42" y="808.5332">Entities/Core/Domain</text><!--MD5=[97531d99be12d00aec000df07a2bb472]
class CreateProjectRoute--><rect codeLine="5" fill="#FEFECE" filter="url(#ftzvoqjfwtm6o)" height="48" id="CreateProjectRoute" style="stroke:#A80036;stroke-width:1.5;" width="140" x="32" y="42"/><ellipse cx="47" cy="58" fill="#ADD1B2" rx="11" ry="11" style="stroke:#A80036;stroke-width:1.0;"/><path d="M49,54.5 Q49.2031,54 49.4375,53.75 Q49.6719,53.5 49.9375,53.5 Q50.4063,53.5 50.7031,53.7813 Q51,54.0625 51,54.7188 L51,56.2813 Q51,56.9375 50.7188,57.2188 Q50.4375,57.5 50,57.5 Q49.6094,57.5 49.3594,57.3281 Q49.1094,57.1563 49,56.7031 Q48.9531,56.3906 48.7813,56.2188 Q48.4688,55.8906 47.9063,55.7031 Q47.3438,55.5 46.7813,55.5 Q46.0781,55.5 45.4844,55.7813 Q44.9063,56.0625 44.4531,56.6875 Q44,57.3125 44,58.1719 L44,59.0938 Q44,60.125 44.8438,60.8125 Q45.6875,61.5 47.1875,61.5 Q48.0781,61.5 48.7031,61.2969 Q49.0625,61.1875 49.4688,60.8281 Q49.7344,60.625 49.875,60.5625 Q50.0156,60.5 50.1875,60.5 Q50.5156,60.5 50.75,60.7656 Q51,61.0156 51,61.375 Q51,61.7188 50.6563,62.125 Q50.1563,62.7188 49.3594,63.0469 Q48.3125,63.5 47.0313,63.5 Q45.5313,63.5 44.3281,62.9063 Q43.3594,62.4375 42.6719,61.4219 Q42,60.4063 42,59.2031 L42,58.1094 Q42,56.8594 42.5938,55.7656 Q43.2031,54.6719 44.25,54.0938 Q45.3125,53.5 46.5,53.5 Q47.2188,53.5 47.8438,53.75 Q48.4688,54 49,54.5 Z " fill="#000000"/><text fill="#000000" font-family="sans-serif" font-size="12" lengthAdjust="spacing" textLength="108" x="61" y="62.9102">CreateProjectRoute</text><line style="stroke:#A80036;stroke-width:1.5;" x1="33" x2="171" y1="74" y2="74"/><line style="stroke:#A80036;stroke-width:1.5;" x1="33" x2="171" y1="82" y2="82"/><!--MD5=[f0b49c7b12fe939e64518e40a77c3b4f]
class IDBDriver--><rect codeLine="6" fill="#FEFECE" filter="url(#ftzvoqjfwtm6o)" height="48" id="IDBDriver" style="stroke:#A80036;stroke-width:1.5;" width="86" x="207" y="42"/><ellipse cx="222" cy="58" fill="#B4A7E5" rx="11" ry="11" style="stroke:#A80036;stroke-width:1.0;"/><path d="M223,55 L223,61 L225,61 L225.4844,61 L226,61.625 L226,62 L226,62.375 L225.4844,63 L225,63 L219,63 L218.5156,63 L218,62.375 L218,62 L218,61.625 L218.5156,61 L219,61 L221,61 L221,55 L219,55 L218.5156,55 L218,54.375 L218,54 L218,53.625 L218.5156,53 L219,53 L225,53 L225.4844,53 L226,53.625 L226,54 L226,54.375 L225.4844,55 L225,55 L223,55 Z " fill="#000000"/><text fill="#000000" font-family="sans-serif" font-size="12" font-style="italic" lengthAdjust="spacing" textLength="54" x="236" y="62.9102">IDBDriver</text><line style="stroke:#A80036;stroke-width:1.5;" x1="208" x2="292" y1="74" y2="74"/><line style="stroke:#A80036;stroke-width:1.5;" x1="208" x2="292" y1="82" y2="82"/><!--MD5=[bb7c6ab2e53a196cdb987f7d54488d97]
class IControllerProject--><rect codeLine="11" fill="#FEFECE" filter="url(#ftzvoqjfwtm6o)" height="48" id="IControllerProject" style="stroke:#A80036;stroke-width:1.5;" width="128" x="37" y="258"/><ellipse cx="52" cy="274" fill="#B4A7E5" rx="11" ry="11" style="stroke:#A80036;stroke-width:1.0;"/><path d="M53,271 L53,277 L55,277 L55.4844,277 L56,277.625 L56,278 L56,278.375 L55.4844,279 L55,279 L49,279 L48.5156,279 L48,278.375 L48,278 L48,277.625 L48.5156,277 L49,277 L51,277 L51,271 L49,271 L48.5156,271 L48,270.375 L48,270 L48,269.625 L48.5156,269 L49,269 L55,269 L55.4844,269 L56,269.625 L56,270 L56,270.375 L55.4844,271 L55,271 L53,271 Z " fill="#000000"/><text fill="#000000" font-family="sans-serif" font-size="12" font-style="italic" lengthAdjust="spacing" textLength="96" x="66" y="278.9102">IControllerProject</text><line style="stroke:#A80036;stroke-width:1.5;" x1="38" x2="164" y1="290" y2="290"/><line style="stroke:#A80036;stroke-width:1.5;" x1="38" x2="164" y1="298" y2="298"/><!--MD5=[f26d270843f3c9fa3e20577f5f935932]
class CreateProjectController--><rect codeLine="12" fill="#FEFECE" filter="url(#ftzvoqjfwtm6o)" height="48" id="CreateProjectController" style="stroke:#A80036;stroke-width:1.5;" width="161" x="37.5" y="366"/><ellipse cx="52.5" cy="382" fill="#ADD1B2" rx="11" ry="11" style="stroke:#A80036;stroke-width:1.0;"/><path d="M54.5,378.5 Q54.7031,378 54.9375,377.75 Q55.1719,377.5 55.4375,377.5 Q55.9063,377.5 56.2031,377.7813 Q56.5,378.0625 56.5,378.7188 L56.5,380.2813 Q56.5,380.9375 56.2188,381.2188 Q55.9375,381.5 55.5,381.5 Q55.1094,381.5 54.8594,381.3281 Q54.6094,381.1563 54.5,380.7031 Q54.4531,380.3906 54.2813,380.2188 Q53.9688,379.8906 53.4063,379.7031 Q52.8438,379.5 52.2813,379.5 Q51.5781,379.5 50.9844,379.7813 Q50.4063,380.0625 49.9531,380.6875 Q49.5,381.3125 49.5,382.1719 L49.5,383.0938 Q49.5,384.125 50.3438,384.8125 Q51.1875,385.5 52.6875,385.5 Q53.5781,385.5 54.2031,385.2969 Q54.5625,385.1875 54.9688,384.8281 Q55.2344,384.625 55.375,384.5625 Q55.5156,384.5 55.6875,384.5 Q56.0156,384.5 56.25,384.7656 Q56.5,385.0156 56.5,385.375 Q56.5,385.7188 56.1563,386.125 Q55.6563,386.7188 54.8594,387.0469 Q53.8125,387.5 52.5313,387.5 Q51.0313,387.5 49.8281,386.9063 Q48.8594,386.4375 48.1719,385.4219 Q47.5,384.4063 47.5,383.2031 L47.5,382.1094 Q47.5,380.8594 48.0938,379.7656 Q48.7031,378.6719 49.75,378.0938 Q50.8125,377.5 52,377.5 Q52.7188,377.5 53.3438,377.75 Q53.9688,378 54.5,378.5 Z " fill="#000000"/><text fill="#000000" font-family="sans-serif" font-size="12" lengthAdjust="spacing" textLength="129" x="66.5" y="386.9102">CreateProjectController</text><line style="stroke:#A80036;stroke-width:1.5;" x1="38.5" x2="197.5" y1="398" y2="398"/><line style="stroke:#A80036;stroke-width:1.5;" x1="38.5" x2="197.5" y1="406" y2="406"/><!--MD5=[026032786813200465bcdba6177e9868]
class RepoProject--><rect codeLine="13" fill="#FEFECE" filter="url(#ftzvoqjfwtm6o)" height="48" id="RepoProject" style="stroke:#A80036;stroke-width:1.5;" width="100" x="200" y="258"/><ellipse cx="215" cy="274" fill="#ADD1B2" rx="11" ry="11" style="stroke:#A80036;stroke-width:1.0;"/><path d="M217,270.5 Q217.2031,270 217.4375,269.75 Q217.6719,269.5 217.9375,269.5 Q218.4063,269.5 218.7031,269.7813 Q219,270.0625 219,270.7188 L219,272.2813 Q219,272.9375 218.7188,273.2188 Q218.4375,273.5 218,273.5 Q217.6094,273.5 217.3594,273.3281 Q217.1094,273.1563 217,272.7031 Q216.9531,272.3906 216.7813,272.2188 Q216.4688,271.8906 215.9063,271.7031 Q215.3438,271.5 214.7813,271.5 Q214.0781,271.5 213.4844,271.7813 Q212.9063,272.0625 212.4531,272.6875 Q212,273.3125 212,274.1719 L212,275.0938 Q212,276.125 212.8438,276.8125 Q213.6875,277.5 215.1875,277.5 Q216.0781,277.5 216.7031,277.2969 Q217.0625,277.1875 217.4688,276.8281 Q217.7344,276.625 217.875,276.5625 Q218.0156,276.5 218.1875,276.5 Q218.5156,276.5 218.75,276.7656 Q219,277.0156 219,277.375 Q219,277.7188 218.6563,278.125 Q218.1563,278.7188 217.3594,279.0469 Q216.3125,279.5 215.0313,279.5 Q213.5313,279.5 212.3281,278.9063 Q211.3594,278.4375 210.6719,277.4219 Q210,276.4063 210,275.2031 L210,274.1094 Q210,272.8594 210.5938,271.7656 Q211.2031,270.6719 212.25,270.0938 Q213.3125,269.5 214.5,269.5 Q215.2188,269.5 215.8438,269.75 Q216.4688,270 217,270.5 Z " fill="#000000"/><text fill="#000000" font-family="sans-serif" font-size="12" lengthAdjust="spacing" textLength="68" x="229" y="278.9102">RepoProject</text><line style="stroke:#A80036;stroke-width:1.5;" x1="201" x2="299" y1="290" y2="290"/><line style="stroke:#A80036;stroke-width:1.5;" x1="201" x2="299" y1="298" y2="298"/><!--MD5=[16387b000dc2e87e6836a8110747759b]
class IAppServiceProject--><rect codeLine="20" fill="#FEFECE" filter="url(#ftzvoqjfwtm6o)" height="48" id="IAppServiceProject" style="stroke:#A80036;stroke-width:1.5;" width="137" x="47.5" y="490"/><ellipse cx="62.5" cy="506" fill="#B4A7E5" rx="11" ry="11" style="stroke:#A80036;stroke-width:1.0;"/><path d="M63.5,503 L63.5,509 L65.5,509 L65.9844,509 L66.5,509.625 L66.5,510 L66.5,510.375 L65.9844,511 L65.5,511 L59.5,511 L59.0156,511 L58.5,510.375 L58.5,510 L58.5,509.625 L59.0156,509 L59.5,509 L61.5,509 L61.5,503 L59.5,503 L59.0156,503 L58.5,502.375 L58.5,502 L58.5,501.625 L59.0156,501 L59.5,501 L65.5,501 L65.9844,501 L66.5,501.625 L66.5,502 L66.5,502.375 L65.9844,503 L65.5,503 L63.5,503 Z " fill="#000000"/><text fill="#000000" font-family="sans-serif" font-size="12" font-style="italic" lengthAdjust="spacing" textLength="105" x="76.5" y="510.9102">IAppServiceProject</text><line style="stroke:#A80036;stroke-width:1.5;" x1="48.5" x2="183.5" y1="522" y2="522"/><line style="stroke:#A80036;stroke-width:1.5;" x1="48.5" x2="183.5" y1="530" y2="530"/><!--MD5=[5004069b74549d21436fe226c60b4b28]
class IRepoProject--><rect codeLine="21" fill="#FEFECE" filter="url(#ftzvoqjfwtm6o)" height="48" id="IRepoProject" style="stroke:#A80036;stroke-width:1.5;" width="104" x="212" y="598"/><ellipse cx="227" cy="614" fill="#B4A7E5" rx="11" ry="11" style="stroke:#A80036;stroke-width:1.0;"/><path d="M228,611 L228,617 L230,617 L230.4844,617 L231,617.625 L231,618 L231,618.375 L230.4844,619 L230,619 L224,619 L223.5156,619 L223,618.375 L223,618 L223,617.625 L223.5156,617 L224,617 L226,617 L226,611 L224,611 L223.5156,611 L223,610.375 L223,610 L223,609.625 L223.5156,609 L224,609 L230,609 L230.4844,609 L231,609.625 L231,610 L231,610.375 L230.4844,611 L230,611 L228,611 Z " fill="#000000"/><text fill="#000000" font-family="sans-serif" font-size="12" font-style="italic" lengthAdjust="spacing" textLength="72" x="241" y="618.9102">IRepoProject</text><line style="stroke:#A80036;stroke-width:1.5;" x1="213" x2="315" y1="630" y2="630"/><line style="stroke:#A80036;stroke-width:1.5;" x1="213" x2="315" y1="638" y2="638"/><!--MD5=[37d9572bace775414413e3ffe5aa9fc1]
class AppServiceProject--><rect codeLine="22" fill="#FEFECE" filter="url(#ftzvoqjfwtm6o)" height="48" id="AppServiceProject" style="stroke:#A80036;stroke-width:1.5;" width="131" x="45.5" y="598"/><ellipse cx="60.5" cy="614" fill="#ADD1B2" rx="11" ry="11" style="stroke:#A80036;stroke-width:1.0;"/><path d="M62.5,610.5 Q62.7031,610 62.9375,609.75 Q63.1719,609.5 63.4375,609.5 Q63.9063,609.5 64.2031,609.7813 Q64.5,610.0625 64.5,610.7188 L64.5,612.2813 Q64.5,612.9375 64.2188,613.2188 Q63.9375,613.5 63.5,613.5 Q63.1094,613.5 62.8594,613.3281 Q62.6094,613.1563 62.5,612.7031 Q62.4531,612.3906 62.2813,612.2188 Q61.9688,611.8906 61.4063,611.7031 Q60.8438,611.5 60.2813,611.5 Q59.5781,611.5 58.9844,611.7813 Q58.4063,612.0625 57.9531,612.6875 Q57.5,613.3125 57.5,614.1719 L57.5,615.0938 Q57.5,616.125 58.3438,616.8125 Q59.1875,617.5 60.6875,617.5 Q61.5781,617.5 62.2031,617.2969 Q62.5625,617.1875 62.9688,616.8281 Q63.2344,616.625 63.375,616.5625 Q63.5156,616.5 63.6875,616.5 Q64.0156,616.5 64.25,616.7656 Q64.5,617.0156 64.5,617.375 Q64.5,617.7188 64.1563,618.125 Q63.6563,618.7188 62.8594,619.0469 Q61.8125,619.5 60.5313,619.5 Q59.0313,619.5 57.8281,618.9063 Q56.8594,618.4375 56.1719,617.4219 Q55.5,616.4063 55.5,615.2031 L55.5,614.1094 Q55.5,612.8594 56.0938,611.7656 Q56.7031,610.6719 57.75,610.0938 Q58.8125,609.5 60,609.5 Q60.7188,609.5 61.3438,609.75 Q61.9688,610 62.5,610.5 Z " fill="#000000"/><text fill="#000000" font-family="sans-serif" font-size="12" lengthAdjust="spacing" textLength="99" x="74.5" y="618.9102">AppServiceProject</text><line style="stroke:#A80036;stroke-width:1.5;" x1="46.5" x2="175.5" y1="630" y2="630"/><line style="stroke:#A80036;stroke-width:1.5;" x1="46.5" x2="175.5" y1="638" y2="638"/><!--MD5=[79d378210367c0c6ec62ef762ddfbd1b]
class Project--><rect codeLine="26" fill="#FEFECE" filter="url(#ftzvoqjfwtm6o)" height="48" id="Project" style="stroke:#A80036;stroke-width:1.5;" width="70" x="76" y="828"/><ellipse cx="91" cy="844" fill="#ADD1B2" rx="11" ry="11" style="stroke:#A80036;stroke-width:1.0;"/><path d="M93,840.5 Q93.2031,840 93.4375,839.75 Q93.6719,839.5 93.9375,839.5 Q94.4063,839.5 94.7031,839.7813 Q95,840.0625 95,840.7188 L95,842.2813 Q95,842.9375 94.7188,843.2188 Q94.4375,843.5 94,843.5 Q93.6094,843.5 93.3594,843.3281 Q93.1094,843.1563 93,842.7031 Q92.9531,842.3906 92.7813,842.2188 Q92.4688,841.8906 91.9063,841.7031 Q91.3438,841.5 90.7813,841.5 Q90.0781,841.5 89.4844,841.7813 Q88.9063,842.0625 88.4531,842.6875 Q88,843.3125 88,844.1719 L88,845.0938 Q88,846.125 88.8438,846.8125 Q89.6875,847.5 91.1875,847.5 Q92.0781,847.5 92.7031,847.2969 Q93.0625,847.1875 93.4688,846.8281 Q93.7344,846.625 93.875,846.5625 Q94.0156,846.5 94.1875,846.5 Q94.5156,846.5 94.75,846.7656 Q95,847.0156 95,847.375 Q95,847.7188 94.6563,848.125 Q94.1563,848.7188 93.3594,849.0469 Q92.3125,849.5 91.0313,849.5 Q89.5313,849.5 88.3281,848.9063 Q87.3594,848.4375 86.6719,847.4219 Q86,846.4063 86,845.2031 L86,844.1094 Q86,842.8594 86.5938,841.7656 Q87.2031,840.6719 88.25,840.0938 Q89.3125,839.5 90.5,839.5 Q91.2188,839.5 91.8438,839.75 Q92.4688,840 93,840.5 Z " fill="#000000"/><text fill="#000000" font-family="sans-serif" font-size="12" lengthAdjust="spacing" textLength="38" x="105" y="848.9102">Project</text><line style="stroke:#A80036;stroke-width:1.5;" x1="77" x2="145" y1="860" y2="860"/><line style="stroke:#A80036;stroke-width:1.5;" x1="77" x2="145" y1="868" y2="868"/><!--MD5=[ea825966c3885aa29485791040e18b5d]
class JsonToDTO--><rect codeLine="16" fill="#FEFECE" filter="url(#ftzvoqjfwtm6o)" height="48" id="JsonToDTO" style="stroke:#A80036;stroke-width:1.5;" width="98" x="328" y="42"/><ellipse cx="343" cy="58" fill="#ADD1B2" rx="11" ry="11" style="stroke:#A80036;stroke-width:1.0;"/><path d="M345,54.5 Q345.2031,54 345.4375,53.75 Q345.6719,53.5 345.9375,53.5 Q346.4063,53.5 346.7031,53.7813 Q347,54.0625 347,54.7188 L347,56.2813 Q347,56.9375 346.7188,57.2188 Q346.4375,57.5 346,57.5 Q345.6094,57.5 345.3594,57.3281 Q345.1094,57.1563 345,56.7031 Q344.9531,56.3906 344.7813,56.2188 Q344.4688,55.8906 343.9063,55.7031 Q343.3438,55.5 342.7813,55.5 Q342.0781,55.5 341.4844,55.7813 Q340.9063,56.0625 340.4531,56.6875 Q340,57.3125 340,58.1719 L340,59.0938 Q340,60.125 340.8438,60.8125 Q341.6875,61.5 343.1875,61.5 Q344.0781,61.5 344.7031,61.2969 Q345.0625,61.1875 345.4688,60.8281 Q345.7344,60.625 345.875,60.5625 Q346.0156,60.5 346.1875,60.5 Q346.5156,60.5 346.75,60.7656 Q347,61.0156 347,61.375 Q347,61.7188 346.6563,62.125 Q346.1563,62.7188 345.3594,63.0469 Q344.3125,63.5 343.0313,63.5 Q341.5313,63.5 340.3281,62.9063 Q339.3594,62.4375 338.6719,61.4219 Q338,60.4063 338,59.2031 L338,58.1094 Q338,56.8594 338.5938,55.7656 Q339.2031,54.6719 340.25,54.0938 Q341.3125,53.5 342.5,53.5 Q343.2188,53.5 343.8438,53.75 Q344.4688,54 345,54.5 Z " fill="#000000"/><text fill="#000000" font-family="sans-serif" font-size="12" lengthAdjust="spacing" textLength="66" x="357" y="62.9102">JsonToDTO</text><line style="stroke:#A80036;stroke-width:1.5;" x1="329" x2="425" y1="74" y2="74"/><line style="stroke:#A80036;stroke-width:1.5;" x1="329" x2="425" y1="82" y2="82"/><!--MD5=[79a8b16bda137737aeb7547e3456d423]
class DtoProject--><rect codeLine="17" fill="#FEFECE" filter="url(#ftzvoqjfwtm6o)" height="48" id="DtoProject" style="stroke:#A80036;stroke-width:1.5;" width="89" x="461.5" y="42"/><ellipse cx="476.5" cy="58" fill="#ADD1B2" rx="11" ry="11" style="stroke:#A80036;stroke-width:1.0;"/><path d="M478.5,54.5 Q478.7031,54 478.9375,53.75 Q479.1719,53.5 479.4375,53.5 Q479.9063,53.5 480.2031,53.7813 Q480.5,54.0625 480.5,54.7188 L480.5,56.2813 Q480.5,56.9375 480.2188,57.2188 Q479.9375,57.5 479.5,57.5 Q479.1094,57.5 478.8594,57.3281 Q478.6094,57.1563 478.5,56.7031 Q478.4531,56.3906 478.2813,56.2188 Q477.9688,55.8906 477.4063,55.7031 Q476.8438,55.5 476.2813,55.5 Q475.5781,55.5 474.9844,55.7813 Q474.4063,56.0625 473.9531,56.6875 Q473.5,57.3125 473.5,58.1719 L473.5,59.0938 Q473.5,60.125 474.3438,60.8125 Q475.1875,61.5 476.6875,61.5 Q477.5781,61.5 478.2031,61.2969 Q478.5625,61.1875 478.9688,60.8281 Q479.2344,60.625 479.375,60.5625 Q479.5156,60.5 479.6875,60.5 Q480.0156,60.5 480.25,60.7656 Q480.5,61.0156 480.5,61.375 Q480.5,61.7188 480.1563,62.125 Q479.6563,62.7188 478.8594,63.0469 Q477.8125,63.5 476.5313,63.5 Q475.0313,63.5 473.8281,62.9063 Q472.8594,62.4375 472.1719,61.4219 Q471.5,60.4063 471.5,59.2031 L471.5,58.1094 Q471.5,56.8594 472.0938,55.7656 Q472.7031,54.6719 473.75,54.0938 Q474.8125,53.5 476,53.5 Q476.7188,53.5 477.3438,53.75 Q477.9688,54 478.5,54.5 Z " fill="#000000"/><text fill="#000000" font-family="sans-serif" font-size="12" lengthAdjust="spacing" textLength="57" x="490.5" y="62.9102">DtoProject</text><line style="stroke:#A80036;stroke-width:1.5;" x1="462.5" x2="549.5" y1="74" y2="74"/><line style="stroke:#A80036;stroke-width:1.5;" x1="462.5" x2="549.5" y1="82" y2="82"/><!--MD5=[6776c4660685ddb15f8187817f4826c1]
class DomainToData--><rect codeLine="29" fill="#FEFECE" filter="url(#ftzvoqjfwtm6o)" height="48" id="DomainToData" style="stroke:#A80036;stroke-width:1.5;" width="116" x="319" y="150"/><ellipse cx="334" cy="166" fill="#ADD1B2" rx="11" ry="11" style="stroke:#A80036;stroke-width:1.0;"/><path d="M336,162.5 Q336.2031,162 336.4375,161.75 Q336.6719,161.5 336.9375,161.5 Q337.4063,161.5 337.7031,161.7813 Q338,162.0625 338,162.7188 L338,164.2813 Q338,164.9375 337.7188,165.2188 Q337.4375,165.5 337,165.5 Q336.6094,165.5 336.3594,165.3281 Q336.1094,165.1563 336,164.7031 Q335.9531,164.3906 335.7813,164.2188 Q335.4688,163.8906 334.9063,163.7031 Q334.3438,163.5 333.7813,163.5 Q333.0781,163.5 332.4844,163.7813 Q331.9063,164.0625 331.4531,164.6875 Q331,165.3125 331,166.1719 L331,167.0938 Q331,168.125 331.8438,168.8125 Q332.6875,169.5 334.1875,169.5 Q335.0781,169.5 335.7031,169.2969 Q336.0625,169.1875 336.4688,168.8281 Q336.7344,168.625 336.875,168.5625 Q337.0156,168.5 337.1875,168.5 Q337.5156,168.5 337.75,168.7656 Q338,169.0156 338,169.375 Q338,169.7188 337.6563,170.125 Q337.1563,170.7188 336.3594,171.0469 Q335.3125,171.5 334.0313,171.5 Q332.5313,171.5 331.3281,170.9063 Q330.3594,170.4375 329.6719,169.4219 Q329,168.4063 329,167.2031 L329,166.1094 Q329,164.8594 329.5938,163.7656 Q330.2031,162.6719 331.25,162.0938 Q332.3125,161.5 333.5,161.5 Q334.2188,161.5 334.8438,161.75 Q335.4688,162 336,162.5 Z " fill="#000000"/><text fill="#000000" font-family="sans-serif" font-size="12" lengthAdjust="spacing" textLength="84" x="348" y="170.9102">DomainToData</text><line style="stroke:#A80036;stroke-width:1.5;" x1="320" x2="434" y1="182" y2="182"/><line style="stroke:#A80036;stroke-width:1.5;" x1="320" x2="434" y1="190" y2="190"/><!--MD5=[f30dc947959bf7ace3b4de3650b734ea]
class DataProject--><rect codeLine="31" fill="#FEFECE" filter="url(#ftzvoqjfwtm6o)" height="48" id="DataProject" style="stroke:#A80036;stroke-width:1.5;" width="96" x="470" y="150"/><ellipse cx="485" cy="166" fill="#ADD1B2" rx="11" ry="11" style="stroke:#A80036;stroke-width:1.0;"/><path d="M487,162.5 Q487.2031,162 487.4375,161.75 Q487.6719,161.5 487.9375,161.5 Q488.4063,161.5 488.7031,161.7813 Q489,162.0625 489,162.7188 L489,164.2813 Q489,164.9375 488.7188,165.2188 Q488.4375,165.5 488,165.5 Q487.6094,165.5 487.3594,165.3281 Q487.1094,165.1563 487,164.7031 Q486.9531,164.3906 486.7813,164.2188 Q486.4688,163.8906 485.9063,163.7031 Q485.3438,163.5 484.7813,163.5 Q484.0781,163.5 483.4844,163.7813 Q482.9063,164.0625 482.4531,164.6875 Q482,165.3125 482,166.1719 L482,167.0938 Q482,168.125 482.8438,168.8125 Q483.6875,169.5 485.1875,169.5 Q486.0781,169.5 486.7031,169.2969 Q487.0625,169.1875 487.4688,168.8281 Q487.7344,168.625 487.875,168.5625 Q488.0156,168.5 488.1875,168.5 Q488.5156,168.5 488.75,168.7656 Q489,169.0156 489,169.375 Q489,169.7188 488.6563,170.125 Q488.1563,170.7188 487.3594,171.0469 Q486.3125,171.5 485.0313,171.5 Q483.5313,171.5 482.3281,170.9063 Q481.3594,170.4375 480.6719,169.4219 Q480,168.4063 480,167.2031 L480,166.1094 Q480,164.8594 480.5938,163.7656 Q481.2031,162.6719 482.25,162.0938 Q483.3125,161.5 484.5,161.5 Q485.2188,161.5 485.8438,161.75 Q486.4688,162 487,162.5 Z " fill="#000000"/><text fill="#000000" font-family="sans-serif" font-size="12" lengthAdjust="spacing" textLength="64" x="499" y="170.9102">DataProject</text><line style="stroke:#A80036;stroke-width:1.5;" x1="471" x2="565" y1="182" y2="182"/><line style="stroke:#A80036;stroke-width:1.5;" x1="471" x2="565" y1="190" y2="190"/><!--MD5=[e23c730be4f0a53bd0e908d8e7e6f450]
link CreateProjectRoute to IControllerProject--><path codeLine="33" d="M101,90.36 C101,90.36 101,252.73 101,252.73 " fill="none" id="CreateProjectRoute-to-IControllerProject" style="stroke:#A80036;stroke-width:1.0;stroke-dasharray:7.0,7.0;"/><polygon fill="#A80036" points="101,257.73,105,248.73,101,252.73,97,248.73,101,257.73" style="stroke:#A80036;stroke-width:1.0;"/><!--MD5=[d701d17cc4145e76a43f54839653dfbf]
reverse link IControllerProject to CreateProjectController--><path codeLine="34" d="M101.25,326.24 C101.25,326.24 101.25,365.84 101.25,365.84 " fill="none" id="IControllerProject-backto-CreateProjectController" style="stroke:#A80036;stroke-width:1.0;stroke-dasharray:7.0,7.0;"/><polygon fill="none" points="94.25,326.24,101.25,306.24,108.25,326.24,94.25,326.24" style="stroke:#A80036;stroke-width:1.0;"/><!--MD5=[ae28f06ac1458ee584941211814ff354]
link CreateProjectController to IAppServiceProject--><path codeLine="36" d="M116,414.2 C116,414.2 116,484.86 116,484.86 " fill="none" id="CreateProjectController-to-IAppServiceProject" style="stroke:#A80036;stroke-width:1.0;stroke-dasharray:7.0,7.0;"/><polygon fill="#A80036" points="116,489.86,120,480.86,116,484.86,112,480.86,116,489.86" style="stroke:#A80036;stroke-width:1.0;"/><!--MD5=[6916f5f4f213052a48f8033bdfc19130]
reverse link IAppServiceProject to AppServiceProject--><path codeLine="37" d="M112,558.24 C112,558.24 112,597.84 112,597.84 " fill="none" id="IAppServiceProject-backto-AppServiceProject" style="stroke:#A80036;stroke-width:1.0;stroke-dasharray:7.0,7.0;"/><polygon fill="none" points="105,558.24,112,538.24,119,558.24,105,558.24" style="stroke:#A80036;stroke-width:1.0;"/><!--MD5=[97e38a42b367b276078b180f8b3d196a]
link AppServiceProject to Project--><path codeLine="39" d="M111,646.18 C111,646.18 111,822.8 111,822.8 " fill="none" id="AppServiceProject-to-Project" style="stroke:#A80036;stroke-width:1.0;stroke-dasharray:7.0,7.0;"/><polygon fill="#A80036" points="111,827.8,115,818.8,111,822.8,107,818.8,111,827.8" style="stroke:#A80036;stroke-width:1.0;"/><!--MD5=[3f21b67a8717474f17a8ff458577bf10]
link AppServiceProject to IRepoProject--><path codeLine="41" d="M176.77,622 C176.77,622 206.67,622 206.67,622 " fill="none" id="AppServiceProject-to-IRepoProject" style="stroke:#A80036;stroke-width:1.0;stroke-dasharray:7.0,7.0;"/><polygon fill="#A80036" points="211.67,622,202.67,618,206.67,622,202.67,626,211.67,622" style="stroke:#A80036;stroke-width:1.0;"/><!--MD5=[8334656eb6e8412491d5a207be172e1b]
link RepoProject to IRepoProject--><path codeLine="42" d="M256,306.18 C256,306.18 256,577.72 256,577.72 " fill="none" id="RepoProject-to-IRepoProject" style="stroke:#A80036;stroke-width:1.0;stroke-dasharray:7.0,7.0;"/><polygon fill="none" points="263,577.72,256,597.72,249,577.72,263,577.72" style="stroke:#A80036;stroke-width:1.0;"/><!--MD5=[c06b574ffdc6069b7295120f43f2aa5b]
link RepoProject to IDBDriver--><path codeLine="44" d="M250,257.64 C250,257.64 250,95.27 250,95.27 " fill="none" id="RepoProject-to-IDBDriver" style="stroke:#A80036;stroke-width:1.0;stroke-dasharray:7.0,7.0;"/><polygon fill="#A80036" points="250,90.27,246,99.27,250,95.27,254,99.27,250,90.27" style="stroke:#A80036;stroke-width:1.0;"/><!--MD5=[01559f20e3b03ec6a37a2b81cf2dbdb2]
link JsonToDTO to DtoProject--><!--MD5=[27e5235b68ba165556aa8b6c4460f778]
link JsonToDTO to DomainToData--><!--MD5=[07ae00055c4d630ce1f8f88814cc63b4]
link DomainToData to DataProject--><!--MD5=[519c6404867afdd490b743c6b7417266]
@startuml
'https://plantuml.com/class-diagram

skinparam linetype ortho
package Infrastructure{
class CreateProjectRoute
interface IDBDriver
}


package InterfaceAdapters{
interface IControllerProject
class CreateProjectController
class RepoProject
}

class JsonToDTO
class DtoProject

package ApplicationServices/UseCaseServices{
interface IAppServiceProject
interface IRepoProject
class AppServiceProject
}

package Entities/Core/Domain{
class Project
}

class DomainToData

class DataProject

CreateProjectRoute ..down.> IControllerProject
IControllerProject  <|.. CreateProjectController

CreateProjectController ..> IAppServiceProject
IAppServiceProject <|.. AppServiceProject

AppServiceProject ....> Project

AppServiceProject .right..> IRepoProject
IRepoProject <|.up. RepoProject

RepoProject ...> IDBDriver


@enduml

@startuml

skinparam linetype ortho
package Infrastructure{
class CreateProjectRoute
interface IDBDriver
}


package InterfaceAdapters{
interface IControllerProject
class CreateProjectController
class RepoProject
}

class JsonToDTO
class DtoProject

package ApplicationServices/UseCaseServices{
interface IAppServiceProject
interface IRepoProject
class AppServiceProject
}

package Entities/Core/Domain{
class Project
}

class DomainToData

class DataProject

CreateProjectRoute ..down.> IControllerProject
IControllerProject  <|.. CreateProjectController

CreateProjectController ..> IAppServiceProject
IAppServiceProject <|.. AppServiceProject

AppServiceProject ....> Project

AppServiceProject .right..> IRepoProject
IRepoProject <|.up. RepoProject

RepoProject ...> IDBDriver


@enduml

PlantUML version 1.2022.1(Tue Feb 01 18:19:58 GMT 2022)
(GPL source distribution)
Java Runtime: OpenJDK Runtime Environment
JVM: OpenJDK 64-Bit Server VM
Default Encoding: Cp1252
Language: pt
Country: PT
--></g></svg>