<?xml version="1.0" encoding="UTF-8" standalone="no"?><svg xmlns="http://www.w3.org/2000/svg" xmlns:xlink="http://www.w3.org/1999/xlink" contentScriptType="application/ecmascript" contentStyleType="text/css" height="510.3px" preserveAspectRatio="none" style="width:566px;height:510px;background:#FFFFFF;" version="1.1" viewBox="0 0 566 510" width="566.3px" zoomAndPan="magnify"><defs><filter height="300%" id="f1e3uf43azodo4" width="300%" x="-1" y="-1"><feGaussianBlur result="blurOut" stdDeviation="1.3999999999999997"/><feColorMatrix in="blurOut" result="blurOut2" type="matrix" values="0 0 0 0 0 0 0 0 0 0 0 0 0 0 0 0 0 0 .4 0"/><feOffset dx="2.7999999999999994" dy="2.7999999999999994" in="blurOut2" result="blurOut3"/><feBlend in="SourceGraphic" in2="blurOut3" mode="normal"/></filter></defs><g><!--MD5=[0b55787d4ec4fd4f6422def40f643836]
class RefineUserStoryUI--><rect codeLine="15" fill="#FEFECE" filter="url(#f1e3uf43azodo4)" height="33.6" id="RefineUserStoryUI" style="stroke:#A80036;stroke-width:1.0499999999999998;" width="93.8" x="260.4" y="4.9"/><ellipse cx="270.9" cy="16.1" fill="#ADD1B2" rx="7.7" ry="7.7" style="stroke:#A80036;stroke-width:0.6999999999999998;"/><path d="M272.3,13.65 Q272.4422,13.3 272.6062,13.125 Q272.7703,12.95 272.9562,12.95 Q273.2844,12.95 273.4922,13.1469 Q273.7,13.3437 273.7,13.8031 L273.7,14.8969 Q273.7,15.3562 273.5031,15.5531 Q273.3062,15.75 273,15.75 Q272.7266,15.75 272.5516,15.6297 Q272.3766,15.5094 272.3,15.1922 Q272.2672,14.9734 272.1469,14.8531 Q271.9281,14.6234 271.5344,14.4922 Q271.1406,14.35 270.7469,14.35 Q270.2547,14.35 269.8391,14.5469 Q269.4344,14.7437 269.1172,15.1812 Q268.8,15.6187 268.8,16.2203 L268.8,16.8656 Q268.8,17.5875 269.3906,18.0687 Q269.9812,18.55 271.0312,18.55 Q271.6547,18.55 272.0922,18.4078 Q272.3437,18.3312 272.6281,18.0797 Q272.8141,17.9375 272.9125,17.8937 Q273.0109,17.85 273.1312,17.85 Q273.3609,17.85 273.525,18.0359 Q273.7,18.2109 273.7,18.4625 Q273.7,18.7031 273.4594,18.9875 Q273.1094,19.4031 272.5516,19.6328 Q271.8187,19.95 270.9219,19.95 Q269.8719,19.95 269.0297,19.5344 Q268.3516,19.2062 267.8703,18.4953 Q267.4,17.7844 267.4,16.9422 L267.4,16.1766 Q267.4,15.3016 267.8156,14.5359 Q268.2422,13.7703 268.975,13.3656 Q269.7187,12.95 270.55,12.95 Q271.0531,12.95 271.4906,13.125 Q271.9281,13.3 272.3,13.65 Z " fill="#000000"/><text fill="#000000" font-family="sans-serif" font-size="8.4" lengthAdjust="spacing" textLength="71.4" x="280.7" y="19.5371">RefineUserStoryUI</text><line style="stroke:#A80036;stroke-width:1.0499999999999998;" x1="261.1" x2="353.5" y1="27.3" y2="27.3"/><line style="stroke:#A80036;stroke-width:1.0499999999999998;" x1="261.1" x2="353.5" y1="32.9" y2="32.9"/><!--MD5=[9903a6c919a5ed4623e17430298182bc]
class RefineUserStoryController--><rect codeLine="19" fill="#FEFECE" filter="url(#f1e3uf43azodo4)" height="72.3406" id="RefineUserStoryController" style="stroke:#A80036;stroke-width:1.0499999999999998;" width="274.4" x="170.1" y="66.5"/><ellipse cx="253.925" cy="77.7" fill="#ADD1B2" rx="7.7" ry="7.7" style="stroke:#A80036;stroke-width:0.6999999999999998;"/><path d="M255.325,75.25 Q255.4672,74.9 255.6312,74.725 Q255.7953,74.55 255.9812,74.55 Q256.3094,74.55 256.5172,74.7469 Q256.725,74.9437 256.725,75.4031 L256.725,76.4969 Q256.725,76.9562 256.5281,77.1531 Q256.3312,77.35 256.025,77.35 Q255.7516,77.35 255.5766,77.2297 Q255.4016,77.1094 255.325,76.7922 Q255.2922,76.5734 255.1719,76.4531 Q254.9531,76.2234 254.5594,76.0922 Q254.1656,75.95 253.7719,75.95 Q253.2797,75.95 252.8641,76.1469 Q252.4594,76.3437 252.1422,76.7812 Q251.825,77.2187 251.825,77.8203 L251.825,78.4656 Q251.825,79.1875 252.4156,79.6687 Q253.0062,80.15 254.0562,80.15 Q254.6797,80.15 255.1172,80.0078 Q255.3687,79.9312 255.6531,79.6797 Q255.8391,79.5375 255.9375,79.4937 Q256.0359,79.45 256.1562,79.45 Q256.3859,79.45 256.55,79.6359 Q256.725,79.8109 256.725,80.0625 Q256.725,80.3031 256.4844,80.5875 Q256.1344,81.0031 255.5766,81.2328 Q254.8437,81.55 253.9469,81.55 Q252.8969,81.55 252.0547,81.1344 Q251.3766,80.8062 250.8953,80.0953 Q250.425,79.3844 250.425,78.5422 L250.425,77.7766 Q250.425,76.9016 250.8406,76.1359 Q251.2672,75.3703 252,74.9656 Q252.7437,74.55 253.575,74.55 Q254.0781,74.55 254.5156,74.725 Q254.9531,74.9 255.325,75.25 Z " fill="#000000"/><text fill="#000000" font-family="sans-serif" font-size="8.4" lengthAdjust="spacing" textLength="100.8" x="268.275" y="81.1371">RefineUserStoryController</text><line style="stroke:#A80036;stroke-width:1.0499999999999998;" x1="170.8" x2="443.8" y1="88.9" y2="88.9"/><rect fill="none" height="4.2" style="stroke:#C82930;stroke-width:0.6999999999999998;" width="4.2" x="175.7" y="94.5"/><text fill="#000000" font-family="sans-serif" font-size="7.7" lengthAdjust="spacing" textLength="41.3" x="184.1" y="99.6933">ProjectStore</text><line style="stroke:#A80036;stroke-width:1.0499999999999998;" x1="170.8" x2="443.8" y1="104.1852" y2="104.1852"/><ellipse cx="177.8" cy="111.8852" fill="#84BE84" rx="2.1" ry="2.1" style="stroke:#038048;stroke-width:0.6999999999999998;"/><text fill="#000000" font-family="sans-serif" font-size="7.7" lengthAdjust="spacing" textLength="57.4" x="184.1" y="114.9784">getProjectStore()</text><ellipse cx="177.8" cy="121.5703" fill="#84BE84" rx="2.1" ry="2.1" style="stroke:#038048;stroke-width:0.6999999999999998;"/><text fill="#000000" font-family="sans-serif" font-size="7.7" lengthAdjust="spacing" textLength="135.1" x="184.1" y="124.6636">getProjectProductBackLog(projectCode)</text><ellipse cx="177.8" cy="131.2555" fill="#84BE84" rx="2.1" ry="2.1" style="stroke:#038048;stroke-width:0.6999999999999998;"/><text fill="#000000" font-family="sans-serif" font-size="7.7" lengthAdjust="spacing" textLength="256.2" x="184.1" y="134.3487">refineUserStory(fatherUserStoryID, newUserStoryDescription: List&lt;String&gt;)</text><!--MD5=[41fc1644ffe584d705042db0e6e760e1]
class DataManagement--><rect codeLine="27" fill="#FEFECE" filter="url(#f1e3uf43azodo4)" height="33.6" id="DataManagement" style="stroke:#A80036;stroke-width:1.0499999999999998;" width="91" x="4.9" y="195.3"/><ellipse cx="15.4" cy="206.5" fill="#ADD1B2" rx="7.7" ry="7.7" style="stroke:#A80036;stroke-width:0.6999999999999998;"/><path d="M16.8,204.05 Q16.9422,203.7 17.1062,203.525 Q17.2703,203.35 17.4562,203.35 Q17.7844,203.35 17.9922,203.5469 Q18.2,203.7437 18.2,204.2031 L18.2,205.2969 Q18.2,205.7562 18.0031,205.9531 Q17.8062,206.15 17.5,206.15 Q17.2266,206.15 17.0516,206.0297 Q16.8766,205.9094 16.8,205.5922 Q16.7672,205.3734 16.6469,205.2531 Q16.4281,205.0234 16.0344,204.8922 Q15.6406,204.75 15.2469,204.75 Q14.7547,204.75 14.3391,204.9469 Q13.9344,205.1437 13.6172,205.5812 Q13.3,206.0187 13.3,206.6203 L13.3,207.2656 Q13.3,207.9875 13.8906,208.4687 Q14.4812,208.95 15.5312,208.95 Q16.1547,208.95 16.5922,208.8078 Q16.8437,208.7312 17.1281,208.4797 Q17.3141,208.3375 17.4125,208.2937 Q17.5109,208.25 17.6312,208.25 Q17.8609,208.25 18.025,208.4359 Q18.2,208.6109 18.2,208.8625 Q18.2,209.1031 17.9594,209.3875 Q17.6094,209.8031 17.0516,210.0328 Q16.3187,210.35 15.4219,210.35 Q14.3719,210.35 13.5297,209.9344 Q12.8516,209.6062 12.3703,208.8953 Q11.9,208.1844 11.9,207.3422 L11.9,206.5766 Q11.9,205.7016 12.3156,204.9359 Q12.7422,204.1703 13.475,203.7656 Q14.2187,203.35 15.05,203.35 Q15.5531,203.35 15.9906,203.525 Q16.4281,203.7 16.8,204.05 Z " fill="#000000"/><text fill="#000000" font-family="sans-serif" font-size="8.4" lengthAdjust="spacing" textLength="68.6" x="25.2" y="209.9371">DataManagement</text><line style="stroke:#A80036;stroke-width:1.0499999999999998;" x1="5.6" x2="95.2" y1="217.7" y2="217.7"/><line style="stroke:#A80036;stroke-width:1.0499999999999998;" x1="5.6" x2="95.2" y1="223.3" y2="223.3"/><!--MD5=[0cf43f64de24b70e8ffe65ff9ee7abee]
class ProjectStore--><rect codeLine="29" fill="#FEFECE" filter="url(#f1e3uf43azodo4)" height="52.9703" id="ProjectStore" style="stroke:#A80036;stroke-width:1.0499999999999998;" width="153.3" x="119.35" y="256.9"/><ellipse cx="169.575" cy="268.1" fill="#ADD1B2" rx="7.7" ry="7.7" style="stroke:#A80036;stroke-width:0.6999999999999998;"/><path d="M170.975,265.65 Q171.1172,265.3 171.2812,265.125 Q171.4453,264.95 171.6312,264.95 Q171.9594,264.95 172.1672,265.1469 Q172.375,265.3437 172.375,265.8031 L172.375,266.8969 Q172.375,267.3562 172.1781,267.5531 Q171.9812,267.75 171.675,267.75 Q171.4016,267.75 171.2266,267.6297 Q171.0516,267.5094 170.975,267.1922 Q170.9422,266.9734 170.8219,266.8531 Q170.6031,266.6234 170.2094,266.4922 Q169.8156,266.35 169.4219,266.35 Q168.9297,266.35 168.5141,266.5469 Q168.1094,266.7437 167.7922,267.1812 Q167.475,267.6187 167.475,268.2203 L167.475,268.8656 Q167.475,269.5875 168.0656,270.0687 Q168.6562,270.55 169.7062,270.55 Q170.3297,270.55 170.7672,270.4078 Q171.0187,270.3312 171.3031,270.0797 Q171.4891,269.9375 171.5875,269.8937 Q171.6859,269.85 171.8062,269.85 Q172.0359,269.85 172.2,270.0359 Q172.375,270.2109 172.375,270.4625 Q172.375,270.7031 172.1344,270.9875 Q171.7844,271.4031 171.2266,271.6328 Q170.4937,271.95 169.5969,271.95 Q168.5469,271.95 167.7047,271.5344 Q167.0266,271.2062 166.5453,270.4953 Q166.075,269.7844 166.075,268.9422 L166.075,268.1766 Q166.075,267.3016 166.4906,266.5359 Q166.9172,265.7703 167.65,265.3656 Q168.3937,264.95 169.225,264.95 Q169.7281,264.95 170.1656,265.125 Q170.6031,265.3 170.975,265.65 Z " fill="#000000"/><text fill="#000000" font-family="sans-serif" font-size="8.4" lengthAdjust="spacing" textLength="46.9" x="183.925" y="271.5371">ProjectStore</text><line style="stroke:#A80036;stroke-width:1.0499999999999998;" x1="120.05" x2="271.95" y1="279.3" y2="279.3"/><rect fill="none" height="4.2" style="stroke:#C82930;stroke-width:0.6999999999999998;" width="4.2" x="124.95" y="284.9"/><text fill="#000000" font-family="sans-serif" font-size="7.7" lengthAdjust="spacing" textLength="51.1" x="133.35" y="290.0933">ResourceStore</text><line style="stroke:#A80036;stroke-width:1.0499999999999998;" x1="120.05" x2="271.95" y1="294.5852" y2="294.5852"/><ellipse cx="127.05" cy="302.2852" fill="#84BE84" rx="2.1" ry="2.1" style="stroke:#038048;stroke-width:0.6999999999999998;"/><text fill="#000000" font-family="sans-serif" font-size="7.7" lengthAdjust="spacing" textLength="135.1" x="133.35" y="305.3784">getProjectProductBackLog(projectCode)</text><!--MD5=[79d378210367c0c6ec62ef762ddfbd1b]
class ProjectDeprecated--><rect codeLine="35" fill="#FEFECE" filter="url(#f1e3uf43azodo4)" height="43.2852" id="Project" style="stroke:#A80036;stroke-width:1.0499999999999998;" width="70.7" x="356.65" y="261.8"/><ellipse cx="376.915" cy="273" fill="#ADD1B2" rx="7.7" ry="7.7" style="stroke:#A80036;stroke-width:0.6999999999999998;"/><path d="M378.315,270.55 Q378.4572,270.2 378.6213,270.025 Q378.7853,269.85 378.9712,269.85 Q379.2994,269.85 379.5072,270.0469 Q379.715,270.2437 379.715,270.7031 L379.715,271.7969 Q379.715,272.2562 379.5181,272.4531 Q379.3212,272.65 379.015,272.65 Q378.7416,272.65 378.5666,272.5297 Q378.3916,272.4094 378.315,272.0922 Q378.2822,271.8734 378.1619,271.7531 Q377.9431,271.5234 377.5494,271.3922 Q377.1556,271.25 376.7619,271.25 Q376.2697,271.25 375.8541,271.4469 Q375.4494,271.6437 375.1322,272.0812 Q374.815,272.5187 374.815,273.1203 L374.815,273.7656 Q374.815,274.4875 375.4056,274.9687 Q375.9963,275.45 377.0462,275.45 Q377.6697,275.45 378.1072,275.3078 Q378.3587,275.2312 378.6431,274.9797 Q378.8291,274.8375 378.9275,274.7937 Q379.0259,274.75 379.1462,274.75 Q379.3759,274.75 379.54,274.9359 Q379.715,275.1109 379.715,275.3625 Q379.715,275.6031 379.4744,275.8875 Q379.1244,276.3031 378.5666,276.5328 Q377.8337,276.85 376.9369,276.85 Q375.8869,276.85 375.0447,276.4344 Q374.3666,276.1062 373.8853,275.3953 Q373.415,274.6844 373.415,273.8422 L373.415,273.0766 Q373.415,272.2016 373.8306,271.4359 Q374.2572,270.6703 374.99,270.2656 Q375.7337,269.85 376.565,269.85 Q377.0681,269.85 377.5056,270.025 Q377.9431,270.2 378.315,270.55 Z " fill="#000000"/><text fill="#000000" font-family="sans-serif" font-size="8.4" lengthAdjust="spacing" textLength="26.6" x="388.885" y="276.4371">Project</text><line style="stroke:#A80036;stroke-width:1.0499999999999998;" x1="357.35" x2="426.65" y1="284.2" y2="284.2"/><rect fill="none" height="4.2" style="stroke:#C82930;stroke-width:0.6999999999999998;" width="4.2" x="362.25" y="289.8"/><text fill="#000000" font-family="sans-serif" font-size="7.7" lengthAdjust="spacing" textLength="52.5" x="370.65" y="294.9933">ProductBacklog</text><line style="stroke:#A80036;stroke-width:1.0499999999999998;" x1="357.35" x2="426.65" y1="299.4852" y2="299.4852"/><!--MD5=[91b5dce48d18c73d9cea267c757e6d47]
class ProductBacklog--><rect codeLine="39" fill="#FEFECE" filter="url(#f1e3uf43azodo4)" height="43.2852" id="ProductBacklog" style="stroke:#A80036;stroke-width:1.0499999999999998;" width="149.1" x="402.15" y="366.8"/><ellipse cx="443.625" cy="378" fill="#ADD1B2" rx="7.7" ry="7.7" style="stroke:#A80036;stroke-width:0.6999999999999998;"/><path d="M445.025,375.55 Q445.1672,375.2 445.3312,375.025 Q445.4953,374.85 445.6812,374.85 Q446.0094,374.85 446.2172,375.0469 Q446.425,375.2437 446.425,375.7031 L446.425,376.7969 Q446.425,377.2562 446.2281,377.4531 Q446.0312,377.65 445.725,377.65 Q445.4516,377.65 445.2766,377.5297 Q445.1016,377.4094 445.025,377.0922 Q444.9922,376.8734 444.8719,376.7531 Q444.6531,376.5234 444.2594,376.3922 Q443.8656,376.25 443.4719,376.25 Q442.9797,376.25 442.5641,376.4469 Q442.1594,376.6437 441.8422,377.0812 Q441.525,377.5187 441.525,378.1203 L441.525,378.7656 Q441.525,379.4875 442.1156,379.9687 Q442.7062,380.45 443.7562,380.45 Q444.3797,380.45 444.8172,380.3078 Q445.0687,380.2312 445.3531,379.9797 Q445.5391,379.8375 445.6375,379.7937 Q445.7359,379.75 445.8562,379.75 Q446.0859,379.75 446.25,379.9359 Q446.425,380.1109 446.425,380.3625 Q446.425,380.6031 446.1844,380.8875 Q445.8344,381.3031 445.2766,381.5328 Q444.5437,381.85 443.6469,381.85 Q442.5969,381.85 441.7547,381.4344 Q441.0766,381.1062 440.5953,380.3953 Q440.125,379.6844 440.125,378.8422 L440.125,378.0766 Q440.125,377.2016 440.5406,376.4359 Q440.9672,375.6703 441.7,375.2656 Q442.4437,374.85 443.275,374.85 Q443.7781,374.85 444.2156,375.025 Q444.6531,375.2 445.025,375.55 Z " fill="#000000"/><text fill="#000000" font-family="sans-serif" font-size="8.4" lengthAdjust="spacing" textLength="60.2" x="457.975" y="381.4371">ProductBacklog</text><line style="stroke:#A80036;stroke-width:1.0499999999999998;" x1="402.85" x2="550.55" y1="389.2" y2="389.2"/><line style="stroke:#A80036;stroke-width:1.0499999999999998;" x1="402.85" x2="550.55" y1="394.8" y2="394.8"/><ellipse cx="409.85" cy="402.5" fill="#84BE84" rx="2.1" ry="2.1" style="stroke:#038048;stroke-width:0.6999999999999998;"/><text fill="#000000" font-family="sans-serif" font-size="7.7" lengthAdjust="spacing" textLength="130.9" x="416.15" y="405.5933">create (fatherUserStoryId, description)</text><!--MD5=[daa6dd44d8f60c5a9cd695bb66773862]
class UserStory--><rect fill="#FEFECE" filter="url(#f1e3uf43azodo4)" height="33.6" id="UserStory" style="stroke:#A80036;stroke-width:1.0499999999999998;" width="60.2" x="446.6" y="466.9"/><ellipse cx="457.1" cy="478.1" fill="#ADD1B2" rx="7.7" ry="7.7" style="stroke:#A80036;stroke-width:0.6999999999999998;"/><path d="M458.5,475.65 Q458.6422,475.3 458.8062,475.125 Q458.9703,474.95 459.1562,474.95 Q459.4844,474.95 459.6922,475.1469 Q459.9,475.3437 459.9,475.8031 L459.9,476.8969 Q459.9,477.3562 459.7031,477.5531 Q459.5062,477.75 459.2,477.75 Q458.9266,477.75 458.7516,477.6297 Q458.5766,477.5094 458.5,477.1922 Q458.4672,476.9734 458.3469,476.8531 Q458.1281,476.6234 457.7344,476.4922 Q457.3406,476.35 456.9469,476.35 Q456.4547,476.35 456.0391,476.5469 Q455.6344,476.7437 455.3172,477.1812 Q455,477.6187 455,478.2203 L455,478.8656 Q455,479.5875 455.5906,480.0687 Q456.1812,480.55 457.2312,480.55 Q457.8547,480.55 458.2922,480.4078 Q458.5437,480.3312 458.8281,480.0797 Q459.0141,479.9375 459.1125,479.8937 Q459.2109,479.85 459.3312,479.85 Q459.5609,479.85 459.725,480.0359 Q459.9,480.2109 459.9,480.4625 Q459.9,480.7031 459.6594,480.9875 Q459.3094,481.4031 458.7516,481.6328 Q458.0187,481.95 457.1219,481.95 Q456.0719,481.95 455.2297,481.5344 Q454.5516,481.2062 454.0703,480.4953 Q453.6,479.7844 453.6,478.9422 L453.6,478.1766 Q453.6,477.3016 454.0156,476.5359 Q454.4422,475.7703 455.175,475.3656 Q455.9187,474.95 456.75,474.95 Q457.2531,474.95 457.6906,475.125 Q458.1281,475.3 458.5,475.65 Z " fill="#000000"/><text fill="#000000" font-family="sans-serif" font-size="8.4" lengthAdjust="spacing" textLength="37.8" x="466.9" y="481.5371">UserStory</text><line style="stroke:#A80036;stroke-width:1.0499999999999998;" x1="447.3" x2="506.1" y1="489.3" y2="489.3"/><line style="stroke:#A80036;stroke-width:1.0499999999999998;" x1="447.3" x2="506.1" y1="494.9" y2="494.9"/><!--MD5=[54bde491131377ffa4c9ad0534faf727]
link RefineUserStoryUI to RefineUserStoryController--><path codeLine="4" d="M307.3,38.668 C307.3,46.662 307.3,56.623 307.3,66.255 " fill="none" id="RefineUserStoryUI-RefineUserStoryController" style="stroke:#A80036;stroke-width:0.6999999999999998;stroke-dasharray:7.0,7.0;"/><!--MD5=[5bbf1950538119acd93e9c4cd7199a04]
link RefineUserStoryController to DataManagement--><path codeLine="5" d="M223.181,138.663 C179.235,157.164 127.4,178.983 92.05,193.865 " fill="none" id="RefineUserStoryController-to-DataManagement" style="stroke:#A80036;stroke-width:0.6999999999999998;"/><polygon fill="#A80036" points="88.676,195.286,95.569,195.4142,91.9002,193.9242,93.3902,190.2554,88.676,195.286" style="stroke:#A80036;stroke-width:0.6999999999999998;"/><text fill="#000000" font-family="sans-serif" font-size="9.1" lengthAdjust="spacing" textLength="70" x="19.5155" y="187.8205">dataManagement</text><!--MD5=[e49256ec62a64c0e2589668b84841744]
link DataManagement to ProjectStore--><path codeLine="6" d="M83.986,228.949 C100.261,236.775 120.26,246.386 138.838,255.318 " fill="none" id="DataManagement-to-ProjectStore" style="stroke:#A80036;stroke-width:0.6999999999999998;"/><polygon fill="#A80036" points="142.051,256.858,137.5874,251.6039,138.8969,255.3408,135.1599,256.6504,142.051,256.858" style="stroke:#A80036;stroke-width:0.6999999999999998;"/><text fill="#000000" font-family="sans-serif" font-size="9.1" lengthAdjust="spacing" textLength="4.9" x="86.6754" y="243.8975">1</text><text fill="#000000" font-family="sans-serif" font-size="9.1" lengthAdjust="spacing" textLength="49.7" x="77.8224" y="249.2038">projectList 1</text><!--MD5=[c2999c5e21c0a7115ef87c36c02875b6]
reverse link ProjectStore to ProjectDeprecated--><path codeLine="7" d="M281.925,283.5 C306.817,283.5 331.709,283.5 356.601,283.5 " fill="none" id="ProjectStore-backto-Project" style="stroke:#A80036;stroke-width:0.6999999999999998;"/><polygon fill="#A80036" points="272.755,283.5,276.955,286.3,281.155,283.5,276.955,280.7,272.755,283.5" style="stroke:#A80036;stroke-width:0.6999999999999998;"/><text fill="#000000" font-family="sans-serif" font-size="9.1" lengthAdjust="spacing" textLength="41.3" x="309.8254" y="281.23">projectDeprecated 1.*</text><!--MD5=[868e6210cdc75e78e8694e6fd913d8bb]
link RefineUserStoryController to ProductBacklog--><path codeLine="9" d="M444.577,113.316 C504.518,126 561.4,153.328 561.4,211.4 C561.4,211.4 561.4,211.4 561.4,284.2 C561.4,317.464 534.905,345.926 511.553,364.553 " fill="none" id="RefineUserStoryController-to-ProductBacklog" style="stroke:#A80036;stroke-width:0.6999999999999998;stroke-dasharray:7.0,7.0;"/><polygon fill="#A80036" points="508.718,366.772,515.402,365.0825,511.4705,364.6101,511.9429,360.6786,508.718,366.772" style="stroke:#A80036;stroke-width:0.6999999999999998;"/><!--MD5=[adb9795883a800001a4aef25a36b5e40]
link RefineUserStoryController to ProjectStore--><path codeLine="10" d="M285.313,138.726 C264.446,172.382 233.464,222.362 214.018,253.736 " fill="none" id="RefineUserStoryController-to-ProjectStore" style="stroke:#A80036;stroke-width:0.6999999999999998;stroke-dasharray:7.0,7.0;"/><polygon fill="#A80036" points="212.17,256.711,217.8623,252.8215,214.0088,253.7329,213.0974,249.8795,212.17,256.711" style="stroke:#A80036;stroke-width:0.6999999999999998;"/><!--MD5=[8d24198515b9e58281be77fdc721f329]
link RefineUserStoryController to ProjectDeprecated--><path codeLine="11" d="M324.037,138.726 C340.732,174.125 365.946,227.57 380.506,258.44 " fill="none" id="RefineUserStoryController-to-Project" style="stroke:#A80036;stroke-width:0.6999999999999998;stroke-dasharray:7.0,7.0;"/><polygon fill="#A80036" points="382.053,261.723,381.8987,254.8305,380.5603,258.5573,376.8336,257.2188,382.053,261.723" style="stroke:#A80036;stroke-width:0.6999999999999998;"/><!--MD5=[da621f2c22940e0851cb37e196c44e0e]
reverse link ProductBacklog to UserStory--><path codeLine="13" d="M476.7,419.566 C476.7,435.232 476.7,453.719 476.7,466.683 " fill="none" id="ProductBacklog-backto-UserStory" style="stroke:#A80036;stroke-width:0.6999999999999998;"/><polygon fill="#FFFFFF" points="476.7,410.249,473.9,414.449,476.7,418.649,479.5,414.449,476.7,410.249" style="stroke:#A80036;stroke-width:0.6999999999999998;"/><text fill="#000000" font-family="sans-serif" font-size="9.1" lengthAdjust="spacing" textLength="54.6" x="415.1044" y="459.1655">user story 0.*</text><!--MD5=[2dee92360f00b603e7ba5f8f02cfe98b]
reverse link ProjectDeprecated to ProductBacklog--><path codeLine="14" d="M415.114,312.466 C429.135,329.623 446.733,351.148 459.522,366.793 " fill="none" id="Project-backto-ProductBacklog" style="stroke:#A80036;stroke-width:0.6999999999999998;"/><polygon fill="#A80036" points="409.346,305.417,409.835,310.441,414.6607,311.9219,414.1717,306.8979,409.346,305.417" style="stroke:#A80036;stroke-width:0.6999999999999998;"/><text fill="#000000" font-family="sans-serif" font-size="9.1" lengthAdjust="spacing" textLength="4.9" x="407.2855" y="320.1434">1</text><text fill="#000000" font-family="sans-serif" font-size="9.1" lengthAdjust="spacing" textLength="76.3" x="371.119" y="359.1057">productBackLog  1</text><!--MD5=[4ca272f80b7a345c4e182445e4edbef6]
@startuml
'https://plantuml.com/class-diagram


RefineUserStoryUI .. RefineUserStoryController
RefineUserStoryController - - ->"dataManagement" DataManagement
DataManagement "1"- ->"projectList 1" ProjectStore
ProjectStore *- - -right- - -" projectDeprecated 1.*" ProjectDeprecated

RefineUserStoryController ..> ProductBacklog
RefineUserStoryController ..> ProjectStore
RefineUserStoryController ..> ProjectDeprecated

ProductBacklog o- - -"user story 0.*" UserStory
ProjectDeprecated "1"*- - -"productBackLog  1" ProductBacklog
class RefineUserStoryUI {

}

class RefineUserStoryController {
-ProjectStore

+getProjectStore()
+getProjectProductBackLog(projectCode)
+refineUserStory(fatherUserStoryID, newUserStoryDescription: List<String>)
}

class DataManagement{}

class ProjectStore{
-ResourceStore

+getProjectProductBackLog(projectCode)
}

class ProjectDeprecated{
-ProductBacklog
}

class ProductBacklog{


+create (fatherUserStoryId, projectDescription)
}

skinparam nodesep 120

skinparam ranksep 40


@enduml

@startuml


RefineUserStoryUI .. RefineUserStoryController
RefineUserStoryController - - ->"dataManagement" DataManagement
DataManagement "1"- ->"projectList 1" ProjectStore
ProjectStore *- - -right- - -" projectDeprecated 1.*" ProjectDeprecated

RefineUserStoryController ..> ProductBacklog
RefineUserStoryController ..> ProjectStore
RefineUserStoryController ..> ProjectDeprecated

ProductBacklog o- - -"user story 0.*" UserStory
ProjectDeprecated "1"*- - -"productBackLog  1" ProductBacklog
class RefineUserStoryUI {

}

class RefineUserStoryController {
-ProjectStore

+getProjectStore()
+getProjectProductBackLog(projectCode)
+refineUserStory(fatherUserStoryID, newUserStoryDescription: List<String>)
}

class DataManagement{}

class ProjectStore{
-ResourceStore

+getProjectProductBackLog(projectCode)
}

class ProjectDeprecated{
-ProductBacklog
}

class ProductBacklog{


+create (fatherUserStoryId, projectDescription)
}

skinparam nodesep 120

skinparam ranksep 40


@enduml

PlantUML version 1.2022.0(Tue Jan 11 16:16:42 GMT 2022)
(GPL source distribution)
Java Runtime: OpenJDK Runtime Environment
JVM: OpenJDK 64-Bit Server VM
Default Encoding: Cp1252
Language: pt
Country: PT
--></g></svg>