<?xml version="1.0" encoding="UTF-8" standalone="no"?><svg xmlns="http://www.w3.org/2000/svg" xmlns:xlink="http://www.w3.org/1999/xlink" contentScriptType="application/ecmascript" contentStyleType="text/css" height="436px" preserveAspectRatio="none" style="width:810px;height:436px;background:#FFFFFF;" version="1.1" viewBox="0 0 810 436" width="810px" zoomAndPan="magnify"><defs><filter height="300%" id="fbp8lo05kh6nf" width="300%" x="-1" y="-1"><feGaussianBlur result="blurOut" stdDeviation="2.0"/><feColorMatrix in="blurOut" result="blurOut2" type="matrix" values="0 0 0 0 0 0 0 0 0 0 0 0 0 0 0 0 0 0 .4 0"/><feOffset dx="4.0" dy="4.0" in="blurOut2" result="blurOut3"/><feBlend in="SourceGraphic" in2="blurOut3" mode="normal"/></filter></defs><g><!--MD5=[99b31deea5d7419a569cd5090bf83263]
cluster System--><rect fill="#FFFFFF" filter="url(#fbp8lo05kh6nf)" height="417" style="stroke:#000000;stroke-width:1.5;" width="610" x="188" y="7"/><text fill="#000000" font-family="sans-serif" font-size="14" font-weight="bold" lengthAdjust="spacing" textLength="50" x="468" y="23.5332">System</text><ellipse cx="332.0083" cy="71.0017" fill="#FEFECE" filter="url(#fbp8lo05kh6nf)" rx="128.0083" ry="28.0017" style="stroke:#A80036;stroke-width:1.5;"/><text fill="#000000" font-family="sans-serif" font-size="14" lengthAdjust="spacing" textLength="222" x="221.0083" y="74.7302">Get List of Projects based on PO Id</text><ellipse cx="672.457" cy="135.7914" fill="#FEFECE" filter="url(#fbp8lo05kh6nf)" rx="69.457" ry="16.2914" style="stroke:#A80036;stroke-width:1.5;"/><text fill="#000000" font-family="sans-serif" font-size="14" lengthAdjust="spacing" textLength="86" x="626.457" y="140.308">Verify Role ID</text><ellipse cx="672.6163" cy="65.1233" fill="#FEFECE" filter="url(#fbp8lo05kh6nf)" rx="86.1163" ry="19.6233" style="stroke:#A80036;stroke-width:1.5;"/><text fill="#000000" font-family="sans-serif" font-size="14" lengthAdjust="spacing" textLength="129" x="608.1163" y="68.8518">Display Project error</text><ellipse cx="331.8041" cy="150.8608" fill="#FEFECE" filter="url(#fbp8lo05kh6nf)" rx="69.8041" ry="16.3608" style="stroke:#A80036;stroke-width:1.5;"/><text fill="#000000" font-family="sans-serif" font-size="14" lengthAdjust="spacing" textLength="87" x="285.3041" y="155.3774">Select Project</text><ellipse cx="332.0408" cy="222.2082" fill="#FEFECE" filter="url(#fbp8lo05kh6nf)" rx="86.5408" ry="19.7082" style="stroke:#A80036;stroke-width:1.5;"/><text fill="#000000" font-family="sans-serif" font-size="14" lengthAdjust="spacing" textLength="130" x="267.0408" y="225.9367">Get Product Backlog</text><ellipse cx="332.1965" cy="297.2393" fill="#FEFECE" filter="url(#fbp8lo05kh6nf)" rx="91.6965" ry="20.7393" style="stroke:#A80036;stroke-width:1.5;"/><text fill="#000000" font-family="sans-serif" font-size="14" lengthAdjust="spacing" textLength="142" x="261.1965" y="300.9678">Create new User Story</text><ellipse cx="672.5226" cy="339.8045" fill="#FEFECE" filter="url(#fbp8lo05kh6nf)" rx="109.5226" ry="24.3045" style="stroke:#A80036;stroke-width:1.5;"/><text fill="#000000" font-family="sans-serif" font-size="14" lengthAdjust="spacing" textLength="182" x="581.5226" y="343.533">Verify User Story Descriprion</text><ellipse cx="672.5702" cy="259.114" fill="#FEFECE" filter="url(#fbp8lo05kh6nf)" rx="96.0702" ry="21.614" style="stroke:#A80036;stroke-width:1.5;"/><text fill="#000000" font-family="sans-serif" font-size="14" lengthAdjust="spacing" textLength="152" x="596.5702" y="262.8426">Display User Story Error</text><ellipse cx="332.1384" cy="380.1277" fill="#FEFECE" filter="url(#fbp8lo05kh6nf)" rx="126.1384" ry="27.6277" style="stroke:#A80036;stroke-width:1.5;"/><text fill="#000000" font-family="sans-serif" font-size="14" lengthAdjust="spacing" textLength="218" x="223.1384" y="383.8562">Add User Story to Product Backlog</text><!--MD5=[fee662a292a0353a69bd162820bae93b]
entity User--><ellipse cx="73.5" cy="190" fill="#FEFECE" filter="url(#fbp8lo05kh6nf)" rx="8" ry="8" style="stroke:#A80036;stroke-width:1.5;"/><path d="M73.5,198 L73.5,225 M60.5,206 L86.5,206 M73.5,225 L60.5,240 M73.5,225 L86.5,240 " fill="none" filter="url(#fbp8lo05kh6nf)" style="stroke:#A80036;stroke-width:1.5;"/><text fill="#000000" font-family="sans-serif" font-size="14" lengthAdjust="spacing" textLength="135" x="6" y="260.0332">PO/SM/TeamMember</text><!--MD5=[7522d5c5799d0652da24a5d0145a519b]
link User to US1--><path d="M107.56,180.43 C126.69,158.81 152.39,133.52 180,117 C197.02,106.81 216.48,98.71 235.64,92.33 " fill="none" id="User-to-US1" style="stroke:#A80036;stroke-width:1.0;"/><polygon fill="#A80036" points="240.51,90.74,230.7122,89.7382,235.7581,92.2954,233.2009,97.3413,240.51,90.74" style="stroke:#A80036;stroke-width:1.0;"/><!--MD5=[77a3ecafd659c70014eb396bba1a35d1]
link US1 to US2--><path d="M428.64,89.37 C487.8,100.73 561.87,114.95 612.55,124.68 " fill="none" id="US1-to-US2" style="stroke:#A80036;stroke-width:1.0;stroke-dasharray:7.0,7.0;"/><polygon fill="#A80036" points="617.69,125.67,609.6079,120.0415,612.7801,124.7252,608.0963,127.8974,617.69,125.67" style="stroke:#A80036;stroke-width:1.0;"/><text fill="#000000" font-family="sans-serif" font-size="13" lengthAdjust="spacing" textLength="41" x="491" y="98.4951">include</text><!--MD5=[00c5be5c687b1b6eaf5c8d446051cb63]
reverse link US1 to US3--><path d="M465.48,68.65 C506.26,67.93 550.02,67.15 586.68,66.5 " fill="none" id="US1-backto-US3" style="stroke:#A80036;stroke-width:1.0;stroke-dasharray:7.0,7.0;"/><polygon fill="#A80036" points="460.01,68.75,469.0772,72.5951,465.0093,68.6643,468.9401,64.5963,460.01,68.75" style="stroke:#A80036;stroke-width:1.0;"/><text fill="#000000" font-family="sans-serif" font-size="13" lengthAdjust="spacing" textLength="39" x="492" y="64.4951">extend</text><!--MD5=[447a4efe17a22d68cd6b8a681c348111]
link User to US4--><path d="M141.1,197.33 C153.92,192.96 167.31,188.64 180,185 C210.15,176.35 244.2,168.52 272.33,162.56 " fill="none" id="User-to-US4" style="stroke:#A80036;stroke-width:1.0;"/><polygon fill="#A80036" points="277.51,161.47,267.879,159.4099,272.6173,162.5001,269.5271,167.2383,277.51,161.47" style="stroke:#A80036;stroke-width:1.0;"/><!--MD5=[03cc136bda8a1e00ade5b19e82dd6082]
link User to US5--><path d="M141.22,222 C171.38,222 207.47,222 240.05,222 " fill="none" id="User-to-US5" style="stroke:#A80036;stroke-width:1.0;"/><polygon fill="#A80036" points="245.25,222,236.25,218,240.25,222,236.25,226,245.25,222" style="stroke:#A80036;stroke-width:1.0;"/><!--MD5=[662812c48a83b30bd2afcca62c080ca7]
link User to US6--><path d="M141.17,246.41 C153.99,250.81 167.36,255.2 180,259 C206.7,267.02 236.39,274.75 262.33,281.11 " fill="none" id="User-to-US6" style="stroke:#A80036;stroke-width:1.0;"/><polygon fill="#A80036" points="267.47,282.37,259.6921,276.3281,262.6159,281.1708,257.7733,284.0946,267.47,282.37" style="stroke:#A80036;stroke-width:1.0;"/><!--MD5=[13b616d7972613a6713e71fd25e54953]
link US6 to US6.1--><path d="M411.94,307.03 C459.53,313.07 520.6,320.83 571.55,327.3 " fill="none" id="US6-to-US6.1" style="stroke:#A80036;stroke-width:1.0;stroke-dasharray:7.0,7.0;"/><polygon fill="#A80036" points="576.76,327.97,568.3347,322.8696,571.7997,327.341,567.3283,330.8061,576.76,327.97" style="stroke:#A80036;stroke-width:1.0;"/><text fill="#000000" font-family="sans-serif" font-size="13" lengthAdjust="spacing" textLength="41" x="491" y="314.4951">include</text><!--MD5=[6e6a33e1cd3c2137759865b12b41d8ad]
reverse link US6 to US6.2--><path d="M419.31,287.31 C470.57,281.56 535.31,274.29 586.36,268.56 " fill="none" id="US6-backto-US6.2" style="stroke:#A80036;stroke-width:1.0;stroke-dasharray:7.0,7.0;"/><polygon fill="#A80036" points="414.08,287.9,423.4695,290.8728,419.0489,287.3431,422.5785,282.9225,414.08,287.9" style="stroke:#A80036;stroke-width:1.0;"/><text fill="#000000" font-family="sans-serif" font-size="13" lengthAdjust="spacing" textLength="39" x="492" y="271.4951">extend</text><!--MD5=[a771586f10297b31a4af9a552316608a]
link User to US7--><path d="M104.24,263.55 C123.39,287.55 150.23,316.55 180,335 C196.61,345.29 215.71,353.35 234.62,359.61 " fill="none" id="User-to-US7" style="stroke:#A80036;stroke-width:1.0;"/><polygon fill="#A80036" points="239.42,361.16,232.0751,354.5985,234.6597,359.6304,229.6278,362.215,239.42,361.16" style="stroke:#A80036;stroke-width:1.0;"/><!--MD5=[9aec24774307ee98b45f2745750d24ce]
@startuml
'https://plantuml.com/use-case-diagram

left to right direction
:PO/SM/TeamMember: as User
rectangle System{
    usecase "Get List of Projects based on PO Id" as US1
    usecase "Verify Role ID" as US2
    usecase "Display ProjectDeprecated error" as US3
    usecase "Select ProjectDeprecated" as US4
    usecase "Get Product Backlog" as US5
    usecase "Create new User Story" as US6
    usecase "Verify User Story Descriprion" as US6.1
    usecase "Display User Story Error" as US6.2
    usecase "Add User Story to Product Backlog" as US7
}
User - -> US1
US1 ..> US2 : include
US1 <.. US3 : extend
User - -> US4

User - -> US5
User - -> US6
US6 ..> US6.1 : include
US6 <..US6.2 : extend
User - -> US7

@enduml

@startuml

left to right direction
:PO/SM/TeamMember: as User
rectangle System{
    usecase "Get List of Projects based on PO Id" as US1
    usecase "Verify Role ID" as US2
    usecase "Display ProjectDeprecated error" as US3
    usecase "Select ProjectDeprecated" as US4
    usecase "Get Product Backlog" as US5
    usecase "Create new User Story" as US6
    usecase "Verify User Story Descriprion" as US6.1
    usecase "Display User Story Error" as US6.2
    usecase "Add User Story to Product Backlog" as US7
}
User - -> US1
US1 ..> US2 : include
US1 <.. US3 : extend
User - -> US4

User - -> US5
User - -> US6
US6 ..> US6.1 : include
US6 <..US6.2 : extend
User - -> US7

@enduml

PlantUML version 1.2022.0(Tue Jan 11 16:16:42 GMT 2022)
(GPL source distribution)
Java Runtime: OpenJDK Runtime Environment
JVM: OpenJDK 64-Bit Server VM
Default Encoding: Cp1252
Language: en
Country: GB
--></g></svg>