<?xml version="1.0" encoding="UTF-8" standalone="no"?><svg xmlns="http://www.w3.org/2000/svg" xmlns:xlink="http://www.w3.org/1999/xlink" contentScriptType="application/ecmascript" contentStyleType="text/css" height="397px" preserveAspectRatio="none" style="width:450px;height:397px;background:#FFFFFF;" version="1.1" viewBox="0 0 450 397" width="450px" zoomAndPan="magnify"><defs><filter height="300%" id="f19es48wblsae9" width="300%" x="-1" y="-1"><feGaussianBlur result="blurOut" stdDeviation="2.0"/><feColorMatrix in="blurOut" result="blurOut2" type="matrix" values="0 0 0 0 0 0 0 0 0 0 0 0 0 0 0 0 0 0 .4 0"/><feOffset dx="4.0" dy="4.0" in="blurOut2" result="blurOut3"/><feBlend in="SourceGraphic" in2="blurOut3" mode="normal"/></filter></defs><g><text fill="#000000" font-family="sans-serif" font-size="18" lengthAdjust="spacing" textLength="327" x="59" y="58.8418">System Sequence Diagram of the US007</text><rect fill="#FFFFFF" filter="url(#f19es48wblsae9)" height="60.7031" style="stroke:#FFFFFF;stroke-width:1.0;" width="10" x="28" y="192.4063"/><line style="stroke:#383838;stroke-width:1.0;" x1="28" x2="28" y1="192.4063" y2="253.1094"/><line style="stroke:#383838;stroke-width:1.0;" x1="38" x2="38" y1="192.4063" y2="253.1094"/><line style="stroke:#383838;stroke-width:1.0;" x1="28" x2="38" y1="192.4063" y2="192.4063"/><rect fill="#FFFFFF" filter="url(#f19es48wblsae9)" height="1" style="stroke:#FFFFFF;stroke-width:1.0;" width="10" x="28" y="281.1094"/><line style="stroke:#383838;stroke-width:1.0;" x1="28" x2="28" y1="281.1094" y2="282.1094"/><line style="stroke:#383838;stroke-width:1.0;" x1="38" x2="38" y1="281.1094" y2="282.1094"/><rect fill="#FFFFFF" filter="url(#f19es48wblsae9)" height="30.3516" style="stroke:#383838;stroke-width:1.0;" width="10" x="401" y="214.7578"/><line style="stroke:#383838;stroke-width:1.0;" x1="33" x2="33" y1="154.4063" y2="164.4063"/><line style="stroke:#383838;stroke-width:1.0;stroke-dasharray:1.0,4.0;" x1="33" x2="33" y1="164.4063" y2="192.4063"/><line style="stroke:#383838;stroke-width:1.0;" x1="33" x2="33" y1="192.4063" y2="253.1094"/><line style="stroke:#383838;stroke-width:1.0;stroke-dasharray:1.0,4.0;" x1="33" x2="33" y1="253.1094" y2="281.1094"/><line style="stroke:#383838;stroke-width:1.0;" x1="33" x2="33" y1="281.1094" y2="291.1094"/><line style="stroke:#383838;stroke-width:1.0;" x1="406" x2="406" y1="154.4063" y2="164.4063"/><line style="stroke:#383838;stroke-width:1.0;stroke-dasharray:1.0,4.0;" x1="406" x2="406" y1="164.4063" y2="192.4063"/><line style="stroke:#383838;stroke-width:1.0;" x1="406" x2="406" y1="192.4063" y2="253.1094"/><line style="stroke:#383838;stroke-width:1.0;stroke-dasharray:1.0,4.0;" x1="406" x2="406" y1="253.1094" y2="281.1094"/><line style="stroke:#383838;stroke-width:1.0;" x1="406" x2="406" y1="281.1094" y2="291.1094"/><text fill="#000000" font-family="sans-serif" font-size="14" lengthAdjust="spacing" textLength="50" x="5" y="151.3301">Director</text><ellipse cx="33" cy="79.7969" fill="#F8F8F8" filter="url(#f19es48wblsae9)" rx="8" ry="8" style="stroke:#383838;stroke-width:2.0;"/><path d="M33,87.7969 L33,114.7969 M20,95.7969 L46,95.7969 M33,114.7969 L20,129.7969 M33,114.7969 L46,129.7969 " fill="none" filter="url(#f19es48wblsae9)" style="stroke:#383838;stroke-width:2.0;"/><text fill="#000000" font-family="sans-serif" font-size="14" lengthAdjust="spacing" textLength="50" x="5" y="304.6426">Director</text><ellipse cx="33" cy="317.7188" fill="#F8F8F8" filter="url(#f19es48wblsae9)" rx="8" ry="8" style="stroke:#383838;stroke-width:2.0;"/><path d="M33,325.7188 L33,352.7188 M20,333.7188 L46,333.7188 M33,352.7188 L20,367.7188 M33,352.7188 L46,367.7188 " fill="none" filter="url(#f19es48wblsae9)" style="stroke:#383838;stroke-width:2.0;"/><rect fill="#F8F8F8" filter="url(#f19es48wblsae9)" height="31.6094" style="stroke:#383838;stroke-width:1.5;" width="64" x="372" y="117.7969"/><text fill="#000000" font-family="sans-serif" font-size="14" lengthAdjust="spacing" textLength="50" x="379" y="139.3301">:System</text><rect fill="#F8F8F8" filter="url(#f19es48wblsae9)" height="31.6094" style="stroke:#383838;stroke-width:1.5;" width="64" x="372" y="290.1094"/><text fill="#000000" font-family="sans-serif" font-size="14" lengthAdjust="spacing" textLength="50" x="379" y="311.6426">:System</text><rect fill="#FFFFFF" filter="url(#f19es48wblsae9)" height="60.7031" style="stroke:#FFFFFF;stroke-width:1.0;" width="10" x="28" y="192.4063"/><line style="stroke:#383838;stroke-width:1.0;" x1="28" x2="28" y1="192.4063" y2="253.1094"/><line style="stroke:#383838;stroke-width:1.0;" x1="38" x2="38" y1="192.4063" y2="253.1094"/><line style="stroke:#383838;stroke-width:1.0;" x1="28" x2="38" y1="192.4063" y2="192.4063"/><rect fill="#FFFFFF" filter="url(#f19es48wblsae9)" height="1" style="stroke:#FFFFFF;stroke-width:1.0;" width="10" x="28" y="281.1094"/><line style="stroke:#383838;stroke-width:1.0;" x1="28" x2="28" y1="281.1094" y2="282.1094"/><line style="stroke:#383838;stroke-width:1.0;" x1="38" x2="38" y1="281.1094" y2="282.1094"/><rect fill="#FFFFFF" filter="url(#f19es48wblsae9)" height="30.3516" style="stroke:#383838;stroke-width:1.0;" width="10" x="401" y="214.7578"/><polygon fill="#383838" points="389,210.7578,399,214.7578,389,218.7578,393,214.7578" style="stroke:#383838;stroke-width:1.0;"/><line style="stroke:#383838;stroke-width:1.0;" x1="38" x2="395" y1="214.7578" y2="214.7578"/><text fill="#000000" font-family="sans-serif" font-size="13" font-weight="bold" lengthAdjust="spacing" textLength="7" x="45" y="209.9014">1</text><text fill="#000000" font-family="sans-serif" font-size="13" lengthAdjust="spacing" textLength="333" x="56" y="209.9014">Add a resource to the projectDeprecated (projectCode, resourceDTO)</text><polygon fill="#383838" points="49,241.1094,39,245.1094,49,249.1094,45,245.1094" style="stroke:#383838;stroke-width:1.0;"/><line style="stroke:#383838;stroke-width:1.0;stroke-dasharray:2.0,2.0;" x1="43" x2="405" y1="245.1094" y2="245.1094"/><text fill="#000000" font-family="sans-serif" font-size="13" font-weight="bold" lengthAdjust="spacing" textLength="7" x="55" y="240.2529">2</text><text fill="#000000" font-family="sans-serif" font-size="13" lengthAdjust="spacing" textLength="255" x="66" y="240.2529">Resource has been successfully associated</text><text fill="#888888" font-family="sans-serif" font-size="10" lengthAdjust="spacing" textLength="129" x="158" y="15.3809">System Sequence Diagram</text><text fill="#888888" font-family="sans-serif" font-size="10" lengthAdjust="spacing" textLength="320" x="62.5" y="27.959">As Director, I want to associate a human resource (user) to a projectDeprecated.</text><text fill="#888888" font-family="sans-serif" font-size="10" lengthAdjust="spacing" textLength="36" x="204.5" y="389.0996">SWitCH</text><!--MD5=[b903d690271b68560d389cc2aa224baa]
@startuml
'https://plantuml.com/sequence-diagram

skinparam monochrome true

title System Sequence Diagram of the US007
center header
System Sequence Diagram
As Director, I want to associate a human resource (user) to a projectDeprecated.
endheader
center footer SWitCH

autoactivate on
autonumber

actor "Director" as User
participant ":System" as System

activate User

...
User -> System: Add a resource to the projectDeprecated (projectCode, resourceDTO)
System - -> User: Resource has been successfully associated
...

@enduml

@startuml

skinparam monochrome true

title System Sequence Diagram of the US007
center header
System Sequence Diagram
As Director, I want to associate a human resource (user) to a projectDeprecated.
endheader
center footer SWitCH

autoactivate on
autonumber

actor "Director" as User
participant ":System" as System

activate User

...
User -> System: Add a resource to the projectDeprecated (projectCode, resourceDTO)
System - -> User: Resource has been successfully associated
...

@enduml

PlantUML version 1.2022.1(Tue Feb 01 18:19:58 GMT 2022)
(GPL source distribution)
Java Runtime: OpenJDK Runtime Environment
JVM: OpenJDK 64-Bit Server VM
Default Encoding: Cp1252
Language: en
Country: US
--></g></svg>