<?xml version="1.0" encoding="UTF-8" standalone="no"?><svg xmlns="http://www.w3.org/2000/svg" xmlns:xlink="http://www.w3.org/1999/xlink" contentScriptType="application/ecmascript" contentStyleType="text/css" height="215.1px" preserveAspectRatio="none" style="width:540px;height:215px;background:#FFFFFF;" version="1.1" viewBox="0 0 540 215" width="540.9px" zoomAndPan="magnify"><defs><filter height="300%" id="f189pjk74q24nz" width="300%" x="-1" y="-1"><feGaussianBlur result="blurOut" stdDeviation="1.8"/><feColorMatrix in="blurOut" result="blurOut2" type="matrix" values="0 0 0 0 0 0 0 0 0 0 0 0 0 0 0 0 0 0 .4 0"/><feOffset dx="3.6" dy="3.6" in="blurOut2" result="blurOut3"/><feBlend in="SourceGraphic" in2="blurOut3" mode="normal"/></filter></defs><g><!--MD5=[99b31deea5d7419a569cd5090bf83263]
cluster System--><polygon fill="#FFFFFF" filter="url(#f189pjk74q24nz)" points="129.6,5.4,180,5.4,186.3,26.6484,525.6,26.6484,525.6,208.8,129.6,208.8,129.6,5.4" style="stroke:#000000;stroke-width:1.35;"/><line style="stroke:#000000;stroke-width:1.35;" x1="129.6" x2="186.3" y1="26.6484" y2="26.6484"/><text fill="#000000" font-family="sans-serif" font-size="12.6" font-weight="bold" lengthAdjust="spacing" textLength="45" x="133.2" y="20.2799">System</text><ellipse cx="216.9873" cy="55.0075" fill="#FEFECE" filter="url(#f189pjk74q24nz)" rx="72.9873" ry="16.7575" style="stroke:#A80036;stroke-width:1.35;"/><text fill="#000000" font-family="sans-serif" font-size="12.6" lengthAdjust="spacing" textLength="105.3" x="163.8758" y="58.4983">Insert projectDeprecated code</text><ellipse cx="216.9036" cy="117.9007" fill="#FEFECE" filter="url(#f189pjk74q24nz)" rx="63.4536" ry="14.8507" style="stroke:#A80036;stroke-width:1.35;"/><text fill="#000000" font-family="sans-serif" font-size="12.6" lengthAdjust="spacing" textLength="80.1" x="174.1536" y="121.9657">Insert sprint id</text><ellipse cx="216.7237" cy="178.9747" fill="#FEFECE" filter="url(#f189pjk74q24nz)" rx="62.8237" ry="14.7247" style="stroke:#A80036;stroke-width:1.35;"/><text fill="#000000" font-family="sans-serif" font-size="12.6" lengthAdjust="spacing" textLength="78.3" x="174.8737" y="183.0397">START Sprint</text><ellipse cx="446.911" cy="165.7922" fill="#FEFECE" filter="url(#f189pjk74q24nz)" rx="64.411" ry="15.0422" style="stroke:#A80036;stroke-width:1.35;"/><text fill="#000000" font-family="sans-serif" font-size="12.6" lengthAdjust="spacing" textLength="82.8" x="402.811" y="169.8571">List of projects</text><ellipse cx="446.6419" cy="104.5384" fill="#FEFECE" filter="url(#f189pjk74q24nz)" rx="61.8919" ry="14.5384" style="stroke:#A80036;stroke-width:1.35;"/><text fill="#000000" font-family="sans-serif" font-size="12.6" lengthAdjust="spacing" textLength="75.6" x="406.1419" y="108.6033">List of sprints</text><!--MD5=[fee662a292a0353a69bd162820bae93b]
entity User--><ellipse cx="46.35" cy="89.1" fill="#FEFECE" filter="url(#f189pjk74q24nz)" rx="7.2" ry="7.2" style="stroke:#A80036;stroke-width:1.35;"/><path d="M46.35,96.3 L46.35,120.6 M34.65,103.5 L58.05,103.5 M46.35,120.6 L34.65,134.1 M46.35,120.6 L58.05,134.1 " fill="none" filter="url(#f189pjk74q24nz)" style="stroke:#A80036;stroke-width:1.35;"/><text fill="#000000" font-family="sans-serif" font-size="12.6" lengthAdjust="spacing" textLength="81.9" x="5.4" y="152.1299">Team Member</text><!--MD5=[7522d5c5799d0652da24a5d0145a519b]
link User to US1--><path d="M87.651,100.989 C98.856,96.417 111.06,91.566 122.4,87.3 C138.069,81.405 155.358,75.303 170.766,70.011 " fill="none" id="User-to-US1" style="stroke:#A80036;stroke-width:0.9;"/><polygon fill="#A80036" points="175.059,68.544,166.231,67.7459,170.799,69.9939,168.5509,74.5619,175.059,68.544" style="stroke:#A80036;stroke-width:0.9;"/><!--MD5=[b35f596a8f6a10395dba456ca2afddc6]
link User to US3--><path d="M87.669,117.9 C105.894,117.9 127.908,117.9 148.518,117.9 " fill="none" id="User-to-US3" style="stroke:#A80036;stroke-width:0.9;"/><polygon fill="#A80036" points="153.171,117.9,145.071,114.3,148.671,117.9,145.071,121.5,153.171,117.9" style="stroke:#A80036;stroke-width:0.9;"/><!--MD5=[03cc136bda8a1e00ade5b19e82dd6082]
link User to US5--><path d="M87.606,134.946 C98.811,139.509 111.024,144.333 122.4,148.5 C138.978,154.575 157.419,160.731 173.52,165.915 " fill="none" id="User-to-US5" style="stroke:#A80036;stroke-width:0.9;"/><polygon fill="#A80036" points="177.993,167.346,171.3826,161.4407,173.7087,165.9694,169.18,168.2955,177.993,167.346" style="stroke:#A80036;stroke-width:0.9;"/><!--MD5=[2ba836ef85f92a24bb3029dc3af2af92]
link US5 to US6--><path d="M278.343,175.518 C309.546,173.673 347.661,171.414 379.656,169.524 " fill="none" id="US5-to-US6" style="stroke:#A80036;stroke-width:0.9;stroke-dasharray:7.0,7.0;"/><polygon fill="#A80036" points="384.327,169.245,376.0254,166.138,379.8351,169.5153,376.4579,173.325,384.327,169.245" style="stroke:#A80036;stroke-width:0.9;"/><text fill="#000000" font-family="sans-serif" font-size="11.7" lengthAdjust="spacing" textLength="36.9" x="317.7" y="168.7456">include</text><!--MD5=[8c8389140093cd408e52f90ec70bc9db]
link US5 to US7--><path d="M254.457,167.094 C295.857,153.54 363.033,131.553 405.819,117.54 " fill="none" id="US5-to-US7" style="stroke:#A80036;stroke-width:0.9;stroke-dasharray:7.0,7.0;"/><polygon fill="#A80036" points="410.139,116.127,401.321,115.2254,405.8623,117.5269,403.5608,122.0682,410.139,116.127" style="stroke:#A80036;stroke-width:0.9;"/><text fill="#000000" font-family="sans-serif" font-size="11.7" lengthAdjust="spacing" textLength="36.9" x="317.7" y="132.7456">include</text><!--MD5=[7bdf84fe9148a86963ca0316b80af543]
@startuml
'https://plantuml.com/use-case-diagram

left to right direction
:Team Member: as User
package System{
    usecase "Insert projectDeprecated code" as US1
    usecase "Insert sprint id" as US3
    usecase "START Sprint" as US5
    usecase "List of projects" as US6
    usecase "List of sprints" as US7

}
User - -> US1
User - -> US3
User - -> US5
US5 ..> US6 : include
US5 ..> US7 : include

@enduml

@startuml

left to right direction
:Team Member: as User
package System{
    usecase "Insert projectDeprecated code" as US1
    usecase "Insert sprint id" as US3
    usecase "START Sprint" as US5
    usecase "List of projects" as US6
    usecase "List of sprints" as US7

}
User - -> US1
User - -> US3
User - -> US5
US5 ..> US6 : include
US5 ..> US7 : include

@enduml

PlantUML version 1.2021.11(Sat Oct 02 14:26:11 BST 2021)
(GPL source distribution)
Java Runtime: OpenJDK Runtime Environment
JVM: OpenJDK 64-Bit Server VM
Default Encoding: Cp1252
Language: en
Country: GB
--></g></svg>