<?xml version="1.0" encoding="UTF-8" standalone="no"?><svg xmlns="http://www.w3.org/2000/svg" xmlns:xlink="http://www.w3.org/1999/xlink" contentScriptType="application/ecmascript" contentStyleType="text/css" height="583px" preserveAspectRatio="none" style="width:1650px;height:583px;background:#FFFFFF;" version="1.1" viewBox="0 0 1650 583" width="1650px" zoomAndPan="magnify"><defs><filter height="300%" id="f14ljm6is9aqse" width="300%" x="-1" y="-1"><feGaussianBlur result="blurOut" stdDeviation="2.0"/><feColorMatrix in="blurOut" result="blurOut2" type="matrix" values="0 0 0 0 0 0 0 0 0 0 0 0 0 0 0 0 0 0 .4 0"/><feOffset dx="4.0" dy="4.0" in="blurOut2" result="blurOut3"/><feBlend in="SourceGraphic" in2="blurOut3" mode="normal"/></filter></defs><g><!--MD5=[9681dc6e01e10c6b4fe06895ae94f592]
cluster UI--><polygon fill="#FFFFFF" filter="url(#f14ljm6is9aqse)" points="16,227,36,227,43,250.6094,149,250.6094,149,327,16,327,16,227" style="stroke:#000000;stroke-width:1.5;"/><line style="stroke:#000000;stroke-width:1.5;" x1="16" x2="43" y1="250.6094" y2="250.6094"/><text fill="#000000" font-family="sans-serif" font-size="14" font-weight="bold" lengthAdjust="spacing" textLength="14" x="20" y="243.5332">UI</text><!--MD5=[2c2e2644034c00788261e03c85b06837]
cluster Core--><polygon fill="#FFFFFF" filter="url(#f14ljm6is9aqse)" points="173,6,213,6,220,29.6094,1633,29.6094,1633,576,173,576,173,6" style="stroke:#000000;stroke-width:1.5;"/><line style="stroke:#000000;stroke-width:1.5;" x1="173" x2="220" y1="29.6094" y2="29.6094"/><text fill="#000000" font-family="sans-serif" font-size="14" font-weight="bold" lengthAdjust="spacing" textLength="34" x="177" y="22.5332">Core</text><!--MD5=[ed1d20ea533a2a0e7df5ba3c35e56ced]
cluster Controllers--><polygon fill="#FFFFFF" filter="url(#f14ljm6is9aqse)" points="197,220,282,220,289,243.6094,564,243.6094,564,334,197,334,197,220" style="stroke:#000000;stroke-width:1.5;"/><line style="stroke:#000000;stroke-width:1.5;" x1="197" x2="289" y1="243.6094" y2="243.6094"/><text fill="#000000" font-family="sans-serif" font-size="14" font-weight="bold" lengthAdjust="spacing" textLength="79" x="201" y="236.5332">Controllers</text><!--MD5=[121a8bf1197281ab89ed693fab589f94]
cluster Domain--><polygon fill="#FFFFFF" filter="url(#f14ljm6is9aqse)" points="684,50,742,50,749,73.6094,1609,73.6094,1609,552,684,552,684,50" style="stroke:#000000;stroke-width:1.5;"/><line style="stroke:#000000;stroke-width:1.5;" x1="684" x2="749" y1="73.6094" y2="73.6094"/><text fill="#000000" font-family="sans-serif" font-size="14" font-weight="bold" lengthAdjust="spacing" textLength="52" x="688" y="66.5332">Domain</text><!--MD5=[63f56852dacbbdb11de3080b70a40c4f]
class StartSprintUI--><rect codeLine="5" fill="#FEFECE" filter="url(#f14ljm6is9aqse)" height="48" id="StartSprintUI" style="stroke:#A80036;stroke-width:1.5;" width="101" x="32" y="263"/><ellipse cx="47" cy="279" fill="#ADD1B2" rx="11" ry="11" style="stroke:#A80036;stroke-width:1.0;"/><path d="M49,275.5 Q49.2031,275 49.4375,274.75 Q49.6719,274.5 49.9375,274.5 Q50.4063,274.5 50.7031,274.7813 Q51,275.0625 51,275.7188 L51,277.2813 Q51,277.9375 50.7188,278.2188 Q50.4375,278.5 50,278.5 Q49.6094,278.5 49.3594,278.3281 Q49.1094,278.1563 49,277.7031 Q48.9531,277.3906 48.7813,277.2188 Q48.4688,276.8906 47.9063,276.7031 Q47.3438,276.5 46.7813,276.5 Q46.0781,276.5 45.4844,276.7813 Q44.9063,277.0625 44.4531,277.6875 Q44,278.3125 44,279.1719 L44,280.0938 Q44,281.125 44.8438,281.8125 Q45.6875,282.5 47.1875,282.5 Q48.0781,282.5 48.7031,282.2969 Q49.0625,282.1875 49.4688,281.8281 Q49.7344,281.625 49.875,281.5625 Q50.0156,281.5 50.1875,281.5 Q50.5156,281.5 50.75,281.7656 Q51,282.0156 51,282.375 Q51,282.7188 50.6563,283.125 Q50.1563,283.7188 49.3594,284.0469 Q48.3125,284.5 47.0313,284.5 Q45.5313,284.5 44.3281,283.9063 Q43.3594,283.4375 42.6719,282.4219 Q42,281.4063 42,280.2031 L42,279.1094 Q42,277.8594 42.5938,276.7656 Q43.2031,275.6719 44.25,275.0938 Q45.3125,274.5 46.5,274.5 Q47.2188,274.5 47.8438,274.75 Q48.4688,275 49,275.5 Z " fill="#000000"/><text fill="#000000" font-family="sans-serif" font-size="12" lengthAdjust="spacing" textLength="69" x="61" y="283.9102">StartSprintUI</text><line style="stroke:#A80036;stroke-width:1.5;" x1="33" x2="132" y1="295" y2="295"/><line style="stroke:#A80036;stroke-width:1.5;" x1="33" x2="132" y1="303" y2="303"/><!--MD5=[c138f2c756518b6690566c0a9ca94852]
class StartSprintController--><rect codeLine="10" fill="#FEFECE" filter="url(#f14ljm6is9aqse)" height="61.8359" id="StartSprintController" style="stroke:#A80036;stroke-width:1.5;" width="335" x="213" y="256"/><ellipse cx="320.75" cy="272" fill="#ADD1B2" rx="11" ry="11" style="stroke:#A80036;stroke-width:1.0;"/><path d="M322.75,268.5 Q322.9531,268 323.1875,267.75 Q323.4219,267.5 323.6875,267.5 Q324.1563,267.5 324.4531,267.7813 Q324.75,268.0625 324.75,268.7188 L324.75,270.2813 Q324.75,270.9375 324.4688,271.2188 Q324.1875,271.5 323.75,271.5 Q323.3594,271.5 323.1094,271.3281 Q322.8594,271.1563 322.75,270.7031 Q322.7031,270.3906 322.5313,270.2188 Q322.2188,269.8906 321.6563,269.7031 Q321.0938,269.5 320.5313,269.5 Q319.8281,269.5 319.2344,269.7813 Q318.6563,270.0625 318.2031,270.6875 Q317.75,271.3125 317.75,272.1719 L317.75,273.0938 Q317.75,274.125 318.5938,274.8125 Q319.4375,275.5 320.9375,275.5 Q321.8281,275.5 322.4531,275.2969 Q322.8125,275.1875 323.2188,274.8281 Q323.4844,274.625 323.625,274.5625 Q323.7656,274.5 323.9375,274.5 Q324.2656,274.5 324.5,274.7656 Q324.75,275.0156 324.75,275.375 Q324.75,275.7188 324.4063,276.125 Q323.9063,276.7188 323.1094,277.0469 Q322.0625,277.5 320.7813,277.5 Q319.2813,277.5 318.0781,276.9063 Q317.1094,276.4375 316.4219,275.4219 Q315.75,274.4063 315.75,273.2031 L315.75,272.1094 Q315.75,270.8594 316.3438,269.7656 Q316.9531,268.6719 318,268.0938 Q319.0625,267.5 320.25,267.5 Q320.9688,267.5 321.5938,267.75 Q322.2188,268 322.75,268.5 Z " fill="#000000"/><text fill="#000000" font-family="sans-serif" font-size="12" lengthAdjust="spacing" textLength="111" x="341.25" y="276.9102">StartSprintController</text><line style="stroke:#A80036;stroke-width:1.5;" x1="214" x2="547" y1="288" y2="288"/><line style="stroke:#A80036;stroke-width:1.5;" x1="214" x2="547" y1="296" y2="296"/><ellipse cx="224" cy="307" fill="#84BE84" rx="3" ry="3" style="stroke:#038048;stroke-width:1.0;"/><text fill="#000000" font-family="sans-serif" font-size="11" lengthAdjust="spacing" textLength="309" x="233" y="311.4189">startASprintController(projectCode, sprintID, nowDate) : boolean</text><!--MD5=[41fc1644ffe584d705042db0e6e760e1]
class DataManagement--><rect codeLine="19" fill="#FEFECE" filter="url(#f14ljm6is9aqse)" height="172.5234" id="DataManagement" style="stroke:#A80036;stroke-width:1.5;" width="227" x="700" y="362.5"/><ellipse cx="760.25" cy="378.5" fill="#ADD1B2" rx="11" ry="11" style="stroke:#A80036;stroke-width:1.0;"/><path d="M762.25,375 Q762.4531,374.5 762.6875,374.25 Q762.9219,374 763.1875,374 Q763.6563,374 763.9531,374.2813 Q764.25,374.5625 764.25,375.2188 L764.25,376.7813 Q764.25,377.4375 763.9688,377.7188 Q763.6875,378 763.25,378 Q762.8594,378 762.6094,377.8281 Q762.3594,377.6563 762.25,377.2031 Q762.2031,376.8906 762.0313,376.7188 Q761.7188,376.3906 761.1563,376.2031 Q760.5938,376 760.0313,376 Q759.3281,376 758.7344,376.2813 Q758.1563,376.5625 757.7031,377.1875 Q757.25,377.8125 757.25,378.6719 L757.25,379.5938 Q757.25,380.625 758.0938,381.3125 Q758.9375,382 760.4375,382 Q761.3281,382 761.9531,381.7969 Q762.3125,381.6875 762.7188,381.3281 Q762.9844,381.125 763.125,381.0625 Q763.2656,381 763.4375,381 Q763.7656,381 764,381.2656 Q764.25,381.5156 764.25,381.875 Q764.25,382.2188 763.9063,382.625 Q763.4063,383.2188 762.6094,383.5469 Q761.5625,384 760.2813,384 Q758.7813,384 757.5781,383.4063 Q756.6094,382.9375 755.9219,381.9219 Q755.25,380.9063 755.25,379.7031 L755.25,378.6094 Q755.25,377.3594 755.8438,376.2656 Q756.4531,375.1719 757.5,374.5938 Q758.5625,374 759.75,374 Q760.4688,374 761.0938,374.25 Q761.7188,374.5 762.25,375 Z " fill="#000000"/><text fill="#000000" font-family="sans-serif" font-size="12" lengthAdjust="spacing" textLength="98" x="780.75" y="383.4102">DataManagement</text><line style="stroke:#A80036;stroke-width:1.5;" x1="701" x2="926" y1="394.5" y2="394.5"/><rect fill="none" height="6" style="stroke:#C82930;stroke-width:1.0;" width="6" x="708" y="402.5"/><text fill="#000000" font-family="sans-serif" font-size="11" lengthAdjust="spacing" textLength="146" x="720" y="409.9189">TypologyStore : typologyStore</text><rect fill="none" height="6" style="stroke:#C82930;stroke-width:1.0;" width="6" x="708" y="416.3359"/><text fill="#000000" font-family="sans-serif" font-size="11" lengthAdjust="spacing" textLength="116" x="720" y="423.7549">ProjectStore : userStore</text><rect fill="none" height="6" style="stroke:#C82930;stroke-width:1.0;" width="6" x="708" y="430.1719"/><text fill="#000000" font-family="sans-serif" font-size="11" lengthAdjust="spacing" textLength="121" x="720" y="437.5908">ProfileStore : profileStore</text><rect fill="none" height="6" style="stroke:#C82930;stroke-width:1.0;" width="6" x="708" y="444.0078"/><text fill="#000000" font-family="sans-serif" font-size="11" lengthAdjust="spacing" textLength="100" x="720" y="451.4268">RoleStore : roleStore</text><rect fill="none" height="6" style="stroke:#C82930;stroke-width:1.0;" width="6" x="708" y="457.8438"/><text fill="#000000" font-family="sans-serif" font-size="11" lengthAdjust="spacing" textLength="201" x="720" y="465.2627">ProfileRequestStore : profileRequestStore</text><rect fill="none" height="6" style="stroke:#C82930;stroke-width:1.0;" width="6" x="708" y="471.6797"/><text fill="#000000" font-family="sans-serif" font-size="11" lengthAdjust="spacing" textLength="121" x="720" y="479.0986">ProjectStore projectStore</text><rect fill="none" height="6" style="stroke:#C82930;stroke-width:1.0;" width="6" x="708" y="485.5156"/><text fill="#000000" font-family="sans-serif" font-size="11" lengthAdjust="spacing" textLength="146" x="720" y="492.9346">ResourceStore resourceStore</text><rect fill="none" height="6" style="stroke:#C82930;stroke-width:1.0;" width="6" x="708" y="499.3516"/><text fill="#000000" font-family="sans-serif" font-size="11" lengthAdjust="spacing" textLength="146" x="720" y="506.7705">CustomerStore customerStore</text><line style="stroke:#A80036;stroke-width:1.5;" x1="701" x2="926" y1="513.1875" y2="513.1875"/><ellipse cx="711" cy="524.1875" fill="#84BE84" rx="3" ry="3" style="stroke:#038048;stroke-width:1.0;"/><text fill="#000000" font-family="sans-serif" font-size="11" lengthAdjust="spacing" textLength="150" x="720" y="528.6064">getProjectStore() : projectStore</text><!--MD5=[0cf43f64de24b70e8ffe65ff9ee7abee]
class ProjectStore--><rect codeLine="30" fill="#FEFECE" filter="url(#f14ljm6is9aqse)" height="75.6719" id="ProjectStore" style="stroke:#A80036;stroke-width:1.5;" width="186" x="720.5" y="86"/><ellipse cx="775.75" cy="102" fill="#ADD1B2" rx="11" ry="11" style="stroke:#A80036;stroke-width:1.0;"/><path d="M777.75,98.5 Q777.9531,98 778.1875,97.75 Q778.4219,97.5 778.6875,97.5 Q779.1563,97.5 779.4531,97.7813 Q779.75,98.0625 779.75,98.7188 L779.75,100.2813 Q779.75,100.9375 779.4688,101.2188 Q779.1875,101.5 778.75,101.5 Q778.3594,101.5 778.1094,101.3281 Q777.8594,101.1563 777.75,100.7031 Q777.7031,100.3906 777.5313,100.2188 Q777.2188,99.8906 776.6563,99.7031 Q776.0938,99.5 775.5313,99.5 Q774.8281,99.5 774.2344,99.7813 Q773.6563,100.0625 773.2031,100.6875 Q772.75,101.3125 772.75,102.1719 L772.75,103.0938 Q772.75,104.125 773.5938,104.8125 Q774.4375,105.5 775.9375,105.5 Q776.8281,105.5 777.4531,105.2969 Q777.8125,105.1875 778.2188,104.8281 Q778.4844,104.625 778.625,104.5625 Q778.7656,104.5 778.9375,104.5 Q779.2656,104.5 779.5,104.7656 Q779.75,105.0156 779.75,105.375 Q779.75,105.7188 779.4063,106.125 Q778.9063,106.7188 778.1094,107.0469 Q777.0625,107.5 775.7813,107.5 Q774.2813,107.5 773.0781,106.9063 Q772.1094,106.4375 771.4219,105.4219 Q770.75,104.4063 770.75,103.2031 L770.75,102.1094 Q770.75,100.8594 771.3438,99.7656 Q771.9531,98.6719 773,98.0938 Q774.0625,97.5 775.25,97.5 Q775.9688,97.5 776.5938,97.75 Q777.2188,98 777.75,98.5 Z " fill="#000000"/><text fill="#000000" font-family="sans-serif" font-size="12" lengthAdjust="spacing" textLength="67" x="796.25" y="106.9102">ProjectStore</text><line style="stroke:#A80036;stroke-width:1.5;" x1="721.5" x2="905.5" y1="118" y2="118"/><rect fill="none" height="6" style="stroke:#C82930;stroke-width:1.0;" width="6" x="728.5" y="126"/><text fill="#000000" font-family="sans-serif" font-size="11" lengthAdjust="spacing" textLength="121" x="740.5" y="133.4189">projectList : List&lt;Project&gt;</text><line style="stroke:#A80036;stroke-width:1.5;" x1="721.5" x2="905.5" y1="139.8359" y2="139.8359"/><ellipse cx="731.5" cy="150.8359" fill="#84BE84" rx="3" ry="3" style="stroke:#038048;stroke-width:1.0;"/><text fill="#000000" font-family="sans-serif" font-size="11" lengthAdjust="spacing" textLength="160" x="740.5" y="155.2549">getProjectByCode(code) : projectDeprecated</text><!--MD5=[79d378210367c0c6ec62ef762ddfbd1b]
class ProjectDeprecated--><rect codeLine="35" fill="#FEFECE" filter="url(#f14ljm6is9aqse)" height="310.8828" id="Project" style="stroke:#A80036;stroke-width:1.5;" width="340" x="977" y="86.5"/><ellipse cx="1123.75" cy="102.5" fill="#ADD1B2" rx="11" ry="11" style="stroke:#A80036;stroke-width:1.0;"/><path d="M1125.75,99 Q1125.9531,98.5 1126.1875,98.25 Q1126.4219,98 1126.6875,98 Q1127.1563,98 1127.4531,98.2813 Q1127.75,98.5625 1127.75,99.2188 L1127.75,100.7813 Q1127.75,101.4375 1127.4688,101.7188 Q1127.1875,102 1126.75,102 Q1126.3594,102 1126.1094,101.8281 Q1125.8594,101.6563 1125.75,101.2031 Q1125.7031,100.8906 1125.5313,100.7188 Q1125.2188,100.3906 1124.6563,100.2031 Q1124.0938,100 1123.5313,100 Q1122.8281,100 1122.2344,100.2813 Q1121.6563,100.5625 1121.2031,101.1875 Q1120.75,101.8125 1120.75,102.6719 L1120.75,103.5938 Q1120.75,104.625 1121.5938,105.3125 Q1122.4375,106 1123.9375,106 Q1124.8281,106 1125.4531,105.7969 Q1125.8125,105.6875 1126.2188,105.3281 Q1126.4844,105.125 1126.625,105.0625 Q1126.7656,105 1126.9375,105 Q1127.2656,105 1127.5,105.2656 Q1127.75,105.5156 1127.75,105.875 Q1127.75,106.2188 1127.4063,106.625 Q1126.9063,107.2188 1126.1094,107.5469 Q1125.0625,108 1123.7813,108 Q1122.2813,108 1121.0781,107.4063 Q1120.1094,106.9375 1119.4219,105.9219 Q1118.75,104.9063 1118.75,103.7031 L1118.75,102.6094 Q1118.75,101.3594 1119.3438,100.2656 Q1119.9531,99.1719 1121,98.5938 Q1122.0625,98 1123.25,98 Q1123.9688,98 1124.5938,98.25 Q1125.2188,98.5 1125.75,99 Z " fill="#000000"/><text fill="#000000" font-family="sans-serif" font-size="12" lengthAdjust="spacing" textLength="38" x="1144.25" y="107.4102">Project</text><line style="stroke:#A80036;stroke-width:1.5;" x1="978" x2="1316" y1="118.5" y2="118.5"/><rect fill="none" height="6" style="stroke:#C82930;stroke-width:1.0;" width="6" x="985" y="126.5"/><text fill="#000000" font-family="sans-serif" font-size="11" lengthAdjust="spacing" textLength="61" x="997" y="133.9189">String : code</text><rect fill="none" height="6" style="stroke:#C82930;stroke-width:1.0;" width="6" x="985" y="140.3359"/><text fill="#000000" font-family="sans-serif" font-size="11" lengthAdjust="spacing" textLength="63" x="997" y="147.7549">String : name</text><rect fill="none" height="6" style="stroke:#C82930;stroke-width:1.0;" width="6" x="985" y="154.1719"/><text fill="#000000" font-family="sans-serif" font-size="11" lengthAdjust="spacing" textLength="90" x="997" y="161.5908">String : description</text><rect fill="none" height="6" style="stroke:#C82930;stroke-width:1.0;" width="6" x="985" y="168.0078"/><text fill="#000000" font-family="sans-serif" font-size="11" lengthAdjust="spacing" textLength="74" x="997" y="175.4268">double : budget</text><rect fill="none" height="6" style="stroke:#C82930;stroke-width:1.0;" width="6" x="985" y="181.8438"/><text fill="#000000" font-family="sans-serif" font-size="11" lengthAdjust="spacing" textLength="94" x="997" y="189.2627">Typology : typology</text><rect fill="none" height="6" style="stroke:#C82930;stroke-width:1.0;" width="6" x="985" y="195.6797"/><text fill="#000000" font-family="sans-serif" font-size="11" lengthAdjust="spacing" textLength="159" x="997" y="203.0986">ProductBacklog : productBacklog</text><rect fill="none" height="6" style="stroke:#C82930;stroke-width:1.0;" width="6" x="985" y="209.5156"/><text fill="#000000" font-family="sans-serif" font-size="11" lengthAdjust="spacing" textLength="100" x="997" y="216.9346">Customer : customer</text><rect fill="none" height="6" style="stroke:#C82930;stroke-width:1.0;" width="6" x="985" y="223.3516"/><text fill="#000000" font-family="sans-serif" font-size="11" lengthAdjust="spacing" textLength="110" x="997" y="230.7705">List&lt;Sprint&gt; : sprintList</text><rect fill="none" height="6" style="stroke:#C82930;stroke-width:1.0;" width="6" x="985" y="237.1875"/><text fill="#000000" font-family="sans-serif" font-size="11" lengthAdjust="spacing" textLength="121" x="997" y="244.6064">int : defaultSprintDuration</text><rect fill="none" height="6" style="stroke:#C82930;stroke-width:1.0;" width="6" x="985" y="251.0234"/><text fill="#000000" font-family="sans-serif" font-size="11" lengthAdjust="spacing" textLength="140" x="997" y="258.4424">int : numberOfPlannedSprints</text><rect fill="none" height="6" style="stroke:#C82930;stroke-width:1.0;" width="6" x="985" y="264.8594"/><text fill="#000000" font-family="sans-serif" font-size="11" lengthAdjust="spacing" textLength="67" x="997" y="272.2783">String : status</text><rect fill="none" height="6" style="stroke:#C82930;stroke-width:1.0;" width="6" x="985" y="278.6953"/><text fill="#000000" font-family="sans-serif" font-size="11" lengthAdjust="spacing" textLength="127" x="997" y="286.1143">Resource : productOwner</text><rect fill="none" height="6" style="stroke:#C82930;stroke-width:1.0;" width="6" x="985" y="292.5313"/><text fill="#000000" font-family="sans-serif" font-size="11" lengthAdjust="spacing" textLength="101" x="997" y="299.9502">LocalDate : startDate</text><rect fill="none" height="6" style="stroke:#C82930;stroke-width:1.0;" width="6" x="985" y="306.3672"/><text fill="#000000" font-family="sans-serif" font-size="11" lengthAdjust="spacing" textLength="97" x="997" y="313.7861">LocalDate : endDate</text><line style="stroke:#A80036;stroke-width:1.5;" x1="978" x2="1316" y1="320.2031" y2="320.2031"/><ellipse cx="988" cy="331.2031" fill="#84BE84" rx="3" ry="3" style="stroke:#038048;stroke-width:1.0;"/><text fill="#000000" font-family="sans-serif" font-size="11" lengthAdjust="spacing" textLength="199" x="997" y="335.6221">startASprint(sprintID, nowDate) : boolean</text><polygon fill="#FFFF44" points="988,340.0391,992,344.0391,988,348.0391,984,344.0391" style="stroke:#B38D22;stroke-width:1.0;"/><text fill="#000000" font-family="sans-serif" font-size="11" lengthAdjust="spacing" textLength="191" x="997" y="349.458">validateIfThereAreStartedSprintStatus()</text><polygon fill="#FFFF44" points="988,353.875,992,357.875,988,361.875,984,357.875" style="stroke:#B38D22;stroke-width:1.0;"/><text fill="#000000" font-family="sans-serif" font-size="11" lengthAdjust="spacing" textLength="253" x="997" y="363.2939">validateSprintDatesAreOutOfProjectDates(nowDate)</text><polygon fill="#FFFF44" points="988,367.7109,992,371.7109,988,375.7109,984,371.7109" style="stroke:#B38D22;stroke-width:1.0;"/><text fill="#000000" font-family="sans-serif" font-size="11" lengthAdjust="spacing" textLength="314" x="997" y="377.1299">periodsOverlappingDetectionExceptOneSprint(sprintID, nowDate)</text><polygon fill="#FFFF44" points="988,381.5469,992,385.5469,988,389.5469,984,385.5469" style="stroke:#B38D22;stroke-width:1.0;"/><text fill="#000000" font-family="sans-serif" font-size="11" lengthAdjust="spacing" textLength="163" x="997" y="390.9658">setSprintNewStartDate(nowDate)</text><!--MD5=[452a66c2e8d45f5bd209be454bbcd04f]
class Sprint--><rect codeLine="58" fill="#FEFECE" filter="url(#f14ljm6is9aqse)" height="200.1953" id="Sprint" style="stroke:#A80036;stroke-width:1.5;" width="226" x="1367" y="142"/><ellipse cx="1459.75" cy="158" fill="#ADD1B2" rx="11" ry="11" style="stroke:#A80036;stroke-width:1.0;"/><path d="M1461.75,154.5 Q1461.9531,154 1462.1875,153.75 Q1462.4219,153.5 1462.6875,153.5 Q1463.1563,153.5 1463.4531,153.7813 Q1463.75,154.0625 1463.75,154.7188 L1463.75,156.2813 Q1463.75,156.9375 1463.4688,157.2188 Q1463.1875,157.5 1462.75,157.5 Q1462.3594,157.5 1462.1094,157.3281 Q1461.8594,157.1563 1461.75,156.7031 Q1461.7031,156.3906 1461.5313,156.2188 Q1461.2188,155.8906 1460.6563,155.7031 Q1460.0938,155.5 1459.5313,155.5 Q1458.8281,155.5 1458.2344,155.7813 Q1457.6563,156.0625 1457.2031,156.6875 Q1456.75,157.3125 1456.75,158.1719 L1456.75,159.0938 Q1456.75,160.125 1457.5938,160.8125 Q1458.4375,161.5 1459.9375,161.5 Q1460.8281,161.5 1461.4531,161.2969 Q1461.8125,161.1875 1462.2188,160.8281 Q1462.4844,160.625 1462.625,160.5625 Q1462.7656,160.5 1462.9375,160.5 Q1463.2656,160.5 1463.5,160.7656 Q1463.75,161.0156 1463.75,161.375 Q1463.75,161.7188 1463.4063,162.125 Q1462.9063,162.7188 1462.1094,163.0469 Q1461.0625,163.5 1459.7813,163.5 Q1458.2813,163.5 1457.0781,162.9063 Q1456.1094,162.4375 1455.4219,161.4219 Q1454.75,160.4063 1454.75,159.2031 L1454.75,158.1094 Q1454.75,156.8594 1455.3438,155.7656 Q1455.9531,154.6719 1457,154.0938 Q1458.0625,153.5 1459.25,153.5 Q1459.9688,153.5 1460.5938,153.75 Q1461.2188,154 1461.75,154.5 Z " fill="#000000"/><text fill="#000000" font-family="sans-serif" font-size="12" lengthAdjust="spacing" textLength="32" x="1480.25" y="162.9102">Sprint</text><line style="stroke:#A80036;stroke-width:1.5;" x1="1368" x2="1592" y1="174" y2="174"/><rect fill="none" height="6" style="stroke:#C82930;stroke-width:1.0;" width="6" x="1375" y="182"/><text fill="#000000" font-family="sans-serif" font-size="11" lengthAdjust="spacing" textLength="56" x="1387" y="189.4189">int : sprintID</text><rect fill="none" height="6" style="stroke:#C82930;stroke-width:1.0;" width="6" x="1375" y="195.8359"/><text fill="#000000" font-family="sans-serif" font-size="11" lengthAdjust="spacing" textLength="128" x="1387" y="203.2549">List&lt;Task&gt; : sprintTaskList</text><rect fill="none" height="6" style="stroke:#C82930;stroke-width:1.0;" width="6" x="1375" y="209.6719"/><text fill="#000000" font-family="sans-serif" font-size="11" lengthAdjust="spacing" textLength="101" x="1387" y="217.0908">int : numberOfWeeks</text><rect fill="none" height="6" style="stroke:#C82930;stroke-width:1.0;" width="6" x="1375" y="223.5078"/><text fill="#000000" font-family="sans-serif" font-size="11" lengthAdjust="spacing" textLength="75" x="1387" y="230.9268">int : sprintOrder</text><rect fill="none" height="6" style="stroke:#C82930;stroke-width:1.0;" width="6" x="1375" y="237.3438"/><text fill="#000000" font-family="sans-serif" font-size="11" lengthAdjust="spacing" textLength="101" x="1387" y="244.7627">LocalDate : startDate</text><rect fill="none" height="6" style="stroke:#C82930;stroke-width:1.0;" width="6" x="1375" y="251.1797"/><text fill="#000000" font-family="sans-serif" font-size="11" lengthAdjust="spacing" textLength="91" x="1387" y="258.5986">LocalDate endDate</text><rect fill="none" height="6" style="stroke:#C82930;stroke-width:1.0;" width="6" x="1375" y="265.0156"/><text fill="#000000" font-family="sans-serif" font-size="11" lengthAdjust="spacing" textLength="140" x="1387" y="272.4346">SprintBacklog : sprintBacklog</text><rect fill="none" height="6" style="stroke:#C82930;stroke-width:1.0;" width="6" x="1375" y="278.8516"/><text fill="#000000" font-family="sans-serif" font-size="11" lengthAdjust="spacing" textLength="95" x="1387" y="286.2705">String : sprintStatus</text><line style="stroke:#A80036;stroke-width:1.5;" x1="1368" x2="1592" y1="292.6875" y2="292.6875"/><ellipse cx="1378" cy="303.6875" fill="#84BE84" rx="3" ry="3" style="stroke:#038048;stroke-width:1.0;"/><text fill="#000000" font-family="sans-serif" font-size="11" lengthAdjust="spacing" textLength="200" x="1387" y="308.1064">setSprintNewStartDate(nowDate) : String</text><polygon fill="#FFFF44" points="1378,312.5234,1382,316.5234,1378,320.5234,1374,316.5234" style="stroke:#B38D22;stroke-width:1.0;"/><text fill="#000000" font-family="sans-serif" font-size="11" lengthAdjust="spacing" textLength="112" x="1387" y="321.9424">setStartDate(nowDate)</text><polygon fill="#FFFF44" points="1378,326.3594,1382,330.3594,1378,334.3594,1374,330.3594" style="stroke:#B38D22;stroke-width:1.0;"/><text fill="#000000" font-family="sans-serif" font-size="11" lengthAdjust="spacing" textLength="124" x="1387" y="335.7783">setSprintStatus("started")</text><!--MD5=[d56b852a98a55e30adb631635fc0e602]
link StartSprintUI to StartSprintController--><path codeLine="14" d="M133.04,287 C150.31,287 170.84,287 192.58,287 " fill="none" id="StartSprintUI-to-StartSprintController" style="stroke:#A80036;stroke-width:1.0;stroke-dasharray:7.0,7.0;"/><polygon fill="none" points="192.82,280,212.82,287,192.82,294,192.82,280" style="stroke:#A80036;stroke-width:1.0;"/><!--MD5=[93946e8a46681130b475a198d30d60d6]
link StartSprintController to DataManagement--><path codeLine="73" d="M464.09,318.04 C525.33,341.06 610.06,372.91 680.62,399.43 " fill="none" id="StartSprintController-to-DataManagement" style="stroke:#A80036;stroke-width:1.0;stroke-dasharray:7.0,7.0;"/><polygon fill="none" points="683.39,392.99,699.65,406.58,678.46,406.1,683.39,392.99" style="stroke:#A80036;stroke-width:1.0;"/><text fill="#000000" font-family="sans-serif" font-size="13" lengthAdjust="spacing" textLength="100" x="592.2255" y="418.9047">dataManagement</text><text fill="#000000" font-family="sans-serif" font-size="13" lengthAdjust="spacing" textLength="0" x="644.2255" y="435.2563"/><!--MD5=[37ffecb254db8d7a3f7e52983661c229]
link StartSprintController to ProjectStore--><path codeLine="74" d="M463.58,255.96 C530.99,230.47 627.1,194.12 701.39,166.02 " fill="none" id="StartSprintController-to-ProjectStore" style="stroke:#A80036;stroke-width:1.0;stroke-dasharray:7.0,7.0;"/><polygon fill="none" points="699.08,159.41,720.26,158.88,704.03,172.51,699.08,159.41" style="stroke:#A80036;stroke-width:1.0;"/><text fill="#000000" font-family="sans-serif" font-size="13" lengthAdjust="spacing" textLength="70" x="642.4454" y="175.507">projectStore</text><text fill="#000000" font-family="sans-serif" font-size="13" lengthAdjust="spacing" textLength="0" x="646.4454" y="191.8586"/><!--MD5=[e49256ec62a64c0e2589668b84841744]
link DataManagement to ProjectStore--><path codeLine="75" d="M813.5,362.35 C813.5,295.63 813.5,228.9 813.5,162.17 " fill="none" id="DataManagement-ProjectStore" style="stroke:#A80036;stroke-width:1.0;"/><text fill="#000000" font-family="sans-serif" font-size="13" lengthAdjust="spacing" textLength="7" x="806.1992" y="351.7467">1</text><text fill="#000000" font-family="sans-serif" font-size="13" lengthAdjust="spacing" textLength="7" x="805.9422" y="183.0776">1</text><!--MD5=[c2999c5e21c0a7115ef87c36c02875b6]
reverse link ProjectStore to ProjectDeprecated--><path codeLine="76" d="M919.34,161.32 C937.67,167.84 957.17,174.78 976.72,181.74 " fill="none" id="ProjectStore-backto-Project" style="stroke:#A80036;stroke-width:1.0;"/><polygon fill="#A80036" points="906.84,156.87,911.1536,162.6486,918.1469,160.8893,913.8332,155.1107,906.84,156.87" style="stroke:#A80036;stroke-width:1.0;"/><text fill="#000000" font-family="sans-serif" font-size="13" lengthAdjust="spacing" textLength="7" x="914.5606" y="173.5202">1</text><text fill="#000000" font-family="sans-serif" font-size="13" lengthAdjust="spacing" textLength="20" x="949.1144" y="193.0403">1..*</text><!--MD5=[c1411256f47ae1ed9a3bb6846f611a01]
reverse link ProjectDeprecated to Sprint--><path codeLine="77" d="M1330.66,242 C1342.87,242 1354.96,242 1366.64,242 " fill="none" id="Project-backto-Sprint" style="stroke:#A80036;stroke-width:1.0;"/><polygon fill="#A80036" points="1317.38,242,1323.38,246,1329.38,242,1323.38,238,1317.38,242" style="stroke:#A80036;stroke-width:1.0;"/><text fill="#000000" font-family="sans-serif" font-size="13" lengthAdjust="spacing" textLength="7" x="1324.8843" y="255.8425">1</text><text fill="#000000" font-family="sans-serif" font-size="13" lengthAdjust="spacing" textLength="20" x="1339.1228" y="255.9874">0..*</text><!--MD5=[d13920c2b3a625f9bcb79118c75f459b]
@startuml



package UI{
    class StartSprintUI
}

package "Core"{
    package "Controllers" {
    class StartSprintController{
        +startASprintController(projectCode, sprintID, nowDate) : boolean

    }
    StartSprintUI ..|> StartSprintController

    }

    package "Domain"{
       class DataManagement{
           -TypologyStore : typologyStore
           -ProjectStore : userStore
           -ProfileStore : profileStore
           -RoleStore : roleStore
           -ProfileRequestStore : profileRequestStore
           -ProjectStore projectStore
           -ResourceStore resourceStore
           -CustomerStore customerStore
           +getProjectStore() : projectStore
       }
       class "ProjectStore" as ProjectStore{
           -projectList : List<ProjectDeprecated>
           +getProjectByCode(code) : projectDeprecated

       }
       class "ProjectDeprecated" as ProjectDeprecated{
             - String : code
             - String : name
             - String : projectDescription
             - double : projectBudget
             - Typology : typologyDescription
             - ProductBacklog : productBacklog
             - Customer : customer
             - List<Sprint> : sprintList
             - int : projectSprintDuration
             - int : projectNumberOfPlannedSprints
             - String : status
             - Resource : productOwner
             - LocalDate : startDate
             - LocalDate : endDate
        +startASprint(sprintID, nowDate) : boolean
    #validateIfThereAreStartedSprintStatus()
    #validateSprintDatesAreOutOfProjectDates(nowDate)
    #periodsOverlappingDetectionExceptOneSprint(sprintID, nowDate)
    #setSprintNewStartDate(nowDate)


       }
              class "Sprint" as Sprint{
                    - int : sprintID
                    - List<Task> : sprintTaskList
                    - int : numberOfWeeks
                    - int : sprintOrder
                    - LocalDate : startDate
                    - LocalDate endDate
                    - SprintBacklog : sprintBacklog
                    - String : sprintStatus

               +setSprintNewStartDate(nowDate) : String
       #setStartDate(nowDate)
       #setSprintStatus("started")
              }

    StartSprintController ....|> "dataManagement\n" DataManagement
    StartSprintController ....|> "projectStore\l" ProjectStore
    DataManagement "1" - "1" ProjectStore
    ProjectStore "1  " *- - "1..*" ProjectDeprecated
    ProjectDeprecated "1  " *- - "0..*" Sprint

skinparam nodesep 200
skinparam ranksep 50
left to right direction

    }
}


@enduml

PlantUML version 1.2021.11(Sat Oct 02 14:26:11 BST 2021)
(GPL source distribution)
Java Runtime: OpenJDK Runtime Environment
JVM: OpenJDK 64-Bit Server VM
Default Encoding: Cp1252
Language: en
Country: GB
--></g></svg>