<?xml version="1.0" encoding="UTF-8" standalone="no"?><svg xmlns="http://www.w3.org/2000/svg" xmlns:xlink="http://www.w3.org/1999/xlink" contentScriptType="application/ecmascript" contentStyleType="text/css" height="718px" preserveAspectRatio="none" style="width:281px;height:718px;background:#FFFFFF;" version="1.1" viewBox="0 0 281 718" width="281px" zoomAndPan="magnify"><defs><filter height="300%" id="f1rq1plsn5c0uk" width="300%" x="-1" y="-1"><feGaussianBlur result="blurOut" stdDeviation="2.0"/><feColorMatrix in="blurOut" result="blurOut2" type="matrix" values="0 0 0 0 0 0 0 0 0 0 0 0 0 0 0 0 0 0 .4 0"/><feOffset dx="4.0" dy="4.0" in="blurOut2" result="blurOut3"/><feBlend in="SourceGraphic" in2="blurOut3" mode="normal"/></filter></defs><g><text fill="#888888" font-family="sans-serif" font-size="10" lengthAdjust="spacing" textLength="139" x="129" y="10.3809">Sequence Diagram of US012</text><!--MD5=[7cb9be210a13d1f1389e53ac29ac312d]
cluster userInterface--><polygon fill="#FFFFFF" filter="url(#f1rq1plsn5c0uk)" points="28,18.5781,129,18.5781,136,42.1875,252,42.1875,252,118.5781,28,118.5781,28,18.5781" style="stroke:#000000;stroke-width:1.5;"/><line style="stroke:#000000;stroke-width:1.5;" x1="28" x2="136" y1="42.1875" y2="42.1875"/><text fill="#000000" font-family="sans-serif" font-size="14" font-weight="bold" lengthAdjust="spacing" textLength="95" x="32" y="35.1113">userInterface</text><!--MD5=[10ea673caf457862023e152271927b45]
cluster controller--><polygon fill="#FFFFFF" filter="url(#f1rq1plsn5c0uk)" points="27,142.5781,102,142.5781,109,166.1875,253,166.1875,253,256.5781,27,256.5781,27,142.5781" style="stroke:#000000;stroke-width:1.5;"/><line style="stroke:#000000;stroke-width:1.5;" x1="27" x2="109" y1="166.1875" y2="166.1875"/><text fill="#000000" font-family="sans-serif" font-size="14" font-weight="bold" lengthAdjust="spacing" textLength="69" x="31" y="159.1113">controller</text><!--MD5=[5d4cd377749310b66bf14896f5cd8d9b]
cluster model--><polygon fill="#FFFFFF" filter="url(#f1rq1plsn5c0uk)" points="16,280.5781,65,280.5781,72,304.1875,264,304.1875,264,693.5781,16,693.5781,16,280.5781" style="stroke:#000000;stroke-width:1.5;"/><line style="stroke:#000000;stroke-width:1.5;" x1="16" x2="72" y1="304.1875" y2="304.1875"/><text fill="#000000" font-family="sans-serif" font-size="14" font-weight="bold" lengthAdjust="spacing" textLength="43" x="20" y="297.1113">model</text><!--MD5=[30bad2bba4a5561084993b4f6d766548]
class CreateTypologyUserInterface--><rect codeLine="10" fill="#FEFECE" filter="url(#f1rq1plsn5c0uk)" height="48" id="CreateTypologyUserInterface" style="stroke:#A80036;stroke-width:1.5;" width="191" x="44.5" y="54.5781"/><ellipse cx="59.5" cy="70.5781" fill="#ADD1B2" rx="11" ry="11" style="stroke:#A80036;stroke-width:1.0;"/><path d="M61.5,67.0781 Q61.7031,66.5781 61.9375,66.3281 Q62.1719,66.0781 62.4375,66.0781 Q62.9063,66.0781 63.2031,66.3594 Q63.5,66.6406 63.5,67.2969 L63.5,68.8594 Q63.5,69.5156 63.2188,69.7969 Q62.9375,70.0781 62.5,70.0781 Q62.1094,70.0781 61.8594,69.9063 Q61.6094,69.7344 61.5,69.2813 Q61.4531,68.9688 61.2813,68.7969 Q60.9688,68.4688 60.4063,68.2813 Q59.8438,68.0781 59.2813,68.0781 Q58.5781,68.0781 57.9844,68.3594 Q57.4063,68.6406 56.9531,69.2656 Q56.5,69.8906 56.5,70.75 L56.5,71.6719 Q56.5,72.7031 57.3438,73.3906 Q58.1875,74.0781 59.6875,74.0781 Q60.5781,74.0781 61.2031,73.875 Q61.5625,73.7656 61.9688,73.4063 Q62.2344,73.2031 62.375,73.1406 Q62.5156,73.0781 62.6875,73.0781 Q63.0156,73.0781 63.25,73.3438 Q63.5,73.5938 63.5,73.9531 Q63.5,74.2969 63.1563,74.7031 Q62.6563,75.2969 61.8594,75.625 Q60.8125,76.0781 59.5313,76.0781 Q58.0313,76.0781 56.8281,75.4844 Q55.8594,75.0156 55.1719,74 Q54.5,72.9844 54.5,71.7813 L54.5,70.6875 Q54.5,69.4375 55.0938,68.3438 Q55.7031,67.25 56.75,66.6719 Q57.8125,66.0781 59,66.0781 Q59.7188,66.0781 60.3438,66.3281 Q60.9688,66.5781 61.5,67.0781 Z " fill="#000000"/><text fill="#000000" font-family="sans-serif" font-size="12" lengthAdjust="spacing" textLength="159" x="73.5" y="75.4883">CreateTypologyUserInterface</text><line style="stroke:#A80036;stroke-width:1.5;" x1="45.5" x2="234.5" y1="86.5781" y2="86.5781"/><line style="stroke:#A80036;stroke-width:1.5;" x1="45.5" x2="234.5" y1="94.5781" y2="94.5781"/><!--MD5=[09f073416f4019025b9895779992a043]
class CreateTypologyController--><rect codeLine="14" fill="#FEFECE" filter="url(#f1rq1plsn5c0uk)" height="61.8359" id="CreateTypologyController" style="stroke:#A80036;stroke-width:1.5;" width="193" x="43.5" y="178.5781"/><ellipse cx="68.4" cy="194.5781" fill="#ADD1B2" rx="11" ry="11" style="stroke:#A80036;stroke-width:1.0;"/><path d="M70.4,191.0781 Q70.6031,190.5781 70.8375,190.3281 Q71.0719,190.0781 71.3375,190.0781 Q71.8063,190.0781 72.1031,190.3594 Q72.4,190.6406 72.4,191.2969 L72.4,192.8594 Q72.4,193.5156 72.1188,193.7969 Q71.8375,194.0781 71.4,194.0781 Q71.0094,194.0781 70.7594,193.9063 Q70.5094,193.7344 70.4,193.2813 Q70.3531,192.9688 70.1813,192.7969 Q69.8688,192.4688 69.3063,192.2813 Q68.7438,192.0781 68.1813,192.0781 Q67.4781,192.0781 66.8844,192.3594 Q66.3063,192.6406 65.8531,193.2656 Q65.4,193.8906 65.4,194.75 L65.4,195.6719 Q65.4,196.7031 66.2438,197.3906 Q67.0875,198.0781 68.5875,198.0781 Q69.4781,198.0781 70.1031,197.875 Q70.4625,197.7656 70.8688,197.4063 Q71.1344,197.2031 71.275,197.1406 Q71.4156,197.0781 71.5875,197.0781 Q71.9156,197.0781 72.15,197.3438 Q72.4,197.5938 72.4,197.9531 Q72.4,198.2969 72.0563,198.7031 Q71.5563,199.2969 70.7594,199.625 Q69.7125,200.0781 68.4313,200.0781 Q66.9313,200.0781 65.7281,199.4844 Q64.7594,199.0156 64.0719,198 Q63.4,196.9844 63.4,195.7813 L63.4,194.6875 Q63.4,193.4375 63.9938,192.3438 Q64.6031,191.25 65.65,190.6719 Q66.7125,190.0781 67.9,190.0781 Q68.6188,190.0781 69.2438,190.3281 Q69.8688,190.5781 70.4,191.0781 Z " fill="#000000"/><text fill="#000000" font-family="sans-serif" font-size="12" lengthAdjust="spacing" textLength="139" x="84.6" y="199.4883">CreateTypologyController</text><line style="stroke:#A80036;stroke-width:1.5;" x1="44.5" x2="235.5" y1="210.5781" y2="210.5781"/><line style="stroke:#A80036;stroke-width:1.5;" x1="44.5" x2="235.5" y1="218.5781" y2="218.5781"/><ellipse cx="54.5" cy="229.5781" fill="#84BE84" rx="3" ry="3" style="stroke:#038048;stroke-width:1.0;"/><text fill="#000000" font-family="sans-serif" font-size="11" lengthAdjust="spacing" textLength="167" x="63.5" y="233.9971">createTypology(String description)</text><!--MD5=[41fc1644ffe584d705042db0e6e760e1]
class DataManagement--><rect codeLine="20" fill="#FEFECE" filter="url(#f1rq1plsn5c0uk)" height="61.8359" id="DataManagement" style="stroke:#A80036;stroke-width:1.5;" width="130" x="75" y="316.5781"/><ellipse cx="90" cy="332.5781" fill="#ADD1B2" rx="11" ry="11" style="stroke:#A80036;stroke-width:1.0;"/><path d="M92,329.0781 Q92.2031,328.5781 92.4375,328.3281 Q92.6719,328.0781 92.9375,328.0781 Q93.4063,328.0781 93.7031,328.3594 Q94,328.6406 94,329.2969 L94,330.8594 Q94,331.5156 93.7188,331.7969 Q93.4375,332.0781 93,332.0781 Q92.6094,332.0781 92.3594,331.9063 Q92.1094,331.7344 92,331.2813 Q91.9531,330.9688 91.7813,330.7969 Q91.4688,330.4688 90.9063,330.2813 Q90.3438,330.0781 89.7813,330.0781 Q89.0781,330.0781 88.4844,330.3594 Q87.9063,330.6406 87.4531,331.2656 Q87,331.8906 87,332.75 L87,333.6719 Q87,334.7031 87.8438,335.3906 Q88.6875,336.0781 90.1875,336.0781 Q91.0781,336.0781 91.7031,335.875 Q92.0625,335.7656 92.4688,335.4063 Q92.7344,335.2031 92.875,335.1406 Q93.0156,335.0781 93.1875,335.0781 Q93.5156,335.0781 93.75,335.3438 Q94,335.5938 94,335.9531 Q94,336.2969 93.6563,336.7031 Q93.1563,337.2969 92.3594,337.625 Q91.3125,338.0781 90.0313,338.0781 Q88.5313,338.0781 87.3281,337.4844 Q86.3594,337.0156 85.6719,336 Q85,334.9844 85,333.7813 L85,332.6875 Q85,331.4375 85.5938,330.3438 Q86.2031,329.25 87.25,328.6719 Q88.3125,328.0781 89.5,328.0781 Q90.2188,328.0781 90.8438,328.3281 Q91.4688,328.5781 92,329.0781 Z " fill="#000000"/><text fill="#000000" font-family="sans-serif" font-size="12" lengthAdjust="spacing" textLength="98" x="104" y="337.4883">DataManagement</text><line style="stroke:#A80036;stroke-width:1.5;" x1="76" x2="204" y1="348.5781" y2="348.5781"/><line style="stroke:#A80036;stroke-width:1.5;" x1="76" x2="204" y1="356.5781" y2="356.5781"/><ellipse cx="86" cy="367.5781" fill="#84BE84" rx="3" ry="3" style="stroke:#038048;stroke-width:1.0;"/><text fill="#000000" font-family="sans-serif" font-size="11" lengthAdjust="spacing" textLength="93" x="95" y="371.9971">getTypologyStore()</text><!--MD5=[480e673ee258b05508d2cff041dfb41e]
class TypologyStore--><rect codeLine="23" fill="#FEFECE" filter="url(#f1rq1plsn5c0uk)" height="103.3438" id="TypologyStore" style="stroke:#A80036;stroke-width:1.5;" width="215" x="32.5" y="438.5781"/><ellipse cx="97.25" cy="454.5781" fill="#ADD1B2" rx="11" ry="11" style="stroke:#A80036;stroke-width:1.0;"/><path d="M99.25,451.0781 Q99.4531,450.5781 99.6875,450.3281 Q99.9219,450.0781 100.1875,450.0781 Q100.6563,450.0781 100.9531,450.3594 Q101.25,450.6406 101.25,451.2969 L101.25,452.8594 Q101.25,453.5156 100.9688,453.7969 Q100.6875,454.0781 100.25,454.0781 Q99.8594,454.0781 99.6094,453.9063 Q99.3594,453.7344 99.25,453.2813 Q99.2031,452.9688 99.0313,452.7969 Q98.7188,452.4688 98.1563,452.2813 Q97.5938,452.0781 97.0313,452.0781 Q96.3281,452.0781 95.7344,452.3594 Q95.1563,452.6406 94.7031,453.2656 Q94.25,453.8906 94.25,454.75 L94.25,455.6719 Q94.25,456.7031 95.0938,457.3906 Q95.9375,458.0781 97.4375,458.0781 Q98.3281,458.0781 98.9531,457.875 Q99.3125,457.7656 99.7188,457.4063 Q99.9844,457.2031 100.125,457.1406 Q100.2656,457.0781 100.4375,457.0781 Q100.7656,457.0781 101,457.3438 Q101.25,457.5938 101.25,457.9531 Q101.25,458.2969 100.9063,458.7031 Q100.4063,459.2969 99.6094,459.625 Q98.5625,460.0781 97.2813,460.0781 Q95.7813,460.0781 94.5781,459.4844 Q93.6094,459.0156 92.9219,458 Q92.25,456.9844 92.25,455.7813 L92.25,454.6875 Q92.25,453.4375 92.8438,452.3438 Q93.4531,451.25 94.5,450.6719 Q95.5625,450.0781 96.75,450.0781 Q97.4688,450.0781 98.0938,450.3281 Q98.7188,450.5781 99.25,451.0781 Z " fill="#000000"/><text fill="#000000" font-family="sans-serif" font-size="12" lengthAdjust="spacing" textLength="77" x="117.75" y="459.4883">TypologyStore</text><line style="stroke:#A80036;stroke-width:1.5;" x1="33.5" x2="246.5" y1="470.5781" y2="470.5781"/><rect fill="none" height="6" style="stroke:#C82930;stroke-width:1.0;" width="6" x="40.5" y="478.5781"/><text fill="#000000" font-family="sans-serif" font-size="11" lengthAdjust="spacing" textLength="134" x="52.5" y="485.9971">List&lt;Typology&gt; typologyList</text><line style="stroke:#A80036;stroke-width:1.5;" x1="33.5" x2="246.5" y1="492.4141" y2="492.4141"/><ellipse cx="43.5" cy="503.4141" fill="#84BE84" rx="3" ry="3" style="stroke:#038048;stroke-width:1.0;"/><text fill="#000000" font-family="sans-serif" font-size="11" lengthAdjust="spacing" textLength="84" x="52.5" y="507.833">getTypologyList()</text><polygon fill="#FFFF44" points="43.5,512.25,47.5,516.25,43.5,520.25,39.5,516.25" style="stroke:#B38D22;stroke-width:1.0;"/><text fill="#000000" font-family="sans-serif" font-size="11" lengthAdjust="spacing" textLength="189" x="52.5" y="521.6689">checkIfTypologyIsDuplicated(Typology)</text><ellipse cx="43.5" cy="531.0859" fill="#84BE84" rx="3" ry="3" style="stroke:#038048;stroke-width:1.0;"/><text fill="#000000" font-family="sans-serif" font-size="11" lengthAdjust="spacing" textLength="114" x="52.5" y="535.5049">addTypology(Typology)</text><!--MD5=[024d6bb17f4c47f299ed89907d0655d2]
class Typology--><rect codeLine="30" fill="#FEFECE" filter="url(#f1rq1plsn5c0uk)" height="75.6719" id="Typology" style="stroke:#A80036;stroke-width:1.5;" width="190" x="45" y="601.5781"/><ellipse cx="111.75" cy="617.5781" fill="#ADD1B2" rx="11" ry="11" style="stroke:#A80036;stroke-width:1.0;"/><path d="M113.75,614.0781 Q113.9531,613.5781 114.1875,613.3281 Q114.4219,613.0781 114.6875,613.0781 Q115.1563,613.0781 115.4531,613.3594 Q115.75,613.6406 115.75,614.2969 L115.75,615.8594 Q115.75,616.5156 115.4688,616.7969 Q115.1875,617.0781 114.75,617.0781 Q114.3594,617.0781 114.1094,616.9063 Q113.8594,616.7344 113.75,616.2813 Q113.7031,615.9688 113.5313,615.7969 Q113.2188,615.4688 112.6563,615.2813 Q112.0938,615.0781 111.5313,615.0781 Q110.8281,615.0781 110.2344,615.3594 Q109.6563,615.6406 109.2031,616.2656 Q108.75,616.8906 108.75,617.75 L108.75,618.6719 Q108.75,619.7031 109.5938,620.3906 Q110.4375,621.0781 111.9375,621.0781 Q112.8281,621.0781 113.4531,620.875 Q113.8125,620.7656 114.2188,620.4063 Q114.4844,620.2031 114.625,620.1406 Q114.7656,620.0781 114.9375,620.0781 Q115.2656,620.0781 115.5,620.3438 Q115.75,620.5938 115.75,620.9531 Q115.75,621.2969 115.4063,621.7031 Q114.9063,622.2969 114.1094,622.625 Q113.0625,623.0781 111.7813,623.0781 Q110.2813,623.0781 109.0781,622.4844 Q108.1094,622.0156 107.4219,621 Q106.75,619.9844 106.75,618.7813 L106.75,617.6875 Q106.75,616.4375 107.3438,615.3438 Q107.9531,614.25 109,613.6719 Q110.0625,613.0781 111.25,613.0781 Q111.9688,613.0781 112.5938,613.3281 Q113.2188,613.5781 113.75,614.0781 Z " fill="#000000"/><text fill="#000000" font-family="sans-serif" font-size="12" lengthAdjust="spacing" textLength="48" x="132.25" y="622.4883">Typology</text><line style="stroke:#A80036;stroke-width:1.5;" x1="46" x2="234" y1="633.5781" y2="633.5781"/><rect fill="none" height="6" style="stroke:#C82930;stroke-width:1.0;" width="6" x="53" y="641.5781"/><text fill="#000000" font-family="sans-serif" font-size="11" lengthAdjust="spacing" textLength="84" x="65" y="648.9971">String description</text><line style="stroke:#A80036;stroke-width:1.5;" x1="46" x2="234" y1="655.4141" y2="655.4141"/><polygon fill="#FFFF44" points="56,661.4141,60,665.4141,56,669.4141,52,665.4141" style="stroke:#B38D22;stroke-width:1.0;"/><text fill="#000000" font-family="sans-serif" font-size="11" lengthAdjust="spacing" textLength="164" x="65" y="670.833">checkRulesForTypologyCreation()</text><!--MD5=[330248e712dc15bfc825ee2728af62ad]
link CreateTypologyUserInterface to CreateTypologyController--><path codeLine="37" d="M140,102.6381 C140,118.0981 140,139.0581 140,158.2581 " fill="none" id="CreateTypologyUserInterface-to-CreateTypologyController" style="stroke:#A80036;stroke-width:1.0;stroke-dasharray:7.0,7.0;"/><polygon fill="none" points="147,158.4281,140,178.4281,133,158.4281,147,158.4281" style="stroke:#A80036;stroke-width:1.0;"/><!--MD5=[80e0c65bd64b90a3c3d4e118a5a1a512]
link CreateTypologyController to DataManagement--><path codeLine="39" d="M140,240.7581 C140,257.0481 140,277.5781 140,296.2081 " fill="none" id="CreateTypologyController-to-DataManagement" style="stroke:#A80036;stroke-width:1.0;stroke-dasharray:7.0,7.0;"/><polygon fill="none" points="147,296.4781,140,316.4781,133,296.4781,147,296.4781" style="stroke:#A80036;stroke-width:1.0;"/><!--MD5=[90552ce0a883277942cc70277e91e47f]
link DataManagement to TypologyStore--><path codeLine="40" d="M140,378.7181 C140,394.6381 140,414.6881 140,433.3181 " fill="none" id="DataManagement-to-TypologyStore" style="stroke:#A80036;stroke-width:1.0;"/><polygon fill="#A80036" points="140,438.5381,144,429.5381,140,433.5381,136,429.5381,140,438.5381" style="stroke:#A80036;stroke-width:1.0;"/><!--MD5=[76a66fe33726f1811b133d53d476a810]
link TypologyStore to Typology--><path codeLine="41" d="M140,541.8381 C140,559.5081 140,579.1381 140,596.0681 " fill="none" id="TypologyStore-to-Typology" style="stroke:#A80036;stroke-width:1.0;"/><polygon fill="#A80036" points="140,601.2381,144,592.2381,140,596.2381,136,592.2381,140,601.2381" style="stroke:#A80036;stroke-width:1.0;"/><text fill="#888888" font-family="sans-serif" font-size="10" lengthAdjust="spacing" textLength="224" x="22" y="709.959">US 012 - As Director, I want to create Typology.</text><!--MD5=[c4658823ca03e1c1839352aae95e5d00]
@startuml
'https://plantuml.com/class-diagram

header
Sequence Diagram of US012
endheader

center footer US 012 - As Director, I want to create Typology.

package userInterface{
class CreateTypologyUserInterface
}

package controller{
class CreateTypologyController{
+createTypology(String projectDescription)
}
}

package model{
class DataManagement{
+getTypologyStore()
}
class TypologyStore {
-List<Typology> typologyList
+getTypologyList()
#checkIfTypologyIsDuplicated(Typology)
+addTypology(Typology)
}

class Typology {
-String projectDescription
#checkRulesForTypologyCreation()
}
}


CreateTypologyUserInterface .down-|> CreateTypologyController

DataManagement <|-up. CreateTypologyController
DataManagement - -> TypologyStore
Typology <-up- TypologyStore






@enduml

@startuml

header
Sequence Diagram of US012
endheader

center footer US 012 - As Director, I want to create Typology.

package userInterface{
class CreateTypologyUserInterface
}

package controller{
class CreateTypologyController{
+createTypology(String projectDescription)
}
}

package model{
class DataManagement{
+getTypologyStore()
}
class TypologyStore {
-List<Typology> typologyList
+getTypologyList()
#checkIfTypologyIsDuplicated(Typology)
+addTypology(Typology)
}

class Typology {
-String projectDescription
#checkRulesForTypologyCreation()
}
}


CreateTypologyUserInterface .down-|> CreateTypologyController

DataManagement <|-up. CreateTypologyController
DataManagement - -> TypologyStore
Typology <-up- TypologyStore






@enduml

PlantUML version 1.2021.16(Wed Dec 08 17:25:22 GMT 2021)
(GPL source distribution)
Java Runtime: OpenJDK Runtime Environment
JVM: OpenJDK 64-Bit Server VM
Default Encoding: Cp1252
Language: pt
Country: PT
--></g></svg>