<?xml version="1.0" encoding="UTF-8" standalone="no"?><svg xmlns="http://www.w3.org/2000/svg" xmlns:xlink="http://www.w3.org/1999/xlink" contentScriptType="application/ecmascript" contentStyleType="text/css" height="340px" preserveAspectRatio="none" style="width:721px;height:340px;background:#FFFFFF;" version="1.1" viewBox="0 0 721 340" width="721px" zoomAndPan="magnify"><defs><filter height="300%" id="fhrfz4w5poree" width="300%" x="-1" y="-1"><feGaussianBlur result="blurOut" stdDeviation="2.0"/><feColorMatrix in="blurOut" result="blurOut2" type="matrix" values="0 0 0 0 0 0 0 0 0 0 0 0 0 0 0 0 0 0 .4 0"/><feOffset dx="4.0" dy="4.0" in="blurOut2" result="blurOut3"/><feBlend in="SourceGraphic" in2="blurOut3" mode="normal"/></filter></defs><g><!--MD5=[99b31deea5d7419a569cd5090bf83263]
cluster System--><polygon fill="#FFFFFF" filter="url(#fhrfz4w5poree)" points="176,6,232,6,239,29.6094,704,29.6094,704,333,176,333,176,6" style="stroke:#000000;stroke-width:1.5;"/><line style="stroke:#000000;stroke-width:1.5;" x1="176" x2="239" y1="29.6094" y2="29.6094"/><text fill="#000000" font-family="sans-serif" font-size="14" font-weight="bold" lengthAdjust="spacing" textLength="50" x="180" y="22.5332">System</text><ellipse cx="317.097" cy="61.1194" fill="#FEFECE" filter="url(#fhrfz4w5poree)" rx="81.097" ry="18.6194" style="stroke:#A80036;stroke-width:1.5;"/><text fill="#000000" font-family="sans-serif" font-size="14" lengthAdjust="spacing" textLength="117" x="258.0843" y="64.9982">Insert projectDeprecated code</text><ellipse cx="317.0039" cy="131.0008" fill="#FEFECE" filter="url(#fhrfz4w5poree)" rx="70.5039" ry="16.5008" style="stroke:#A80036;stroke-width:1.5;"/><text fill="#000000" font-family="sans-serif" font-size="14" lengthAdjust="spacing" textLength="89" x="269.5039" y="135.5174">Insert sprint id</text><ellipse cx="317.205" cy="209.941" fill="#FEFECE" filter="url(#fhrfz4w5poree)" rx="125.205" ry="27.441" style="stroke:#A80036;stroke-width:1.5;"/><text fill="#000000" font-family="sans-serif" font-size="14" lengthAdjust="spacing" textLength="216" x="209.205" y="213.6695">Insert task name, description, type</text><ellipse cx="316.837" cy="294.9674" fill="#FEFECE" filter="url(#fhrfz4w5poree)" rx="97.837" ry="21.9674" style="stroke:#A80036;stroke-width:1.5;"/><text fill="#000000" font-family="sans-serif" font-size="14" lengthAdjust="spacing" textLength="156" x="238.837" y="298.6959">Create new task in sprint</text><ellipse cx="616.5677" cy="285.2135" fill="#FEFECE" filter="url(#fhrfz4w5poree)" rx="71.5677" ry="16.7135" style="stroke:#A80036;stroke-width:1.5;"/><text fill="#000000" font-family="sans-serif" font-size="14" lengthAdjust="spacing" textLength="92" x="567.5677" y="289.7301">List of projects</text><ellipse cx="616.2688" cy="217.1538" fill="#FEFECE" filter="url(#fhrfz4w5poree)" rx="68.7688" ry="16.1538" style="stroke:#A80036;stroke-width:1.5;"/><text fill="#000000" font-family="sans-serif" font-size="14" lengthAdjust="spacing" textLength="84" x="571.2688" y="221.6704">List of sprints</text><!--MD5=[fee662a292a0353a69bd162820bae93b]
entity User--><ellipse cx="67.5" cy="149" fill="#FEFECE" filter="url(#fhrfz4w5poree)" rx="8" ry="8" style="stroke:#A80036;stroke-width:1.5;"/><path d="M67.5,157 L67.5,184 M54.5,165 L80.5,165 M67.5,184 L54.5,199 M67.5,184 L80.5,199 " fill="none" filter="url(#fhrfz4w5poree)" style="stroke:#A80036;stroke-width:1.5;"/><text fill="#000000" font-family="sans-serif" font-size="14" lengthAdjust="spacing" textLength="123" x="6" y="219.0332">SM / Team Member</text><!--MD5=[7522d5c5799d0652da24a5d0145a519b]
link User to US1--><path d="M108.94,139.45 C125.9,124.12 146.63,107.85 168,97 C191.1,85.27 218.19,77.25 242.84,71.81 " fill="none" id="User-to-US1" style="stroke:#A80036;stroke-width:1.0;"/><polygon fill="#A80036" points="247.74,70.76,238.0976,68.7538,242.8531,71.8174,239.7895,76.5729,247.74,70.76" style="stroke:#A80036;stroke-width:1.0;"/><!--MD5=[40d0f94bfbad6ee11e3350241482b726]
link User to US2--><path d="M129.05,168.77 C168.22,160.86 218.94,150.61 257.66,142.79 " fill="none" id="User-to-US2" style="stroke:#A80036;stroke-width:1.0;"/><polygon fill="#A80036" points="262.8,141.75,253.1879,139.6035,257.8982,142.7361,254.7656,147.4464,262.8,141.75" style="stroke:#A80036;stroke-width:1.0;"/><!--MD5=[b35f596a8f6a10395dba456ca2afddc6]
link User to US3--><path d="M129.05,188.09 C150.91,190.66 176.38,193.64 201.35,196.57 " fill="none" id="User-to-US3" style="stroke:#A80036;stroke-width:1.0;"/><polygon fill="#A80036" points="206.34,197.15,197.8698,192.1244,201.3743,196.565,196.9338,200.0695,206.34,197.15" style="stroke:#A80036;stroke-width:1.0;"/><!--MD5=[447a4efe17a22d68cd6b8a681c348111]
link User to US4--><path d="M116.75,222.55 C132.32,234.37 150.18,246.35 168,255 C189.46,265.41 214.04,273.44 236.91,279.47 " fill="none" id="User-to-US4" style="stroke:#A80036;stroke-width:1.0;"/><polygon fill="#A80036" points="241.77,280.73,234.0638,274.597,236.9304,279.4737,232.0537,282.3403,241.77,280.73" style="stroke:#A80036;stroke-width:1.0;"/><!--MD5=[3b776e7bb5350df8cdf5e9d430ca1585]
link US4 to US5--><path d="M414.18,291.77 C455.12,290.39 502.16,288.81 540.47,287.52 " fill="none" id="US4-to-US5" style="stroke:#A80036;stroke-width:1.0;stroke-dasharray:7.0,7.0;"/><polygon fill="#A80036" points="545.58,287.35,536.4482,283.6607,540.5829,287.5213,536.7223,291.656,545.58,287.35" style="stroke:#A80036;stroke-width:1.0;"/><text fill="#000000" font-family="sans-serif" font-size="13" lengthAdjust="spacing" textLength="41" x="473" y="285.4951">include</text><!--MD5=[a6a6841540cbc65adcc77e76b2e94282]
link US4 to US6--><path d="M381.46,278.36 C436.23,264 514.31,243.53 564.95,230.25 " fill="none" id="US4-to-US6" style="stroke:#A80036;stroke-width:1.0;stroke-dasharray:7.0,7.0;"/><polygon fill="#A80036" points="570.07,228.91,560.3525,227.3066,565.2313,230.1698,562.3682,235.0486,570.07,228.91" style="stroke:#A80036;stroke-width:1.0;"/><text fill="#000000" font-family="sans-serif" font-size="13" lengthAdjust="spacing" textLength="41" x="473" y="241.4951">include</text><!--MD5=[a0702597abacfe1d851ebcb435c29465]
@startuml
'https://plantuml.com/use-case-diagram

left to right direction
:SM / Team Member: as User
package System{
    usecase "Insert projectDeprecated code" as US1
    usecase "Insert sprint id" as US2
    usecase "Insert task name, projectDescription, type" as US3
    usecase "Create new task in sprint" as US4
    usecase "List of projects" as US5
    usecase "List of sprints" as US6
}
User - -> US1
User - -> US2
User - -> US3
User - -> US4
US4 ..> US5 : include
US4 ..> US6 : include



@enduml

@startuml

left to right direction
:SM / Team Member: as User
package System{
    usecase "Insert projectDeprecated code" as US1
    usecase "Insert sprint id" as US2
    usecase "Insert task name, projectDescription, type" as US3
    usecase "Create new task in sprint" as US4
    usecase "List of projects" as US5
    usecase "List of sprints" as US6
}
User - -> US1
User - -> US2
User - -> US3
User - -> US4
US4 ..> US5 : include
US4 ..> US6 : include



@enduml

PlantUML version 1.2021.16(Wed Dec 08 17:25:22 GMT 2021)
(GPL source distribution)
Java Runtime: OpenJDK Runtime Environment
JVM: OpenJDK 64-Bit Server VM
Default Encoding: Cp1252
Language: en
Country: GB
--></g></svg>