<?xml version="1.0" encoding="UTF-8" standalone="no"?><svg xmlns="http://www.w3.org/2000/svg" xmlns:xlink="http://www.w3.org/1999/xlink" contentScriptType="application/ecmascript" contentStyleType="text/css" height="691px" preserveAspectRatio="none" style="width:2830px;height:691px;background:#FFFFFF;" version="1.1" viewBox="0 0 2830 691" width="2830px" zoomAndPan="magnify"><defs><filter height="300%" id="f4hvgjk4zq87l" width="300%" x="-1" y="-1"><feGaussianBlur result="blurOut" stdDeviation="2.0"/><feColorMatrix in="blurOut" result="blurOut2" type="matrix" values="0 0 0 0 0 0 0 0 0 0 0 0 0 0 0 0 0 0 .4 0"/><feOffset dx="4.0" dy="4.0" in="blurOut2" result="blurOut3"/><feBlend in="SourceGraphic" in2="blurOut3" mode="normal"/></filter></defs><g><!--MD5=[9681dc6e01e10c6b4fe06895ae94f592]
cluster UI--><polygon fill="#FFFFFF" filter="url(#f4hvgjk4zq87l)" points="16,364,36,364,43,387.6094,270,387.6094,270,464,16,464,16,364" style="stroke:#000000;stroke-width:1.5;"/><line style="stroke:#000000;stroke-width:1.5;" x1="16" x2="43" y1="387.6094" y2="387.6094"/><text fill="#000000" font-family="sans-serif" font-size="14" font-weight="bold" lengthAdjust="spacing" textLength="14" x="20" y="380.5332">UI</text><!--MD5=[2c2e2644034c00788261e03c85b06837]
cluster Core--><polygon fill="#FFFFFF" filter="url(#f4hvgjk4zq87l)" points="314,6,354,6,361,29.6094,2813,29.6094,2813,684,314,684,314,6" style="stroke:#000000;stroke-width:1.5;"/><line style="stroke:#000000;stroke-width:1.5;" x1="314" x2="361" y1="29.6094" y2="29.6094"/><text fill="#000000" font-family="sans-serif" font-size="14" font-weight="bold" lengthAdjust="spacing" textLength="34" x="318" y="22.5332">Core</text><!--MD5=[1f2cfc53d9d308f53762fd0fcbaa4873]
cluster Controller--><polygon fill="#FFFFFF" filter="url(#f4hvgjk4zq87l)" points="338,50,415,50,422,73.6094,2789,73.6094,2789,660,338,660,338,50" style="stroke:#000000;stroke-width:1.5;"/><line style="stroke:#000000;stroke-width:1.5;" x1="338" x2="422" y1="73.6094" y2="73.6094"/><text fill="#000000" font-family="sans-serif" font-size="14" font-weight="bold" lengthAdjust="spacing" textLength="71" x="342" y="66.5332">Controller</text><!--MD5=[121a8bf1197281ab89ed693fab589f94]
cluster Domain--><polygon fill="#FFFFFF" filter="url(#f4hvgjk4zq87l)" points="880,94,938,94,945,117.6094,2765,117.6094,2765,478,880,478,880,94" style="stroke:#000000;stroke-width:1.5;"/><line style="stroke:#000000;stroke-width:1.5;" x1="880" x2="945" y1="117.6094" y2="117.6094"/><text fill="#000000" font-family="sans-serif" font-size="14" font-weight="bold" lengthAdjust="spacing" textLength="52" x="884" y="110.5332">Domain</text><!--MD5=[6c05a5cb422bad0412a5f473b0c63b1a]
class smTmRegisterWorkDoneInTaskUI--><rect codeLine="4" fill="#FEFECE" filter="url(#f4hvgjk4zq87l)" height="48" id="smTmRegisterWorkDoneInTaskUI" style="stroke:#A80036;stroke-width:1.5;" width="222" x="32" y="400"/><ellipse cx="47" cy="416" fill="#ADD1B2" rx="11" ry="11" style="stroke:#A80036;stroke-width:1.0;"/><path d="M49,412.5 Q49.2031,412 49.4375,411.75 Q49.6719,411.5 49.9375,411.5 Q50.4063,411.5 50.7031,411.7813 Q51,412.0625 51,412.7188 L51,414.2813 Q51,414.9375 50.7188,415.2188 Q50.4375,415.5 50,415.5 Q49.6094,415.5 49.3594,415.3281 Q49.1094,415.1563 49,414.7031 Q48.9531,414.3906 48.7813,414.2188 Q48.4688,413.8906 47.9063,413.7031 Q47.3438,413.5 46.7813,413.5 Q46.0781,413.5 45.4844,413.7813 Q44.9063,414.0625 44.4531,414.6875 Q44,415.3125 44,416.1719 L44,417.0938 Q44,418.125 44.8438,418.8125 Q45.6875,419.5 47.1875,419.5 Q48.0781,419.5 48.7031,419.2969 Q49.0625,419.1875 49.4688,418.8281 Q49.7344,418.625 49.875,418.5625 Q50.0156,418.5 50.1875,418.5 Q50.5156,418.5 50.75,418.7656 Q51,419.0156 51,419.375 Q51,419.7188 50.6563,420.125 Q50.1563,420.7188 49.3594,421.0469 Q48.3125,421.5 47.0313,421.5 Q45.5313,421.5 44.3281,420.9063 Q43.3594,420.4375 42.6719,419.4219 Q42,418.4063 42,417.2031 L42,416.1094 Q42,414.8594 42.5938,413.7656 Q43.2031,412.6719 44.25,412.0938 Q45.3125,411.5 46.5,411.5 Q47.2188,411.5 47.8438,411.75 Q48.4688,412 49,412.5 Z " fill="#000000"/><text fill="#000000" font-family="sans-serif" font-size="12" lengthAdjust="spacing" textLength="190" x="61" y="420.9102">smTmRegisterWorkDoneInTaskUI</text><line style="stroke:#A80036;stroke-width:1.5;" x1="33" x2="253" y1="432" y2="432"/><line style="stroke:#A80036;stroke-width:1.5;" x1="33" x2="253" y1="440" y2="440"/><!--MD5=[50992dff7b8320effbef8f6e178ee726]
class smTmRegisterWorkDoneInTaskController--><rect codeLine="12" fill="#FEFECE" filter="url(#f4hvgjk4zq87l)" height="75.6719" id="smTmRegisterWorkDoneInTaskController" style="stroke:#A80036;stroke-width:1.5;" width="442" x="354" y="386"/><ellipse cx="454.75" cy="402" fill="#ADD1B2" rx="11" ry="11" style="stroke:#A80036;stroke-width:1.0;"/><path d="M456.75,398.5 Q456.9531,398 457.1875,397.75 Q457.4219,397.5 457.6875,397.5 Q458.1563,397.5 458.4531,397.7813 Q458.75,398.0625 458.75,398.7188 L458.75,400.2813 Q458.75,400.9375 458.4688,401.2188 Q458.1875,401.5 457.75,401.5 Q457.3594,401.5 457.1094,401.3281 Q456.8594,401.1563 456.75,400.7031 Q456.7031,400.3906 456.5313,400.2188 Q456.2188,399.8906 455.6563,399.7031 Q455.0938,399.5 454.5313,399.5 Q453.8281,399.5 453.2344,399.7813 Q452.6563,400.0625 452.2031,400.6875 Q451.75,401.3125 451.75,402.1719 L451.75,403.0938 Q451.75,404.125 452.5938,404.8125 Q453.4375,405.5 454.9375,405.5 Q455.8281,405.5 456.4531,405.2969 Q456.8125,405.1875 457.2188,404.8281 Q457.4844,404.625 457.625,404.5625 Q457.7656,404.5 457.9375,404.5 Q458.2656,404.5 458.5,404.7656 Q458.75,405.0156 458.75,405.375 Q458.75,405.7188 458.4063,406.125 Q457.9063,406.7188 457.1094,407.0469 Q456.0625,407.5 454.7813,407.5 Q453.2813,407.5 452.0781,406.9063 Q451.1094,406.4375 450.4219,405.4219 Q449.75,404.4063 449.75,403.2031 L449.75,402.1094 Q449.75,400.8594 450.3438,399.7656 Q450.9531,398.6719 452,398.0938 Q453.0625,397.5 454.25,397.5 Q454.9688,397.5 455.5938,397.75 Q456.2188,398 456.75,398.5 Z " fill="#000000"/><text fill="#000000" font-family="sans-serif" font-size="12" lengthAdjust="spacing" textLength="232" x="475.25" y="406.9102">smTmRegisterWorkDoneInTaskController</text><line style="stroke:#A80036;stroke-width:1.5;" x1="355" x2="795" y1="418" y2="418"/><line style="stroke:#A80036;stroke-width:1.5;" x1="355" x2="795" y1="426" y2="426"/><ellipse cx="365" cy="437" fill="#84BE84" rx="3" ry="3" style="stroke:#038048;stroke-width:1.0;"/><text fill="#000000" font-family="sans-serif" font-size="11" lengthAdjust="spacing" textLength="416" x="374" y="441.4189">registerWorkDoneInTask(String projectCode, int userStoryID, int taskID, int hoursSpent,</text><text fill="#000000" font-family="sans-serif" font-size="11" lengthAdjust="spacing" textLength="99" x="374" y="455.2549">LocalDate nowDate)</text><!--MD5=[f76abaf2a40a033669ede8bc6a640b48]
class Datamanagement--><rect codeLine="19" fill="#FEFECE" filter="url(#f4hvgjk4zq87l)" height="75.6719" id="Datamanagement" style="stroke:#A80036;stroke-width:1.5;" width="136" x="917" y="130"/><ellipse cx="933.8" cy="146" fill="#ADD1B2" rx="11" ry="11" style="stroke:#A80036;stroke-width:1.0;"/><path d="M935.8,142.5 Q936.0031,142 936.2375,141.75 Q936.4719,141.5 936.7375,141.5 Q937.2063,141.5 937.5031,141.7813 Q937.8,142.0625 937.8,142.7188 L937.8,144.2813 Q937.8,144.9375 937.5188,145.2188 Q937.2375,145.5 936.8,145.5 Q936.4094,145.5 936.1594,145.3281 Q935.9094,145.1563 935.8,144.7031 Q935.7531,144.3906 935.5813,144.2188 Q935.2688,143.8906 934.7063,143.7031 Q934.1438,143.5 933.5813,143.5 Q932.8781,143.5 932.2844,143.7813 Q931.7063,144.0625 931.2531,144.6875 Q930.8,145.3125 930.8,146.1719 L930.8,147.0938 Q930.8,148.125 931.6438,148.8125 Q932.4875,149.5 933.9875,149.5 Q934.8781,149.5 935.5031,149.2969 Q935.8625,149.1875 936.2688,148.8281 Q936.5344,148.625 936.675,148.5625 Q936.8156,148.5 936.9875,148.5 Q937.3156,148.5 937.55,148.7656 Q937.8,149.0156 937.8,149.375 Q937.8,149.7188 937.4563,150.125 Q936.9563,150.7188 936.1594,151.0469 Q935.1125,151.5 933.8313,151.5 Q932.3313,151.5 931.1281,150.9063 Q930.1594,150.4375 929.4719,149.4219 Q928.8,148.4063 928.8,147.2031 L928.8,146.1094 Q928.8,144.8594 929.3938,143.7656 Q930.0031,142.6719 931.05,142.0938 Q932.1125,141.5 933.3,141.5 Q934.0188,141.5 934.6438,141.75 Q935.2688,142 935.8,142.5 Z " fill="#000000"/><text fill="#000000" font-family="sans-serif" font-size="12" lengthAdjust="spacing" textLength="100" x="948.2" y="150.9102">Datamanagement</text><line style="stroke:#A80036;stroke-width:1.5;" x1="918" x2="1052" y1="162" y2="162"/><text fill="#000000" font-family="sans-serif" font-size="11" lengthAdjust="spacing" textLength="124" x="923" y="177.4189">projectStore : ProjecStore</text><line style="stroke:#A80036;stroke-width:1.5;" x1="918" x2="1052" y1="183.8359" y2="183.8359"/><ellipse cx="928" cy="194.8359" fill="#84BE84" rx="3" ry="3" style="stroke:#038048;stroke-width:1.0;"/><text fill="#000000" font-family="sans-serif" font-size="11" lengthAdjust="spacing" textLength="82" x="937" y="199.2549">getProjectStore()</text><!--MD5=[0e2dc774669aaa9c3b016910adaf61fb]
class ProjecStore--><rect codeLine="24" fill="#FEFECE" filter="url(#f4hvgjk4zq87l)" height="75.6719" id="ProjecStore" style="stroke:#A80036;stroke-width:1.5;" width="178" x="896" y="386"/><ellipse cx="948.75" cy="402" fill="#ADD1B2" rx="11" ry="11" style="stroke:#A80036;stroke-width:1.0;"/><path d="M950.75,398.5 Q950.9531,398 951.1875,397.75 Q951.4219,397.5 951.6875,397.5 Q952.1563,397.5 952.4531,397.7813 Q952.75,398.0625 952.75,398.7188 L952.75,400.2813 Q952.75,400.9375 952.4688,401.2188 Q952.1875,401.5 951.75,401.5 Q951.3594,401.5 951.1094,401.3281 Q950.8594,401.1563 950.75,400.7031 Q950.7031,400.3906 950.5313,400.2188 Q950.2188,399.8906 949.6563,399.7031 Q949.0938,399.5 948.5313,399.5 Q947.8281,399.5 947.2344,399.7813 Q946.6563,400.0625 946.2031,400.6875 Q945.75,401.3125 945.75,402.1719 L945.75,403.0938 Q945.75,404.125 946.5938,404.8125 Q947.4375,405.5 948.9375,405.5 Q949.8281,405.5 950.4531,405.2969 Q950.8125,405.1875 951.2188,404.8281 Q951.4844,404.625 951.625,404.5625 Q951.7656,404.5 951.9375,404.5 Q952.2656,404.5 952.5,404.7656 Q952.75,405.0156 952.75,405.375 Q952.75,405.7188 952.4063,406.125 Q951.9063,406.7188 951.1094,407.0469 Q950.0625,407.5 948.7813,407.5 Q947.2813,407.5 946.0781,406.9063 Q945.1094,406.4375 944.4219,405.4219 Q943.75,404.4063 943.75,403.2031 L943.75,402.1094 Q943.75,400.8594 944.3438,399.7656 Q944.9531,398.6719 946,398.0938 Q947.0625,397.5 948.25,397.5 Q948.9688,397.5 949.5938,397.75 Q950.2188,398 950.75,398.5 Z " fill="#000000"/><text fill="#000000" font-family="sans-serif" font-size="12" lengthAdjust="spacing" textLength="64" x="969.25" y="406.9102">ProjecStore</text><line style="stroke:#A80036;stroke-width:1.5;" x1="897" x2="1073" y1="418" y2="418"/><text fill="#000000" font-family="sans-serif" font-size="11" lengthAdjust="spacing" textLength="121" x="902" y="433.4189">projectList : List&lt;Project&gt;</text><line style="stroke:#A80036;stroke-width:1.5;" x1="897" x2="1073" y1="439.8359" y2="439.8359"/><ellipse cx="907" cy="450.8359" fill="#84BE84" rx="3" ry="3" style="stroke:#038048;stroke-width:1.0;"/><text fill="#000000" font-family="sans-serif" font-size="11" lengthAdjust="spacing" textLength="152" x="916" y="455.2549">getProjectByCode(projectCode)</text><!--MD5=[79d378210367c0c6ec62ef762ddfbd1b]
class ProjectDeprecated--><rect codeLine="29" fill="#FEFECE" filter="url(#f4hvgjk4zq87l)" height="89.5078" id="Project" style="stroke:#A80036;stroke-width:1.5;" width="257" x="1174" y="372"/><ellipse cx="1279.25" cy="388" fill="#ADD1B2" rx="11" ry="11" style="stroke:#A80036;stroke-width:1.0;"/><path d="M1281.25,384.5 Q1281.4531,384 1281.6875,383.75 Q1281.9219,383.5 1282.1875,383.5 Q1282.6563,383.5 1282.9531,383.7813 Q1283.25,384.0625 1283.25,384.7188 L1283.25,386.2813 Q1283.25,386.9375 1282.9688,387.2188 Q1282.6875,387.5 1282.25,387.5 Q1281.8594,387.5 1281.6094,387.3281 Q1281.3594,387.1563 1281.25,386.7031 Q1281.2031,386.3906 1281.0313,386.2188 Q1280.7188,385.8906 1280.1563,385.7031 Q1279.5938,385.5 1279.0313,385.5 Q1278.3281,385.5 1277.7344,385.7813 Q1277.1563,386.0625 1276.7031,386.6875 Q1276.25,387.3125 1276.25,388.1719 L1276.25,389.0938 Q1276.25,390.125 1277.0938,390.8125 Q1277.9375,391.5 1279.4375,391.5 Q1280.3281,391.5 1280.9531,391.2969 Q1281.3125,391.1875 1281.7188,390.8281 Q1281.9844,390.625 1282.125,390.5625 Q1282.2656,390.5 1282.4375,390.5 Q1282.7656,390.5 1283,390.7656 Q1283.25,391.0156 1283.25,391.375 Q1283.25,391.7188 1282.9063,392.125 Q1282.4063,392.7188 1281.6094,393.0469 Q1280.5625,393.5 1279.2813,393.5 Q1277.7813,393.5 1276.5781,392.9063 Q1275.6094,392.4375 1274.9219,391.4219 Q1274.25,390.4063 1274.25,389.2031 L1274.25,388.1094 Q1274.25,386.8594 1274.8438,385.7656 Q1275.4531,384.6719 1276.5,384.0938 Q1277.5625,383.5 1278.75,383.5 Q1279.4688,383.5 1280.0938,383.75 Q1280.7188,384 1281.25,384.5 Z " fill="#000000"/><text fill="#000000" font-family="sans-serif" font-size="12" lengthAdjust="spacing" textLength="38" x="1299.75" y="392.9102">Project</text><line style="stroke:#A80036;stroke-width:1.5;" x1="1175" x2="1430" y1="404" y2="404"/><text fill="#000000" font-family="sans-serif" font-size="11" lengthAdjust="spacing" textLength="61" x="1180" y="419.4189">code : String</text><text fill="#000000" font-family="sans-serif" font-size="11" lengthAdjust="spacing" textLength="110" x="1180" y="433.2549">sprintList : List&lt;Sprint&gt;</text><line style="stroke:#A80036;stroke-width:1.5;" x1="1175" x2="1430" y1="439.6719" y2="439.6719"/><ellipse cx="1185" cy="450.6719" fill="#84BE84" rx="3" ry="3" style="stroke:#038048;stroke-width:1.0;"/><text fill="#000000" font-family="sans-serif" font-size="11" lengthAdjust="spacing" textLength="231" x="1194" y="455.0908">getCurrentActiveSprint(nowDate) :currentSprint</text><!--MD5=[452a66c2e8d45f5bd209be454bbcd04f]
class Sprint--><rect codeLine="35" fill="#FEFECE" filter="url(#f4hvgjk4zq87l)" height="117.1797" id="Sprint" style="stroke:#A80036;stroke-width:1.5;" width="209" x="1632" y="344.5"/><ellipse cx="1716.25" cy="360.5" fill="#ADD1B2" rx="11" ry="11" style="stroke:#A80036;stroke-width:1.0;"/><path d="M1718.25,357 Q1718.4531,356.5 1718.6875,356.25 Q1718.9219,356 1719.1875,356 Q1719.6563,356 1719.9531,356.2813 Q1720.25,356.5625 1720.25,357.2188 L1720.25,358.7813 Q1720.25,359.4375 1719.9688,359.7188 Q1719.6875,360 1719.25,360 Q1718.8594,360 1718.6094,359.8281 Q1718.3594,359.6563 1718.25,359.2031 Q1718.2031,358.8906 1718.0313,358.7188 Q1717.7188,358.3906 1717.1563,358.2031 Q1716.5938,358 1716.0313,358 Q1715.3281,358 1714.7344,358.2813 Q1714.1563,358.5625 1713.7031,359.1875 Q1713.25,359.8125 1713.25,360.6719 L1713.25,361.5938 Q1713.25,362.625 1714.0938,363.3125 Q1714.9375,364 1716.4375,364 Q1717.3281,364 1717.9531,363.7969 Q1718.3125,363.6875 1718.7188,363.3281 Q1718.9844,363.125 1719.125,363.0625 Q1719.2656,363 1719.4375,363 Q1719.7656,363 1720,363.2656 Q1720.25,363.5156 1720.25,363.875 Q1720.25,364.2188 1719.9063,364.625 Q1719.4063,365.2188 1718.6094,365.5469 Q1717.5625,366 1716.2813,366 Q1714.7813,366 1713.5781,365.4063 Q1712.6094,364.9375 1711.9219,363.9219 Q1711.25,362.9063 1711.25,361.7031 L1711.25,360.6094 Q1711.25,359.3594 1711.8438,358.2656 Q1712.4531,357.1719 1713.5,356.5938 Q1714.5625,356 1715.75,356 Q1716.4688,356 1717.0938,356.25 Q1717.7188,356.5 1718.25,357 Z " fill="#000000"/><text fill="#000000" font-family="sans-serif" font-size="12" lengthAdjust="spacing" textLength="32" x="1736.75" y="365.4102">Sprint</text><line style="stroke:#A80036;stroke-width:1.5;" x1="1633" x2="1840" y1="376.5" y2="376.5"/><text fill="#000000" font-family="sans-serif" font-size="11" lengthAdjust="spacing" textLength="56" x="1638" y="391.9189">sprintID : int</text><text fill="#000000" font-family="sans-serif" font-size="11" lengthAdjust="spacing" textLength="95" x="1638" y="405.7549">sprintStatus : String</text><text fill="#000000" font-family="sans-serif" font-size="11" lengthAdjust="spacing" textLength="98" x="1638" y="419.5908">taskList : List&lt;Task&gt;</text><line style="stroke:#A80036;stroke-width:1.5;" x1="1633" x2="1840" y1="426.0078" y2="426.0078"/><ellipse cx="1643" cy="437.0078" fill="#84BE84" rx="3" ry="3" style="stroke:#038048;stroke-width:1.0;"/><text fill="#000000" font-family="sans-serif" font-size="11" lengthAdjust="spacing" textLength="163" x="1652" y="441.4268">getSprintBacklog() : sprintBacklog</text><ellipse cx="1643" cy="450.8438" fill="#84BE84" rx="3" ry="3" style="stroke:#038048;stroke-width:1.0;"/><text fill="#000000" font-family="sans-serif" font-size="11" lengthAdjust="spacing" textLength="183" x="1652" y="455.2627">getSprintTaskById(taskID) : sprintTask</text><!--MD5=[a136f49e3565b20f66540890d0159f10]
class SprintBacklog--><rect codeLine="44" fill="#FEFECE" filter="url(#f4hvgjk4zq87l)" height="75.6719" id="SprintBacklog" style="stroke:#A80036;stroke-width:1.5;" width="212" x="1941" y="174"/><ellipse cx="2004.75" cy="190" fill="#ADD1B2" rx="11" ry="11" style="stroke:#A80036;stroke-width:1.0;"/><path d="M2006.75,186.5 Q2006.9531,186 2007.1875,185.75 Q2007.4219,185.5 2007.6875,185.5 Q2008.1563,185.5 2008.4531,185.7813 Q2008.75,186.0625 2008.75,186.7188 L2008.75,188.2813 Q2008.75,188.9375 2008.4688,189.2188 Q2008.1875,189.5 2007.75,189.5 Q2007.3594,189.5 2007.1094,189.3281 Q2006.8594,189.1563 2006.75,188.7031 Q2006.7031,188.3906 2006.5313,188.2188 Q2006.2188,187.8906 2005.6563,187.7031 Q2005.0938,187.5 2004.5313,187.5 Q2003.8281,187.5 2003.2344,187.7813 Q2002.6563,188.0625 2002.2031,188.6875 Q2001.75,189.3125 2001.75,190.1719 L2001.75,191.0938 Q2001.75,192.125 2002.5938,192.8125 Q2003.4375,193.5 2004.9375,193.5 Q2005.8281,193.5 2006.4531,193.2969 Q2006.8125,193.1875 2007.2188,192.8281 Q2007.4844,192.625 2007.625,192.5625 Q2007.7656,192.5 2007.9375,192.5 Q2008.2656,192.5 2008.5,192.7656 Q2008.75,193.0156 2008.75,193.375 Q2008.75,193.7188 2008.4063,194.125 Q2007.9063,194.7188 2007.1094,195.0469 Q2006.0625,195.5 2004.7813,195.5 Q2003.2813,195.5 2002.0781,194.9063 Q2001.1094,194.4375 2000.4219,193.4219 Q1999.75,192.4063 1999.75,191.2031 L1999.75,190.1094 Q1999.75,188.8594 2000.3438,187.7656 Q2000.9531,186.6719 2002,186.0938 Q2003.0625,185.5 2004.25,185.5 Q2004.9688,185.5 2005.5938,185.75 Q2006.2188,186 2006.75,186.5 Z " fill="#000000"/><text fill="#000000" font-family="sans-serif" font-size="12" lengthAdjust="spacing" textLength="76" x="2025.25" y="194.9102">SprintBacklog</text><line style="stroke:#A80036;stroke-width:1.5;" x1="1942" x2="2152" y1="206" y2="206"/><text fill="#000000" font-family="sans-serif" font-size="11" lengthAdjust="spacing" textLength="149" x="1947" y="221.4189">userStoryList: List&lt;UserStory&gt;</text><line style="stroke:#A80036;stroke-width:1.5;" x1="1942" x2="2152" y1="227.8359" y2="227.8359"/><ellipse cx="1952" cy="238.8359" fill="#84BE84" rx="3" ry="3" style="stroke:#038048;stroke-width:1.0;"/><text fill="#000000" font-family="sans-serif" font-size="11" lengthAdjust="spacing" textLength="186" x="1961" y="243.2549">getUserStory(userStoryID) : userStory</text><!--MD5=[daa6dd44d8f60c5a9cd695bb66773862]
class UserStory--><rect codeLine="49" fill="#FEFECE" filter="url(#f4hvgjk4zq87l)" height="103.3438" id="UserStory" style="stroke:#A80036;stroke-width:1.5;" width="178" x="2253" y="153.5"/><ellipse cx="2310.75" cy="169.5" fill="#ADD1B2" rx="11" ry="11" style="stroke:#A80036;stroke-width:1.0;"/><path d="M2312.75,166 Q2312.9531,165.5 2313.1875,165.25 Q2313.4219,165 2313.6875,165 Q2314.1563,165 2314.4531,165.2813 Q2314.75,165.5625 2314.75,166.2188 L2314.75,167.7813 Q2314.75,168.4375 2314.4688,168.7188 Q2314.1875,169 2313.75,169 Q2313.3594,169 2313.1094,168.8281 Q2312.8594,168.6563 2312.75,168.2031 Q2312.7031,167.8906 2312.5313,167.7188 Q2312.2188,167.3906 2311.6563,167.2031 Q2311.0938,167 2310.5313,167 Q2309.8281,167 2309.2344,167.2813 Q2308.6563,167.5625 2308.2031,168.1875 Q2307.75,168.8125 2307.75,169.6719 L2307.75,170.5938 Q2307.75,171.625 2308.5938,172.3125 Q2309.4375,173 2310.9375,173 Q2311.8281,173 2312.4531,172.7969 Q2312.8125,172.6875 2313.2188,172.3281 Q2313.4844,172.125 2313.625,172.0625 Q2313.7656,172 2313.9375,172 Q2314.2656,172 2314.5,172.2656 Q2314.75,172.5156 2314.75,172.875 Q2314.75,173.2188 2314.4063,173.625 Q2313.9063,174.2188 2313.1094,174.5469 Q2312.0625,175 2310.7813,175 Q2309.2813,175 2308.0781,174.4063 Q2307.1094,173.9375 2306.4219,172.9219 Q2305.75,171.9063 2305.75,170.7031 L2305.75,169.6094 Q2305.75,168.3594 2306.3438,167.2656 Q2306.9531,166.1719 2308,165.5938 Q2309.0625,165 2310.25,165 Q2310.9688,165 2311.5938,165.25 Q2312.2188,165.5 2312.75,166 Z " fill="#000000"/><text fill="#000000" font-family="sans-serif" font-size="12" lengthAdjust="spacing" textLength="54" x="2331.25" y="174.4102">UserStory</text><line style="stroke:#A80036;stroke-width:1.5;" x1="2254" x2="2430" y1="185.5" y2="185.5"/><text fill="#000000" font-family="sans-serif" font-size="11" lengthAdjust="spacing" textLength="77" x="2259" y="200.9189">userStoryID : int</text><text fill="#000000" font-family="sans-serif" font-size="11" lengthAdjust="spacing" textLength="47" x="2259" y="214.7549">effort : int</text><text fill="#000000" font-family="sans-serif" font-size="11" lengthAdjust="spacing" textLength="98" x="2259" y="228.5908">taskList : List&lt;Task&gt;</text><line style="stroke:#A80036;stroke-width:1.5;" x1="2254" x2="2430" y1="235.0078" y2="235.0078"/><ellipse cx="2264" cy="246.0078" fill="#84BE84" rx="3" ry="3" style="stroke:#038048;stroke-width:1.0;"/><text fill="#000000" font-family="sans-serif" font-size="11" lengthAdjust="spacing" textLength="152" x="2273" y="250.4268">getTask(taskID): userStoryTask</text><!--MD5=[b34797a66dc35cbf1d65f7e3ca75530e]
class Task--><rect codeLine="58" fill="#FEFECE" filter="url(#f4hvgjk4zq87l)" height="117.1797" id="Task" style="stroke:#A80036;stroke-width:1.5;" width="218" x="2531" y="245.5"/><ellipse cx="2622.25" cy="261.5" fill="#ADD1B2" rx="11" ry="11" style="stroke:#A80036;stroke-width:1.0;"/><path d="M2624.25,258 Q2624.4531,257.5 2624.6875,257.25 Q2624.9219,257 2625.1875,257 Q2625.6563,257 2625.9531,257.2813 Q2626.25,257.5625 2626.25,258.2188 L2626.25,259.7813 Q2626.25,260.4375 2625.9688,260.7188 Q2625.6875,261 2625.25,261 Q2624.8594,261 2624.6094,260.8281 Q2624.3594,260.6563 2624.25,260.2031 Q2624.2031,259.8906 2624.0313,259.7188 Q2623.7188,259.3906 2623.1563,259.2031 Q2622.5938,259 2622.0313,259 Q2621.3281,259 2620.7344,259.2813 Q2620.1563,259.5625 2619.7031,260.1875 Q2619.25,260.8125 2619.25,261.6719 L2619.25,262.5938 Q2619.25,263.625 2620.0938,264.3125 Q2620.9375,265 2622.4375,265 Q2623.3281,265 2623.9531,264.7969 Q2624.3125,264.6875 2624.7188,264.3281 Q2624.9844,264.125 2625.125,264.0625 Q2625.2656,264 2625.4375,264 Q2625.7656,264 2626,264.2656 Q2626.25,264.5156 2626.25,264.875 Q2626.25,265.2188 2625.9063,265.625 Q2625.4063,266.2188 2624.6094,266.5469 Q2623.5625,267 2622.2813,267 Q2620.7813,267 2619.5781,266.4063 Q2618.6094,265.9375 2617.9219,264.9219 Q2617.25,263.9063 2617.25,262.7031 L2617.25,261.6094 Q2617.25,260.3594 2617.8438,259.2656 Q2618.4531,258.1719 2619.5,257.5938 Q2620.5625,257 2621.75,257 Q2622.4688,257 2623.0938,257.25 Q2623.7188,257.5 2624.25,258 Z " fill="#000000"/><text fill="#000000" font-family="sans-serif" font-size="12" lengthAdjust="spacing" textLength="27" x="2642.75" y="266.4102">Task</text><line style="stroke:#A80036;stroke-width:1.5;" x1="2532" x2="2748" y1="277.5" y2="277.5"/><text fill="#000000" font-family="sans-serif" font-size="11" lengthAdjust="spacing" textLength="49" x="2537" y="292.9189">taskID : int</text><text fill="#000000" font-family="sans-serif" font-size="11" lengthAdjust="spacing" textLength="97" x="2537" y="306.7549">hoursSpent : double</text><text fill="#000000" font-family="sans-serif" font-size="11" lengthAdjust="spacing" textLength="109" x="2537" y="320.5908">effortEstimate : Integer</text><text fill="#000000" font-family="sans-serif" font-size="11" lengthAdjust="spacing" textLength="155" x="2537" y="334.4268">percentageOfExecution : double</text><line style="stroke:#A80036;stroke-width:1.5;" x1="2532" x2="2748" y1="340.8438" y2="340.8438"/><ellipse cx="2542" cy="351.8438" fill="#84BE84" rx="3" ry="3" style="stroke:#038048;stroke-width:1.0;"/><text fill="#000000" font-family="sans-serif" font-size="11" lengthAdjust="spacing" textLength="192" x="2551" y="356.2627">updateWorkDoneInTask(value): boolean</text><!--MD5=[8db6176e3d5d0b572182cf36d215809a]
link smTmRegisterWorkDoneInTaskUI to smTmRegisterWorkDoneInTaskController--><path codeLine="72" d="M254.18,424 C283.23,424 315.66,424 348.42,424 " fill="none" id="smTmRegisterWorkDoneInTaskUI-to-smTmRegisterWorkDoneInTaskController" style="stroke:#A80036;stroke-width:1.0;stroke-dasharray:7.0,7.0;"/><polygon fill="#A80036" points="353.68,424,344.68,420,348.68,424,344.68,428,353.68,424" style="stroke:#A80036;stroke-width:1.0;"/><!--MD5=[7d48fdcb67919c1f00ea8b562602300b]
link smTmRegisterWorkDoneInTaskController to Datamanagement--><path codeLine="74" d="M636.64,385.95 C712.27,338.49 841.07,257.68 918.78,208.92 " fill="none" id="smTmRegisterWorkDoneInTaskController-to-Datamanagement" style="stroke:#A80036;stroke-width:1.0;stroke-dasharray:7.0,7.0;"/><polygon fill="#A80036" points="923.36,206.05,913.6093,207.4368,919.1224,208.7038,917.8554,214.217,923.36,206.05" style="stroke:#A80036;stroke-width:1.0;"/><text fill="#000000" font-family="sans-serif" font-size="13" lengthAdjust="spacing" textLength="100" x="809.0561" y="225.4888">dataManagement</text><!--MD5=[5f6509b22b4256e1519afa3975106631]
link ProjecStore to Datamanagement--><path codeLine="76" d="M985,385.5 C985,325.74 985,265.99 985,206.23 " fill="none" id="ProjecStore-Datamanagement" style="stroke:#A80036;stroke-width:1.0;"/><text fill="#000000" font-family="sans-serif" font-size="13" lengthAdjust="spacing" textLength="7" x="977.3984" y="375.0613">1</text><text fill="#000000" font-family="sans-serif" font-size="13" lengthAdjust="spacing" textLength="7" x="977.4422" y="227.1472">1</text><!--MD5=[2666b9cce0ba7cae5dd0ee751d2a9ebb]
link smTmRegisterWorkDoneInTaskController to ProjecStore--><path codeLine="78" d="M796.12,424 C829.25,424 861.81,424 890.27,424 " fill="none" id="smTmRegisterWorkDoneInTaskController-to-ProjecStore" style="stroke:#A80036;stroke-width:1.0;stroke-dasharray:7.0,7.0;"/><polygon fill="#A80036" points="895.54,424,886.54,420,890.54,424,886.54,428,895.54,424" style="stroke:#A80036;stroke-width:1.0;"/><text fill="#000000" font-family="sans-serif" font-size="13" lengthAdjust="spacing" textLength="70" x="817.9557" y="438.0033">projectStore</text><!--MD5=[76f4358c0ed15bb8b260d4dd8c8f1b19]
reverse link ProjecStore to ProjectDeprecated--><path codeLine="80" d="M1087.59,421.75 C1115.11,421.14 1145.25,420.47 1174,419.83 " fill="none" id="ProjecStore-backto-Project" style="stroke:#A80036;stroke-width:1.0;"/><polygon fill="#A80036" points="1074.3,422.04,1080.3864,425.9072,1086.2971,421.7763,1080.2107,417.9091,1074.3,422.04" style="stroke:#A80036;stroke-width:1.0;"/><text fill="#000000" font-family="sans-serif" font-size="13" lengthAdjust="spacing" textLength="7" x="1081.985" y="436.0634">1</text><text fill="#000000" font-family="sans-serif" font-size="13" lengthAdjust="spacing" textLength="20" x="1145.993" y="434.4483">0..*</text><text fill="#000000" font-family="sans-serif" font-size="13" lengthAdjust="spacing" textLength="0" x="1157.993" y="450.7998"/><!--MD5=[028b2f68069c1e765b5ebe21938dadf0]
reverse link ProjectDeprecated to smTmRegisterWorkDoneInTaskController--><path codeLine="81" d="M1240.97,465.23 C1197.36,496.75 1135.57,535.11 1074,552 C987.42,575.75 959.91,570.19 872,552 C789.08,534.84 700.81,493.27 642.47,462.13 " fill="none" id="Project-backto-smTmRegisterWorkDoneInTaskController" style="stroke:#A80036;stroke-width:1.0;stroke-dasharray:7.0,7.0;"/><polygon fill="#A80036" points="1245.13,462.2,1235.4996,464.2626,1241.0876,465.1426,1240.2076,470.7306,1245.13,462.2" style="stroke:#A80036;stroke-width:1.0;"/><text fill="#000000" font-family="sans-serif" font-size="13" lengthAdjust="spacing" textLength="39" x="1191.5318" y="482.9006">projectDeprecated</text><!--MD5=[c1411256f47ae1ed9a3bb6846f611a01]
reverse link ProjectDeprecated to Sprint--><path codeLine="85" d="M1444.35,412.44 C1505.4,410.46 1575.6,408.18 1631.77,406.36 " fill="none" id="Project-backto-Sprint" style="stroke:#A80036;stroke-width:1.0;"/><polygon fill="#A80036" points="1431.07,412.87,1437.1987,416.6699,1443.0635,412.4742,1436.9348,408.6743,1431.07,412.87" style="stroke:#A80036;stroke-width:1.0;"/><text fill="#000000" font-family="sans-serif" font-size="13" lengthAdjust="spacing" textLength="7" x="1439.118" y="426.6267">1</text><text fill="#000000" font-family="sans-serif" font-size="13" lengthAdjust="spacing" textLength="98" x="1525.8433" y="420.4453">currentSprint 1..*</text><!--MD5=[49ce8b5086de51f2983c0d635ef2b5cc]
reverse link Sprint to Task--><path codeLine="87" d="M1854.08,397.6 C1992.26,390.23 2229.23,374.56 2431,346 C2463.65,341.38 2498.89,334.86 2530.92,328.32 " fill="none" id="Sprint-backto-Task" style="stroke:#A80036;stroke-width:1.0;"/><polygon fill="#A80036" points="1841.02,398.29,1847.2185,401.9748,1853.004,397.6704,1846.8055,393.9855,1841.02,398.29" style="stroke:#A80036;stroke-width:1.0;"/><text fill="#000000" font-family="sans-serif" font-size="13" lengthAdjust="spacing" textLength="7" x="1848.9527" y="412.033">1</text><text fill="#000000" font-family="sans-serif" font-size="13" lengthAdjust="spacing" textLength="84" x="2439.1299" y="343.486">sprintTask 0..*</text><!--MD5=[99e6a3d10935d54e10b120f38e844c1f]
link Sprint to SprintBacklog--><path codeLine="89" d="M1832.16,344.4 C1881.75,313.69 1941.06,276.97 1984.62,250 " fill="none" id="Sprint-SprintBacklog" style="stroke:#A80036;stroke-width:1.0;"/><text fill="#000000" font-family="sans-serif" font-size="13" lengthAdjust="spacing" textLength="7" x="1836.392" y="333.7887">1</text><text fill="#000000" font-family="sans-serif" font-size="13" lengthAdjust="spacing" textLength="90" x="1876.8352" y="271.1702">sprintBacklog 1</text><!--MD5=[b20dd8530b3a17aa1a94792c990de146]
reverse link SprintBacklog to UserStory--><path codeLine="91" d="M2166.51,209.17 C2195.4,208.48 2225.79,207.75 2252.97,207.1 " fill="none" id="SprintBacklog-backto-UserStory" style="stroke:#A80036;stroke-width:1.0;"/><polygon fill="#FFFFFF" points="2153.37,209.48,2159.4649,213.3338,2165.3665,209.19,2159.2716,205.3362,2153.37,209.48" style="stroke:#A80036;stroke-width:1.0;"/><text fill="#000000" font-family="sans-serif" font-size="13" lengthAdjust="spacing" textLength="7" x="2161.0952" y="223.3843">1</text><text fill="#000000" font-family="sans-serif" font-size="13" lengthAdjust="spacing" textLength="80" x="2165.1072" y="221.2108">userStory 1..*</text><!--MD5=[6112db112bf4b73af3d456eccd85a87b]
reverse link UserStory to Task--><path codeLine="93" d="M2443.71,238.68 C2471.79,248.08 2502.41,258.32 2530.89,267.84 " fill="none" id="UserStory-backto-Task" style="stroke:#A80036;stroke-width:1.0;"/><polygon fill="#A80036" points="2431.01,234.44,2435.4293,240.1382,2442.3889,238.2506,2437.9696,232.5523,2431.01,234.44" style="stroke:#A80036;stroke-width:1.0;"/><text fill="#000000" font-family="sans-serif" font-size="13" lengthAdjust="spacing" textLength="7" x="2438.9601" y="251.153">1</text><text fill="#000000" font-family="sans-serif" font-size="13" lengthAdjust="spacing" textLength="108" x="2414.9894" y="279.9753">userStoryTask 0..*</text><!--MD5=[3732a43325f3bb9c2d7c8646f5ec78ee]
@startuml
'https://plantuml.com/class-diagram

package UI{
class smTmRegisterWorkDoneInTaskUI{

}
}

package Core {

package Controller{
class smTmRegisterWorkDoneInTaskController{
+registerWorkDoneInTask(String projectCode, int userStoryID, int taskID, int hoursSpent,
                                          LocalDate nowDate)
}

package Domain {

class Datamanagement{
projectStore : ProjecStore
+getProjectStore()
}

class ProjecStore{
projectList : List<ProjectDeprecated>
+getProjectByCode(projectCode)
}

class ProjectDeprecated{
    code : String
    sprintList : List<Sprint>

+getCurrentActiveSprint(nowDate) :currentSprint
}
class Sprint{
    sprintID : int
    sprintStatus : String
    taskList : List<Task>

+getSprintBacklog() : sprintBacklog
+getSprintTaskById(taskID) : sprintTask
}

class SprintBacklog{
userStoryList: List<UserStory>
+getUserStory(userStoryID) : userStory
}

class UserStory{
    userStoryID : int
    effort : int
    taskList : List<Task>

+getTask(taskID): userStoryTask
}


class Task{
    taskID : int
    hoursSpent : double
    effortEstimate : Integer
    percentageOfExecution : double

+updateWorkDoneInTask(value): boolean
}
}
}
left to right direction
skinparam nodesep 180
skinparam ranksep 100

smTmRegisterWorkDoneInTaskUI ..> smTmRegisterWorkDoneInTaskController

smTmRegisterWorkDoneInTaskController ..> "dataManagement" Datamanagement

Datamanagement"1" -left- "1" ProjecStore

smTmRegisterWorkDoneInTaskController .down.> "projectStore" ProjecStore

ProjecStore "1" *- - "0..*\n" ProjectDeprecated
smTmRegisterWorkDoneInTaskController .left..> "projectDeprecated " ProjectDeprecated



ProjectDeprecated "1" *- - - "currentSprint 1..*"  Sprint

Sprint "1" *- -right- "sprintTask 0..*" Task

Sprint "1" - - "sprintBacklog 1" SprintBacklog

SprintBacklog "1" o- - "userStory 1..*" UserStory

UserStory "1" *- - "userStoryTask 0..*" Task





@enduml

@startuml

package UI{
class smTmRegisterWorkDoneInTaskUI{

}
}

package Core {

package Controller{
class smTmRegisterWorkDoneInTaskController{
+registerWorkDoneInTask(String projectCode, int userStoryID, int taskID, int hoursSpent,
                                          LocalDate nowDate)
}

package Domain {

class Datamanagement{
projectStore : ProjecStore
+getProjectStore()
}

class ProjecStore{
projectList : List<ProjectDeprecated>
+getProjectByCode(projectCode)
}

class ProjectDeprecated{
    code : String
    sprintList : List<Sprint>

+getCurrentActiveSprint(nowDate) :currentSprint
}
class Sprint{
    sprintID : int
    sprintStatus : String
    taskList : List<Task>

+getSprintBacklog() : sprintBacklog
+getSprintTaskById(taskID) : sprintTask
}

class SprintBacklog{
userStoryList: List<UserStory>
+getUserStory(userStoryID) : userStory
}

class UserStory{
    userStoryID : int
    effort : int
    taskList : List<Task>

+getTask(taskID): userStoryTask
}


class Task{
    taskID : int
    hoursSpent : double
    effortEstimate : Integer
    percentageOfExecution : double

+updateWorkDoneInTask(value): boolean
}
}
}
left to right direction
skinparam nodesep 180
skinparam ranksep 100

smTmRegisterWorkDoneInTaskUI ..> smTmRegisterWorkDoneInTaskController

smTmRegisterWorkDoneInTaskController ..> "dataManagement" Datamanagement

Datamanagement"1" -left- "1" ProjecStore

smTmRegisterWorkDoneInTaskController .down.> "projectStore" ProjecStore

ProjecStore "1" *- - "0..*\n" ProjectDeprecated
smTmRegisterWorkDoneInTaskController .left..> "projectDeprecated " ProjectDeprecated



ProjectDeprecated "1" *- - - "currentSprint 1..*"  Sprint

Sprint "1" *- -right- "sprintTask 0..*" Task

Sprint "1" - - "sprintBacklog 1" SprintBacklog

SprintBacklog "1" o- - "userStory 1..*" UserStory

UserStory "1" *- - "userStoryTask 0..*" Task





@enduml

PlantUML version 1.2022.0(Tue Jan 11 16:16:42 GMT 2022)
(GPL source distribution)
Java Runtime: OpenJDK Runtime Environment
JVM: OpenJDK 64-Bit Server VM
Default Encoding: Cp1252
Language: pt
Country: PT
--></g></svg>