<?xml version="1.0" encoding="UTF-8" standalone="no"?><svg xmlns="http://www.w3.org/2000/svg" xmlns:xlink="http://www.w3.org/1999/xlink" contentScriptType="application/ecmascript" contentStyleType="text/css" height="849px" preserveAspectRatio="none" style="width:1252px;height:849px;background:#FFFFFF;" version="1.1" viewBox="0 0 1252 849" width="1252px" zoomAndPan="magnify"><defs><filter height="300%" id="ff1jvku0feb60" width="300%" x="-1" y="-1"><feGaussianBlur result="blurOut" stdDeviation="2.0"/><feColorMatrix in="blurOut" result="blurOut2" type="matrix" values="0 0 0 0 0 0 0 0 0 0 0 0 0 0 0 0 0 0 .4 0"/><feOffset dx="4.0" dy="4.0" in="blurOut2" result="blurOut3"/><feBlend in="SourceGraphic" in2="blurOut3" mode="normal"/></filter></defs><g><rect fill="#FFFFFF" filter="url(#ff1jvku0feb60)" height="185.1094" style="stroke:#000000;stroke-width:2.0;" width="756" x="482" y="288.7188"/><rect fill="#FFFFFF" filter="url(#ff1jvku0feb60)" height="48.7031" style="stroke:#000000;stroke-width:2.0;" width="736" x="492" y="418.125"/><line style="stroke:#A80036;stroke-width:1.0;stroke-dasharray:5.0,5.0;" x1="49" x2="49" y1="89.6094" y2="763.9922"/><line style="stroke:#A80036;stroke-width:1.0;stroke-dasharray:5.0,5.0;" x1="324.5" x2="324.5" y1="89.6094" y2="763.9922"/><line style="stroke:#A80036;stroke-width:1.0;stroke-dasharray:5.0,5.0;" x1="633" x2="633" y1="89.6094" y2="763.9922"/><line style="stroke:#A80036;stroke-width:1.0;stroke-dasharray:5.0,5.0;" x1="844" x2="844" y1="89.6094" y2="763.9922"/><line style="stroke:#A80036;stroke-width:1.0;stroke-dasharray:5.0,5.0;" x1="998" x2="998" y1="89.6094" y2="763.9922"/><line style="stroke:#A80036;stroke-width:1.0;stroke-dasharray:5.0,5.0;" x1="1151" x2="1151" y1="89.6094" y2="763.9922"/><text fill="#000000" font-family="sans-serif" font-size="14" lengthAdjust="spacing" textLength="83" x="5" y="86.5332">Administrator</text><ellipse cx="49.5" cy="15" fill="#FEFECE" filter="url(#ff1jvku0feb60)" rx="8" ry="8" style="stroke:#A80036;stroke-width:2.0;"/><path d="M49.5,23 L49.5,50 M36.5,31 L62.5,31 M49.5,50 L36.5,65 M49.5,50 L62.5,65 " fill="none" filter="url(#ff1jvku0feb60)" style="stroke:#A80036;stroke-width:2.0;"/><text fill="#000000" font-family="sans-serif" font-size="14" lengthAdjust="spacing" textLength="83" x="5" y="777.5254">Administrator</text><ellipse cx="49.5" cy="790.6016" fill="#FEFECE" filter="url(#ff1jvku0feb60)" rx="8" ry="8" style="stroke:#A80036;stroke-width:2.0;"/><path d="M49.5,798.6016 L49.5,825.6016 M36.5,806.6016 L62.5,806.6016 M49.5,825.6016 L36.5,840.6016 M49.5,825.6016 L62.5,840.6016 " fill="none" filter="url(#ff1jvku0feb60)" style="stroke:#A80036;stroke-width:2.0;"/><text fill="#000000" font-family="sans-serif" font-size="14" lengthAdjust="spacing" textLength="182" x="230.5" y="86.5332">ChangeUserAccountStatusUI</text><path d="M304,44 L304,68 M304,56 L321,56 " fill="none" filter="url(#ff1jvku0feb60)" style="stroke:#A80036;stroke-width:2.0;"/><ellipse cx="333" cy="56" fill="#FEFECE" filter="url(#ff1jvku0feb60)" rx="12" ry="12" style="stroke:#A80036;stroke-width:2.0;"/><text fill="#000000" font-family="sans-serif" font-size="14" lengthAdjust="spacing" textLength="182" x="230.5" y="777.5254">ChangeUserAccountStatusUI</text><path d="M304,784.6016 L304,808.6016 M304,796.6016 L321,796.6016 " fill="none" filter="url(#ff1jvku0feb60)" style="stroke:#A80036;stroke-width:2.0;"/><ellipse cx="333" cy="796.6016" fill="#FEFECE" filter="url(#ff1jvku0feb60)" rx="12" ry="12" style="stroke:#A80036;stroke-width:2.0;"/><rect fill="#FEFECE" filter="url(#ff1jvku0feb60)" height="31.6094" style="stroke:#A80036;stroke-width:1.5;" width="259" x="502" y="53"/><text fill="#000000" font-family="sans-serif" font-size="14" lengthAdjust="spacing" textLength="245" x="509" y="74.5332">: ChangerUserAccountStatusController</text><rect fill="#FEFECE" filter="url(#ff1jvku0feb60)" height="31.6094" style="stroke:#A80036;stroke-width:1.5;" width="259" x="502" y="762.9922"/><text fill="#000000" font-family="sans-serif" font-size="14" lengthAdjust="spacing" textLength="245" x="509" y="784.5254">: ChangerUserAccountStatusController</text><rect fill="#FEFECE" filter="url(#ff1jvku0feb60)" height="31.6094" style="stroke:#A80036;stroke-width:1.5;" width="134" x="775" y="53"/><text fill="#000000" font-family="sans-serif" font-size="14" lengthAdjust="spacing" textLength="120" x="782" y="74.5332">: DataManagement</text><rect fill="#FEFECE" filter="url(#ff1jvku0feb60)" height="31.6094" style="stroke:#A80036;stroke-width:1.5;" width="134" x="775" y="762.9922"/><text fill="#000000" font-family="sans-serif" font-size="14" lengthAdjust="spacing" textLength="120" x="782" y="784.5254">: DataManagement</text><rect fill="#FEFECE" filter="url(#ff1jvku0feb60)" height="31.6094" style="stroke:#A80036;stroke-width:1.5;" width="147" x="923" y="53"/><text fill="#000000" font-family="sans-serif" font-size="14" lengthAdjust="spacing" textLength="133" x="930" y="74.5332">userStore: UserStore</text><rect fill="#FEFECE" filter="url(#ff1jvku0feb60)" height="31.6094" style="stroke:#A80036;stroke-width:1.5;" width="147" x="923" y="762.9922"/><text fill="#000000" font-family="sans-serif" font-size="14" lengthAdjust="spacing" textLength="133" x="930" y="784.5254">userStore: UserStore</text><rect fill="#FEFECE" filter="url(#ff1jvku0feb60)" height="31.6094" style="stroke:#A80036;stroke-width:1.5;" width="130" x="1084" y="53"/><text fill="#000000" font-family="sans-serif" font-size="14" lengthAdjust="spacing" textLength="116" x="1091" y="74.5332">userAccount: User</text><rect fill="#FEFECE" filter="url(#ff1jvku0feb60)" height="31.6094" style="stroke:#A80036;stroke-width:1.5;" width="130" x="1084" y="762.9922"/><text fill="#000000" font-family="sans-serif" font-size="14" lengthAdjust="spacing" textLength="116" x="1091" y="784.5254">userAccount: User</text><polygon fill="#A80036" points="312.5,117.9609,322.5,121.9609,312.5,125.9609,316.5,121.9609" style="stroke:#A80036;stroke-width:1.0;"/><line style="stroke:#A80036;stroke-width:1.0;" x1="49.5" x2="318.5" y1="121.9609" y2="121.9609"/><text fill="#000000" font-family="sans-serif" font-size="13" font-weight="bold" lengthAdjust="spacing" textLength="7" x="56.5" y="117.1045">1</text><text fill="#000000" font-family="sans-serif" font-size="13" lengthAdjust="spacing" textLength="146" x="67.5" y="117.1045">Get User Account Status</text><polygon fill="#A80036" points="60.5,148.3125,50.5,152.3125,60.5,156.3125,56.5,152.3125" style="stroke:#A80036;stroke-width:1.0;"/><line style="stroke:#A80036;stroke-width:1.0;stroke-dasharray:2.0,2.0;" x1="54.5" x2="323.5" y1="152.3125" y2="152.3125"/><text fill="#000000" font-family="sans-serif" font-size="13" font-weight="bold" lengthAdjust="spacing" textLength="7" x="66.5" y="147.4561">2</text><text fill="#000000" font-family="sans-serif" font-size="13" lengthAdjust="spacing" textLength="147" x="77.5" y="147.4561">Request User Account ID</text><polygon fill="#A80036" points="312.5,178.6641,322.5,182.6641,312.5,186.6641,316.5,182.6641" style="stroke:#A80036;stroke-width:1.0;"/><line style="stroke:#A80036;stroke-width:1.0;" x1="49.5" x2="318.5" y1="182.6641" y2="182.6641"/><text fill="#000000" font-family="sans-serif" font-size="13" font-weight="bold" lengthAdjust="spacing" textLength="7" x="56.5" y="177.8076">3</text><text fill="#000000" font-family="sans-serif" font-size="13" lengthAdjust="spacing" textLength="131" x="67.5" y="177.8076">Insert User Account ID</text><polygon fill="#A80036" points="621.5,209.0156,631.5,213.0156,621.5,217.0156,625.5,213.0156" style="stroke:#A80036;stroke-width:1.0;"/><line style="stroke:#A80036;stroke-width:1.0;" x1="324.5" x2="627.5" y1="213.0156" y2="213.0156"/><text fill="#000000" font-family="sans-serif" font-size="13" font-weight="bold" lengthAdjust="spacing" textLength="7" x="331.5" y="208.1592">4</text><text fill="#000000" font-family="sans-serif" font-size="13" lengthAdjust="spacing" textLength="174" x="342.5" y="208.1592">getUserAccountStatus(userId)</text><polygon fill="#A80036" points="832,239.3672,842,243.3672,832,247.3672,836,243.3672" style="stroke:#A80036;stroke-width:1.0;"/><line style="stroke:#A80036;stroke-width:1.0;" x1="633.5" x2="838" y1="243.3672" y2="243.3672"/><text fill="#000000" font-family="sans-serif" font-size="13" font-weight="bold" lengthAdjust="spacing" textLength="7" x="640.5" y="238.5107">5</text><text fill="#000000" font-family="sans-serif" font-size="13" lengthAdjust="spacing" textLength="156" x="651.5" y="238.5107">userStore = getUserStore()</text><polygon fill="#A80036" points="644.5,269.7188,634.5,273.7188,644.5,277.7188,640.5,273.7188" style="stroke:#A80036;stroke-width:1.0;"/><line style="stroke:#A80036;stroke-width:1.0;stroke-dasharray:2.0,2.0;" x1="638.5" x2="843" y1="273.7188" y2="273.7188"/><text fill="#000000" font-family="sans-serif" font-size="13" font-weight="bold" lengthAdjust="spacing" textLength="7" x="650.5" y="268.8623">6</text><text fill="#000000" font-family="sans-serif" font-size="13" lengthAdjust="spacing" textLength="56" x="661.5" y="268.8623">userStore</text><path d="M482,288.7188 L555,288.7188 L555,296.7188 L545,306.7188 L482,306.7188 L482,288.7188 " fill="#EEEEEE" style="stroke:#000000;stroke-width:1.0;"/><rect fill="none" height="185.1094" style="stroke:#000000;stroke-width:2.0;" width="756" x="482" y="288.7188"/><text fill="#000000" font-family="sans-serif" font-size="13" font-weight="bold" lengthAdjust="spacing" textLength="28" x="497" y="303.2139">loop</text><text fill="#000000" font-family="sans-serif" font-size="11" font-weight="bold" lengthAdjust="spacing" textLength="190" x="570" y="302.1377">[For each know user in userStore]</text><polygon fill="#A80036" points="986.5,325.4219,996.5,329.4219,986.5,333.4219,990.5,329.4219" style="stroke:#A80036;stroke-width:1.0;"/><line style="stroke:#A80036;stroke-width:1.0;" x1="633.5" x2="992.5" y1="329.4219" y2="329.4219"/><text fill="#000000" font-family="sans-serif" font-size="13" font-weight="bold" lengthAdjust="spacing" textLength="7" x="640.5" y="324.5654">7</text><text fill="#000000" font-family="sans-serif" font-size="13" lengthAdjust="spacing" textLength="203" x="651.5" y="324.5654">userAccount = getUserById(userId)</text><line style="stroke:#A80036;stroke-width:1.0;" x1="998.5" x2="1040.5" y1="359.7734" y2="359.7734"/><line style="stroke:#A80036;stroke-width:1.0;" x1="1040.5" x2="1040.5" y1="359.7734" y2="372.7734"/><line style="stroke:#A80036;stroke-width:1.0;" x1="999.5" x2="1040.5" y1="372.7734" y2="372.7734"/><polygon fill="#A80036" points="1009.5,368.7734,999.5,372.7734,1009.5,376.7734,1005.5,372.7734" style="stroke:#A80036;stroke-width:1.0;"/><text fill="#000000" font-family="sans-serif" font-size="13" font-weight="bold" lengthAdjust="spacing" textLength="7" x="1005.5" y="354.917">8</text><text fill="#000000" font-family="sans-serif" font-size="13" lengthAdjust="spacing" textLength="123" x="1016.5" y="354.917">validateUserId(userId)</text><polygon fill="#A80036" points="644.5,399.125,634.5,403.125,644.5,407.125,640.5,403.125" style="stroke:#A80036;stroke-width:1.0;"/><line style="stroke:#A80036;stroke-width:1.0;stroke-dasharray:2.0,2.0;" x1="638.5" x2="997.5" y1="403.125" y2="403.125"/><text fill="#000000" font-family="sans-serif" font-size="13" font-weight="bold" lengthAdjust="spacing" textLength="7" x="650.5" y="398.2686">9</text><text fill="#000000" font-family="sans-serif" font-size="13" lengthAdjust="spacing" textLength="117" x="661.5" y="398.2686">showUserAccountID</text><path d="M492,418.125 L553,418.125 L553,426.125 L543,436.125 L492,436.125 L492,418.125 " fill="#EEEEEE" style="stroke:#000000;stroke-width:1.0;"/><rect fill="none" height="48.7031" style="stroke:#000000;stroke-width:2.0;" width="736" x="492" y="418.125"/><text fill="#000000" font-family="sans-serif" font-size="13" font-weight="bold" lengthAdjust="spacing" textLength="16" x="507" y="432.6201">alt</text><text fill="#000000" font-family="sans-serif" font-size="11" font-weight="bold" lengthAdjust="spacing" textLength="153" x="568" y="431.5439">[if userId == userAccountID]</text><polygon fill="#A80036" points="1139,454.8281,1149,458.8281,1139,462.8281,1143,458.8281" style="stroke:#A80036;stroke-width:1.0;"/><line style="stroke:#A80036;stroke-width:1.0;" x1="633.5" x2="1145" y1="458.8281" y2="458.8281"/><text fill="#000000" font-family="sans-serif" font-size="13" font-weight="bold" lengthAdjust="spacing" textLength="14" x="640.5" y="453.9717">10</text><text fill="#000000" font-family="sans-serif" font-size="13" lengthAdjust="spacing" textLength="91" x="658.5" y="453.9717">getUserStatus()</text><polygon fill="#A80036" points="644.5,499.1797,634.5,503.1797,644.5,507.1797,640.5,503.1797" style="stroke:#A80036;stroke-width:1.0;"/><line style="stroke:#A80036;stroke-width:1.0;stroke-dasharray:2.0,2.0;" x1="638.5" x2="1150" y1="503.1797" y2="503.1797"/><text fill="#000000" font-family="sans-serif" font-size="13" font-weight="bold" lengthAdjust="spacing" textLength="14" x="650.5" y="498.3232">11</text><text fill="#000000" font-family="sans-serif" font-size="13" lengthAdjust="spacing" textLength="111" x="668.5" y="498.3232">userAccountStatus</text><polygon fill="#A80036" points="335.5,529.5313,325.5,533.5313,335.5,537.5313,331.5,533.5313" style="stroke:#A80036;stroke-width:1.0;"/><line style="stroke:#A80036;stroke-width:1.0;stroke-dasharray:2.0,2.0;" x1="329.5" x2="632.5" y1="533.5313" y2="533.5313"/><text fill="#000000" font-family="sans-serif" font-size="13" font-weight="bold" lengthAdjust="spacing" textLength="14" x="341.5" y="528.6748">12</text><text fill="#000000" font-family="sans-serif" font-size="13" lengthAdjust="spacing" textLength="111" x="359.5" y="528.6748">userAccountStatus</text><polygon fill="#A80036" points="60.5,559.8828,50.5,563.8828,60.5,567.8828,56.5,563.8828" style="stroke:#A80036;stroke-width:1.0;"/><line style="stroke:#A80036;stroke-width:1.0;stroke-dasharray:2.0,2.0;" x1="54.5" x2="323.5" y1="563.8828" y2="563.8828"/><text fill="#000000" font-family="sans-serif" font-size="13" font-weight="bold" lengthAdjust="spacing" textLength="14" x="66.5" y="559.0264">13</text><text fill="#000000" font-family="sans-serif" font-size="13" lengthAdjust="spacing" textLength="157" x="84.5" y="559.0264">Show User Account Status</text><polygon fill="#A80036" points="312.5,590.2344,322.5,594.2344,312.5,598.2344,316.5,594.2344" style="stroke:#A80036;stroke-width:1.0;"/><line style="stroke:#A80036;stroke-width:1.0;" x1="49.5" x2="318.5" y1="594.2344" y2="594.2344"/><text fill="#000000" font-family="sans-serif" font-size="13" font-weight="bold" lengthAdjust="spacing" textLength="14" x="56.5" y="589.3779">14</text><text fill="#000000" font-family="sans-serif" font-size="13" lengthAdjust="spacing" textLength="233" x="74.5" y="589.3779">Change User Account Status to "Active"</text><polygon fill="#A80036" points="621.5,620.5859,631.5,624.5859,621.5,628.5859,625.5,624.5859" style="stroke:#A80036;stroke-width:1.0;"/><line style="stroke:#A80036;stroke-width:1.0;" x1="324.5" x2="627.5" y1="624.5859" y2="624.5859"/><text fill="#000000" font-family="sans-serif" font-size="13" font-weight="bold" lengthAdjust="spacing" textLength="14" x="331.5" y="619.7295">15</text><text fill="#000000" font-family="sans-serif" font-size="13" lengthAdjust="spacing" textLength="267" x="349.5" y="619.7295">changeUserAccountStatus(userId, newStatus)</text><polygon fill="#A80036" points="1139,650.9375,1149,654.9375,1139,658.9375,1143,654.9375" style="stroke:#A80036;stroke-width:1.0;"/><line style="stroke:#A80036;stroke-width:1.0;" x1="633.5" x2="1145" y1="654.9375" y2="654.9375"/><text fill="#000000" font-family="sans-serif" font-size="13" font-weight="bold" lengthAdjust="spacing" textLength="14" x="640.5" y="650.0811">16</text><text fill="#000000" font-family="sans-serif" font-size="13" lengthAdjust="spacing" textLength="224" x="658.5" y="650.0811">changeUserAccountStatus(newStatus)</text><polygon fill="#A80036" points="644.5,681.2891,634.5,685.2891,644.5,689.2891,640.5,685.2891" style="stroke:#A80036;stroke-width:1.0;"/><line style="stroke:#A80036;stroke-width:1.0;stroke-dasharray:2.0,2.0;" x1="638.5" x2="1150" y1="685.2891" y2="685.2891"/><text fill="#000000" font-family="sans-serif" font-size="13" font-weight="bold" lengthAdjust="spacing" textLength="14" x="650.5" y="680.4326">17</text><text fill="#000000" font-family="sans-serif" font-size="13" lengthAdjust="spacing" textLength="51" x="668.5" y="680.4326">Success</text><polygon fill="#A80036" points="335.5,711.6406,325.5,715.6406,335.5,719.6406,331.5,715.6406" style="stroke:#A80036;stroke-width:1.0;"/><line style="stroke:#A80036;stroke-width:1.0;stroke-dasharray:2.0,2.0;" x1="329.5" x2="632.5" y1="715.6406" y2="715.6406"/><text fill="#000000" font-family="sans-serif" font-size="13" font-weight="bold" lengthAdjust="spacing" textLength="14" x="341.5" y="710.7842">18</text><text fill="#000000" font-family="sans-serif" font-size="13" lengthAdjust="spacing" textLength="51" x="359.5" y="710.7842">Success</text><polygon fill="#A80036" points="60.5,741.9922,50.5,745.9922,60.5,749.9922,56.5,745.9922" style="stroke:#A80036;stroke-width:1.0;"/><line style="stroke:#A80036;stroke-width:1.0;stroke-dasharray:2.0,2.0;" x1="54.5" x2="323.5" y1="745.9922" y2="745.9922"/><text fill="#000000" font-family="sans-serif" font-size="13" font-weight="bold" lengthAdjust="spacing" textLength="14" x="66.5" y="741.1357">19</text><text fill="#000000" font-family="sans-serif" font-size="13" lengthAdjust="spacing" textLength="194" x="84.5" y="741.1357">Success Activating User Account</text><!--MD5=[46eaa2f2a0f831f2def12ebbebc00c89]
@startuml
autonumber
actor Administrator
boundary ChangeUserAccountStatusUI
participant ": ChangerUserAccountStatusController" as controller
participant ": DataManagement"
participant "userStore: UserStore"
participant "userAccount: User"

Administrator -> ChangeUserAccountStatusUI : Get User Account Status
ChangeUserAccountStatusUI - -> Administrator : Request User Account ID
Administrator -> ChangeUserAccountStatusUI : Insert User Account ID
ChangeUserAccountStatusUI -> controller : getUserAccountStatus(userId)
controller -> ": DataManagement" : userStore = getUserStore()
": DataManagement" - -> controller : userStore

loop For each know user in userStore
	controller -> "userStore: UserStore" : userAccount = getUserById(userId)
	"userStore: UserStore" -> "userStore: UserStore" : validateUserId(userId)
	"userStore: UserStore" - -> controller : showUserAccountID
	alt if userId == userAccountID
		controller -> "userAccount: User" : getUserStatus()
	end
end

"userAccount: User" - -> controller : userAccountStatus
controller - -> ChangeUserAccountStatusUI : userAccountStatus
ChangeUserAccountStatusUI - -> Administrator : Show User Account Status
Administrator -> ChangeUserAccountStatusUI : Change User Account Status to "Active"

ChangeUserAccountStatusUI -> controller : changeUserAccountStatus(userId, newStatus)
controller -> "userAccount: User" : changeUserAccountStatus(newStatus)

"userAccount: User" - -> controller : Success
controller - -> ChangeUserAccountStatusUI : Success
ChangeUserAccountStatusUI - -> Administrator : Success Activating User Account


@enduml

PlantUML version 1.2022.0(Tue Jan 11 16:16:42 GMT 2022)
(GPL source distribution)
Java Runtime: OpenJDK Runtime Environment
JVM: OpenJDK 64-Bit Server VM
Default Encoding: Cp1252
Language: en
Country: GB
--></g></svg>