<?xml version="1.0" encoding="UTF-8" standalone="no"?><svg xmlns="http://www.w3.org/2000/svg" xmlns:xlink="http://www.w3.org/1999/xlink" contentScriptType="application/ecmascript" contentStyleType="text/css" height="771px" preserveAspectRatio="none" style="width:676px;height:771px;background:#FFFFFF;" version="1.1" viewBox="0 0 676 771" width="676px" zoomAndPan="magnify"><defs><filter height="300%" id="fmwevkmq609dd" width="300%" x="-1" y="-1"><feGaussianBlur result="blurOut" stdDeviation="2.0"/><feColorMatrix in="blurOut" result="blurOut2" type="matrix" values="0 0 0 0 0 0 0 0 0 0 0 0 0 0 0 0 0 0 .4 0"/><feOffset dx="4.0" dy="4.0" in="blurOut2" result="blurOut3"/><feBlend in="SourceGraphic" in2="blurOut3" mode="normal"/></filter></defs><g><!--MD5=[9681dc6e01e10c6b4fe06895ae94f592]
cluster UI--><polygon fill="#FFFFFF" filter="url(#fmwevkmq609dd)" points="183,6,203,6,210,29.6094,409,29.6094,409,106,183,106,183,6" style="stroke:#000000;stroke-width:1.5;"/><line style="stroke:#000000;stroke-width:1.5;" x1="183" x2="210" y1="29.6094" y2="29.6094"/><text fill="#000000" font-family="sans-serif" font-size="14" font-weight="bold" lengthAdjust="spacing" textLength="14" x="187" y="22.5332">UI</text><!--MD5=[2c2e2644034c00788261e03c85b06837]
cluster Core--><polygon fill="#FFFFFF" filter="url(#fmwevkmq609dd)" points="16,130,56,130,63,153.6094,659,153.6094,659,764,16,764,16,130" style="stroke:#000000;stroke-width:1.5;"/><line style="stroke:#000000;stroke-width:1.5;" x1="16" x2="63" y1="153.6094" y2="153.6094"/><text fill="#000000" font-family="sans-serif" font-size="14" font-weight="bold" lengthAdjust="spacing" textLength="34" x="20" y="146.5332">Core</text><!--MD5=[ed1d20ea533a2a0e7df5ba3c35e56ced]
cluster Controllers--><polygon fill="#FFFFFF" filter="url(#fmwevkmq609dd)" points="129,174,214,174,221,197.6094,463,197.6094,463,302,129,302,129,174" style="stroke:#000000;stroke-width:1.5;"/><line style="stroke:#000000;stroke-width:1.5;" x1="129" x2="221" y1="197.6094" y2="197.6094"/><text fill="#000000" font-family="sans-serif" font-size="14" font-weight="bold" lengthAdjust="spacing" textLength="79" x="133" y="190.5332">Controllers</text><!--MD5=[121a8bf1197281ab89ed693fab589f94]
cluster Domain--><polygon fill="#FFFFFF" filter="url(#fmwevkmq609dd)" points="40,346,98,346,105,369.6094,635,369.6094,635,740,40,740,40,346" style="stroke:#000000;stroke-width:1.5;"/><line style="stroke:#000000;stroke-width:1.5;" x1="40" x2="105" y1="369.6094" y2="369.6094"/><text fill="#000000" font-family="sans-serif" font-size="14" font-weight="bold" lengthAdjust="spacing" textLength="52" x="44" y="362.5332">Domain</text><!--MD5=[46d9ca26cd7d2b5dfe2d1d2211c7e71e]
class ChangeUserAccountStatusUI--><rect codeLine="5" fill="#FEFECE" filter="url(#fmwevkmq609dd)" height="48" id="ChangeUserAccountStatusUI" style="stroke:#A80036;stroke-width:1.5;" width="193" x="199.5" y="42"/><ellipse cx="214.5" cy="58" fill="#ADD1B2" rx="11" ry="11" style="stroke:#A80036;stroke-width:1.0;"/><path d="M216.5,54.5 Q216.7031,54 216.9375,53.75 Q217.1719,53.5 217.4375,53.5 Q217.9063,53.5 218.2031,53.7813 Q218.5,54.0625 218.5,54.7188 L218.5,56.2813 Q218.5,56.9375 218.2188,57.2188 Q217.9375,57.5 217.5,57.5 Q217.1094,57.5 216.8594,57.3281 Q216.6094,57.1563 216.5,56.7031 Q216.4531,56.3906 216.2813,56.2188 Q215.9688,55.8906 215.4063,55.7031 Q214.8438,55.5 214.2813,55.5 Q213.5781,55.5 212.9844,55.7813 Q212.4063,56.0625 211.9531,56.6875 Q211.5,57.3125 211.5,58.1719 L211.5,59.0938 Q211.5,60.125 212.3438,60.8125 Q213.1875,61.5 214.6875,61.5 Q215.5781,61.5 216.2031,61.2969 Q216.5625,61.1875 216.9688,60.8281 Q217.2344,60.625 217.375,60.5625 Q217.5156,60.5 217.6875,60.5 Q218.0156,60.5 218.25,60.7656 Q218.5,61.0156 218.5,61.375 Q218.5,61.7188 218.1563,62.125 Q217.6563,62.7188 216.8594,63.0469 Q215.8125,63.5 214.5313,63.5 Q213.0313,63.5 211.8281,62.9063 Q210.8594,62.4375 210.1719,61.4219 Q209.5,60.4063 209.5,59.2031 L209.5,58.1094 Q209.5,56.8594 210.0938,55.7656 Q210.7031,54.6719 211.75,54.0938 Q212.8125,53.5 214,53.5 Q214.7188,53.5 215.3438,53.75 Q215.9688,54 216.5,54.5 Z " fill="#000000"/><text fill="#000000" font-family="sans-serif" font-size="12" lengthAdjust="spacing" textLength="161" x="228.5" y="62.9102">ChangeUserAccountStatusUI</text><line style="stroke:#A80036;stroke-width:1.5;" x1="200.5" x2="391.5" y1="74" y2="74"/><line style="stroke:#A80036;stroke-width:1.5;" x1="200.5" x2="391.5" y1="82" y2="82"/><!--MD5=[d169409b3a18d5f8792e55e5053ae5ef]
class ChangeUserAccountStatusController--><rect codeLine="10" fill="#FEFECE" filter="url(#fmwevkmq609dd)" height="75.6719" id="ChangeUserAccountStatusController" style="stroke:#A80036;stroke-width:1.5;" width="301" x="145.5" y="210"/><ellipse cx="190.25" cy="226" fill="#ADD1B2" rx="11" ry="11" style="stroke:#A80036;stroke-width:1.0;"/><path d="M192.25,222.5 Q192.4531,222 192.6875,221.75 Q192.9219,221.5 193.1875,221.5 Q193.6563,221.5 193.9531,221.7813 Q194.25,222.0625 194.25,222.7188 L194.25,224.2813 Q194.25,224.9375 193.9688,225.2188 Q193.6875,225.5 193.25,225.5 Q192.8594,225.5 192.6094,225.3281 Q192.3594,225.1563 192.25,224.7031 Q192.2031,224.3906 192.0313,224.2188 Q191.7188,223.8906 191.1563,223.7031 Q190.5938,223.5 190.0313,223.5 Q189.3281,223.5 188.7344,223.7813 Q188.1563,224.0625 187.7031,224.6875 Q187.25,225.3125 187.25,226.1719 L187.25,227.0938 Q187.25,228.125 188.0938,228.8125 Q188.9375,229.5 190.4375,229.5 Q191.3281,229.5 191.9531,229.2969 Q192.3125,229.1875 192.7188,228.8281 Q192.9844,228.625 193.125,228.5625 Q193.2656,228.5 193.4375,228.5 Q193.7656,228.5 194,228.7656 Q194.25,229.0156 194.25,229.375 Q194.25,229.7188 193.9063,230.125 Q193.4063,230.7188 192.6094,231.0469 Q191.5625,231.5 190.2813,231.5 Q188.7813,231.5 187.5781,230.9063 Q186.6094,230.4375 185.9219,229.4219 Q185.25,228.4063 185.25,227.2031 L185.25,226.1094 Q185.25,224.8594 185.8438,223.7656 Q186.4531,222.6719 187.5,222.0938 Q188.5625,221.5 189.75,221.5 Q190.4688,221.5 191.0938,221.75 Q191.7188,222 192.25,222.5 Z " fill="#000000"/><text fill="#000000" font-family="sans-serif" font-size="12" lengthAdjust="spacing" textLength="203" x="210.75" y="230.9102">ChangeUserAccountStatusController</text><line style="stroke:#A80036;stroke-width:1.5;" x1="146.5" x2="445.5" y1="242" y2="242"/><line style="stroke:#A80036;stroke-width:1.5;" x1="146.5" x2="445.5" y1="250" y2="250"/><ellipse cx="156.5" cy="261" fill="#84BE84" rx="3" ry="3" style="stroke:#038048;stroke-width:1.0;"/><text fill="#000000" font-family="sans-serif" font-size="11" lengthAdjust="spacing" textLength="195" x="165.5" y="265.4189">getUserAccountStatus(userId) : boolean</text><ellipse cx="156.5" cy="274.8359" fill="#84BE84" rx="3" ry="3" style="stroke:#038048;stroke-width:1.0;"/><text fill="#000000" font-family="sans-serif" font-size="11" lengthAdjust="spacing" textLength="275" x="165.5" y="279.2549">changeUserAccountStatus(userId, newStatus) : boolean</text><!--MD5=[41fc1644ffe584d705042db0e6e760e1]
class DataManagement--><rect codeLine="19" fill="#FEFECE" filter="url(#fmwevkmq609dd)" height="172.5234" id="DataManagement" style="stroke:#A80036;stroke-width:1.5;" width="227" x="56.5" y="382"/><ellipse cx="116.75" cy="398" fill="#ADD1B2" rx="11" ry="11" style="stroke:#A80036;stroke-width:1.0;"/><path d="M118.75,394.5 Q118.9531,394 119.1875,393.75 Q119.4219,393.5 119.6875,393.5 Q120.1563,393.5 120.4531,393.7813 Q120.75,394.0625 120.75,394.7188 L120.75,396.2813 Q120.75,396.9375 120.4688,397.2188 Q120.1875,397.5 119.75,397.5 Q119.3594,397.5 119.1094,397.3281 Q118.8594,397.1563 118.75,396.7031 Q118.7031,396.3906 118.5313,396.2188 Q118.2188,395.8906 117.6563,395.7031 Q117.0938,395.5 116.5313,395.5 Q115.8281,395.5 115.2344,395.7813 Q114.6563,396.0625 114.2031,396.6875 Q113.75,397.3125 113.75,398.1719 L113.75,399.0938 Q113.75,400.125 114.5938,400.8125 Q115.4375,401.5 116.9375,401.5 Q117.8281,401.5 118.4531,401.2969 Q118.8125,401.1875 119.2188,400.8281 Q119.4844,400.625 119.625,400.5625 Q119.7656,400.5 119.9375,400.5 Q120.2656,400.5 120.5,400.7656 Q120.75,401.0156 120.75,401.375 Q120.75,401.7188 120.4063,402.125 Q119.9063,402.7188 119.1094,403.0469 Q118.0625,403.5 116.7813,403.5 Q115.2813,403.5 114.0781,402.9063 Q113.1094,402.4375 112.4219,401.4219 Q111.75,400.4063 111.75,399.2031 L111.75,398.1094 Q111.75,396.8594 112.3438,395.7656 Q112.9531,394.6719 114,394.0938 Q115.0625,393.5 116.25,393.5 Q116.9688,393.5 117.5938,393.75 Q118.2188,394 118.75,394.5 Z " fill="#000000"/><text fill="#000000" font-family="sans-serif" font-size="12" lengthAdjust="spacing" textLength="98" x="137.25" y="402.9102">DataManagement</text><line style="stroke:#A80036;stroke-width:1.5;" x1="57.5" x2="282.5" y1="414" y2="414"/><rect fill="none" height="6" style="stroke:#C82930;stroke-width:1.0;" width="6" x="64.5" y="422"/><text fill="#000000" font-family="sans-serif" font-size="11" lengthAdjust="spacing" textLength="146" x="76.5" y="429.4189">TypologyStore : typologyStore</text><rect fill="none" height="6" style="stroke:#C82930;stroke-width:1.0;" width="6" x="64.5" y="435.8359"/><text fill="#000000" font-family="sans-serif" font-size="11" lengthAdjust="spacing" textLength="106" x="76.5" y="443.2549">UserStore : userStore</text><rect fill="none" height="6" style="stroke:#C82930;stroke-width:1.0;" width="6" x="64.5" y="449.6719"/><text fill="#000000" font-family="sans-serif" font-size="11" lengthAdjust="spacing" textLength="121" x="76.5" y="457.0908">ProfileStore : profileStore</text><rect fill="none" height="6" style="stroke:#C82930;stroke-width:1.0;" width="6" x="64.5" y="463.5078"/><text fill="#000000" font-family="sans-serif" font-size="11" lengthAdjust="spacing" textLength="100" x="76.5" y="470.9268">RoleStore : roleStore</text><rect fill="none" height="6" style="stroke:#C82930;stroke-width:1.0;" width="6" x="64.5" y="477.3438"/><text fill="#000000" font-family="sans-serif" font-size="11" lengthAdjust="spacing" textLength="201" x="76.5" y="484.7627">ProfileRequestStore : profileRequestStore</text><rect fill="none" height="6" style="stroke:#C82930;stroke-width:1.0;" width="6" x="64.5" y="491.1797"/><text fill="#000000" font-family="sans-serif" font-size="11" lengthAdjust="spacing" textLength="121" x="76.5" y="498.5986">ProjectStore projectStore</text><rect fill="none" height="6" style="stroke:#C82930;stroke-width:1.0;" width="6" x="64.5" y="505.0156"/><text fill="#000000" font-family="sans-serif" font-size="11" lengthAdjust="spacing" textLength="146" x="76.5" y="512.4346">ResourceStore resourceStore</text><rect fill="none" height="6" style="stroke:#C82930;stroke-width:1.0;" width="6" x="64.5" y="518.8516"/><text fill="#000000" font-family="sans-serif" font-size="11" lengthAdjust="spacing" textLength="146" x="76.5" y="526.2705">CustomerStore customerStore</text><line style="stroke:#A80036;stroke-width:1.5;" x1="57.5" x2="282.5" y1="532.6875" y2="532.6875"/><ellipse cx="67.5" cy="543.6875" fill="#84BE84" rx="3" ry="3" style="stroke:#038048;stroke-width:1.0;"/><text fill="#000000" font-family="sans-serif" font-size="11" lengthAdjust="spacing" textLength="129" x="76.5" y="548.1064">getUserStore() : userStore</text><!--MD5=[93af8b4494db78ec46e98fad8955a5aa]
class UserStore--><rect codeLine="30" fill="#FEFECE" filter="url(#fmwevkmq609dd)" height="89.5078" id="UserStore" style="stroke:#A80036;stroke-width:1.5;" width="235" x="383.5" y="423.5"/><ellipse cx="468.75" cy="439.5" fill="#ADD1B2" rx="11" ry="11" style="stroke:#A80036;stroke-width:1.0;"/><path d="M470.75,436 Q470.9531,435.5 471.1875,435.25 Q471.4219,435 471.6875,435 Q472.1563,435 472.4531,435.2813 Q472.75,435.5625 472.75,436.2188 L472.75,437.7813 Q472.75,438.4375 472.4688,438.7188 Q472.1875,439 471.75,439 Q471.3594,439 471.1094,438.8281 Q470.8594,438.6563 470.75,438.2031 Q470.7031,437.8906 470.5313,437.7188 Q470.2188,437.3906 469.6563,437.2031 Q469.0938,437 468.5313,437 Q467.8281,437 467.2344,437.2813 Q466.6563,437.5625 466.2031,438.1875 Q465.75,438.8125 465.75,439.6719 L465.75,440.5938 Q465.75,441.625 466.5938,442.3125 Q467.4375,443 468.9375,443 Q469.8281,443 470.4531,442.7969 Q470.8125,442.6875 471.2188,442.3281 Q471.4844,442.125 471.625,442.0625 Q471.7656,442 471.9375,442 Q472.2656,442 472.5,442.2656 Q472.75,442.5156 472.75,442.875 Q472.75,443.2188 472.4063,443.625 Q471.9063,444.2188 471.1094,444.5469 Q470.0625,445 468.7813,445 Q467.2813,445 466.0781,444.4063 Q465.1094,443.9375 464.4219,442.9219 Q463.75,441.9063 463.75,440.7031 L463.75,439.6094 Q463.75,438.3594 464.3438,437.2656 Q464.9531,436.1719 466,435.5938 Q467.0625,435 468.25,435 Q468.9688,435 469.5938,435.25 Q470.2188,435.5 470.75,436 Z " fill="#000000"/><text fill="#000000" font-family="sans-serif" font-size="12" lengthAdjust="spacing" textLength="56" x="489.25" y="444.4102">UserStore</text><line style="stroke:#A80036;stroke-width:1.5;" x1="384.5" x2="617.5" y1="455.5" y2="455.5"/><rect fill="none" height="6" style="stroke:#C82930;stroke-width:1.0;" width="6" x="391.5" y="463.5"/><text fill="#000000" font-family="sans-serif" font-size="11" lengthAdjust="spacing" textLength="100" x="403.5" y="470.9189">userList : List&lt;User&gt;</text><line style="stroke:#A80036;stroke-width:1.5;" x1="384.5" x2="617.5" y1="477.3359" y2="477.3359"/><ellipse cx="394.5" cy="488.3359" fill="#84BE84" rx="3" ry="3" style="stroke:#038048;stroke-width:1.0;"/><text fill="#000000" font-family="sans-serif" font-size="11" lengthAdjust="spacing" textLength="192" x="403.5" y="492.7549">getUserByUserId(userId) : userAccount</text><polygon fill="#FFFF44" points="394.5,497.1719,398.5,501.1719,394.5,505.1719,390.5,501.1719" style="stroke:#B38D22;stroke-width:1.0;"/><text fill="#000000" font-family="sans-serif" font-size="11" lengthAdjust="spacing" textLength="209" x="403.5" y="506.5908">validateRequestedUserId(userId)) : boolean</text><!--MD5=[3fd616f346a44cd59a91eb10b19e157c]
class User--><rect codeLine="35" fill="#FEFECE" filter="url(#fmwevkmq609dd)" height="158.6875" id="User" style="stroke:#A80036;stroke-width:1.5;" width="265" x="353.5" y="565"/><ellipse cx="468.25" cy="581" fill="#ADD1B2" rx="11" ry="11" style="stroke:#A80036;stroke-width:1.0;"/><path d="M470.25,577.5 Q470.4531,577 470.6875,576.75 Q470.9219,576.5 471.1875,576.5 Q471.6563,576.5 471.9531,576.7813 Q472.25,577.0625 472.25,577.7188 L472.25,579.2813 Q472.25,579.9375 471.9688,580.2188 Q471.6875,580.5 471.25,580.5 Q470.8594,580.5 470.6094,580.3281 Q470.3594,580.1563 470.25,579.7031 Q470.2031,579.3906 470.0313,579.2188 Q469.7188,578.8906 469.1563,578.7031 Q468.5938,578.5 468.0313,578.5 Q467.3281,578.5 466.7344,578.7813 Q466.1563,579.0625 465.7031,579.6875 Q465.25,580.3125 465.25,581.1719 L465.25,582.0938 Q465.25,583.125 466.0938,583.8125 Q466.9375,584.5 468.4375,584.5 Q469.3281,584.5 469.9531,584.2969 Q470.3125,584.1875 470.7188,583.8281 Q470.9844,583.625 471.125,583.5625 Q471.2656,583.5 471.4375,583.5 Q471.7656,583.5 472,583.7656 Q472.25,584.0156 472.25,584.375 Q472.25,584.7188 471.9063,585.125 Q471.4063,585.7188 470.6094,586.0469 Q469.5625,586.5 468.2813,586.5 Q466.7813,586.5 465.5781,585.9063 Q464.6094,585.4375 463.9219,584.4219 Q463.25,583.4063 463.25,582.2031 L463.25,581.1094 Q463.25,579.8594 463.8438,578.7656 Q464.4531,577.6719 465.5,577.0938 Q466.5625,576.5 467.75,576.5 Q468.4688,576.5 469.0938,576.75 Q469.7188,577 470.25,577.5 Z " fill="#000000"/><text fill="#000000" font-family="sans-serif" font-size="12" lengthAdjust="spacing" textLength="27" x="488.75" y="585.9102">User</text><line style="stroke:#A80036;stroke-width:1.5;" x1="354.5" x2="617.5" y1="597" y2="597"/><rect fill="none" height="6" style="stroke:#C82930;stroke-width:1.0;" width="6" x="361.5" y="605"/><text fill="#000000" font-family="sans-serif" font-size="11" lengthAdjust="spacing" textLength="139" x="373.5" y="612.4189">profilesOfUser : List&lt;Profile&gt;</text><rect fill="none" height="6" style="stroke:#C82930;stroke-width:1.0;" width="6" x="361.5" y="618.8359"/><text fill="#000000" font-family="sans-serif" font-size="11" lengthAdjust="spacing" textLength="63" x="373.5" y="626.2549">String : name</text><rect fill="none" height="6" style="stroke:#C82930;stroke-width:1.0;" width="6" x="361.5" y="632.6719"/><text fill="#000000" font-family="sans-serif" font-size="11" lengthAdjust="spacing" textLength="76" x="373.5" y="640.0908">String : function</text><rect fill="none" height="6" style="stroke:#C82930;stroke-width:1.0;" width="6" x="361.5" y="646.5078"/><text fill="#000000" font-family="sans-serif" font-size="11" lengthAdjust="spacing" textLength="61" x="373.5" y="653.9268">String : email</text><rect fill="none" height="6" style="stroke:#C82930;stroke-width:1.0;" width="6" x="361.5" y="660.3438"/><text fill="#000000" font-family="sans-serif" font-size="11" lengthAdjust="spacing" textLength="87" x="373.5" y="667.7627">String : password</text><rect fill="none" height="6" style="stroke:#C82930;stroke-width:1.0;" width="6" x="361.5" y="674.1797"/><text fill="#000000" font-family="sans-serif" font-size="11" lengthAdjust="spacing" textLength="51" x="373.5" y="681.5986">int : userID</text><rect fill="none" height="6" style="stroke:#C82930;stroke-width:1.0;" width="6" x="361.5" y="688.0156"/><text fill="#000000" font-family="sans-serif" font-size="11" lengthAdjust="spacing" textLength="165" x="373.5" y="695.4346">boolean : isUserAccountActivated</text><line style="stroke:#A80036;stroke-width:1.5;" x1="354.5" x2="617.5" y1="701.8516" y2="701.8516"/><ellipse cx="364.5" cy="712.8516" fill="#84BE84" rx="3" ry="3" style="stroke:#038048;stroke-width:1.0;"/><text fill="#000000" font-family="sans-serif" font-size="11" lengthAdjust="spacing" textLength="239" x="373.5" y="717.2705">changeUserAccountStatus(newStatus) : boolean</text><!--MD5=[21dbd0a94b708f36f6b6a55e375ab5a0]
link ChangeUserAccountStatusUI to ChangeUserAccountStatusController--><path codeLine="14" d="M296,90.16 C296,115.13 296,155.81 296,189.49 " fill="none" id="ChangeUserAccountStatusUI-to-ChangeUserAccountStatusController" style="stroke:#A80036;stroke-width:1.0;stroke-dasharray:7.0,7.0;"/><polygon fill="none" points="303,189.86,296,209.86,289,189.86,303,189.86" style="stroke:#A80036;stroke-width:1.0;"/><!--MD5=[e4460574b67cd77f06bc62cb983efad8]
link ChangeUserAccountStatusController to DataManagement--><path codeLine="46" d="M274.63,286.07 C262.18,307.64 245.82,336.02 229.74,363.9 " fill="none" id="ChangeUserAccountStatusController-to-DataManagement" style="stroke:#A80036;stroke-width:1.0;stroke-dasharray:7.0,7.0;"/><polygon fill="none" points="235.59,367.77,219.53,381.6,223.46,360.78,235.59,367.77" style="stroke:#A80036;stroke-width:1.0;"/><text fill="#000000" font-family="sans-serif" font-size="13" lengthAdjust="spacing" textLength="100" x="119.4925" y="354.9423">dataManagement</text><text fill="#000000" font-family="sans-serif" font-size="13" lengthAdjust="spacing" textLength="0" x="171.4925" y="371.2938"/><!--MD5=[ef4d17bddaa17efd88e9c56a71bf7cb5]
link ChangeUserAccountStatusController to UserStore--><path codeLine="47" d="M330.78,286.07 C362.31,319.68 409.32,369.78 445.96,408.83 " fill="none" id="ChangeUserAccountStatusController-to-UserStore" style="stroke:#A80036;stroke-width:1.0;stroke-dasharray:7.0,7.0;"/><polygon fill="none" points="451.11,404.09,459.68,423.46,440.9,413.67,451.11,404.09" style="stroke:#A80036;stroke-width:1.0;"/><text fill="#000000" font-family="sans-serif" font-size="13" lengthAdjust="spacing" textLength="56" x="393.9319" y="396.4554">userStore</text><text fill="#000000" font-family="sans-serif" font-size="13" lengthAdjust="spacing" textLength="0" x="397.9319" y="412.807"/><!--MD5=[f925e0391f230bfcd84e5da72a63010b]
link DataManagement to UserStore--><path codeLine="48" d="M283.78,468.5 C317.01,468.5 350.25,468.5 383.48,468.5 " fill="none" id="DataManagement-UserStore" style="stroke:#A80036;stroke-width:1.0;"/><text fill="#000000" font-family="sans-serif" font-size="13" lengthAdjust="spacing" textLength="7" x="291.6598" y="465.4854">1</text><text fill="#000000" font-family="sans-serif" font-size="13" lengthAdjust="spacing" textLength="7" x="368.349" y="465.486">1</text><!--MD5=[ad84ada70f215e45d57f5bcc0ddd1339]
reverse link UserStore to User--><path codeLine="49" d="M496.04,527.06 C495,539.12 493.88,552.04 492.79,564.73 " fill="none" id="UserStore-backto-User" style="stroke:#A80036;stroke-width:1.0;"/><polygon fill="#A80036" points="497.18,513.86,492.6801,519.4948,496.1507,525.8158,500.6506,520.181,497.18,513.86" style="stroke:#A80036;stroke-width:1.0;"/><text fill="#000000" font-family="sans-serif" font-size="13" lengthAdjust="spacing" textLength="7" x="480.6589" y="534.5821">1</text><text fill="#000000" font-family="sans-serif" font-size="13" lengthAdjust="spacing" textLength="20" x="472.4941" y="554.1644">1..*</text><!--MD5=[f5ec8663bda68c8b85f21798ff33f627]
@startuml



package UI{
    class ChangeUserAccountStatusUI
}

package "Core"{
    package "Controllers" {
    class ChangeUserAccountStatusController{
        +getUserAccountStatus(userId) : boolean
        +changeUserAccountStatus(userId, newStatus) : boolean
    }
    ChangeUserAccountStatusUI ..|> ChangeUserAccountStatusController

    }

    package "Domain"{
       class DataManagement{
           -TypologyStore : typologyStore
           -UserStore : userStore
           -ProfileStore : profileStore
           -RoleStore : roleStore
           -ProfileRequestStore : profileRequestStore
           -ProjectStore projectStore
           -ResourceStore resourceStore
           -CustomerStore customerStore
           +getUserStore() : userStore
       }
       class "UserStore" as UserStore{
           -userList : List<User>
           +getUserByUserId(userId) : userAccount
           #validateRequestedUserId(userId)) : boolean
       }
       class "User" as User{
             - profilesOfUser : List<Profile>
             - String : name
             - String : function
             - String : email
             - String : password
             - int : userID
             - boolean : isUserAccountActivated
        +changeUserAccountStatus(newStatus) : boolean
       }

    ChangeUserAccountStatusController ....|> "dataManagement\n" DataManagement
    ChangeUserAccountStatusController ....|> "userStore\l" UserStore
    DataManagement "1" - "1" UserStore
    UserStore "1  " *- - "1..*" User

skinparam nodesep 100
skinparam ranksep 10

    }
}


@enduml

PlantUML version 1.2022.0(Tue Jan 11 16:16:42 GMT 2022)
(GPL source distribution)
Java Runtime: OpenJDK Runtime Environment
JVM: OpenJDK 64-Bit Server VM
Default Encoding: Cp1252
Language: en
Country: GB
--></g></svg>