<?xml version="1.0" encoding="utf-8"?>
<!-- Generator: Adobe Illustrator 16.0.0, SVG Export Plug-In . SVG Version: 6.00 Build 0)  -->
<!DOCTYPE svg PUBLIC "-//W3C//DTD SVG 1.1//EN" "http://www.w3.org/Graphics/SVG/1.1/DTD/svg11.dtd">
<svg version="1.1" id="Layer_1" xmlns="http://www.w3.org/2000/svg" xmlns:xlink="http://www.w3.org/1999/xlink" x="0px" y="0px"
	 width="170.079px" height="170.079px" viewBox="0 0 170.079 170.079" enable-background="new 0 0 170.079 170.079"
	 xml:space="preserve">
<g>
	<path fill="#010101" d="M119.663,80.145c0.219,22.957-6.686,43.984-17.453,63.939c-1.737,3.218-3.648,6.341-5.412,9.545
		c-0.599,1.334-1.986,2.134-3.44,1.983c-2.777-0.11-5.561-0.012-8.342-0.035c-2.57-0.022-2.761-0.317-1.543-2.534
		c4.456-8.173,8.271-16.679,11.409-25.441c4.439-12.19,7.164-24.939,8.094-37.88c1.9-26.5-4.009-51.318-15.659-74.953
		c-1.302-2.639-2.642-5.258-4.021-7.858c-0.722-1.36-0.6-2.049,1.137-2.023c3.178,0.047,6.355,0.052,9.532,0
		c1.129-0.052,2.182,0.569,2.683,1.583c11.96,19.224,20.177,39.8,22.589,62.484c0.2,1.9,0.34,3.8,0.412,5.707
		C119.717,76.479,119.663,78.311,119.663,80.145z"/>
	<path fill="#010101" d="M10.392,80.46c-0.361-19.415,4.601-37.281,12.5-54.454c3-6.506,6.481-12.755,10.101-18.934
		c0.653-1.477,2.181-2.368,3.788-2.21c2.772,0.138,5.558,0.02,8.338,0.04c2.519,0.018,2.587,0.142,1.422,2.319
		c-4.061,7.478-7.625,15.214-10.669,23.16c-7.228,18.858-10.269,39.063-8.914,59.213c1.53,22.162,8.346,42.813,18.925,62.265
		c2.035,3.74,2.073,3.719-2.084,3.721c-2.382,0-4.769-0.086-7.146,0.026c-1.451,0.14-2.831-0.655-3.438-1.981
		c-10.139-17.418-18.62-35.478-21.619-55.672c-0.925-5.785-1.327-11.641-1.203-17.497V80.46z"/>
	<path fill="#010101" d="M159.406,123.667c1.129,5.406-1.061,11.342-3.889,17.267c-3.355,7.029-6.395,14.216-9.383,21.412
		c-0.913,2.2-2.135,3.09-4.468,2.853c-1.742-0.158-3.495-0.161-5.238-0.008c-2.194,0.176-2.533-0.753-2.091-2.679
		c1.945-8.444,3.683-16.938,5.746-25.353c1.22-4.973,0.743-9.965,0.865-14.957c0.069-2.862,0.055-5.729,0-8.594
		c-0.027-1.477,0.487-2.209,2.055-2.199c4.768,0.038,9.534,0.038,14.3,0c1.512-0.014,2.148,0.6,2.116,2.129
		c-0.056,2.941-0.014,5.887-0.014,10.125V123.667z"/>
	<path fill="#010101" d="M159.399,66.42c0,1.429,0.043,2.859-0.009,4.286c-0.117,3.283-1.6,5.177-4.828,5.395
		c-3.715,0.252-7.443,0.249-11.157-0.011c-3.212-0.227-4.7-2.128-4.779-5.435c-0.066-2.856-0.066-5.713,0-8.572
		c0.087-3.479,1.686-5.268,5.134-5.672c3.624-0.43,7.286-0.417,10.907,0.037c3.158,0.4,4.6,2.02,4.721,5.211
		C159.447,63.245,159.398,64.832,159.399,66.42z"/>
</g>
</svg>
