<?xml version="1.0" encoding="UTF-8" standalone="no"?><svg xmlns="http://www.w3.org/2000/svg" xmlns:xlink="http://www.w3.org/1999/xlink" contentScriptType="application/ecmascript" contentStyleType="text/css" height="326px" preserveAspectRatio="none" style="width:533px;height:326px;background:#FFFFFF;" version="1.1" viewBox="0 0 533 326" width="533px" zoomAndPan="magnify"><defs><filter height="300%" id="foirrtdoopun3" width="300%" x="-1" y="-1"><feGaussianBlur result="blurOut" stdDeviation="2.0"/><feColorMatrix in="blurOut" result="blurOut2" type="matrix" values="0 0 0 0 0 0 0 0 0 0 0 0 0 0 0 0 0 0 .4 0"/><feOffset dx="4.0" dy="4.0" in="blurOut2" result="blurOut3"/><feBlend in="SourceGraphic" in2="blurOut3" mode="normal"/></filter></defs><g><!--MD5=[99b31deea5d7419a569cd5090bf83263]
cluster System--><rect fill="#FFFFFF" filter="url(#foirrtdoopun3)" height="307" style="stroke:#000000;stroke-width:1.5;" width="380" x="141" y="7"/><text fill="#000000" font-family="sans-serif" font-size="14" font-weight="bold" lengthAdjust="spacing" textLength="50" x="306" y="23.5332">System</text><ellipse cx="330.8511" cy="71.9702" fill="#FEFECE" filter="url(#foirrtdoopun3)" rx="130.3511" ry="28.4702" style="stroke:#A80036;stroke-width:1.5;"/><text fill="#000000" font-family="sans-serif" font-size="14" lengthAdjust="spacing" textLength="227" x="217.3511" y="75.6987">Get Product Backlog From a Project</text><ellipse cx="330.9823" cy="162.1965" fill="#FEFECE" filter="url(#foirrtdoopun3)" rx="121.4823" ry="26.6965" style="stroke:#A80036;stroke-width:1.5;"/><text fill="#000000" font-family="sans-serif" font-size="14" lengthAdjust="spacing" textLength="208" x="226.9823" y="165.925">Get Sprint Backlog From a Sprint</text><ellipse cx="330.772" cy="261.1544" fill="#FEFECE" filter="url(#foirrtdoopun3)" rx="173.772" ry="37.1544" style="stroke:#A80036;stroke-width:1.5;"/><text fill="#000000" font-family="sans-serif" font-size="14" lengthAdjust="spacing" textLength="318" x="171.772" y="264.8829">Add a User Story to the Sprint Backlog of a Project</text><!--MD5=[fee662a292a0353a69bd162820bae93b]
entity User--><ellipse cx="51.5" cy="130" fill="#FEFECE" filter="url(#foirrtdoopun3)" rx="8" ry="8" style="stroke:#A80036;stroke-width:1.5;"/><path d="M51.5,138 L51.5,165 M38.5,146 L64.5,146 M51.5,165 L38.5,180 M51.5,165 L64.5,180 " fill="none" filter="url(#foirrtdoopun3)" style="stroke:#A80036;stroke-width:1.5;"/><text fill="#000000" font-family="sans-serif" font-size="14" lengthAdjust="spacing" textLength="91" x="6" y="200.0332">Team Member</text><!--MD5=[7522d5c5799d0652da24a5d0145a519b]
link User to US1--><path d="M97.03,134.88 C108.46,128.7 120.95,122.6 133,118 C161.92,106.95 194.28,98.06 224.29,91.15 " fill="none" id="User-to-US1" style="stroke:#A80036;stroke-width:1.0;"/><polygon fill="#A80036" points="229.47,89.97,219.8112,88.0445,224.5921,91.0682,221.5684,95.8491,229.47,89.97" style="stroke:#A80036;stroke-width:1.0;"/><!--MD5=[40d0f94bfbad6ee11e3350241482b726]
link User to US2--><path d="M97.09,162 C126.26,162 165.96,162 204.32,162 " fill="none" id="User-to-US2" style="stroke:#A80036;stroke-width:1.0;"/><polygon fill="#A80036" points="209.47,162,200.47,158,204.47,162,200.47,166,209.47,162" style="stroke:#A80036;stroke-width:1.0;"/><!--MD5=[b35f596a8f6a10395dba456ca2afddc6]
link User to US3--><path d="M97.17,188.76 C108.6,194.95 121.05,201.14 133,206 C157.21,215.84 183.78,224.57 209.35,232.02 " fill="none" id="User-to-US3" style="stroke:#A80036;stroke-width:1.0;"/><polygon fill="#A80036" points="214.45,233.49,206.9126,227.1507,209.6462,232.1032,204.6937,234.8368,214.45,233.49" style="stroke:#A80036;stroke-width:1.0;"/><!--MD5=[3c68c88abe5cbaa30cd6188af8850750]
@startuml
'https://plantuml.com/use-case-diagram

left to right direction
:Team Member: as User
rectangle System{
    usecase "Get Product Backlog From a ProjectDeprecated" as US1
    usecase "Get Sprint Backlog From a Sprint" as US2
    usecase "Add a User Story to the Sprint Backlog of a ProjectDeprecated" as US3
}
User - -> US1
User - -> US2
User - -> US3

@enduml

@startuml

left to right direction
:Team Member: as User
rectangle System{
    usecase "Get Product Backlog From a ProjectDeprecated" as US1
    usecase "Get Sprint Backlog From a Sprint" as US2
    usecase "Add a User Story to the Sprint Backlog of a ProjectDeprecated" as US3
}
User - -> US1
User - -> US2
User - -> US3

@enduml

PlantUML version 1.2021.11(Sat Oct 02 14:26:11 BST 2021)
(GPL source distribution)
Java Runtime: OpenJDK Runtime Environment
JVM: OpenJDK 64-Bit Server VM
Default Encoding: Cp1252
Language: pt
Country: PT
--></g></svg>