<svg id="logo" xmlns="http://www.w3.org/2000/svg" width="878" height="160" viewBox="0 0 878 160">
  <defs>
    <style>
      .cls-1 {
        fill: #f00;
      }

      .cls-1, .cls-2 {
        fill-rule: evenodd;
      }

      .cls-2 {
        fill: #141414;
      }
    </style>
  </defs>
  <path class="cls-1" d="M294.913,154.465c-4.052,0-8.1.029-12.156-.007-7.181-.063-11.268-3.519-12.39-10.584q-6.675-42.031-13.314-84.069c-0.94-5.885-1.978-11.753-2.629-17.681-0.108-.985-0.069-2.128-1.606-2.193-1.659-.071-1.714,1.1-1.846,2.2-1.8,15.16-4.589,30.167-6.935,45.243q-4.507,28.978-9.167,57.933c-0.879,5.5-4.932,8.965-11.156,9.09q-13.462.272-26.932,0c-6.241-.133-10.237-3.828-11.231-9.956q-6.7-41.3-13.327-82.62-3.208-19.89-6.446-39.776c-0.1-.627-0.121-1.269-0.244-1.891-0.294-1.486.333-1.974,1.785-1.968q13.11,0.056,26.219,0a1.982,1.982,0,0,1,2.329,2.017q3.311,24.812,6.705,49.613c1.96,14.41,3.989,28.811,5.867,43.231,0.718,5.512,1.111,11.068,1.632,16.606,0.108,1.145.1,2.224,1.739,2.281,1.582,0.056,2.124-.787,2.275-2.129,1.279-11.3,3.623-22.436,5.431-33.655,3.691-22.913,7.554-45.8,11.376-68.689a9.927,9.927,0,0,1,10.1-8.7q13.107-.2,26.218,0a9.854,9.854,0,0,1,9.608,8.406Q282.408,60.925,287.9,94.7q2.7,16.47,5.433,32.935c0.167,1.018.229,2.053,0.314,3.083a1.957,1.957,0,0,0,2.312,2.064c1.455-.036,1.617-0.864,1.714-2.014,2.193-25.992,6.436-51.723,9.868-77.557,1.422-10.714,2.947-21.414,4.313-32.134,0.236-1.857,1-2.4,2.745-2.384q12.274,0.083,24.551,0c2.133-.018,2.76.639,2.373,2.826Q331.4,78.686,321.388,135.878c-0.5,2.819-.975,5.64-1.5,8.452-1.211,6.507-5.253,9.947-11.866,10.13-0.159,0-.318,0-0.477,0H294.913Zm305.38-68.072q0-32.347,0-64.694c0-3.492.009-3.5,3.568-3.5,7.707,0,15.415.086,23.119-.052,2.426-.043,3.147.752,3.134,3.134-0.083,15.039-.043,30.079-0.04,45.119,0,3.325.009,3.332,3.248,3.333,13.109,0,26.219-.058,39.328.055,2.427,0.021,3.1-.691,3.082-3.1-0.1-15.039-.054-30.079-0.049-45.118,0-3.354.013-3.366,3.254-3.368,7.707-.007,15.414.056,23.12-0.039,2.116-.026,2.943.57,2.94,2.817q-0.075,65.41-.01,130.821c0,1.932-.629,2.707-2.609,2.691-7.944-.065-15.89-0.095-23.834.017-2.4.034-2.906-.97-2.9-3.137,0.063-18.063.037-36.127,0.034-54.19,0-3.318-.009-3.328-3.258-3.329q-19.545-.006-39.09,0c-3.245,0-3.255.013-3.256,3.36q-0.006,26.857,0,53.713c0,3.532-.01,3.539-3.62,3.541q-11.44.007-22.882,0c-3.26,0-3.275-.027-3.275-3.375Q600.291,118.741,600.293,86.393ZM134.829,40.952c-9.848,0-19.7-.032-29.543.016a57.022,57.022,0,0,0-11.376.891c-3.856.8-5.727,2.928-6.278,6.811a31.744,31.744,0,0,0-.186,7.356c0.453,5.078,3.2,8.215,7.741,9.886,8.945,3.289,17.934,6.455,26.909,9.66a93.4,93.4,0,0,1,12.05,5.122c10.706,5.614,16.959,14.39,18.632,26.353a70.739,70.739,0,0,1-.585,24.214C149.337,145.1,141.677,152.326,127.029,155A133.645,133.645,0,0,1,96.667,156.6a248.869,248.869,0,0,1-33.781-3.956c-3.774-.7-3.765-0.767-3.36-4.655,0.494-4.741.869-9.5,1.152-14.256,0.254-4.272.264-4.28,4.609-4.13q20.234,0.7,40.471,1.255a39.856,39.856,0,0,0,9.465-.872c5.569-1.2,7.751-3.591,8.3-9.2a36.6,36.6,0,0,0,.007-5.96c-0.389-5.86-3.972-9.059-9.176-10.95-9.406-3.418-18.782-6.92-28.175-10.373a60.743,60.743,0,0,1-11.632-5.449A32.11,32.11,0,0,1,59.7,67.546a65.732,65.732,0,0,1,.054-30.015c2.285-9.847,8.411-16.168,17.967-19.245a65.559,65.559,0,0,1,15.91-2.824,165.973,165.973,0,0,1,49.445,3.69c6.477,1.54,5.84.742,5.192,7-0.449,4.346-.778,8.708-1.031,13.071-0.107,1.84-.74,2.432-2.646,2.313-3.244-.2-6.51-0.056-9.767-0.056V40.952Zm415.379,89.024c9.051,0.083,18.1.081,27.075-1.355,1.6-.256,2.356.3,2.523,1.931,0.653,6.4,1.359,12.8,2.058,19.191,0.167,1.525-.935,1.835-2.01,2.195a84.688,84.688,0,0,1-18.836,3.96,186.768,186.768,0,0,1-23.779.922,79.881,79.881,0,0,1-21.368-3.106c-12.779-3.964-21.108-12.5-25.757-24.868-3.1-8.257-4.466-16.862-5.176-25.616a209.328,209.328,0,0,1-.4-28.586c0.535-9.621,1.684-19.142,4.627-28.386,5.5-17.273,17.413-27.042,35.118-29.373a148.426,148.426,0,0,1,52.761,2.442c2.041,0.466,2.671,1.287,2.381,3.437-0.731,5.429-1.222,10.892-1.725,16.349-0.334,3.627-.4,3.871-3.942,3.642q-17.716-1.147-35.463-.969a26.042,26.042,0,0,0-8.65,1.415c-6.173,2.219-9.413,7.033-11.312,12.969a61.758,61.758,0,0,0-2.544,14.289,201.767,201.767,0,0,0,0,31.454c0.484,5.943,1.292,11.843,3.75,17.393,3.073,6.937,8.569,10.266,15.9,10.624C540.351,130.17,545.285,129.976,550.208,129.976ZM417.4,103c0-8.117-.067-16.234.042-24.349,0.031-2.3-.728-3.094-3.013-3-3.649.148-7.309,0-10.962,0.05-1.722.025-2.414-.666-2.388-2.413,0.069-4.535.057-9.071,0.008-13.607-0.017-1.616.646-2.239,2.251-2.33,3.881-.221,7.749-0.694,11.631-0.852,1.869-.076,2.474-0.756,2.457-2.577-0.067-7.081.036-14.165-.06-21.245-0.03-2.219.614-3.093,2.971-3.055,7.705,0.126,15.414.108,23.119,0.009,2.119-.027,2.746.733,2.72,2.781-0.09,7.24.047,14.484-.081,21.722-0.04,2.255.738,2.845,2.88,2.809,6.672-.114,13.348.019,20.02-0.076,2.108-.03,3,0.565,2.932,2.828-0.14,4.77-.12,9.549-0.008,14.321,0.049,2.063-.624,2.8-2.73,2.77-6.831-.1-13.666.023-20.5-0.073-1.985-.028-2.593.638-2.584,2.6,0.066,14.4.01,28.805,0.051,43.208,0.018,6.01,2.716,8.7,8.784,8.844,3.732,0.086,7.468.065,11.2,0.015,1.532-.021,2.289.488,2.5,2.118,0.726,5.514,1.507,11.024,2.435,16.508,0.311,1.844-.694,2.2-2,2.552a84.027,84.027,0,0,1-13.83,2.392c-6,.577-12.035,1.188-18.025-0.144-11.446-2.546-18.689-11.281-19.513-23.177-0.33-4.773-.29-9.538-0.314-14.308S417.4,107.771,417.4,103Zm-60.18,2.485q0-22.668,0-45.334c0-3.205.037-3.242,3.148-3.246,7.544-.01,15.088.055,22.631-0.04,2.1-.026,2.986.544,2.982,2.8q-0.075,45.93-.007,91.861c0,2.1-.648,3-2.87,2.977q-11.553-.133-23.108,0c-2.243.028-2.823-.858-2.814-2.971C357.254,136.181,357.223,120.831,357.223,105.482Zm14.56-91.566c2.066,0,4.132-.028,6.2,0,5.178,0.082,8.216,2.851,8.452,8.025,0.186,4.049.2,8.121,0,12.169-0.268,5.337-3.259,8.093-8.595,8.182q-5.957.1-11.916,0c-5.595-.09-8.554-3-8.669-8.561q-0.12-5.726,0-11.457c0.106-5.312,3.076-8.253,8.339-8.356C367.652,13.883,369.718,13.917,371.783,13.916Z"/>
  <path id="Shape_1_copy" data-name="Shape 1 copy" class="cls-2" d="M838.331,75.3c0.219,22.957-6.685,43.984-17.453,63.939-1.737,3.218-3.648,6.341-5.412,9.545a3.39,3.39,0,0,1-3.441,1.983c-2.777-.11-5.56-0.011-8.341-0.035-2.571-.022-2.761-0.317-1.543-2.534a179.951,179.951,0,0,0,11.409-25.441,140.058,140.058,0,0,0,8.094-37.88c1.9-26.5-4.009-51.318-15.66-74.953q-1.952-3.958-4.02-7.858c-0.722-1.36-.6-2.049,1.137-2.023,3.177,0.047,6.355.052,9.532,0a2.845,2.845,0,0,1,2.682,1.583c11.96,19.224,20.177,39.8,22.589,62.484,0.2,1.9.34,3.8,0.412,5.707C838.386,71.635,838.331,73.466,838.331,75.3Zm-109.27.315c-0.362-19.415,4.6-37.281,12.5-54.454,3-6.506,6.481-12.755,10.1-18.934a3.742,3.742,0,0,1,3.788-2.21c2.773,0.138,5.558.02,8.338,0.04,2.519,0.018,2.587.142,1.422,2.319A193.858,193.858,0,0,0,754.54,25.536a139.345,139.345,0,0,0-8.914,59.213c1.53,22.162,8.346,42.813,18.925,62.264,2.035,3.741,2.073,3.72-2.084,3.721-2.382,0-4.769-.085-7.147.027a3.418,3.418,0,0,1-3.437-1.982c-10.139-17.418-18.62-35.477-21.619-55.672A97.6,97.6,0,0,1,729.061,75.611Zm149.013,43.207c1.129,5.406-1.06,11.342-3.888,17.267-3.356,7.029-6.395,14.215-9.383,21.412-0.913,2.2-2.135,3.09-4.468,2.853a29.277,29.277,0,0,0-5.238-.008c-2.195.175-2.534-.753-2.091-2.679,1.945-8.444,3.682-16.939,5.746-25.353,1.22-4.972.743-9.965,0.865-14.956,0.07-2.863.055-5.73,0-8.594-0.027-1.477.488-2.21,2.055-2.2q7.151,0.058,14.3,0c1.511-.013,2.148.6,2.116,2.13C878.032,111.635,878.074,114.58,878.074,118.818ZM14.325,126.112c2.382,0,4.767-.078,7.145.017a7,7,0,0,1,7.013,6.24,61.658,61.658,0,0,1,.049,15.221c-0.442,3.676-2.6,6.015-6.246,6.5a62.031,62.031,0,0,1-16.135.02c-4.142-.535-6.385-3.322-6.471-7.559-0.086-4.292-.1-8.59,0-12.881,0.11-4.591,2.942-7.4,7.5-7.554,2.379-.08,4.763-0.014,7.145-0.014C14.325,126.105,14.325,126.108,14.325,126.112ZM878.067,61.575c0,1.429.043,2.859-.008,4.286-0.118,3.283-1.6,5.177-4.829,5.395a81.279,81.279,0,0,1-11.157-.011c-3.212-.227-4.7-2.128-4.779-5.435q-0.1-4.284,0-8.572c0.087-3.479,1.685-5.268,5.134-5.672a44.994,44.994,0,0,1,10.907.037c3.158,0.4,4.6,2.02,4.721,5.211C878.115,58.4,878.066,59.987,878.067,61.575Z"/>
</svg>
