<?xml version="1.0" encoding="utf-8"?>
<!-- Generator: Adobe Illustrator 16.0.0, SVG Export Plug-In . SVG Version: 6.00 Build 0)  -->
<!DOCTYPE svg PUBLIC "-//W3C//DTD SVG 1.1//EN" "http://www.w3.org/Graphics/SVG/1.1/DTD/svg11.dtd">
<svg version="1.1" id="Layer_1" xmlns="http://www.w3.org/2000/svg" xmlns:xlink="http://www.w3.org/1999/xlink" x="0px" y="0px"
	 width="590.01px" height="85.445px" viewBox="0 0 590.01 85.445" enable-background="new 0 0 590.01 85.445" xml:space="preserve">
<g>
	<g>
		<path fill="#FF0000" d="M68.702,50.296c-0.942,0-1.885,0.007-2.828-0.001c-1.67-0.016-2.622-0.819-2.883-2.463
			c-1.035-6.52-2.067-13.039-3.097-19.558c-0.22-1.37-0.46-2.735-0.612-4.114c-0.025-0.229-0.016-0.495-0.375-0.51
			c-0.385-0.017-0.398,0.256-0.429,0.512c-0.419,3.526-1.068,7.018-1.613,10.525c-0.7,4.495-1.41,8.988-2.133,13.478
			c-0.204,1.279-1.147,2.085-2.594,2.115c-2.089,0.042-4.178,0.042-6.267,0c-1.451-0.031-2.381-0.89-2.612-2.317
			c-1.039-6.405-2.073-12.813-3.101-19.221c-0.498-3.085-0.998-6.169-1.5-9.254c-0.024-0.146-0.028-0.295-0.057-0.44
			c-0.068-0.346,0.078-0.459,0.416-0.458c2.032,0.009,4.066,0.009,6.099,0c0.251-0.045,0.491,0.122,0.535,0.373
			c0.005,0.032,0.008,0.064,0.007,0.096c0.514,3.848,1.034,7.696,1.56,11.542c0.456,3.353,0.928,6.703,1.365,10.058
			c0.167,1.281,0.259,2.574,0.379,3.862c0.025,0.267,0.024,0.518,0.405,0.531c0.369,0.014,0.495-0.183,0.53-0.495
			c0.297-2.629,0.842-5.22,1.263-7.83c0.859-5.331,1.758-10.655,2.646-15.98c0.146-1.178,1.164-2.053,2.35-2.024
			c2.033-0.031,4.066-0.031,6.1,0c1.124,0.016,2.071,0.844,2.235,1.956c0.867,5.235,1.727,10.473,2.579,15.712
			c0.419,2.554,0.84,5.107,1.263,7.661c0.04,0.237,0.054,0.479,0.074,0.718c-0.018,0.25,0.171,0.468,0.42,0.486
			c0.04,0.003,0.08,0.001,0.118-0.007c0.338-0.008,0.375-0.201,0.398-0.468c0.51-6.046,1.498-12.033,2.296-18.043
			c0.33-2.492,0.685-4.982,1.002-7.476c0.056-0.432,0.233-0.559,0.64-0.554c1.903,0.012,3.808,0.012,5.71,0
			c0.497-0.005,0.643,0.148,0.553,0.657c-1.57,8.867-3.132,17.735-4.686,26.606c-0.116,0.655-0.227,1.312-0.349,1.966
			c-0.281,1.514-1.221,2.313-2.76,2.356c-0.036,0-0.074,0-0.111,0L68.702,50.296L68.702,50.296z M139.747,34.459
			c0-5.017,0-10.034,0-15.051c0-0.813,0.002-0.814,0.83-0.814c1.793,0,3.587,0.02,5.378-0.012c0.565-0.01,0.733,0.174,0.729,0.729
			c-0.02,3.498-0.01,6.998-0.009,10.497c0,0.773,0.002,0.775,0.755,0.775c3.05,0,6.1-0.013,9.15,0.013
			c0.564,0.005,0.721-0.161,0.717-0.721c-0.023-3.499-0.013-6.998-0.012-10.497c0-0.78,0.003-0.783,0.758-0.784
			c1.792-0.001,3.585,0.013,5.378-0.009c0.492-0.005,0.685,0.133,0.684,0.656c-0.011,10.145-0.012,20.29-0.002,30.435
			c0,0.45-0.146,0.63-0.606,0.627c-1.848-0.016-3.697-0.022-5.545,0.003c-0.558,0.008-0.676-0.226-0.675-0.73
			c0.015-4.202,0.009-8.404,0.008-12.606c0-0.772-0.002-0.775-0.757-0.775c-3.032-0.001-6.063-0.001-9.095,0
			c-0.755,0-0.757,0.002-0.757,0.782c-0.001,4.165-0.001,8.331,0,12.496c0,0.822-0.002,0.823-0.843,0.823
			c-1.774,0.001-3.548,0.001-5.323,0c-0.758,0-0.762-0.006-0.762-0.785C139.747,44.494,139.747,39.477,139.747,34.459
			L139.747,34.459z M31.458,23.888c-2.292,0-4.583-0.007-6.874,0.003c-0.887-0.02-1.773,0.05-2.646,0.208
			c-0.896,0.186-1.332,0.681-1.461,1.584c-0.079,0.567-0.095,1.141-0.043,1.711c0.106,1.182,0.745,1.911,1.801,2.3
			c2.082,0.765,4.173,1.501,6.262,2.247c0.96,0.331,1.897,0.73,2.803,1.192c2.49,1.306,3.945,3.348,4.334,6.131
			c0.279,1.871,0.233,3.777-0.136,5.632c-0.665,3.221-2.447,4.901-5.854,5.524c-2.333,0.392-4.704,0.517-7.064,0.372
			c-2.638-0.127-5.264-0.434-7.858-0.92c-0.877-0.163-0.875-0.178-0.782-1.083c0.115-1.103,0.202-2.21,0.269-3.317
			c0.059-0.994,0.061-0.996,1.072-0.96c3.139,0.109,6.277,0.206,9.417,0.292c0.739,0.021,1.479-0.048,2.202-0.203
			c1.295-0.279,1.803-0.835,1.93-2.141c0.039-0.462,0.039-0.924,0.002-1.386c-0.091-1.364-0.925-2.108-2.135-2.548
			c-2.188-0.795-4.369-1.61-6.556-2.413c-0.943-0.325-1.851-0.75-2.706-1.268c-1.755-1.05-3.005-2.775-3.454-4.771
			c-0.534-2.298-0.531-4.688,0.013-6.983c0.532-2.291,1.957-3.761,4.181-4.477c1.202-0.371,2.445-0.592,3.701-0.657
			c3.856-0.292,7.733-0.002,11.503,0.858c1.506,0.358,1.358,0.172,1.208,1.628c-0.105,1.011-0.182,2.026-0.239,3.041
			c-0.025,0.428-0.172,0.566-0.617,0.538c-0.754-0.047-1.514-0.013-2.272-0.013v-0.123H31.458z M128.094,44.599
			c2.105,0.019,4.211,0.018,6.299-0.315c0.372-0.06,0.548,0.069,0.587,0.449c0.152,1.489,0.316,2.978,0.479,4.464
			c0.039,0.355-0.217,0.427-0.467,0.51c-1.421,0.473-2.892,0.782-4.383,0.922c-1.837,0.189-3.686,0.261-5.532,0.214
			c-1.683-0.015-3.354-0.257-4.971-0.723c-2.973-0.922-4.911-2.908-5.992-5.785c-0.723-1.921-1.04-3.922-1.205-5.959
			c-0.183-2.212-0.214-4.435-0.093-6.651c0.124-2.238,0.391-4.454,1.076-6.604c1.279-4.019,4.05-6.292,8.17-6.833
			c4.093-0.546,8.25-0.354,12.274,0.568c0.475,0.108,0.621,0.299,0.554,0.799c-0.17,1.263-0.285,2.534-0.401,3.803
			c-0.078,0.844-0.093,0.901-0.917,0.848c-2.748-0.178-5.497-0.253-8.25-0.226c-0.684-0.004-1.364,0.106-2.012,0.329
			c-1.437,0.516-2.19,1.637-2.632,3.017c-0.328,1.081-0.526,2.197-0.592,3.324c-0.19,2.436-0.19,4.883,0,7.317
			c0.112,1.382,0.301,2.756,0.872,4.047c0.716,1.614,1.994,2.388,3.699,2.471C125.801,44.644,126.949,44.599,128.094,44.599z
			 M97.197,38.322c0-1.888-0.016-3.776,0.01-5.664c0.008-0.535-0.169-0.72-0.701-0.698c-0.85,0.034-1.7,0-2.55,0.011
			c-0.401,0.006-0.563-0.155-0.556-0.562c0.016-1.055,0.014-2.11,0.002-3.166c-0.005-0.375,0.149-0.521,0.524-0.542
			c0.902-0.051,1.802-0.162,2.706-0.198c0.434-0.018,0.575-0.176,0.571-0.599c-0.016-1.648,0.008-3.296-0.014-4.943
			c-0.008-0.516,0.143-0.719,0.691-0.71c1.792,0.03,3.585,0.025,5.378,0.002c0.493-0.006,0.638,0.17,0.632,0.647
			c-0.02,1.684,0.012,3.37-0.019,5.054c-0.009,0.524,0.172,0.662,0.67,0.653c1.552-0.026,3.105,0.005,4.658-0.018
			c0.49-0.007,0.697,0.132,0.682,0.658c-0.032,1.11-0.027,2.222-0.001,3.332c0.011,0.48-0.146,0.652-0.635,0.645
			c-1.59-0.023-3.18,0.005-4.77-0.017c-0.463-0.006-0.604,0.148-0.602,0.605c0.016,3.35,0.003,6.701,0.012,10.051
			c0.004,1.398,0.632,2.024,2.043,2.058c0.869,0.02,1.737,0.015,2.606,0.003c0.356-0.004,0.532,0.114,0.582,0.492
			c0.169,1.284,0.351,2.565,0.566,3.841c0.073,0.429-0.161,0.513-0.465,0.594c-1.055,0.274-2.131,0.46-3.217,0.556
			c-1.396,0.135-2.8,0.277-4.194-0.033c-2.663-0.592-4.348-2.624-4.538-5.392c-0.077-1.11-0.068-2.219-0.074-3.33
			C97.19,40.545,97.197,39.433,97.197,38.322z M83.197,38.901c0-3.516,0-7.031,0-10.547c0-0.745,0.009-0.754,0.733-0.755
			c1.755-0.002,3.509,0.012,5.264-0.01c0.49-0.006,0.695,0.127,0.694,0.651c-0.011,7.125-0.011,14.248-0.001,21.372
			c0,0.489-0.151,0.697-0.668,0.693c-1.792-0.021-3.583-0.021-5.375,0c-0.523,0.007-0.658-0.2-0.655-0.692
			C83.204,46.042,83.197,42.472,83.197,38.901L83.197,38.901z M86.584,17.599c0.481,0,0.96-0.007,1.442,0
			c1.205,0.019,1.911,0.663,1.966,1.866c0.043,0.942,0.046,1.89,0,2.832c-0.062,1.242-0.758,1.883-1.999,1.904
			c-0.924,0.015-1.848,0.015-2.772,0c-1.302-0.021-1.99-0.698-2.018-1.992c-0.018-0.888-0.018-1.776,0-2.665
			c0.025-1.236,0.717-1.92,1.94-1.944c0.479-0.009,0.96,0,1.441-0.001L86.584,17.599z"/>
		<path id="Shape_1_copy" d="M195.125,31.878c0.051,5.341-1.555,10.232-4.061,14.875c-0.404,0.749-0.848,1.475-1.259,2.22
			c-0.14,0.311-0.461,0.497-0.8,0.461c-0.646-0.025-1.294-0.002-1.94-0.008c-0.598-0.004-0.643-0.074-0.359-0.589
			c1.038-1.902,1.924-3.881,2.654-5.918c1.033-2.836,1.667-5.802,1.884-8.813c0.441-6.165-0.933-11.939-3.644-17.438
			c-0.303-0.614-0.615-1.223-0.936-1.828c-0.167-0.316-0.139-0.477,0.264-0.471c0.739,0.011,1.479,0.012,2.218,0
			c0.263-0.012,0.508,0.133,0.624,0.369c2.783,4.472,4.695,9.259,5.256,14.536c0.047,0.442,0.079,0.884,0.095,1.328
			C195.138,31.026,195.125,31.452,195.125,31.878z M169.704,31.952c-0.084-4.517,1.07-8.673,2.908-12.668
			c0.698-1.513,1.507-2.967,2.35-4.405c0.152-0.344,0.507-0.551,0.881-0.515c0.645,0.033,1.292,0.005,1.94,0.01
			c0.585,0.004,0.601,0.033,0.33,0.539c-0.944,1.74-1.773,3.54-2.481,5.388c-1.682,4.387-2.389,9.088-2.074,13.776
			c0.356,5.156,1.941,9.961,4.402,14.485c0.474,0.871,0.483,0.865-0.484,0.866c-0.555,0-1.11-0.02-1.663,0.006
			c-0.338,0.033-0.659-0.152-0.8-0.461c-2.359-4.052-4.332-8.253-5.029-12.951C169.769,34.676,169.676,33.313,169.704,31.952
			L169.704,31.952z M204.372,42.003c0.263,1.258-0.247,2.639-0.905,4.018c-0.78,1.635-1.488,3.307-2.183,4.981
			c-0.212,0.511-0.497,0.719-1.039,0.664c-0.406-0.037-0.814-0.038-1.219-0.002c-0.51,0.042-0.589-0.175-0.486-0.623
			c0.453-1.965,0.856-3.94,1.337-5.899c0.284-1.157,0.172-2.318,0.201-3.479c0.017-0.666,0.013-1.333,0-1.999
			c-0.006-0.344,0.113-0.514,0.479-0.512c1.109,0.008,2.218,0.008,3.327,0c0.352-0.003,0.499,0.14,0.492,0.495
			C204.361,40.332,204.372,41.017,204.372,42.003L204.372,42.003z M3.423,43.7c0.555,0,1.109-0.018,1.663,0.003
			c0.835-0.006,1.541,0.622,1.632,1.453c0.149,1.175,0.154,2.364,0.011,3.54c-0.103,0.856-0.605,1.4-1.454,1.513
			c-1.245,0.165-2.507,0.167-3.753,0.005c-0.964-0.125-1.486-0.772-1.506-1.759c-0.021-0.998-0.023-1.998,0-2.996
			c0.026-1.068,0.685-1.723,1.745-1.758c0.553-0.019,1.108-0.003,1.662-0.003C3.423,43.699,3.423,43.699,3.423,43.7z
			 M204.371,28.686c0,0.332,0.009,0.665-0.002,0.997c-0.027,0.764-0.372,1.204-1.124,1.255c-0.864,0.059-1.731,0.058-2.595-0.002
			c-0.748-0.053-1.093-0.495-1.111-1.264c-0.016-0.665-0.016-1.33,0-1.995c0.019-0.809,0.391-1.226,1.194-1.319
			c0.843-0.1,1.695-0.097,2.538,0.008c0.734,0.093,1.069,0.47,1.098,1.212C204.381,27.947,204.369,28.316,204.371,28.686z"/>
	</g>
	<path fill="#B3B3B3" d="M489.004,27.406v6.234h-3.617V15.227h6.211c1.784-0.107,3.538,0.509,4.862,1.71
		c1.162,1.139,1.794,2.713,1.744,4.34c0.042,1.633-0.589,3.212-1.744,4.369c-1.31,1.23-3.068,1.867-4.862,1.76H489.004z
		 M491.049,18.384h-2.045v5.891h2.045c0.897,0.048,1.784-0.222,2.503-0.762c0.643-0.559,0.987-1.386,0.931-2.236
		c0.063-0.836-0.283-1.651-0.931-2.184C492.818,18.587,491.938,18.337,491.049,18.384 M509.659,32.153
		c-2.566,2.403-6.557,2.403-9.122,0c-1.232-1.181-1.908-2.829-1.86-4.535c-0.049-1.708,0.627-3.355,1.859-4.537
		c2.566-2.403,6.557-2.403,9.121,0c1.233,1.182,1.91,2.83,1.862,4.537c0.049,1.707-0.627,3.355-1.86,4.537 M505.101,24.328
		c-0.828-0.027-1.625,0.315-2.176,0.934c-1.119,1.37-1.119,3.339,0,4.709c1.125,1.194,3.005,1.25,4.199,0.125
		c0.044-0.041,0.086-0.083,0.126-0.125c1.118-1.371,1.118-3.339,0-4.709C506.707,24.647,505.92,24.305,505.101,24.328 M520.84,21.54
		v3.416h-1.442c-0.707-0.063-1.406,0.187-1.913,0.684c-0.461,0.65-0.675,1.443-0.603,2.236v5.76h-3.408V21.592h3.303v1.921
		c0.223-0.62,0.636-1.154,1.18-1.526c0.574-0.379,1.252-0.573,1.939-0.556c0.317-0.003,0.635,0.032,0.944,0.105 M523.644,17.327
		h3.408v4.577h2.592v2.894h-2.595v5.444c0,0.58,0.376,0.869,1.127,0.869l1.573-0.08v2.918c-1.102,0.106-1.984,0.16-2.648,0.16
		c-0.425,0.005-0.85-0.026-1.271-0.092c-0.373-0.067-0.735-0.186-1.074-0.355c-0.359-0.177-0.649-0.468-0.825-0.828
		c-0.207-0.447-0.307-0.937-0.288-1.43v-6.602h-1.888v-2.894h1.888v-4.576L523.644,17.327z M542.229,32.465
		c-2.565,2.403-6.555,2.403-9.121,0c-1.232-1.182-1.909-2.83-1.86-4.537c-0.049-1.707,0.628-3.355,1.86-4.537
		c2.566-2.403,6.556-2.403,9.121,0c1.233,1.182,1.91,2.83,1.861,4.537C544.14,29.635,543.463,31.283,542.229,32.465 M537.666,24.644
		c-0.827-0.027-1.625,0.315-2.176,0.934c-1.118,1.37-1.118,3.337,0,4.708c1.125,1.194,3.005,1.25,4.2,0.126
		c0.043-0.041,0.085-0.083,0.125-0.126c1.119-1.37,1.119-3.337,0-4.708C539.272,24.963,538.486,24.621,537.666,24.644 M546.696,33.6
		c-0.885-0.89-0.88-2.329,0.011-3.212s2.328-0.879,3.213,0.012c0.884,0.89,0.88,2.329-0.011,3.212
		c-0.427,0.423-1.002,0.66-1.602,0.66C547.701,34.278,547.118,34.036,546.696,33.6 M485.163,38.302h8.883v1.014h-3.899v11.438
		h-1.101V39.315h-3.883V38.302z M501.014,47.162h-6.772c0.042,0.764,0.353,1.489,0.877,2.046c0.516,0.535,1.234,0.826,1.977,0.8
		c1.004,0.06,1.95-0.466,2.43-1.35h1.258c-0.318,0.698-0.836,1.286-1.489,1.69c-0.658,0.414-1.421,0.629-2.197,0.622
		c-1.067,0.028-2.097-0.396-2.837-1.165c-1.511-1.689-1.511-4.245,0-5.934c1.539-1.555,4.047-1.567,5.601-0.028
		c0.005,0.003,0.008,0.008,0.012,0.011c0.808,0.892,1.219,2.073,1.143,3.273V47.162L501.014,47.162z M497.077,43.657
		c-0.704-0.021-1.387,0.242-1.896,0.729c-0.516,0.501-0.837,1.169-0.904,1.886h5.532c-0.045-0.704-0.349-1.365-0.851-1.859
		C498.461,43.914,497.782,43.64,497.077,43.657 M504.214,44.564c-1.1,1.319-1.1,3.235,0,4.555c0.538,0.601,1.314,0.933,2.119,0.908
		c0.542,0.01,1.075-0.138,1.534-0.427c0.443-0.285,0.802-0.685,1.037-1.157l0.922,0.535c-0.334,0.607-0.831,1.11-1.437,1.45
		c-0.625,0.361-1.335,0.549-2.057,0.543c-1.079,0.023-2.119-0.403-2.873-1.174c-1.56-1.664-1.56-4.252,0-5.916
		c0.752-0.777,1.793-1.206,2.873-1.183c0.722-0.005,1.432,0.183,2.057,0.542c0.604,0.34,1.102,0.842,1.436,1.451l-0.922,0.533
		c-0.483-0.973-1.482-1.582-2.57-1.565c-0.805-0.025-1.581,0.307-2.119,0.907 M517.308,50.761v-5.163
		c0.031-0.53-0.162-1.049-0.532-1.429c-0.381-0.348-0.886-0.531-1.401-0.507c-1.034,0.043-1.992,0.554-2.606,1.388v5.711h-1.081
		V38.302h1.064v5.729c0.675-0.856,1.71-1.35,2.8-1.334c0.774-0.046,1.532,0.229,2.093,0.765c0.517,0.566,0.785,1.315,0.745,2.081
		v5.213h-1.081V50.761z M529.596,43.93v-5.628h1.1v12.454h-1.1v-5.853h-6.33v5.853h-1.1V38.302h1.1v5.622h6.33V43.93z
		 M539.254,50.115c-1.444,1.14-3.482,1.14-4.928,0c-0.587-0.559-0.909-1.342-0.887-2.152v-5.052h1.081v4.946
		c-0.035,0.597,0.196,1.178,0.63,1.589c0.966,0.748,2.314,0.748,3.28,0c0.435-0.411,0.664-0.992,0.628-1.589v-4.946h1.083v5.052
		C540.165,48.773,539.842,49.556,539.254,50.115 M546.615,50.97c-0.628,0.006-1.247-0.158-1.79-0.477
		c-0.506-0.279-0.92-0.7-1.191-1.21v1.477h-1.081V38.302h1.081v6.139c0.262-0.526,0.678-0.96,1.191-1.246
		c0.551-0.331,1.184-0.503,1.827-0.498c1.062-0.026,2.082,0.401,2.81,1.174c0.757,0.8,1.162,1.869,1.127,2.97
		c0.037,1.101-0.373,2.169-1.136,2.963C548.713,50.574,547.683,50.998,546.615,50.97 M548.663,49.119
		c1.099-1.319,1.099-3.234,0-4.555c-1.113-1.169-2.968-1.215-4.138-0.099c-0.037,0.035-0.072,0.071-0.108,0.108
		c-1.112,1.308-1.112,3.229,0,4.537c1.111,1.175,2.963,1.227,4.138,0.117C548.592,49.192,548.629,49.157,548.663,49.119
		 M569.608,30.979c0.23-0.482,0.243-1.04,0.035-1.532c-0.316-0.778-1.073-1.287-1.914-1.284l-2.541-6.336l14.959-6.037l2.872,7.17
		l-3.466,1.4c-0.208-0.243-0.47-0.431-0.767-0.548c-0.487-0.219-1.042-0.225-1.534-0.015c-0.503,0.193-0.904,0.584-1.112,1.082
		c-0.205,0.496-0.203,1.054,0.006,1.548c0.185,0.497,0.566,0.895,1.056,1.1c0.491,0.22,1.055,0.226,1.553,0.017
		c0.499-0.191,0.896-0.585,1.094-1.084c0.137-0.313,0.197-0.654,0.174-0.995l3.447-1.391l6.54,16.336l-4.697,1.894l-1.345-3.356
		c0.654-0.58,0.892-1.499,0.599-2.323c-0.195-0.509-0.593-0.913-1.097-1.118c-0.487-0.215-1.041-0.218-1.531-0.008
		c-0.502,0.194-0.901,0.582-1.112,1.075c-0.202,0.5-0.199,1.059,0.009,1.556c0.185,0.494,0.564,0.89,1.052,1.093
		c0.305,0.134,0.637,0.194,0.968,0.176l1.344,3.356l-19.16,7.726l-2.907-7.267l11.013-4.44c0.146-0.059,0.261-0.176,0.318-0.324
		l1.084-2.579c0.335,0.035,0.674-0.014,0.985-0.141c1.018-0.427,1.511-1.587,1.112-2.616c-0.194-0.505-0.584-0.91-1.081-1.123
		c-0.489-0.208-1.041-0.208-1.528,0c-0.501,0.192-0.904,0.576-1.119,1.067c-0.207,0.499-0.207,1.061,0,1.559
		c0.115,0.301,0.303,0.569,0.545,0.784l-0.983,2.341l-10.793,4.352l-3.368-8.409l3.713-1.498l0.296,0.737
		c-0.256,0.196-0.451,0.459-0.566,0.76c-0.217,0.494-0.22,1.057-0.009,1.554c0.186,0.5,0.574,0.897,1.068,1.095
		c0.492,0.225,1.057,0.233,1.555,0.023c1.015-0.436,1.508-1.593,1.118-2.626c-0.192-0.508-0.589-0.912-1.093-1.112
		c-0.305-0.134-0.637-0.186-0.966-0.151l-0.518-1.291c-0.058-0.147-0.176-0.263-0.323-0.317c-0.141-0.067-0.304-0.073-0.449-0.016
		l-4.271,1.722l-2.687-6.706l8.903-3.59l2.515,6.274c-0.783,0.528-1.075,1.541-0.695,2.404c0.187,0.494,0.566,0.889,1.054,1.092
		c0.491,0.224,1.055,0.232,1.555,0.025c0.504-0.194,0.902-0.591,1.1-1.095"/>
	<rect x="365.546" fill="none" width="224.363" height="85.445"/>
	<g>
		<g>
			<path fill="#B3B3B3" d="M250.616,49.783V23.372h5.058v26.412H250.616z M250.616,18.91v-4.92h5.058v4.92H250.616z M260.636,42.633
				l4.853-1.064c0.196,1.467,0.554,2.554,1.072,3.256c0.517,0.71,1.265,1.057,2.231,1.057c0.708-0.009,1.268-0.223,1.686-0.635
				c0.417-0.417,0.631-0.98,0.639-1.704c-0.019-1.006-0.487-1.957-1.408-2.85c-0.918-0.889-2.189-1.918-3.806-3.077
				c-1.6-1.166-2.778-2.35-3.548-3.546c-0.771-1.203-1.154-2.588-1.15-4.161c0.039-2.225,0.727-3.98,2.067-5.251
				c1.337-1.272,3.108-1.926,5.318-1.948c2.081,0.019,3.751,0.629,5.017,1.824c1.26,1.2,1.98,2.874,2.158,5.02l-4.754,1.116
				c-0.352-2.232-1.246-3.349-2.683-3.349c-1.393,0.071-2.114,0.848-2.17,2.335c0.025,1.016,0.503,1.935,1.429,2.744
				c0.92,0.808,2.135,1.789,3.633,2.931c1.58,1.257,2.782,2.488,3.608,3.699c0.823,1.208,1.239,2.63,1.245,4.264
				c-0.039,2.254-0.738,4.013-2.098,5.275c-1.357,1.259-3.156,1.896-5.387,1.92c-2.145-0.011-3.918-0.689-5.314-2.042
				C261.878,47.096,260.997,45.162,260.636,42.633z M280.315,42.328V30.469c0.042-2.368,0.758-4.24,2.147-5.631
				c1.394-1.385,3.206-2.095,5.444-2.127c2.26,0.008,4.012,0.658,5.243,1.959c1.238,1.303,1.866,3.235,1.88,5.8v6.743h-9.55v4.966
				c-0.021,1.24,0.122,2.171,0.427,2.78c0.302,0.615,0.885,0.924,1.738,0.924c1-0.006,1.628-0.318,1.889-0.938
				c0.262-0.628,0.37-1.547,0.33-2.767v-1.823h5.167v1.972c-0.017,5.437-2.51,8.155-7.491,8.162
				c-2.215-0.011-3.969-0.716-5.256-2.124C281.001,46.966,280.347,44.956,280.315,42.328z M285.479,33.106h4.385v-2.688
				c0.013-1.038-0.152-1.815-0.482-2.327c-0.328-0.512-0.895-0.77-1.68-0.77c-0.816,0-1.396,0.258-1.733,0.77
				c-0.337,0.512-0.501,1.29-0.488,2.327L285.479,33.106L285.479,33.106z M298.888,58.095V23.372h5.059v2.081
				c1.252-1.623,2.836-2.436,4.749-2.436c1.433,0,2.546,0.492,3.34,1.477c0.79,0.984,1.194,2.452,1.208,4.402v14.603
				c-0.045,4.392-1.664,6.607-4.855,6.638c-1.535,0.013-3.012-0.816-4.441-2.487v10.447H298.888z M303.946,28.392v16.473
				c0.715,0.752,1.402,1.125,2.066,1.116c1.334,0.009,2.021-0.921,2.063-2.79V29.554c0.061-1.563-0.521-2.341-1.748-2.332
				C305.479,27.205,304.688,27.595,303.946,28.392z"/>
			<rect x="296.777" y="13.887" fill="#72797F" width="0.528" height="35.893"/>
			<rect x="258.014" y="23.256" fill="#72797F" width="0.521" height="34.451"/>
			<rect x="277.838" y="37.106" fill="#72797F" width="0.523" height="34.453"/>
		</g>
		<g>
			<g>
				<polygon fill="#B3B3B3" points="332.261,45.83 328.595,45.83 328.595,43.045 331.858,43.045 331.858,41.479 328.595,41.479 
					328.595,39.063 332.05,39.063 332.05,37.456 326.679,37.456 326.679,47.439 332.261,47.439 				"/>
				<path fill="#B3B3B3" d="M339.817,43.001c-0.013-1.005-0.24-1.75-0.678-2.224c-0.434-0.48-0.998-0.718-1.674-0.715
					c-0.523,0.013-0.963,0.135-1.317,0.366c-0.347,0.23-0.607,0.482-0.769,0.764h-0.039l-0.092-0.983h-1.662
					c0.014,0.312,0.028,0.649,0.034,1.005c0.009,0.355,0.021,0.743,0.021,1.162v5.064h1.916v-4.306
					c0.022-0.542,0.164-0.929,0.428-1.165c0.259-0.23,0.531-0.344,0.812-0.339c0.4,0.014,0.69,0.166,0.857,0.466
					c0.163,0.295,0.247,0.669,0.243,1.119v4.223h1.921L339.817,43.001L339.817,43.001z"/>
				<path fill="#B3B3B3" d="M346.054,40.208l-0.08,0.867h-0.027c-0.16-0.289-0.391-0.533-0.69-0.72
					c-0.298-0.187-0.67-0.288-1.128-0.292c-0.539,0-1.031,0.154-1.479,0.457c-0.455,0.298-0.813,0.732-1.087,1.295
					c-0.273,0.571-0.411,1.251-0.422,2.051c0.011,0.663,0.122,1.264,0.345,1.79c0.229,0.529,0.546,0.946,0.967,1.257
					c0.414,0.309,0.908,0.464,1.479,0.475c0.401-0.005,0.756-0.087,1.063-0.25c0.314-0.157,0.561-0.384,0.745-0.672h0.025v0.527
					c-0.007,0.692-0.171,1.202-0.491,1.521c-0.322,0.326-0.756,0.488-1.303,0.482c-0.386-0.003-0.737-0.054-1.061-0.146
					c-0.319-0.092-0.587-0.2-0.804-0.323l-0.379,1.469c0.289,0.161,0.637,0.287,1.042,0.368c0.398,0.084,0.815,0.119,1.246,0.119
					c0.867-0.006,1.553-0.148,2.051-0.428c0.497-0.276,0.859-0.628,1.085-1.053c0.229-0.432,0.376-0.867,0.431-1.326
					c0.059-0.45,0.086-0.864,0.078-1.227v-4.078c0-0.501,0.005-0.919,0.018-1.268c0.01-0.347,0.025-0.645,0.05-0.897H346.054
					L346.054,40.208z M345.739,44.421c-0.004,0.405-0.08,0.719-0.218,0.938c-0.14,0.217-0.304,0.372-0.485,0.453
					c-0.191,0.087-0.365,0.127-0.518,0.121c-0.455-0.007-0.811-0.202-1.064-0.585c-0.25-0.385-0.371-0.896-0.377-1.535
					c0.006-0.689,0.141-1.233,0.4-1.634c0.26-0.398,0.61-0.604,1.055-0.613c0.332,0.004,0.615,0.13,0.85,0.382
					c0.227,0.252,0.348,0.612,0.357,1.078V44.421z"/>
				<path fill="#B3B3B3" d="M354.567,45.83c-0.241,0.085-0.511,0.155-0.796,0.211c-0.289,0.058-0.614,0.084-0.965,0.087
					c-0.536,0.003-0.993-0.13-1.36-0.403c-0.371-0.274-0.574-0.713-0.615-1.327h4.324c0.016-0.102,0.028-0.223,0.039-0.353
					c0.008-0.129,0.012-0.271,0.012-0.413c-0.012-1.172-0.271-2.063-0.791-2.665c-0.516-0.61-1.213-0.91-2.104-0.916
					c-0.707,0.008-1.304,0.187-1.802,0.539c-0.488,0.351-0.863,0.819-1.119,1.401c-0.26,0.582-0.393,1.225-0.393,1.93
					c0.01,1.133,0.314,2.021,0.918,2.661c0.604,0.645,1.467,0.974,2.592,0.981c0.451,0,0.877-0.034,1.28-0.108
					c0.399-0.072,0.755-0.174,1.056-0.304L354.567,45.83z M350.831,43.064c0.014-0.249,0.072-0.501,0.176-0.756
					c0.092-0.251,0.239-0.469,0.435-0.647c0.196-0.176,0.444-0.268,0.751-0.274c0.314,0.006,0.563,0.098,0.748,0.266
					c0.18,0.168,0.308,0.385,0.387,0.642c0.074,0.25,0.108,0.509,0.098,0.77H350.831L350.831,43.064z"/>
				<path fill="#B3B3B3" d="M362.708,43.001c-0.016-1.005-0.238-1.75-0.676-2.224c-0.438-0.48-0.998-0.718-1.675-0.715
					c-0.528,0.013-0.966,0.135-1.317,0.366s-0.609,0.482-0.771,0.764h-0.037l-0.094-0.983h-1.658
					c0.012,0.312,0.02,0.649,0.031,1.005s0.016,0.743,0.018,1.162v5.064h1.921v-4.306c0.021-0.542,0.159-0.929,0.419-1.165
					c0.268-0.23,0.538-0.344,0.817-0.339c0.4,0.014,0.686,0.166,0.856,0.466c0.168,0.295,0.248,0.669,0.244,1.119v4.223h1.922
					V43.001L362.708,43.001z"/>
				<path fill="#B3B3B3" d="M370.601,43.11c-0.015-1.06-0.235-1.832-0.664-2.325c-0.431-0.495-0.975-0.742-1.632-0.734
					c-0.322-0.006-0.659,0.073-1.009,0.228c-0.353,0.157-0.659,0.422-0.928,0.796h-0.025v-4.077h-1.921v10.441h1.921v-4.394
					c0.018-0.531,0.164-0.9,0.426-1.108c0.268-0.212,0.537-0.312,0.795-0.306c0.41,0.014,0.7,0.168,0.867,0.473
					c0.176,0.302,0.256,0.694,0.25,1.163v4.172h1.92V43.11L370.601,43.11z"/>
				<path fill="#B3B3B3" d="M377.713,43.077c0.011-0.54-0.073-1.032-0.243-1.49c-0.168-0.452-0.457-0.815-0.871-1.094
					c-0.418-0.276-1-0.422-1.742-0.43c-0.568,0.005-1.066,0.076-1.496,0.198c-0.43,0.125-0.764,0.26-1.005,0.412l0.354,1.246
					c0.242-0.143,0.513-0.262,0.824-0.353c0.303-0.092,0.625-0.137,0.961-0.137c0.516,0.002,0.861,0.124,1.044,0.358
					c0.179,0.235,0.263,0.535,0.257,0.902c-1.173,0-2.119,0.219-2.841,0.666c-0.719,0.442-1.087,1.136-1.112,2.057
					c0.012,0.597,0.203,1.112,0.584,1.524s0.91,0.623,1.588,0.644c0.402,0,0.779-0.08,1.107-0.232
					c0.328-0.153,0.605-0.375,0.813-0.662h0.041l0.121,0.755h1.722c-0.041-0.228-0.065-0.49-0.081-0.786
					c-0.014-0.3-0.022-0.607-0.022-0.929v-2.648H377.713z M375.842,44.956c-0.004,0.309-0.072,0.553-0.212,0.737
					c-0.133,0.184-0.291,0.314-0.479,0.392c-0.188,0.084-0.354,0.123-0.512,0.123c-0.25,0-0.467-0.08-0.637-0.238
					c-0.179-0.158-0.27-0.411-0.274-0.751c0.005-0.349,0.114-0.618,0.315-0.804c0.208-0.19,0.471-0.323,0.793-0.391
					c0.314-0.074,0.652-0.108,1.005-0.102V44.956L375.842,44.956z"/>
				<path fill="#B3B3B3" d="M383.36,40.089c-0.059-0.014-0.125-0.027-0.189-0.03c-0.068-0.003-0.148-0.008-0.234-0.008
					c-0.352,0-0.695,0.116-1.025,0.354c-0.331,0.238-0.588,0.59-0.771,1.059h-0.048l-0.08-1.257h-1.65
					c0.012,0.32,0.028,0.661,0.037,1.035c0.006,0.371,0.018,0.775,0.018,1.222v4.974h1.918v-3.742
					c0.016-0.618,0.156-1.075,0.443-1.37c0.284-0.301,0.647-0.45,1.093-0.45c0.097,0,0.183,0.006,0.264,0.01
					c0.079,0.007,0.158,0.018,0.226,0.031V40.089L383.36,40.089z"/>
				<path fill="#B3B3B3" d="M386.427,38.231c-0.008-0.303-0.104-0.552-0.291-0.737c-0.184-0.187-0.436-0.281-0.752-0.284
					c-0.303,0.003-0.547,0.097-0.731,0.284c-0.187,0.185-0.284,0.434-0.289,0.737c0,0.298,0.097,0.544,0.283,0.731
					c0.183,0.19,0.435,0.29,0.737,0.296c0.307-0.006,0.55-0.098,0.742-0.279C386.323,38.797,386.419,38.542,386.427,38.231z
					 M386.361,40.208h-1.923v7.231h1.923V40.208z"/>
				<path fill="#B3B3B3" d="M393.505,43.077c0.002-0.54-0.08-1.032-0.248-1.49c-0.167-0.452-0.457-0.815-0.875-1.094
					c-0.416-0.276-0.997-0.422-1.738-0.43c-0.568,0.005-1.068,0.076-1.499,0.198c-0.426,0.125-0.765,0.26-1.005,0.412l0.363,1.246
					c0.234-0.143,0.506-0.262,0.814-0.353c0.304-0.092,0.63-0.137,0.963-0.137c0.516,0.002,0.861,0.124,1.043,0.358
					c0.184,0.235,0.271,0.535,0.258,0.902c-1.175,0-2.115,0.219-2.842,0.666c-0.717,0.442-1.087,1.136-1.109,2.057
					c0.01,0.597,0.197,1.112,0.58,1.524c0.389,0.412,0.914,0.623,1.591,0.644c0.409,0,0.778-0.08,1.106-0.232
					c0.329-0.153,0.604-0.375,0.817-0.662h0.032l0.122,0.755h1.722c-0.031-0.228-0.064-0.49-0.075-0.786
					c-0.021-0.3-0.028-0.607-0.021-0.929V43.077L393.505,43.077z M391.634,44.956c-0.01,0.309-0.078,0.553-0.214,0.737
					c-0.135,0.184-0.296,0.314-0.477,0.392c-0.192,0.084-0.363,0.123-0.517,0.123c-0.254,0-0.461-0.08-0.635-0.238
					c-0.182-0.158-0.27-0.411-0.278-0.751c0.005-0.349,0.113-0.618,0.319-0.804c0.201-0.19,0.466-0.323,0.785-0.391
					c0.325-0.074,0.656-0.108,1.016-0.102V44.956z"/>
				<path fill="#B3B3B3" d="M404.152,37.052h-1.071v4.246h-0.029c-0.162-0.303-0.418-0.556-0.769-0.765
					c-0.347-0.208-0.774-0.316-1.296-0.325c-0.557,0-1.068,0.149-1.523,0.45c-0.461,0.295-0.826,0.729-1.104,1.294
					c-0.273,0.561-0.414,1.247-0.428,2.044c0.024,1.102,0.301,1.974,0.844,2.617c0.541,0.639,1.229,0.965,2.068,0.981
					c0.572-0.011,1.059-0.146,1.449-0.406c0.391-0.255,0.678-0.578,0.863-0.954h0.04l0.052,1.205h0.959
					c-0.015-0.251-0.026-0.532-0.041-0.841c-0.008-0.318-0.012-0.622-0.015-0.914V37.052L404.152,37.052z M403.081,44.556
					c-0.01,0.584-0.189,1.087-0.54,1.5c-0.346,0.419-0.821,0.636-1.411,0.656c-0.463-0.005-0.852-0.136-1.16-0.383
					c-0.313-0.251-0.543-0.587-0.697-1.002c-0.156-0.418-0.233-0.878-0.233-1.381c0.004-0.829,0.194-1.509,0.563-2.046
					c0.367-0.533,0.893-0.806,1.568-0.823c0.309,0,0.605,0.079,0.896,0.236c0.292,0.154,0.527,0.39,0.715,0.702
					c0.192,0.314,0.293,0.707,0.299,1.175V44.556L403.081,44.556z"/>
				<path fill="#B3B3B3" d="M409.094,40.196c-0.608,0-1.165,0.146-1.661,0.433c-0.493,0.29-0.895,0.712-1.188,1.27
					c-0.299,0.556-0.453,1.239-0.461,2.046c0.018,1.154,0.331,2.046,0.93,2.686c0.596,0.63,1.355,0.953,2.291,0.964
					c0.535,0,1.052-0.128,1.558-0.39c0.502-0.261,0.917-0.665,1.241-1.219c0.326-0.551,0.502-1.268,0.51-2.144
					c-0.014-1.102-0.309-1.979-0.884-2.636C410.855,40.544,410.077,40.211,409.094,40.196z M411.213,43.88
					c-0.012,0.822-0.217,1.499-0.61,2.035c-0.397,0.539-0.922,0.818-1.572,0.834c-0.646-0.017-1.16-0.296-1.549-0.829
					c-0.389-0.541-0.586-1.209-0.594-2.016c-0.004-0.464,0.072-0.917,0.221-1.35c0.146-0.433,0.381-0.794,0.701-1.081
					c0.323-0.282,0.734-0.428,1.247-0.439c0.513,0.011,0.926,0.168,1.245,0.456c0.318,0.295,0.549,0.655,0.694,1.091
					C411.143,43.015,411.213,43.448,411.213,43.88z"/>
				<path fill="#B3B3B3" d="M417.046,47.439h1.072V43.37c0.152,0.041,0.312,0.065,0.48,0.078c0.168,0.011,0.346,0.014,0.535,0.014
					c0.595,0.005,1.166-0.094,1.719-0.298c0.541-0.207,0.99-0.542,1.344-1.006c0.352-0.463,0.534-1.078,0.548-1.853
					c0.018-0.276-0.048-0.64-0.186-1.075c-0.138-0.444-0.46-0.837-0.954-1.19c-0.492-0.357-1.268-0.542-2.316-0.56
					c-0.465,0-0.88,0.019-1.254,0.058c-0.374,0.032-0.707,0.081-0.988,0.135V47.439L417.046,47.439z M418.118,38.453
					c0.121-0.029,0.277-0.051,0.477-0.073c0.199-0.021,0.434-0.032,0.707-0.032c0.689-0.003,1.252,0.157,1.689,0.488
					c0.434,0.33,0.663,0.848,0.677,1.552c-0.008,0.709-0.23,1.251-0.673,1.631c-0.438,0.374-1.05,0.563-1.836,0.563
					c-0.209,0-0.399-0.003-0.572-0.021c-0.174-0.019-0.332-0.046-0.469-0.083V38.453z"/>
				<path fill="#B3B3B3" d="M427.212,40.196c-0.609,0-1.164,0.146-1.662,0.433c-0.496,0.29-0.896,0.712-1.189,1.27
					c-0.295,0.556-0.447,1.239-0.461,2.046c0.023,1.154,0.331,2.046,0.93,2.686c0.598,0.63,1.363,0.953,2.291,0.964
					c0.534,0,1.056-0.128,1.562-0.39c0.498-0.261,0.917-0.665,1.243-1.219c0.327-0.551,0.494-1.268,0.508-2.144
					c-0.018-1.102-0.311-1.979-0.885-2.636C428.969,40.544,428.192,40.211,427.212,40.196z M429.331,43.88
					c-0.013,0.822-0.217,1.499-0.611,2.035c-0.396,0.539-0.916,0.818-1.572,0.834c-0.646-0.017-1.162-0.296-1.553-0.829
					c-0.381-0.541-0.584-1.209-0.596-2.016c0-0.464,0.078-0.917,0.224-1.35c0.153-0.433,0.386-0.794,0.71-1.081
					c0.313-0.282,0.727-0.428,1.238-0.439c0.518,0.011,0.932,0.168,1.248,0.456c0.316,0.295,0.55,0.655,0.695,1.091
					C429.261,43.015,429.331,43.448,429.331,43.88z"/>
				<path fill="#B3B3B3" d="M435.308,40.247c-0.057-0.008-0.107-0.02-0.16-0.027s-0.109-0.011-0.166-0.011
					c-0.442,0.008-0.833,0.147-1.166,0.425c-0.34,0.277-0.592,0.64-0.756,1.089h-0.041l-0.047-1.36h-0.949
					c0.021,0.336,0.033,0.677,0.043,1.024c0.008,0.352,0.013,0.717,0.013,1.089v4.963h1.073v-3.845c0-0.406,0.064-0.786,0.197-1.143
					c0.137-0.352,0.331-0.642,0.592-0.865c0.264-0.222,0.592-0.339,0.975-0.344c0.08,0,0.154,0,0.211,0.009
					c0.063,0.005,0.127,0.01,0.184,0.018v-1.023H435.308z"/>
				<path fill="#B3B3B3" d="M436.838,40.363h-1.091v0.842h1.091v4.065c-0.006,0.265,0.013,0.576,0.079,0.932
					c0.063,0.357,0.217,0.674,0.463,0.948c0.254,0.271,0.663,0.414,1.227,0.428c0.228,0,0.424-0.015,0.607-0.043
					c0.174-0.03,0.326-0.068,0.439-0.119l-0.064-0.838c-0.088,0.036-0.189,0.063-0.311,0.081c-0.115,0.015-0.254,0.026-0.416,0.026
					c-0.344,0-0.591-0.124-0.737-0.356c-0.151-0.238-0.228-0.582-0.22-1.035v-4.088h1.828v-0.842h-1.828v-1.65l-1.067,0.36V40.363
					L436.838,40.363z"/>
				<path fill="#B3B3B3" d="M443.96,40.196c-0.612,0-1.164,0.146-1.662,0.433c-0.496,0.29-0.895,0.712-1.191,1.27
					c-0.299,0.556-0.451,1.239-0.459,2.046c0.021,1.154,0.33,2.046,0.93,2.686c0.598,0.63,1.363,0.953,2.293,0.964
					c0.533,0,1.055-0.128,1.557-0.39c0.502-0.261,0.916-0.665,1.243-1.219c0.328-0.551,0.495-1.268,0.511-2.144
					c-0.018-1.102-0.313-1.979-0.887-2.636C445.719,40.544,444.936,40.211,443.96,40.196z M446.076,43.88
					c-0.012,0.822-0.217,1.499-0.609,2.035c-0.393,0.539-0.921,0.818-1.571,0.834c-0.648-0.017-1.164-0.296-1.55-0.829
					c-0.386-0.541-0.585-1.209-0.593-2.016c-0.008-0.464,0.07-0.917,0.219-1.35c0.15-0.433,0.381-0.794,0.703-1.081
					c0.322-0.282,0.732-0.428,1.241-0.439c0.517,0.011,0.933,0.168,1.251,0.456c0.316,0.295,0.546,0.655,0.692,1.091
					C446.009,43.015,446.076,43.448,446.076,43.88z"/>
			</g>
			<g>
				<rect x="326.808" y="23.204" fill="#B3B3B3" width="1.076" height="9.891"/>
				<path fill="#B3B3B3" d="M335.845,28.786c-0.014-0.792-0.156-1.4-0.42-1.828c-0.275-0.429-0.59-0.718-0.955-0.878
					c-0.369-0.16-0.707-0.233-1.014-0.228c-0.555,0.014-1.029,0.146-1.418,0.398c-0.391,0.252-0.677,0.559-0.857,0.916h-0.024
					l-0.065-1.146h-0.959c0.014,0.279,0.027,0.569,0.035,0.858c0.011,0.29,0.018,0.613,0.018,0.97v5.245h1.076v-4.321
					c0.017-0.632,0.214-1.125,0.582-1.483c0.367-0.354,0.795-0.539,1.275-0.544c0.608,0.02,1.039,0.237,1.285,0.653
					c0.254,0.417,0.375,0.923,0.365,1.514v4.181h1.077L335.845,28.786L335.845,28.786z"/>
				<path fill="#B3B3B3" d="M341.663,26.281c-0.188-0.119-0.422-0.217-0.693-0.301c-0.277-0.081-0.588-0.127-0.928-0.127
					c-0.721,0.014-1.285,0.211-1.688,0.593c-0.41,0.38-0.613,0.854-0.621,1.419c0,0.429,0.152,0.805,0.449,1.141
					c0.307,0.336,0.758,0.618,1.354,0.858c0.463,0.185,0.799,0.38,1.006,0.597c0.211,0.21,0.31,0.481,0.31,0.806
					c0,0.325-0.122,0.596-0.353,0.813c-0.24,0.212-0.594,0.32-1.064,0.331c-0.314-0.006-0.606-0.057-0.889-0.158
					c-0.279-0.102-0.517-0.206-0.713-0.322l-0.295,0.83c0.242,0.143,0.523,0.26,0.843,0.35c0.321,0.084,0.655,0.127,1.017,0.133
					c0.776-0.014,1.389-0.2,1.825-0.571c0.443-0.375,0.671-0.881,0.677-1.52c-0.003-0.529-0.162-0.957-0.479-1.29
					c-0.311-0.336-0.747-0.612-1.326-0.842c-0.451-0.182-0.787-0.372-0.999-0.559c-0.212-0.186-0.312-0.434-0.312-0.729
					s0.1-0.542,0.304-0.737c0.2-0.198,0.5-0.304,0.888-0.312c0.318,0.008,0.597,0.052,0.832,0.144
					c0.232,0.09,0.415,0.182,0.545,0.274L341.663,26.281z"/>
				<path fill="#B3B3B3" d="M343.932,26.021h-1.09v0.845h1.09v4.063c-0.007,0.266,0.019,0.577,0.077,0.935
					c0.063,0.36,0.217,0.672,0.473,0.946c0.251,0.274,0.652,0.415,1.217,0.433c0.229-0.005,0.432-0.019,0.609-0.048
					c0.178-0.031,0.326-0.068,0.441-0.122l-0.064-0.827c-0.088,0.027-0.188,0.057-0.311,0.073c-0.119,0.017-0.254,0.024-0.418,0.024
					c-0.338,0-0.584-0.116-0.738-0.354c-0.152-0.238-0.223-0.583-0.223-1.036v-4.087h1.832v-0.845h-1.832v-1.647l-1.063,0.366
					V26.021L343.932,26.021z"/>
				<path fill="#B3B3B3" d="M349.606,24.038c0-0.208-0.067-0.379-0.187-0.518c-0.128-0.134-0.296-0.206-0.513-0.213
					c-0.211,0.007-0.381,0.079-0.512,0.213c-0.131,0.139-0.201,0.31-0.201,0.518c0,0.211,0.066,0.385,0.196,0.522
					c0.126,0.133,0.295,0.209,0.505,0.212c0.211,0,0.381-0.065,0.514-0.199C349.536,24.444,349.601,24.265,349.606,24.038z
					 M349.44,26.021h-1.081v7.073h1.081V26.021z"/>
				<path fill="#B3B3B3" d="M351.962,26.021h-1.088v0.845h1.088v4.063c-0.013,0.266,0.02,0.577,0.076,0.935
					c0.064,0.36,0.217,0.672,0.473,0.946c0.252,0.274,0.654,0.415,1.216,0.433c0.229-0.005,0.428-0.019,0.612-0.048
					c0.174-0.031,0.319-0.068,0.439-0.122l-0.061-0.827c-0.09,0.027-0.199,0.057-0.314,0.073c-0.117,0.017-0.252,0.024-0.415,0.024
					c-0.347,0-0.587-0.116-0.74-0.354c-0.151-0.238-0.226-0.583-0.221-1.036v-4.087h1.831v-0.845h-1.831v-1.647l-1.065,0.366V26.021
					L351.962,26.021z"/>
				<path fill="#B3B3B3" d="M361.935,26.021h-1.076v4.404c-0.011,0.412-0.105,0.765-0.289,1.052c-0.186,0.286-0.418,0.503-0.7,0.645
					c-0.284,0.149-0.565,0.222-0.853,0.222c-0.586-0.007-0.998-0.225-1.236-0.65c-0.243-0.422-0.361-0.985-0.352-1.685v-3.988
					h-1.078v4.183c0.015,0.81,0.131,1.432,0.372,1.877c0.233,0.442,0.521,0.748,0.882,0.924c0.35,0.173,0.705,0.254,1.072,0.246
					c0.599-0.016,1.084-0.157,1.463-0.425c0.369-0.266,0.636-0.547,0.797-0.843h0.04l0.056,1.111h0.967
					c-0.014-0.269-0.027-0.559-0.043-0.867c-0.014-0.312-0.021-0.65-0.021-1.011V26.021L361.935,26.021z"/>
				<path fill="#B3B3B3" d="M364.472,26.021h-1.092v0.845h1.092v4.063c-0.012,0.266,0.016,0.577,0.076,0.935
					c0.057,0.36,0.217,0.672,0.469,0.946c0.25,0.274,0.654,0.415,1.217,0.433c0.229-0.005,0.434-0.019,0.604-0.048
					c0.185-0.031,0.33-0.068,0.451-0.122l-0.066-0.827c-0.092,0.027-0.197,0.057-0.309,0.073c-0.121,0.017-0.26,0.024-0.42,0.024
					c-0.34,0-0.586-0.116-0.739-0.354c-0.151-0.238-0.225-0.583-0.222-1.036v-4.087h1.828v-0.845h-1.828v-1.647l-1.061,0.366V26.021
					z"/>
				<path fill="#B3B3B3" d="M371.688,25.853c-0.606,0-1.161,0.146-1.658,0.437c-0.499,0.292-0.897,0.712-1.192,1.27
					c-0.295,0.558-0.447,1.238-0.458,2.046c0.021,1.151,0.325,2.045,0.929,2.681c0.602,0.637,1.361,0.957,2.293,0.965
					c0.535,0.002,1.053-0.125,1.557-0.384c0.499-0.263,0.919-0.667,1.246-1.22c0.326-0.553,0.5-1.27,0.505-2.146
					c-0.011-1.099-0.304-1.978-0.884-2.636C373.452,26.205,372.67,25.867,371.688,25.853z M373.808,29.541
					c-0.01,0.82-0.213,1.498-0.609,2.037c-0.394,0.539-0.922,0.815-1.574,0.834c-0.646-0.02-1.162-0.295-1.551-0.834
					c-0.381-0.534-0.586-1.203-0.596-2.013c0-0.461,0.076-0.913,0.227-1.347c0.148-0.437,0.382-0.797,0.704-1.083
					c0.315-0.279,0.73-0.429,1.243-0.437c0.515,0.011,0.928,0.163,1.246,0.455c0.314,0.296,0.547,0.653,0.693,1.087
					C373.737,28.678,373.808,29.112,373.808,29.541z"/>
				<path fill="#B3B3B3" d="M384.983,23.529c-0.187-0.122-0.457-0.226-0.801-0.323c-0.348-0.089-0.75-0.138-1.227-0.143
					c-0.91,0.012-1.645,0.262-2.186,0.738c-0.543,0.477-0.824,1.103-0.834,1.873c0.008,0.675,0.242,1.241,0.695,1.696
					c0.447,0.453,1.049,0.816,1.807,1.094c0.642,0.253,1.106,0.542,1.393,0.878c0.288,0.325,0.435,0.734,0.429,1.216
					c-0.005,0.537-0.193,0.967-0.556,1.282c-0.371,0.323-0.881,0.488-1.549,0.496c-0.408-0.003-0.801-0.064-1.168-0.173
					c-0.369-0.114-0.691-0.26-0.963-0.439l-0.297,0.895c0.258,0.178,0.599,0.328,1.029,0.444c0.432,0.116,0.873,0.175,1.33,0.181
					c1.07-0.018,1.883-0.287,2.438-0.801c0.557-0.518,0.835-1.173,0.84-1.976c0-0.701-0.205-1.276-0.608-1.734
					c-0.407-0.455-1.007-0.85-1.812-1.178c-0.658-0.265-1.143-0.553-1.457-0.856c-0.309-0.303-0.463-0.696-0.461-1.17
					c-0.01-0.376,0.137-0.729,0.432-1.051c0.293-0.319,0.783-0.487,1.461-0.506c0.422,0.005,0.777,0.057,1.076,0.156
					c0.3,0.101,0.522,0.201,0.663,0.296L384.983,23.529z"/>
				<path fill="#B3B3B3" d="M392.688,26.021h-1.074v4.404c-0.007,0.412-0.103,0.765-0.293,1.052
					c-0.186,0.287-0.418,0.503-0.701,0.645c-0.281,0.149-0.564,0.222-0.85,0.222c-0.588-0.007-0.999-0.225-1.238-0.65
					c-0.24-0.422-0.361-0.985-0.35-1.685v-3.988h-1.078v4.183c0.008,0.81,0.127,1.432,0.371,1.877
					c0.232,0.442,0.523,0.748,0.881,0.924c0.352,0.173,0.709,0.254,1.07,0.246c0.609-0.016,1.095-0.157,1.463-0.425
					c0.373-0.266,0.639-0.547,0.799-0.843h0.04l0.054,1.111h0.971c-0.017-0.269-0.027-0.559-0.045-0.867
					c-0.008-0.312-0.018-0.65-0.02-1.011V26.021L392.688,26.021z"/>
				<path fill="#B3B3B3" d="M395.923,27.213l-0.067-1.191h-0.97c0.012,0.325,0.023,0.669,0.033,1.04
					c0.006,0.371,0.018,0.789,0.018,1.244v7.69h1.076v-3.869h0.024c0.216,0.353,0.504,0.626,0.872,0.827
					c0.371,0.197,0.785,0.298,1.261,0.298c0.524,0.002,1.025-0.136,1.487-0.404c0.467-0.273,0.844-0.686,1.139-1.244
					c0.293-0.561,0.439-1.276,0.445-2.135c-0.012-1.102-0.279-1.977-0.811-2.625c-0.525-0.647-1.215-0.978-2.064-0.991
					c-0.556,0-1.034,0.122-1.441,0.358c-0.403,0.23-0.73,0.568-0.979,1.002H395.923z M396.013,28.928
					c0-0.347,0.087-0.69,0.256-1.023c0.17-0.328,0.404-0.61,0.707-0.83c0.305-0.217,0.656-0.33,1.065-0.338
					c0.46,0.005,0.843,0.133,1.157,0.391c0.318,0.251,0.556,0.587,0.715,1.005c0.16,0.42,0.242,0.875,0.244,1.371
					c-0.002,0.859-0.188,1.549-0.555,2.076c-0.369,0.525-0.902,0.792-1.602,0.804c-0.325,0-0.643-0.076-0.947-0.236
					c-0.295-0.157-0.545-0.395-0.743-0.709c-0.19-0.313-0.288-0.693-0.298-1.155V28.928L396.013,28.928z"/>
				<path fill="#B3B3B3" d="M407.767,32.024c-0.213,0.095-0.467,0.176-0.758,0.247c-0.295,0.072-0.656,0.108-1.096,0.11
					c-0.653,0.014-1.215-0.192-1.674-0.609c-0.461-0.42-0.703-1.119-0.73-2.089h4.818c0.006-0.083,0.012-0.173,0.019-0.269
					c0.005-0.094,0.009-0.203,0.009-0.33c0.004-0.426-0.07-0.889-0.228-1.387c-0.155-0.494-0.433-0.921-0.831-1.278
					c-0.4-0.361-0.961-0.548-1.68-0.566c-0.971,0.019-1.732,0.379-2.293,1.08c-0.565,0.691-0.851,1.607-0.865,2.737
					c0.01,1.077,0.3,1.937,0.88,2.579c0.57,0.647,1.378,0.975,2.419,0.994c0.539-0.007,0.996-0.054,1.363-0.148
					c0.369-0.093,0.656-0.19,0.861-0.296L407.767,32.024z M403.536,28.881c0.031-0.335,0.127-0.672,0.27-1.01
					c0.145-0.331,0.359-0.613,0.642-0.845c0.276-0.227,0.634-0.347,1.062-0.355c0.463,0.008,0.823,0.13,1.083,0.36
					c0.265,0.227,0.446,0.512,0.552,0.848c0.104,0.339,0.156,0.672,0.148,1.002L403.536,28.881L403.536,28.881z"/>
				<path fill="#B3B3B3" d="M413.302,25.907c-0.057-0.008-0.107-0.017-0.155-0.027c-0.056-0.009-0.108-0.014-0.164-0.014
					c-0.444,0.011-0.835,0.155-1.173,0.428c-0.334,0.276-0.59,0.642-0.746,1.089h-0.045l-0.052-1.362h-0.948
					c0.023,0.337,0.038,0.68,0.046,1.032c0.005,0.347,0.007,0.71,0.007,1.083v4.958h1.078v-3.842c0-0.404,0.063-0.785,0.199-1.141
					c0.131-0.352,0.325-0.641,0.59-0.864c0.262-0.222,0.588-0.338,0.977-0.341c0.079,0,0.148,0,0.211,0.003
					c0.063,0.008,0.119,0.013,0.176,0.023V25.907L413.302,25.907z"/>
				<path fill="#B3B3B3" d="M415.894,24.038c0-0.208-0.064-0.379-0.186-0.518c-0.125-0.134-0.295-0.206-0.516-0.213
					c-0.209,0.007-0.376,0.079-0.504,0.213c-0.131,0.139-0.203,0.31-0.203,0.518c0,0.211,0.063,0.385,0.193,0.522
					c0.127,0.133,0.295,0.209,0.508,0.212c0.209,0,0.379-0.065,0.508-0.199C415.825,24.444,415.894,24.265,415.894,24.038z
					 M415.731,26.021h-1.08v7.073h1.08V26.021z"/>
				<path fill="#B3B3B3" d="M420.757,25.853c-0.608,0-1.16,0.146-1.66,0.437c-0.498,0.292-0.895,0.712-1.195,1.27
					c-0.297,0.558-0.447,1.238-0.453,2.046c0.02,1.151,0.332,2.045,0.93,2.681c0.594,0.637,1.357,0.957,2.287,0.965
					c0.539,0.002,1.054-0.125,1.558-0.384c0.504-0.263,0.917-0.667,1.245-1.22c0.325-0.553,0.496-1.27,0.51-2.146
					c-0.014-1.099-0.308-1.978-0.886-2.636C422.516,26.205,421.742,25.867,420.757,25.853z M422.875,29.541
					c-0.015,0.82-0.213,1.498-0.609,2.037c-0.394,0.539-0.921,0.815-1.575,0.834c-0.641-0.02-1.158-0.295-1.55-0.834
					c-0.386-0.534-0.581-1.203-0.591-2.013c0-0.461,0.07-0.913,0.223-1.347c0.148-0.437,0.387-0.797,0.701-1.083
					c0.317-0.279,0.736-0.429,1.246-0.437c0.515,0.011,0.926,0.163,1.242,0.455c0.322,0.296,0.553,0.653,0.696,1.087
					C422.805,28.678,422.875,29.112,422.875,29.541z"/>
				<path fill="#B3B3B3" d="M428.955,25.907c-0.058-0.008-0.112-0.017-0.159-0.027c-0.058-0.009-0.108-0.014-0.166-0.014
					c-0.441,0.011-0.832,0.155-1.172,0.428c-0.332,0.276-0.589,0.642-0.746,1.089h-0.042l-0.054-1.362h-0.945
					c0.021,0.337,0.033,0.68,0.045,1.032c0.002,0.347,0.008,0.71,0.008,1.083v4.958h1.076v-3.842c0-0.404,0.069-0.785,0.198-1.141
					c0.13-0.352,0.327-0.641,0.591-0.864c0.261-0.222,0.586-0.338,0.979-0.341c0.076,0,0.144,0,0.207,0.003
					c0.064,0.008,0.123,0.013,0.181,0.023V25.907z"/>
				<path fill="#B3B3B3" d="M439.565,22.71h-1.077v4.243h-0.024c-0.162-0.301-0.416-0.55-0.764-0.761
					c-0.35-0.206-0.783-0.314-1.304-0.325c-0.555,0-1.063,0.155-1.522,0.452c-0.455,0.301-0.825,0.729-1.104,1.295
					c-0.271,0.566-0.416,1.247-0.426,2.043c0.024,1.103,0.3,1.978,0.842,2.617c0.545,0.639,1.234,0.964,2.068,0.978
					c0.577-0.008,1.059-0.141,1.448-0.398c0.393-0.26,0.68-0.583,0.866-0.959h0.037l0.053,1.201h0.96
					c-0.015-0.241-0.026-0.523-0.034-0.841c-0.014-0.314-0.02-0.618-0.02-0.907V22.71L439.565,22.71z M438.488,30.215
					c-0.006,0.585-0.187,1.089-0.532,1.504c-0.346,0.419-0.822,0.636-1.413,0.652c-0.464-0.005-0.854-0.135-1.161-0.381
					c-0.308-0.252-0.542-0.588-0.7-1.003c-0.149-0.417-0.229-0.877-0.233-1.381c0.004-0.829,0.193-1.509,0.563-2.045
					c0.375-0.534,0.895-0.808,1.569-0.824c0.31,0,0.607,0.079,0.902,0.233c0.287,0.158,0.524,0.393,0.716,0.705
					c0.191,0.314,0.284,0.709,0.29,1.181V30.215L438.488,30.215z"/>
				<path fill="#B3B3B3" d="M446.618,32.024c-0.217,0.095-0.467,0.176-0.759,0.247c-0.294,0.072-0.663,0.108-1.097,0.11
					c-0.655,0.014-1.215-0.192-1.67-0.609c-0.46-0.42-0.703-1.119-0.729-2.089h4.817c0.004-0.083,0.008-0.173,0.012-0.269
					c0.012-0.094,0.014-0.203,0.014-0.33c0.006-0.426-0.07-0.889-0.23-1.387c-0.155-0.494-0.434-0.921-0.833-1.278
					c-0.394-0.361-0.954-0.548-1.673-0.566c-0.97,0.019-1.734,0.379-2.298,1.08c-0.56,0.691-0.849,1.607-0.863,2.737
					c0.013,1.077,0.304,1.937,0.878,2.579c0.57,0.647,1.378,0.975,2.42,0.994c0.54-0.007,0.994-0.054,1.361-0.148
					c0.375-0.093,0.656-0.19,0.858-0.296L446.618,32.024z M442.39,28.881c0.029-0.335,0.121-0.672,0.27-1.01
					c0.139-0.331,0.355-0.613,0.637-0.845c0.281-0.227,0.633-0.347,1.066-0.355c0.457,0.008,0.82,0.13,1.082,0.36
					c0.26,0.227,0.443,0.512,0.551,0.848c0.105,0.339,0.153,0.672,0.147,1.002L442.39,28.881L442.39,28.881z"/>
			</g>
		</g>
	</g>
</g>
</svg>
