<?xml version="1.0" encoding="UTF-8" standalone="no"?><svg xmlns="http://www.w3.org/2000/svg" xmlns:xlink="http://www.w3.org/1999/xlink" contentScriptType="application/ecmascript" contentStyleType="text/css" height="983px" preserveAspectRatio="none" style="width:1422px;height:983px;background:#FFFFFF;" version="1.1" viewBox="0 0 1422 983" width="1422px" zoomAndPan="magnify"><defs><filter height="300%" id="f1gv0wfz9kh94w" width="300%" x="-1" y="-1"><feGaussianBlur result="blurOut" stdDeviation="2.0"/><feColorMatrix in="blurOut" result="blurOut2" type="matrix" values="0 0 0 0 0 0 0 0 0 0 0 0 0 0 0 0 0 0 .4 0"/><feOffset dx="4.0" dy="4.0" in="blurOut2" result="blurOut3"/><feBlend in="SourceGraphic" in2="blurOut3" mode="normal"/></filter></defs><g><!--MD5=[9681dc6e01e10c6b4fe06895ae94f592]
cluster UI--><polygon fill="#FFFFFF" filter="url(#f1gv0wfz9kh94w)" points="461,6,481,6,488,29.6094,603,29.6094,603,106,461,106,461,6" style="stroke:#000000;stroke-width:1.5;"/><line style="stroke:#000000;stroke-width:1.5;" x1="461" x2="488" y1="29.6094" y2="29.6094"/><text fill="#000000" font-family="sans-serif" font-size="14" font-weight="bold" lengthAdjust="spacing" textLength="14" x="465" y="22.5332">UI</text><!--MD5=[2c2e2644034c00788261e03c85b06837]
cluster Core--><polygon fill="#FFFFFF" filter="url(#f1gv0wfz9kh94w)" points="16,130,56,130,63,153.6094,1405,153.6094,1405,976,16,976,16,130" style="stroke:#000000;stroke-width:1.5;"/><line style="stroke:#000000;stroke-width:1.5;" x1="16" x2="63" y1="153.6094" y2="153.6094"/><text fill="#000000" font-family="sans-serif" font-size="14" font-weight="bold" lengthAdjust="spacing" textLength="34" x="20" y="146.5332">Core</text><!--MD5=[ed1d20ea533a2a0e7df5ba3c35e56ced]
cluster Controllers--><polygon fill="#FFFFFF" filter="url(#f1gv0wfz9kh94w)" points="298,174,383,174,390,197.6094,766,197.6094,766,288,298,288,298,174" style="stroke:#000000;stroke-width:1.5;"/><line style="stroke:#000000;stroke-width:1.5;" x1="298" x2="390" y1="197.6094" y2="197.6094"/><text fill="#000000" font-family="sans-serif" font-size="14" font-weight="bold" lengthAdjust="spacing" textLength="79" x="302" y="190.5332">Controllers</text><!--MD5=[121a8bf1197281ab89ed693fab589f94]
cluster Domain--><polygon fill="#FFFFFF" filter="url(#f1gv0wfz9kh94w)" points="40,312,98,312,105,335.6094,1381,335.6094,1381,952,40,952,40,312" style="stroke:#000000;stroke-width:1.5;"/><line style="stroke:#000000;stroke-width:1.5;" x1="40" x2="105" y1="335.6094" y2="335.6094"/><text fill="#000000" font-family="sans-serif" font-size="14" font-weight="bold" lengthAdjust="spacing" textLength="52" x="44" y="328.5332">Domain</text><!--MD5=[788566af22260aef45bcb38e0a2dd266]
class CreateTaskUI--><rect codeLine="4" fill="#FEFECE" filter="url(#f1gv0wfz9kh94w)" height="48" id="CreateTaskUI" style="stroke:#A80036;stroke-width:1.5;" width="109" x="477.5" y="42"/><ellipse cx="492.5" cy="58" fill="#A9DCDF" rx="11" ry="11" style="stroke:#A80036;stroke-width:1.0;"/><path d="M494.25,59.5 L490.9531,59.5 L490.5156,60.5 L490.5156,60.5 L490.9844,60.5 L491.5,61.125 L491.5,61.5 L491.5,61.875 L490.9844,62.5 L490.5156,62.5 L488.625,62.5 L488.0156,62.5 L487.5,61.875 L487.5,61.5 L487.5,61.125 L488.0156,60.5 L488.625,60.5 L490.9375,54.5 L490.0625,54.5 L489.0156,54.5 L488.5,53.875 L488.5,53.5 L488.5,53.125 L489.0156,52.5 L490.0625,52.5 L493.7344,52.5 L496.4219,60.5 L496.9844,60.5 L496.9844,60.5 L497.5,61.125 L497.5,61.5 L497.5,61.875 L496.9844,62.5 L496.4219,62.5 L494.5313,62.5 L494.0156,62.5 L493.5,61.875 L493.5,61.5 L493.5,61.125 L494.0156,60.5 L494.5313,60.5 L494.5313,60.5 L494.25,59.5 Z M493.7031,57.5 L492.5,53.9219 L491.4688,57.5 L493.7031,57.5 Z " fill="#000000"/><text fill="#000000" font-family="sans-serif" font-size="12" font-style="italic" lengthAdjust="spacing" textLength="77" x="506.5" y="62.9102">CreateTaskUI</text><line style="stroke:#A80036;stroke-width:1.5;" x1="478.5" x2="585.5" y1="74" y2="74"/><line style="stroke:#A80036;stroke-width:1.5;" x1="478.5" x2="585.5" y1="82" y2="82"/><!--MD5=[51de5e7b448e98e1f71289edad994864]
class CreateTaskController--><rect codeLine="10" fill="#FEFECE" filter="url(#f1gv0wfz9kh94w)" height="61.8359" id="CreateTaskController" style="stroke:#A80036;stroke-width:1.5;" width="436" x="314" y="210"/><ellipse cx="468.75" cy="226" fill="#ADD1B2" rx="11" ry="11" style="stroke:#A80036;stroke-width:1.0;"/><path d="M470.75,222.5 Q470.9531,222 471.1875,221.75 Q471.4219,221.5 471.6875,221.5 Q472.1563,221.5 472.4531,221.7813 Q472.75,222.0625 472.75,222.7188 L472.75,224.2813 Q472.75,224.9375 472.4688,225.2188 Q472.1875,225.5 471.75,225.5 Q471.3594,225.5 471.1094,225.3281 Q470.8594,225.1563 470.75,224.7031 Q470.7031,224.3906 470.5313,224.2188 Q470.2188,223.8906 469.6563,223.7031 Q469.0938,223.5 468.5313,223.5 Q467.8281,223.5 467.2344,223.7813 Q466.6563,224.0625 466.2031,224.6875 Q465.75,225.3125 465.75,226.1719 L465.75,227.0938 Q465.75,228.125 466.5938,228.8125 Q467.4375,229.5 468.9375,229.5 Q469.8281,229.5 470.4531,229.2969 Q470.8125,229.1875 471.2188,228.8281 Q471.4844,228.625 471.625,228.5625 Q471.7656,228.5 471.9375,228.5 Q472.2656,228.5 472.5,228.7656 Q472.75,229.0156 472.75,229.375 Q472.75,229.7188 472.4063,230.125 Q471.9063,230.7188 471.1094,231.0469 Q470.0625,231.5 468.7813,231.5 Q467.2813,231.5 466.0781,230.9063 Q465.1094,230.4375 464.4219,229.4219 Q463.75,228.4063 463.75,227.2031 L463.75,226.1094 Q463.75,224.8594 464.3438,223.7656 Q464.9531,222.6719 466,222.0938 Q467.0625,221.5 468.25,221.5 Q468.9688,221.5 469.5938,221.75 Q470.2188,222 470.75,222.5 Z " fill="#000000"/><text fill="#000000" font-family="sans-serif" font-size="12" lengthAdjust="spacing" textLength="118" x="489.25" y="230.9102">CreateTaskController</text><line style="stroke:#A80036;stroke-width:1.5;" x1="315" x2="749" y1="242" y2="242"/><line style="stroke:#A80036;stroke-width:1.5;" x1="315" x2="749" y1="250" y2="250"/><ellipse cx="325" cy="261" fill="#84BE84" rx="3" ry="3" style="stroke:#038048;stroke-width:1.0;"/><text fill="#000000" font-family="sans-serif" font-size="11" lengthAdjust="spacing" textLength="410" x="334" y="265.4189">createTaskInUserStory(code, sprintID, userStoryID, name, description, type): boolean</text><!--MD5=[41fc1644ffe584d705042db0e6e760e1]
class DataManagement--><rect codeLine="17" fill="#FEFECE" filter="url(#f1gv0wfz9kh94w)" height="172.5234" id="DataManagement" style="stroke:#A80036;stroke-width:1.5;" width="227" x="140.5" y="348"/><ellipse cx="200.75" cy="364" fill="#ADD1B2" rx="11" ry="11" style="stroke:#A80036;stroke-width:1.0;"/><path d="M202.75,360.5 Q202.9531,360 203.1875,359.75 Q203.4219,359.5 203.6875,359.5 Q204.1563,359.5 204.4531,359.7813 Q204.75,360.0625 204.75,360.7188 L204.75,362.2813 Q204.75,362.9375 204.4688,363.2188 Q204.1875,363.5 203.75,363.5 Q203.3594,363.5 203.1094,363.3281 Q202.8594,363.1563 202.75,362.7031 Q202.7031,362.3906 202.5313,362.2188 Q202.2188,361.8906 201.6563,361.7031 Q201.0938,361.5 200.5313,361.5 Q199.8281,361.5 199.2344,361.7813 Q198.6563,362.0625 198.2031,362.6875 Q197.75,363.3125 197.75,364.1719 L197.75,365.0938 Q197.75,366.125 198.5938,366.8125 Q199.4375,367.5 200.9375,367.5 Q201.8281,367.5 202.4531,367.2969 Q202.8125,367.1875 203.2188,366.8281 Q203.4844,366.625 203.625,366.5625 Q203.7656,366.5 203.9375,366.5 Q204.2656,366.5 204.5,366.7656 Q204.75,367.0156 204.75,367.375 Q204.75,367.7188 204.4063,368.125 Q203.9063,368.7188 203.1094,369.0469 Q202.0625,369.5 200.7813,369.5 Q199.2813,369.5 198.0781,368.9063 Q197.1094,368.4375 196.4219,367.4219 Q195.75,366.4063 195.75,365.2031 L195.75,364.1094 Q195.75,362.8594 196.3438,361.7656 Q196.9531,360.6719 198,360.0938 Q199.0625,359.5 200.25,359.5 Q200.9688,359.5 201.5938,359.75 Q202.2188,360 202.75,360.5 Z " fill="#000000"/><text fill="#000000" font-family="sans-serif" font-size="12" lengthAdjust="spacing" textLength="98" x="221.25" y="368.9102">DataManagement</text><line style="stroke:#A80036;stroke-width:1.5;" x1="141.5" x2="366.5" y1="380" y2="380"/><rect fill="none" height="6" style="stroke:#C82930;stroke-width:1.0;" width="6" x="148.5" y="388"/><text fill="#000000" font-family="sans-serif" font-size="11" lengthAdjust="spacing" textLength="146" x="160.5" y="395.4189">TypologyStore : typologyStore</text><rect fill="none" height="6" style="stroke:#C82930;stroke-width:1.0;" width="6" x="148.5" y="401.8359"/><text fill="#000000" font-family="sans-serif" font-size="11" lengthAdjust="spacing" textLength="106" x="160.5" y="409.2549">UserStore : userStore</text><rect fill="none" height="6" style="stroke:#C82930;stroke-width:1.0;" width="6" x="148.5" y="415.6719"/><text fill="#000000" font-family="sans-serif" font-size="11" lengthAdjust="spacing" textLength="121" x="160.5" y="423.0908">ProfileStore : profileStore</text><rect fill="none" height="6" style="stroke:#C82930;stroke-width:1.0;" width="6" x="148.5" y="429.5078"/><text fill="#000000" font-family="sans-serif" font-size="11" lengthAdjust="spacing" textLength="100" x="160.5" y="436.9268">RoleStore : roleStore</text><rect fill="none" height="6" style="stroke:#C82930;stroke-width:1.0;" width="6" x="148.5" y="443.3438"/><text fill="#000000" font-family="sans-serif" font-size="11" lengthAdjust="spacing" textLength="201" x="160.5" y="450.7627">ProfileRequestStore : profileRequestStore</text><rect fill="none" height="6" style="stroke:#C82930;stroke-width:1.0;" width="6" x="148.5" y="457.1797"/><text fill="#000000" font-family="sans-serif" font-size="11" lengthAdjust="spacing" textLength="121" x="160.5" y="464.5986">ProjectStore projectStore</text><rect fill="none" height="6" style="stroke:#C82930;stroke-width:1.0;" width="6" x="148.5" y="471.0156"/><text fill="#000000" font-family="sans-serif" font-size="11" lengthAdjust="spacing" textLength="146" x="160.5" y="478.4346">ResourceStore resourceStore</text><rect fill="none" height="6" style="stroke:#C82930;stroke-width:1.0;" width="6" x="148.5" y="484.8516"/><text fill="#000000" font-family="sans-serif" font-size="11" lengthAdjust="spacing" textLength="146" x="160.5" y="492.2705">CustomerStore customerStore</text><line style="stroke:#A80036;stroke-width:1.5;" x1="141.5" x2="366.5" y1="498.6875" y2="498.6875"/><ellipse cx="151.5" cy="509.6875" fill="#84BE84" rx="3" ry="3" style="stroke:#038048;stroke-width:1.0;"/><text fill="#000000" font-family="sans-serif" font-size="11" lengthAdjust="spacing" textLength="85" x="160.5" y="514.1064">getProjectStore();</text><!--MD5=[0cf43f64de24b70e8ffe65ff9ee7abee]
class ProjectStore--><rect codeLine="30" fill="#FEFECE" filter="url(#f1gv0wfz9kh94w)" height="75.6719" id="ProjectStore" style="stroke:#A80036;stroke-width:1.5;" width="147" x="717.5" y="396.5"/><ellipse cx="754.1" cy="412.5" fill="#ADD1B2" rx="11" ry="11" style="stroke:#A80036;stroke-width:1.0;"/><path d="M756.1,409 Q756.3031,408.5 756.5375,408.25 Q756.7719,408 757.0375,408 Q757.5063,408 757.8031,408.2813 Q758.1,408.5625 758.1,409.2188 L758.1,410.7813 Q758.1,411.4375 757.8188,411.7188 Q757.5375,412 757.1,412 Q756.7094,412 756.4594,411.8281 Q756.2094,411.6563 756.1,411.2031 Q756.0531,410.8906 755.8813,410.7188 Q755.5688,410.3906 755.0063,410.2031 Q754.4438,410 753.8813,410 Q753.1781,410 752.5844,410.2813 Q752.0063,410.5625 751.5531,411.1875 Q751.1,411.8125 751.1,412.6719 L751.1,413.5938 Q751.1,414.625 751.9438,415.3125 Q752.7875,416 754.2875,416 Q755.1781,416 755.8031,415.7969 Q756.1625,415.6875 756.5688,415.3281 Q756.8344,415.125 756.975,415.0625 Q757.1156,415 757.2875,415 Q757.6156,415 757.85,415.2656 Q758.1,415.5156 758.1,415.875 Q758.1,416.2188 757.7563,416.625 Q757.2563,417.2188 756.4594,417.5469 Q755.4125,418 754.1313,418 Q752.6313,418 751.4281,417.4063 Q750.4594,416.9375 749.7719,415.9219 Q749.1,414.9063 749.1,413.7031 L749.1,412.6094 Q749.1,411.3594 749.6938,410.2656 Q750.3031,409.1719 751.35,408.5938 Q752.4125,408 753.6,408 Q754.3188,408 754.9438,408.25 Q755.5688,408.5 756.1,409 Z " fill="#000000"/><text fill="#000000" font-family="sans-serif" font-size="12" lengthAdjust="spacing" textLength="67" x="772.9" y="417.4102">ProjectStore</text><line style="stroke:#A80036;stroke-width:1.5;" x1="718.5" x2="863.5" y1="428.5" y2="428.5"/><rect fill="none" height="6" style="stroke:#C82930;stroke-width:1.0;" width="6" x="725.5" y="436.5"/><text fill="#000000" font-family="sans-serif" font-size="11" lengthAdjust="spacing" textLength="121" x="737.5" y="443.9189">projectList : List&lt;Project&gt;</text><line style="stroke:#A80036;stroke-width:1.5;" x1="718.5" x2="863.5" y1="450.3359" y2="450.3359"/><ellipse cx="728.5" cy="461.3359" fill="#84BE84" rx="3" ry="3" style="stroke:#038048;stroke-width:1.0;"/><text fill="#000000" font-family="sans-serif" font-size="11" lengthAdjust="spacing" textLength="121" x="737.5" y="465.7549">getProjectByCode(code);</text><!--MD5=[79d378210367c0c6ec62ef762ddfbd1b]
class ProjectDeprecated--><rect codeLine="35" fill="#FEFECE" filter="url(#f1gv0wfz9kh94w)" height="75.6719" id="Project" style="stroke:#A80036;stroke-width:1.5;" width="136" x="1215" y="396.5"/><ellipse cx="1259.75" cy="412.5" fill="#ADD1B2" rx="11" ry="11" style="stroke:#A80036;stroke-width:1.0;"/><path d="M1261.75,409 Q1261.9531,408.5 1262.1875,408.25 Q1262.4219,408 1262.6875,408 Q1263.1563,408 1263.4531,408.2813 Q1263.75,408.5625 1263.75,409.2188 L1263.75,410.7813 Q1263.75,411.4375 1263.4688,411.7188 Q1263.1875,412 1262.75,412 Q1262.3594,412 1262.1094,411.8281 Q1261.8594,411.6563 1261.75,411.2031 Q1261.7031,410.8906 1261.5313,410.7188 Q1261.2188,410.3906 1260.6563,410.2031 Q1260.0938,410 1259.5313,410 Q1258.8281,410 1258.2344,410.2813 Q1257.6563,410.5625 1257.2031,411.1875 Q1256.75,411.8125 1256.75,412.6719 L1256.75,413.5938 Q1256.75,414.625 1257.5938,415.3125 Q1258.4375,416 1259.9375,416 Q1260.8281,416 1261.4531,415.7969 Q1261.8125,415.6875 1262.2188,415.3281 Q1262.4844,415.125 1262.625,415.0625 Q1262.7656,415 1262.9375,415 Q1263.2656,415 1263.5,415.2656 Q1263.75,415.5156 1263.75,415.875 Q1263.75,416.2188 1263.4063,416.625 Q1262.9063,417.2188 1262.1094,417.5469 Q1261.0625,418 1259.7813,418 Q1258.2813,418 1257.0781,417.4063 Q1256.1094,416.9375 1255.4219,415.9219 Q1254.75,414.9063 1254.75,413.7031 L1254.75,412.6094 Q1254.75,411.3594 1255.3438,410.2656 Q1255.9531,409.1719 1257,408.5938 Q1258.0625,408 1259.25,408 Q1259.9688,408 1260.5938,408.25 Q1261.2188,408.5 1261.75,409 Z " fill="#000000"/><text fill="#000000" font-family="sans-serif" font-size="12" lengthAdjust="spacing" textLength="38" x="1280.25" y="417.4102">Project</text><line style="stroke:#A80036;stroke-width:1.5;" x1="1216" x2="1350" y1="428.5" y2="428.5"/><rect fill="none" height="6" style="stroke:#C82930;stroke-width:1.0;" width="6" x="1223" y="436.5"/><text fill="#000000" font-family="sans-serif" font-size="11" lengthAdjust="spacing" textLength="110" x="1235" y="443.9189">sprintList : List&lt;Sprint&gt;</text><line style="stroke:#A80036;stroke-width:1.5;" x1="1216" x2="1350" y1="450.3359" y2="450.3359"/><ellipse cx="1226" cy="461.3359" fill="#84BE84" rx="3" ry="3" style="stroke:#038048;stroke-width:1.0;"/><text fill="#000000" font-family="sans-serif" font-size="11" lengthAdjust="spacing" textLength="109" x="1235" y="465.7549">getSprintByID(sprintID)</text><!--MD5=[452a66c2e8d45f5bd209be454bbcd04f]
class Sprint--><rect codeLine="40" fill="#FEFECE" filter="url(#f1gv0wfz9kh94w)" height="103.3438" id="Sprint" style="stroke:#A80036;stroke-width:1.5;" width="163" x="1201.5" y="649"/><ellipse cx="1262.75" cy="665" fill="#ADD1B2" rx="11" ry="11" style="stroke:#A80036;stroke-width:1.0;"/><path d="M1264.75,661.5 Q1264.9531,661 1265.1875,660.75 Q1265.4219,660.5 1265.6875,660.5 Q1266.1563,660.5 1266.4531,660.7813 Q1266.75,661.0625 1266.75,661.7188 L1266.75,663.2813 Q1266.75,663.9375 1266.4688,664.2188 Q1266.1875,664.5 1265.75,664.5 Q1265.3594,664.5 1265.1094,664.3281 Q1264.8594,664.1563 1264.75,663.7031 Q1264.7031,663.3906 1264.5313,663.2188 Q1264.2188,662.8906 1263.6563,662.7031 Q1263.0938,662.5 1262.5313,662.5 Q1261.8281,662.5 1261.2344,662.7813 Q1260.6563,663.0625 1260.2031,663.6875 Q1259.75,664.3125 1259.75,665.1719 L1259.75,666.0938 Q1259.75,667.125 1260.5938,667.8125 Q1261.4375,668.5 1262.9375,668.5 Q1263.8281,668.5 1264.4531,668.2969 Q1264.8125,668.1875 1265.2188,667.8281 Q1265.4844,667.625 1265.625,667.5625 Q1265.7656,667.5 1265.9375,667.5 Q1266.2656,667.5 1266.5,667.7656 Q1266.75,668.0156 1266.75,668.375 Q1266.75,668.7188 1266.4063,669.125 Q1265.9063,669.7188 1265.1094,670.0469 Q1264.0625,670.5 1262.7813,670.5 Q1261.2813,670.5 1260.0781,669.9063 Q1259.1094,669.4375 1258.4219,668.4219 Q1257.75,667.4063 1257.75,666.2031 L1257.75,665.1094 Q1257.75,663.8594 1258.3438,662.7656 Q1258.9531,661.6719 1260,661.0938 Q1261.0625,660.5 1262.25,660.5 Q1262.9688,660.5 1263.5938,660.75 Q1264.2188,661 1264.75,661.5 Z " fill="#000000"/><text fill="#000000" font-family="sans-serif" font-size="12" lengthAdjust="spacing" textLength="32" x="1283.25" y="669.9102">Sprint</text><line style="stroke:#A80036;stroke-width:1.5;" x1="1202.5" x2="1363.5" y1="681" y2="681"/><rect fill="none" height="6" style="stroke:#C82930;stroke-width:1.0;" width="6" x="1209.5" y="689"/><text fill="#000000" font-family="sans-serif" font-size="11" lengthAdjust="spacing" textLength="137" x="1221.5" y="696.4189">sprintBacklog: SprintBacklog</text><line style="stroke:#A80036;stroke-width:1.5;" x1="1202.5" x2="1363.5" y1="702.8359" y2="702.8359"/><ellipse cx="1212.5" cy="713.8359" fill="#84BE84" rx="3" ry="3" style="stroke:#038048;stroke-width:1.0;"/><text fill="#000000" font-family="sans-serif" font-size="11" lengthAdjust="spacing" textLength="89" x="1221.5" y="718.2549">getSprintBacklog()</text><ellipse cx="1212.5" cy="727.6719" fill="#84BE84" rx="3" ry="3" style="stroke:#038048;stroke-width:1.0;"/><text fill="#000000" font-family="sans-serif" font-size="11" lengthAdjust="spacing" textLength="127" x="1221.5" y="732.0908">validateSprintHasStarted()</text><ellipse cx="1212.5" cy="741.5078" fill="#84BE84" rx="3" ry="3" style="stroke:#038048;stroke-width:1.0;"/><text fill="#000000" font-family="sans-serif" font-size="11" lengthAdjust="spacing" textLength="119" x="1221.5" y="745.9268">createTaskInUserStory()</text><!--MD5=[a136f49e3565b20f66540890d0159f10]
class SprintBacklog--><rect codeLine="47" fill="#FEFECE" filter="url(#f1gv0wfz9kh94w)" height="75.6719" id="SprintBacklog" style="stroke:#A80036;stroke-width:1.5;" width="175" x="676.5" y="662.5"/><ellipse cx="721.75" cy="678.5" fill="#ADD1B2" rx="11" ry="11" style="stroke:#A80036;stroke-width:1.0;"/><path d="M723.75,675 Q723.9531,674.5 724.1875,674.25 Q724.4219,674 724.6875,674 Q725.1563,674 725.4531,674.2813 Q725.75,674.5625 725.75,675.2188 L725.75,676.7813 Q725.75,677.4375 725.4688,677.7188 Q725.1875,678 724.75,678 Q724.3594,678 724.1094,677.8281 Q723.8594,677.6563 723.75,677.2031 Q723.7031,676.8906 723.5313,676.7188 Q723.2188,676.3906 722.6563,676.2031 Q722.0938,676 721.5313,676 Q720.8281,676 720.2344,676.2813 Q719.6563,676.5625 719.2031,677.1875 Q718.75,677.8125 718.75,678.6719 L718.75,679.5938 Q718.75,680.625 719.5938,681.3125 Q720.4375,682 721.9375,682 Q722.8281,682 723.4531,681.7969 Q723.8125,681.6875 724.2188,681.3281 Q724.4844,681.125 724.625,681.0625 Q724.7656,681 724.9375,681 Q725.2656,681 725.5,681.2656 Q725.75,681.5156 725.75,681.875 Q725.75,682.2188 725.4063,682.625 Q724.9063,683.2188 724.1094,683.5469 Q723.0625,684 721.7813,684 Q720.2813,684 719.0781,683.4063 Q718.1094,682.9375 717.4219,681.9219 Q716.75,680.9063 716.75,679.7031 L716.75,678.6094 Q716.75,677.3594 717.3438,676.2656 Q717.9531,675.1719 719,674.5938 Q720.0625,674 721.25,674 Q721.9688,674 722.5938,674.25 Q723.2188,674.5 723.75,675 Z " fill="#000000"/><text fill="#000000" font-family="sans-serif" font-size="12" lengthAdjust="spacing" textLength="76" x="742.25" y="683.4102">SprintBacklog</text><line style="stroke:#A80036;stroke-width:1.5;" x1="677.5" x2="850.5" y1="694.5" y2="694.5"/><rect fill="none" height="6" style="stroke:#C82930;stroke-width:1.0;" width="6" x="684.5" y="702.5"/><text fill="#000000" font-family="sans-serif" font-size="11" lengthAdjust="spacing" textLength="149" x="696.5" y="709.9189">userStoryList: List&lt;UserStory&gt;</text><line style="stroke:#A80036;stroke-width:1.5;" x1="677.5" x2="850.5" y1="716.3359" y2="716.3359"/><text fill="#000000" font-family="sans-serif" font-size="11" lengthAdjust="spacing" textLength="151" x="682.5" y="731.7549">getUserStoryByID(userStoryID)</text><!--MD5=[daa6dd44d8f60c5a9cd695bb66773862]
class UserStory--><rect codeLine="52" fill="#FEFECE" filter="url(#f1gv0wfz9kh94w)" height="117.1797" id="UserStory" style="stroke:#A80036;stroke-width:1.5;" width="270" x="56" y="642"/><ellipse cx="159.75" cy="658" fill="#ADD1B2" rx="11" ry="11" style="stroke:#A80036;stroke-width:1.0;"/><path d="M161.75,654.5 Q161.9531,654 162.1875,653.75 Q162.4219,653.5 162.6875,653.5 Q163.1563,653.5 163.4531,653.7813 Q163.75,654.0625 163.75,654.7188 L163.75,656.2813 Q163.75,656.9375 163.4688,657.2188 Q163.1875,657.5 162.75,657.5 Q162.3594,657.5 162.1094,657.3281 Q161.8594,657.1563 161.75,656.7031 Q161.7031,656.3906 161.5313,656.2188 Q161.2188,655.8906 160.6563,655.7031 Q160.0938,655.5 159.5313,655.5 Q158.8281,655.5 158.2344,655.7813 Q157.6563,656.0625 157.2031,656.6875 Q156.75,657.3125 156.75,658.1719 L156.75,659.0938 Q156.75,660.125 157.5938,660.8125 Q158.4375,661.5 159.9375,661.5 Q160.8281,661.5 161.4531,661.2969 Q161.8125,661.1875 162.2188,660.8281 Q162.4844,660.625 162.625,660.5625 Q162.7656,660.5 162.9375,660.5 Q163.2656,660.5 163.5,660.7656 Q163.75,661.0156 163.75,661.375 Q163.75,661.7188 163.4063,662.125 Q162.9063,662.7188 162.1094,663.0469 Q161.0625,663.5 159.7813,663.5 Q158.2813,663.5 157.0781,662.9063 Q156.1094,662.4375 155.4219,661.4219 Q154.75,660.4063 154.75,659.2031 L154.75,658.1094 Q154.75,656.8594 155.3438,655.7656 Q155.9531,654.6719 157,654.0938 Q158.0625,653.5 159.25,653.5 Q159.9688,653.5 160.5938,653.75 Q161.2188,654 161.75,654.5 Z " fill="#000000"/><text fill="#000000" font-family="sans-serif" font-size="12" lengthAdjust="spacing" textLength="54" x="180.25" y="662.9102">UserStory</text><line style="stroke:#A80036;stroke-width:1.5;" x1="57" x2="325" y1="674" y2="674"/><rect fill="none" height="6" style="stroke:#C82930;stroke-width:1.0;" width="6" x="64" y="682"/><text fill="#000000" font-family="sans-serif" font-size="11" lengthAdjust="spacing" textLength="90" x="76" y="689.4189">description : String</text><rect fill="none" height="6" style="stroke:#C82930;stroke-width:1.0;" width="6" x="64" y="695.8359"/><text fill="#000000" font-family="sans-serif" font-size="11" lengthAdjust="spacing" textLength="77" x="76" y="703.2549">userStoryID : int</text><rect fill="none" height="6" style="stroke:#C82930;stroke-width:1.0;" width="6" x="64" y="709.6719"/><text fill="#000000" font-family="sans-serif" font-size="11" lengthAdjust="spacing" textLength="98" x="76" y="717.0908">taskList : List&lt;Task&gt;</text><line style="stroke:#A80036;stroke-width:1.5;" x1="57" x2="325" y1="723.5078" y2="723.5078"/><ellipse cx="67" cy="734.5078" fill="#84BE84" rx="3" ry="3" style="stroke:#038048;stroke-width:1.0;"/><text fill="#000000" font-family="sans-serif" font-size="11" lengthAdjust="spacing" textLength="244" x="76" y="738.9268">create(String name, String description, String type)</text><ellipse cx="67" cy="748.3438" fill="#84BE84" rx="3" ry="3" style="stroke:#038048;stroke-width:1.0;"/><text fill="#000000" font-family="sans-serif" font-size="11" lengthAdjust="spacing" textLength="170" x="76" y="752.7627">addTaskToUserStoryTaskList(task)</text><!--MD5=[b34797a66dc35cbf1d65f7e3ca75530e]
class Task--><rect codeLine="60" fill="#FEFECE" filter="url(#f1gv0wfz9kh94w)" height="117.1797" id="Task" style="stroke:#A80036;stroke-width:1.5;" width="137" x="668.5" y="819"/><ellipse cx="719.25" cy="835" fill="#ADD1B2" rx="11" ry="11" style="stroke:#A80036;stroke-width:1.0;"/><path d="M721.25,831.5 Q721.4531,831 721.6875,830.75 Q721.9219,830.5 722.1875,830.5 Q722.6563,830.5 722.9531,830.7813 Q723.25,831.0625 723.25,831.7188 L723.25,833.2813 Q723.25,833.9375 722.9688,834.2188 Q722.6875,834.5 722.25,834.5 Q721.8594,834.5 721.6094,834.3281 Q721.3594,834.1563 721.25,833.7031 Q721.2031,833.3906 721.0313,833.2188 Q720.7188,832.8906 720.1563,832.7031 Q719.5938,832.5 719.0313,832.5 Q718.3281,832.5 717.7344,832.7813 Q717.1563,833.0625 716.7031,833.6875 Q716.25,834.3125 716.25,835.1719 L716.25,836.0938 Q716.25,837.125 717.0938,837.8125 Q717.9375,838.5 719.4375,838.5 Q720.3281,838.5 720.9531,838.2969 Q721.3125,838.1875 721.7188,837.8281 Q721.9844,837.625 722.125,837.5625 Q722.2656,837.5 722.4375,837.5 Q722.7656,837.5 723,837.7656 Q723.25,838.0156 723.25,838.375 Q723.25,838.7188 722.9063,839.125 Q722.4063,839.7188 721.6094,840.0469 Q720.5625,840.5 719.2813,840.5 Q717.7813,840.5 716.5781,839.9063 Q715.6094,839.4375 714.9219,838.4219 Q714.25,837.4063 714.25,836.2031 L714.25,835.1094 Q714.25,833.8594 714.8438,832.7656 Q715.4531,831.6719 716.5,831.0938 Q717.5625,830.5 718.75,830.5 Q719.4688,830.5 720.0938,830.75 Q720.7188,831 721.25,831.5 Z " fill="#000000"/><text fill="#000000" font-family="sans-serif" font-size="12" lengthAdjust="spacing" textLength="27" x="739.75" y="839.9102">Task</text><line style="stroke:#A80036;stroke-width:1.5;" x1="669.5" x2="804.5" y1="851" y2="851"/><rect fill="none" height="6" style="stroke:#C82930;stroke-width:1.0;" width="6" x="676.5" y="859"/><text fill="#000000" font-family="sans-serif" font-size="11" lengthAdjust="spacing" textLength="84" x="688.5" y="866.4189">taskName : String</text><rect fill="none" height="6" style="stroke:#C82930;stroke-width:1.0;" width="6" x="676.5" y="872.8359"/><text fill="#000000" font-family="sans-serif" font-size="11" lengthAdjust="spacing" textLength="111" x="688.5" y="880.2549">taskDescription : String</text><rect fill="none" height="6" style="stroke:#C82930;stroke-width:1.0;" width="6" x="676.5" y="886.6719"/><text fill="#000000" font-family="sans-serif" font-size="11" lengthAdjust="spacing" textLength="88" x="688.5" y="894.0908">taskStatus : String</text><rect fill="none" height="6" style="stroke:#C82930;stroke-width:1.0;" width="6" x="676.5" y="900.5078"/><text fill="#000000" font-family="sans-serif" font-size="11" lengthAdjust="spacing" textLength="78" x="688.5" y="907.9268">taskType: String</text><line style="stroke:#A80036;stroke-width:1.5;" x1="669.5" x2="804.5" y1="914.3438" y2="914.3438"/><ellipse cx="679.5" cy="925.3438" fill="#84BE84" rx="3" ry="3" style="stroke:#038048;stroke-width:1.0;"/><text fill="#000000" font-family="sans-serif" font-size="11" lengthAdjust="spacing" textLength="96" x="688.5" y="929.7627">validateTaskDates()</text><!--MD5=[3c2021faa4730756a46abeb810188647]
link CreateTaskUI to CreateTaskController--><path codeLine="14" d="M532,90.33 C532,115.68 532,156.93 532,189.72 " fill="none" id="CreateTaskUI-to-CreateTaskController" style="stroke:#A80036;stroke-width:1.0;stroke-dasharray:7.0,7.0;"/><polygon fill="none" points="539,189.78,532,209.78,525,189.78,539,189.78" style="stroke:#A80036;stroke-width:1.0;"/><!--MD5=[7686c327351b810d9cf543b0cfbe8ad5]
link CreateTaskController to DataManagement--><path codeLine="70" d="M488.26,272.13 C460.02,291.58 421.68,318 384.19,343.82 " fill="none" id="CreateTaskController-to-DataManagement" style="stroke:#A80036;stroke-width:1.0;stroke-dasharray:7.0,7.0;"/><polygon fill="none" points="388.08,349.64,367.64,355.22,380.14,338.11,388.08,349.64" style="stroke:#A80036;stroke-width:1.0;"/><text fill="#000000" font-family="sans-serif" font-size="13" lengthAdjust="spacing" textLength="100" x="375.5663" y="332.1286">dataManagement</text><text fill="#000000" font-family="sans-serif" font-size="13" lengthAdjust="spacing" textLength="0" x="427.5663" y="348.4801"/><!--MD5=[f06df12547b56544bf85641bf20fb332]
link CreateTaskController to ProjectStore--><path codeLine="71" d="M572.75,272.13 C613.4,302.19 676.54,348.87 724.46,384.3 " fill="none" id="CreateTaskController-to-ProjectStore" style="stroke:#A80036;stroke-width:1.0;stroke-dasharray:7.0,7.0;"/><polygon fill="none" points="728.8,378.8,740.72,396.32,720.47,390.06,728.8,378.8" style="stroke:#A80036;stroke-width:1.0;"/><text fill="#000000" font-family="sans-serif" font-size="13" lengthAdjust="spacing" textLength="70" x="657.1285" y="369.2624">projectStore</text><text fill="#000000" font-family="sans-serif" font-size="13" lengthAdjust="spacing" textLength="0" x="661.1285" y="385.6139"/><!--MD5=[e49256ec62a64c0e2589668b84841744]
link DataManagement to ProjectStore--><path codeLine="72" d="M367.54,434.5 C484.15,434.5 600.77,434.5 717.39,434.5 " fill="none" id="DataManagement-ProjectStore" style="stroke:#A80036;stroke-width:1.0;"/><text fill="#000000" font-family="sans-serif" font-size="13" lengthAdjust="spacing" textLength="7" x="375.4036" y="431.4854">1</text><text fill="#000000" font-family="sans-serif" font-size="13" lengthAdjust="spacing" textLength="7" x="702.438" y="431.2052">1</text><!--MD5=[c2999c5e21c0a7115ef87c36c02875b6]
reverse link ProjectStore to ProjectDeprecated--><path codeLine="73" d="M877.85,434.5 C990.15,434.5 1102.45,434.5 1214.75,434.5 " fill="none" id="ProjectStore-backto-Project" style="stroke:#A80036;stroke-width:1.0;"/><polygon fill="#A80036" points="864.51,434.5,870.51,438.5,876.51,434.5,870.51,430.5,864.51,434.5" style="stroke:#A80036;stroke-width:1.0;"/><text fill="#000000" font-family="sans-serif" font-size="13" lengthAdjust="spacing" textLength="7" x="872.4844" y="431.2411">1</text><text fill="#000000" font-family="sans-serif" font-size="13" lengthAdjust="spacing" textLength="20" x="1187.0473" y="431.2411">0..*</text><!--MD5=[c1411256f47ae1ed9a3bb6846f611a01]
reverse link ProjectDeprecated to Sprint--><path codeLine="74" d="M1283,485.92 C1283,532.71 1283,602.01 1283,648.87 " fill="none" id="Project-backto-Sprint" style="stroke:#A80036;stroke-width:1.0;"/><polygon fill="#A80036" points="1283,472.76,1279,478.76,1283,484.76,1287,478.76,1283,472.76" style="stroke:#A80036;stroke-width:1.0;"/><text fill="#000000" font-family="sans-serif" font-size="13" lengthAdjust="spacing" textLength="7" x="1266.8047" y="493.682">1</text><text fill="#000000" font-family="sans-serif" font-size="13" lengthAdjust="spacing" textLength="20" x="1261.5938" y="637.9802">0..*</text><!--MD5=[c8be80e6573c8d0564de23a72b87c9c3]
link SprintBacklog to Sprint--><path codeLine="75" d="M851.68,700.5 C968.22,700.5 1084.75,700.5 1201.29,700.5 " fill="none" id="SprintBacklog-Sprint" style="stroke:#A80036;stroke-width:1.0;"/><text fill="#000000" font-family="sans-serif" font-size="13" lengthAdjust="spacing" textLength="7" x="859.5158" y="697.3368">1</text><text fill="#000000" font-family="sans-serif" font-size="13" lengthAdjust="spacing" textLength="7" x="1186.4347" y="697.258">1</text><!--MD5=[f2cc10ddb74e57fb7526487bc204486b]
link UserStory to SprintBacklog--><path codeLine="76" d="M326.14,700.5 C438.43,700.5 550.71,700.5 663,700.5 " fill="none" id="UserStory-to-SprintBacklog" style="stroke:#A80036;stroke-width:1.0;"/><polygon fill="#A80036" points="676.34,700.5,670.34,696.5,664.34,700.5,670.34,704.5,676.34,700.5" style="stroke:#A80036;stroke-width:1.0;"/><text fill="#000000" font-family="sans-serif" font-size="13" lengthAdjust="spacing" textLength="20" x="334.0773" y="697.5623">0..*</text><text fill="#000000" font-family="sans-serif" font-size="13" lengthAdjust="spacing" textLength="7" x="653.4596" y="697.3608">1</text><!--MD5=[6112db112bf4b73af3d456eccd85a87b]
reverse link UserStory to Task--><path codeLine="77" d="M338.9,748.9 C446.14,783.28 586.26,828.18 668.46,854.53 " fill="none" id="UserStory-backto-Task" style="stroke:#A80036;stroke-width:1.0;"/><polygon fill="#A80036" points="326.32,744.87,330.8102,750.5125,337.7457,748.5378,333.2555,742.8953,326.32,744.87" style="stroke:#A80036;stroke-width:1.0;"/><text fill="#000000" font-family="sans-serif" font-size="13" lengthAdjust="spacing" textLength="7" x="334.0211" y="744.3588">1</text><text fill="#000000" font-family="sans-serif" font-size="13" lengthAdjust="spacing" textLength="20" x="640.3606" y="848.8402">0..*</text><!--MD5=[49ce8b5086de51f2983c0d635ef2b5cc]
reverse link Sprint to Task--><path codeLine="78" d="M1188.63,731.75 C1079.59,766.7 902.76,823.37 805.88,854.42 " fill="none" id="Sprint-backto-Task" style="stroke:#A80036;stroke-width:1.0;"/><polygon fill="#A80036" points="1201.26,727.7,1194.3252,725.723,1189.8331,731.364,1196.7679,733.341,1201.26,727.7" style="stroke:#A80036;stroke-width:1.0;"/><text fill="#000000" font-family="sans-serif" font-size="13" lengthAdjust="spacing" textLength="7" x="1182.4902" y="726.9055">1</text><text fill="#000000" font-family="sans-serif" font-size="13" lengthAdjust="spacing" textLength="20" x="813.3983" y="848.961">0..*</text><!--MD5=[7d47fb3f0e3f2140cb12bb6dbaa29cba]
@startuml
'https://plantuml.com/class-diagram

package UI{
abstract class CreateTaskUI
}

package "Core"{
    package "Controllers" {

        class CreateTaskController {
        +createTaskInUserStory(code, sprintID, userStoryID, name, projectDescription, type): boolean
        }
        }
        CreateTaskUI ..|>  CreateTaskController

        package "Domain"{
        class DataManagement{
        -TypologyStore : typologyStore
        -UserStore : userStore
        -ProfileStore : profileStore
        -RoleStore : roleStore
        -ProfileRequestStore : profileRequestStore
        -ProjectStore projectStore
        -ResourceStore resourceStore
        -CustomerStore customerStore

        +getProjectStore();
        }

        class ProjectStore{
        -projectList : List<ProjectDeprecated>
        +getProjectByCode(code);
        }

        class ProjectDeprecated{
        -sprintList : List<Sprint>
        +getSprintByID(sprintID)
        }

        class Sprint{
        -sprintBacklog: SprintBacklog
        +getSprintBacklog()
        +validateSprintHasStarted()
        +createTaskInUserStory()
        }

        class SprintBacklog{
        -userStoryList: List<UserStory>
        getUserStoryByID(userStoryID)
        }

        class UserStory{
        -projectDescription : String
        -userStoryID : int
        -taskList : List<Task>
        +create(String name, String projectDescription, String type)
        +addTaskToUserStoryTaskList(task)
        }

        class Task{
        -taskName : String
        -taskDescription : String
        -taskStatus : String
        -taskType: String
        +validateTaskDates()
        }



        CreateTaskController ..|> "dataManagement\n" DataManagement
        CreateTaskController ..|> "projectStore\l" ProjectStore
        DataManagement "1" - "1" ProjectStore
        ProjectStore "1  " *-right- - "0..*" ProjectDeprecated
        ProjectDeprecated "1  " *- - - "0..*" Sprint
        Sprint "1" - -left- "1" SprintBacklog
        SprintBacklog "1  " *-left- "0..*" UserStory
        UserStory "1 " *- - "0..*" Task
        Sprint "1 " *- - "0..*" Task


skinparam nodesep 350

}
}
@enduml

@startuml

package UI{
abstract class CreateTaskUI
}

package "Core"{
    package "Controllers" {

        class CreateTaskController {
        +createTaskInUserStory(code, sprintID, userStoryID, name, projectDescription, type): boolean
        }
        }
        CreateTaskUI ..|>  CreateTaskController

        package "Domain"{
        class DataManagement{
        -TypologyStore : typologyStore
        -UserStore : userStore
        -ProfileStore : profileStore
        -RoleStore : roleStore
        -ProfileRequestStore : profileRequestStore
        -ProjectStore projectStore
        -ResourceStore resourceStore
        -CustomerStore customerStore

        +getProjectStore();
        }

        class ProjectStore{
        -projectList : List<ProjectDeprecated>
        +getProjectByCode(code);
        }

        class ProjectDeprecated{
        -sprintList : List<Sprint>
        +getSprintByID(sprintID)
        }

        class Sprint{
        -sprintBacklog: SprintBacklog
        +getSprintBacklog()
        +validateSprintHasStarted()
        +createTaskInUserStory()
        }

        class SprintBacklog{
        -userStoryList: List<UserStory>
        getUserStoryByID(userStoryID)
        }

        class UserStory{
        -projectDescription : String
        -userStoryID : int
        -taskList : List<Task>
        +create(String name, String projectDescription, String type)
        +addTaskToUserStoryTaskList(task)
        }

        class Task{
        -taskName : String
        -taskDescription : String
        -taskStatus : String
        -taskType: String
        +validateTaskDates()
        }



        CreateTaskController ..|> "dataManagement\n" DataManagement
        CreateTaskController ..|> "projectStore\l" ProjectStore
        DataManagement "1" - "1" ProjectStore
        ProjectStore "1  " *-right- - "0..*" ProjectDeprecated
        ProjectDeprecated "1  " *- - - "0..*" Sprint
        Sprint "1" - -left- "1" SprintBacklog
        SprintBacklog "1  " *-left- "0..*" UserStory
        UserStory "1 " *- - "0..*" Task
        Sprint "1 " *- - "0..*" Task


skinparam nodesep 350

}
}
@enduml

PlantUML version 1.2021.16(Wed Dec 08 17:25:22 GMT 2021)
(GPL source distribution)
Java Runtime: OpenJDK Runtime Environment
JVM: OpenJDK 64-Bit Server VM
Default Encoding: Cp1252
Language: en
Country: GB
--></g></svg>